G04 #@! TF.GenerationSoftware,KiCad,Pcbnew,9.0.0*
G04 #@! TF.CreationDate,2025-03-06T11:49:08+09:00*
G04 #@! TF.ProjectId,ufb_hat,7566625f-6861-4742-9e6b-696361645f70,rev?*
G04 #@! TF.SameCoordinates,PX2fd7508PY6486dd0*
G04 #@! TF.FileFunction,Copper,L1,Top*
G04 #@! TF.FilePolarity,Positive*
%FSLAX46Y46*%
G04 Gerber Fmt 4.6, Leading zero omitted, Abs format (unit mm)*
G04 Created by KiCad (PCBNEW 9.0.0) date 2025-03-06 11:49:08*
%MOMM*%
%LPD*%
G01*
G04 APERTURE LIST*
G04 Aperture macros list*
%AMRoundRect*
0 Rectangle with rounded corners*
0 $1 Rounding radius*
0 $2 $3 $4 $5 $6 $7 $8 $9 X,Y pos of 4 corners*
0 Add a 4 corners polygon primitive as box body*
4,1,4,$2,$3,$4,$5,$6,$7,$8,$9,$2,$3,0*
0 Add four circle primitives for the rounded corners*
1,1,$1+$1,$2,$3*
1,1,$1+$1,$4,$5*
1,1,$1+$1,$6,$7*
1,1,$1+$1,$8,$9*
0 Add four rect primitives between the rounded corners*
20,1,$1+$1,$2,$3,$4,$5,0*
20,1,$1+$1,$4,$5,$6,$7,0*
20,1,$1+$1,$6,$7,$8,$9,0*
20,1,$1+$1,$8,$9,$2,$3,0*%
G04 Aperture macros list end*
G04 #@! TA.AperFunction,SMDPad,CuDef*
%ADD10RoundRect,0.237500X0.237500X-0.287500X0.237500X0.287500X-0.237500X0.287500X-0.237500X-0.287500X0*%
G04 #@! TD*
G04 #@! TA.AperFunction,ComponentPad*
%ADD11R,1.700000X1.700000*%
G04 #@! TD*
G04 #@! TA.AperFunction,ComponentPad*
%ADD12O,1.700000X1.700000*%
G04 #@! TD*
G04 #@! TA.AperFunction,SMDPad,CuDef*
%ADD13RoundRect,0.237500X0.237500X-0.250000X0.237500X0.250000X-0.237500X0.250000X-0.237500X-0.250000X0*%
G04 #@! TD*
G04 #@! TA.AperFunction,SMDPad,CuDef*
%ADD14RoundRect,0.137500X-0.137500X0.662500X-0.137500X-0.662500X0.137500X-0.662500X0.137500X0.662500X0*%
G04 #@! TD*
G04 #@! TA.AperFunction,SMDPad,CuDef*
%ADD15RoundRect,0.137500X0.137500X-0.662500X0.137500X0.662500X-0.137500X0.662500X-0.137500X-0.662500X0*%
G04 #@! TD*
G04 #@! TA.AperFunction,ViaPad*
%ADD16C,0.600000*%
G04 #@! TD*
G04 #@! TA.AperFunction,Conductor*
%ADD17C,0.300000*%
G04 #@! TD*
G04 #@! TA.AperFunction,Conductor*
%ADD18C,0.500000*%
G04 #@! TD*
G04 APERTURE END LIST*
D10*
G04 #@! TO.P,D2,1,K*
G04 #@! TO.N,Net-(D2-K)*
X8890000Y30875000D03*
G04 #@! TO.P,D2,2,A*
G04 #@! TO.N,Net-(D2-A)*
X8890000Y32625000D03*
G04 #@! TD*
D11*
G04 #@! TO.P,J3,1,Pin_1*
G04 #@! TO.N,Net-(J3-Pin_1)*
X2540000Y53975000D03*
D12*
G04 #@! TO.P,J3,2,Pin_2*
G04 #@! TO.N,/GND2*
X2540000Y51435000D03*
G04 #@! TD*
D13*
G04 #@! TO.P,R10,1*
G04 #@! TO.N,Net-(D10-A)*
X39370000Y38457500D03*
G04 #@! TO.P,R10,2*
G04 #@! TO.N,/GPIO9*
X39370000Y40282500D03*
G04 #@! TD*
D10*
G04 #@! TO.P,D13,1,K*
G04 #@! TO.N,Net-(D13-K)*
X52070000Y30875000D03*
G04 #@! TO.P,D13,2,A*
G04 #@! TO.N,Net-(D13-A)*
X52070000Y32625000D03*
G04 #@! TD*
G04 #@! TO.P,D12,1,K*
G04 #@! TO.N,Net-(D12-K)*
X44450000Y30875000D03*
G04 #@! TO.P,D12,2,A*
G04 #@! TO.N,Net-(D12-A)*
X44450000Y32625000D03*
G04 #@! TD*
D13*
G04 #@! TO.P,R12,1*
G04 #@! TO.N,Net-(D12-A)*
X44450000Y38457500D03*
G04 #@! TO.P,R12,2*
G04 #@! TO.N,/GPIO11*
X44450000Y40282500D03*
G04 #@! TD*
D10*
G04 #@! TO.P,D5,1,K*
G04 #@! TO.N,Net-(D5-K)*
X21590000Y30875000D03*
G04 #@! TO.P,D5,2,A*
G04 #@! TO.N,Net-(D5-A)*
X21590000Y32625000D03*
G04 #@! TD*
D13*
G04 #@! TO.P,R4,1*
G04 #@! TO.N,Net-(D4-A)*
X13970000Y38457500D03*
G04 #@! TO.P,R4,2*
G04 #@! TO.N,/GPIO18*
X13970000Y40282500D03*
G04 #@! TD*
D10*
G04 #@! TO.P,D10,1,K*
G04 #@! TO.N,Net-(D10-K)*
X39370000Y30875000D03*
G04 #@! TO.P,D10,2,A*
G04 #@! TO.N,Net-(D10-A)*
X39370000Y32625000D03*
G04 #@! TD*
G04 #@! TO.P,D9,1,K*
G04 #@! TO.N,Net-(D9-K)*
X36830000Y30875000D03*
G04 #@! TO.P,D9,2,A*
G04 #@! TO.N,Net-(D9-A)*
X36830000Y32625000D03*
G04 #@! TD*
D13*
G04 #@! TO.P,R5,1*
G04 #@! TO.N,Net-(D5-A)*
X21590000Y38457500D03*
G04 #@! TO.P,R5,2*
G04 #@! TO.N,/GPIO27*
X21590000Y40282500D03*
G04 #@! TD*
G04 #@! TO.P,R9,1*
G04 #@! TO.N,Net-(D9-A)*
X36830000Y38457500D03*
G04 #@! TO.P,R9,2*
G04 #@! TO.N,/GPIO10*
X36830000Y40282500D03*
G04 #@! TD*
D14*
G04 #@! TO.P,U3,1*
G04 #@! TO.N,Net-(D12-K)*
X44450000Y24840000D03*
G04 #@! TO.P,U3,2*
G04 #@! TO.N,/GND2*
X43180000Y24840000D03*
G04 #@! TO.P,U3,3*
G04 #@! TO.N,Net-(D11-K)*
X41910000Y24840000D03*
G04 #@! TO.P,U3,4*
G04 #@! TO.N,/GND2*
X40640000Y24840000D03*
G04 #@! TO.P,U3,5*
G04 #@! TO.N,Net-(D10-K)*
X39370000Y24840000D03*
G04 #@! TO.P,U3,6*
G04 #@! TO.N,/GND2*
X38100000Y24840000D03*
G04 #@! TO.P,U3,7*
G04 #@! TO.N,Net-(D9-K)*
X36830000Y24840000D03*
G04 #@! TO.P,U3,8*
G04 #@! TO.N,/GND2*
X35560000Y24840000D03*
G04 #@! TO.P,U3,9*
G04 #@! TO.N,/GND1*
X35560000Y18340000D03*
G04 #@! TO.P,U3,10*
G04 #@! TO.N,/P1*
X36830000Y18340000D03*
G04 #@! TO.P,U3,11*
G04 #@! TO.N,/GND1*
X38100000Y18340000D03*
G04 #@! TO.P,U3,12*
G04 #@! TO.N,/P2*
X39370000Y18340000D03*
G04 #@! TO.P,U3,13*
G04 #@! TO.N,/GND1*
X40640000Y18340000D03*
G04 #@! TO.P,U3,14*
G04 #@! TO.N,/P3*
X41910000Y18340000D03*
G04 #@! TO.P,U3,15*
G04 #@! TO.N,/GND1*
X43180000Y18340000D03*
G04 #@! TO.P,U3,16*
G04 #@! TO.N,/P4*
X44450000Y18340000D03*
G04 #@! TD*
G04 #@! TO.P,U2,1*
G04 #@! TO.N,Net-(D8-K)*
X29210000Y24840000D03*
G04 #@! TO.P,U2,2*
G04 #@! TO.N,/GND2*
X27940000Y24840000D03*
G04 #@! TO.P,U2,3*
G04 #@! TO.N,Net-(D7-K)*
X26670000Y24840000D03*
G04 #@! TO.P,U2,4*
G04 #@! TO.N,/GND2*
X25400000Y24840000D03*
G04 #@! TO.P,U2,5*
G04 #@! TO.N,Net-(D6-K)*
X24130000Y24840000D03*
G04 #@! TO.P,U2,6*
G04 #@! TO.N,/GND2*
X22860000Y24840000D03*
G04 #@! TO.P,U2,7*
G04 #@! TO.N,Net-(D5-K)*
X21590000Y24840000D03*
G04 #@! TO.P,U2,8*
G04 #@! TO.N,/GND2*
X20320000Y24840000D03*
G04 #@! TO.P,U2,9*
G04 #@! TO.N,/GND1*
X20320000Y18340000D03*
G04 #@! TO.P,U2,10*
G04 #@! TO.N,/SHARE*
X21590000Y18340000D03*
G04 #@! TO.P,U2,11*
G04 #@! TO.N,/GND1*
X22860000Y18340000D03*
G04 #@! TO.P,U2,12*
G04 #@! TO.N,/PS*
X24130000Y18340000D03*
G04 #@! TO.P,U2,13*
G04 #@! TO.N,/GND1*
X25400000Y18340000D03*
G04 #@! TO.P,U2,14*
G04 #@! TO.N,/OPT*
X26670000Y18340000D03*
G04 #@! TO.P,U2,15*
G04 #@! TO.N,/GND1*
X27940000Y18340000D03*
G04 #@! TO.P,U2,16*
G04 #@! TO.N,unconnected-(U2-Pad16)*
X29210000Y18340000D03*
G04 #@! TD*
D13*
G04 #@! TO.P,R7,1*
G04 #@! TO.N,Net-(D7-A)*
X26670000Y38457500D03*
G04 #@! TO.P,R7,2*
G04 #@! TO.N,/GPIO23*
X26670000Y40282500D03*
G04 #@! TD*
D10*
G04 #@! TO.P,D16,1,K*
G04 #@! TO.N,Net-(D16-K)*
X59690000Y30875000D03*
G04 #@! TO.P,D16,2,A*
G04 #@! TO.N,Net-(D16-A)*
X59690000Y32625000D03*
G04 #@! TD*
D13*
G04 #@! TO.P,R17,1*
G04 #@! TO.N,/VCC*
X66040000Y9247500D03*
G04 #@! TO.P,R17,2*
G04 #@! TO.N,Net-(R17-Pad2)*
X66040000Y11072500D03*
G04 #@! TD*
D10*
G04 #@! TO.P,D4,1,K*
G04 #@! TO.N,Net-(D4-K)*
X13970000Y30875000D03*
G04 #@! TO.P,D4,2,A*
G04 #@! TO.N,Net-(D4-A)*
X13970000Y32625000D03*
G04 #@! TD*
D11*
G04 #@! TO.P,J2,1,Pin_1*
G04 #@! TO.N,/UP*
X8255000Y2540000D03*
D12*
G04 #@! TO.P,J2,2,Pin_2*
G04 #@! TO.N,/DOWN*
X8255000Y5080000D03*
G04 #@! TO.P,J2,3,Pin_3*
G04 #@! TO.N,/RIGHT*
X10795000Y2540000D03*
G04 #@! TO.P,J2,4,Pin_4*
G04 #@! TO.N,/LEFT*
X10795000Y5080000D03*
G04 #@! TO.P,J2,5,Pin_5*
G04 #@! TO.N,/SHARE*
X13335000Y2540000D03*
G04 #@! TO.P,J2,6,Pin_6*
G04 #@! TO.N,/PS*
X13335000Y5080000D03*
G04 #@! TO.P,J2,7,Pin_7*
G04 #@! TO.N,/OPT*
X15875000Y2540000D03*
G04 #@! TO.P,J2,8,Pin_8*
G04 #@! TO.N,/P1*
X15875000Y5080000D03*
G04 #@! TO.P,J2,9,Pin_9*
G04 #@! TO.N,/P2*
X18415000Y2540000D03*
G04 #@! TO.P,J2,10,Pin_10*
G04 #@! TO.N,/P3*
X18415000Y5080000D03*
G04 #@! TO.P,J2,11,Pin_11*
G04 #@! TO.N,/P4*
X20955000Y2540000D03*
G04 #@! TO.P,J2,12,Pin_12*
G04 #@! TO.N,unconnected-(J2-Pin_12-Pad12)*
X20955000Y5080000D03*
G04 #@! TO.P,J2,13,Pin_13*
G04 #@! TO.N,/K1*
X23495000Y2540000D03*
G04 #@! TO.P,J2,14,Pin_14*
G04 #@! TO.N,/K2*
X23495000Y5080000D03*
G04 #@! TO.P,J2,15,Pin_15*
G04 #@! TO.N,/K3*
X26035000Y2540000D03*
G04 #@! TO.P,J2,16,Pin_16*
G04 #@! TO.N,/K4*
X26035000Y5080000D03*
G04 #@! TO.P,J2,17,Pin_17*
G04 #@! TO.N,/GND1*
X28575000Y2540000D03*
G04 #@! TO.P,J2,18,Pin_18*
X28575000Y5080000D03*
G04 #@! TO.P,J2,19,Pin_19*
G04 #@! TO.N,/VCC*
X31115000Y2540000D03*
G04 #@! TO.P,J2,20,Pin_20*
X31115000Y5080000D03*
G04 #@! TD*
D13*
G04 #@! TO.P,R13,1*
G04 #@! TO.N,Net-(D13-A)*
X52070000Y38457500D03*
G04 #@! TO.P,R13,2*
G04 #@! TO.N,/GPIO8*
X52070000Y40282500D03*
G04 #@! TD*
G04 #@! TO.P,R3,1*
G04 #@! TO.N,Net-(D3-A)*
X11430000Y38457500D03*
G04 #@! TO.P,R3,2*
G04 #@! TO.N,/GPIO17*
X11430000Y40282500D03*
G04 #@! TD*
G04 #@! TO.P,R18,1*
G04 #@! TO.N,/VCC*
X68580000Y9247500D03*
G04 #@! TO.P,R18,2*
G04 #@! TO.N,Net-(R18-Pad2)*
X68580000Y11072500D03*
G04 #@! TD*
D10*
G04 #@! TO.P,D15,1,K*
G04 #@! TO.N,Net-(D15-K)*
X57150000Y30875000D03*
G04 #@! TO.P,D15,2,A*
G04 #@! TO.N,Net-(D15-A)*
X57150000Y32625000D03*
G04 #@! TD*
D14*
G04 #@! TO.P,U1,1*
G04 #@! TO.N,Net-(D4-K)*
X13970000Y24840000D03*
G04 #@! TO.P,U1,2*
G04 #@! TO.N,/GND2*
X12700000Y24840000D03*
G04 #@! TO.P,U1,3*
G04 #@! TO.N,Net-(D3-K)*
X11430000Y24840000D03*
G04 #@! TO.P,U1,4*
G04 #@! TO.N,/GND2*
X10160000Y24840000D03*
G04 #@! TO.P,U1,5*
G04 #@! TO.N,Net-(D2-K)*
X8890000Y24840000D03*
G04 #@! TO.P,U1,6*
G04 #@! TO.N,/GND2*
X7620000Y24840000D03*
G04 #@! TO.P,U1,7*
G04 #@! TO.N,Net-(D1-K)*
X6350000Y24840000D03*
G04 #@! TO.P,U1,8*
G04 #@! TO.N,/GND2*
X5080000Y24840000D03*
G04 #@! TO.P,U1,9*
G04 #@! TO.N,/GND1*
X5080000Y18340000D03*
G04 #@! TO.P,U1,10*
G04 #@! TO.N,/UP*
X6350000Y18340000D03*
G04 #@! TO.P,U1,11*
G04 #@! TO.N,/GND1*
X7620000Y18340000D03*
G04 #@! TO.P,U1,12*
G04 #@! TO.N,/DOWN*
X8890000Y18340000D03*
G04 #@! TO.P,U1,13*
G04 #@! TO.N,/GND1*
X10160000Y18340000D03*
G04 #@! TO.P,U1,14*
G04 #@! TO.N,/RIGHT*
X11430000Y18340000D03*
G04 #@! TO.P,U1,15*
G04 #@! TO.N,/GND1*
X12700000Y18340000D03*
G04 #@! TO.P,U1,16*
G04 #@! TO.N,/LEFT*
X13970000Y18340000D03*
G04 #@! TD*
D10*
G04 #@! TO.P,D11,1,K*
G04 #@! TO.N,Net-(D11-K)*
X41910000Y30875000D03*
G04 #@! TO.P,D11,2,A*
G04 #@! TO.N,Net-(D11-A)*
X41910000Y32625000D03*
G04 #@! TD*
G04 #@! TO.P,D1,1,K*
G04 #@! TO.N,Net-(D1-K)*
X6350000Y30875000D03*
G04 #@! TO.P,D1,2,A*
G04 #@! TO.N,Net-(D1-A)*
X6350000Y32625000D03*
G04 #@! TD*
D13*
G04 #@! TO.P,R16,1*
G04 #@! TO.N,Net-(D16-A)*
X59690000Y38457500D03*
G04 #@! TO.P,R16,2*
G04 #@! TO.N,/GPIO19*
X59690000Y40282500D03*
G04 #@! TD*
D10*
G04 #@! TO.P,D7,1,K*
G04 #@! TO.N,Net-(D7-K)*
X26670000Y30875000D03*
G04 #@! TO.P,D7,2,A*
G04 #@! TO.N,Net-(D7-A)*
X26670000Y32625000D03*
G04 #@! TD*
D13*
G04 #@! TO.P,R2,1*
G04 #@! TO.N,Net-(D2-A)*
X8890000Y38457500D03*
G04 #@! TO.P,R2,2*
G04 #@! TO.N,/GPIO15*
X8890000Y40282500D03*
G04 #@! TD*
D10*
G04 #@! TO.P,D6,1,K*
G04 #@! TO.N,Net-(D6-K)*
X24130000Y30875000D03*
G04 #@! TO.P,D6,2,A*
G04 #@! TO.N,Net-(D6-A)*
X24130000Y32625000D03*
G04 #@! TD*
D14*
G04 #@! TO.P,U4,1*
G04 #@! TO.N,Net-(D16-K)*
X59690000Y24840000D03*
G04 #@! TO.P,U4,2*
G04 #@! TO.N,/GND2*
X58420000Y24840000D03*
G04 #@! TO.P,U4,3*
G04 #@! TO.N,Net-(D15-K)*
X57150000Y24840000D03*
G04 #@! TO.P,U4,4*
G04 #@! TO.N,/GND2*
X55880000Y24840000D03*
G04 #@! TO.P,U4,5*
G04 #@! TO.N,Net-(D14-K)*
X54610000Y24840000D03*
G04 #@! TO.P,U4,6*
G04 #@! TO.N,/GND2*
X53340000Y24840000D03*
G04 #@! TO.P,U4,7*
G04 #@! TO.N,Net-(D13-K)*
X52070000Y24840000D03*
G04 #@! TO.P,U4,8*
G04 #@! TO.N,/GND2*
X50800000Y24840000D03*
G04 #@! TO.P,U4,9*
G04 #@! TO.N,/GND1*
X50800000Y18340000D03*
G04 #@! TO.P,U4,10*
G04 #@! TO.N,/K1*
X52070000Y18340000D03*
G04 #@! TO.P,U4,11*
G04 #@! TO.N,/GND1*
X53340000Y18340000D03*
G04 #@! TO.P,U4,12*
G04 #@! TO.N,/K2*
X54610000Y18340000D03*
G04 #@! TO.P,U4,13*
G04 #@! TO.N,/GND1*
X55880000Y18340000D03*
G04 #@! TO.P,U4,14*
G04 #@! TO.N,/K3*
X57150000Y18340000D03*
G04 #@! TO.P,U4,15*
G04 #@! TO.N,/GND1*
X58420000Y18340000D03*
G04 #@! TO.P,U4,16*
G04 #@! TO.N,/K4*
X59690000Y18340000D03*
G04 #@! TD*
D13*
G04 #@! TO.P,R8,1*
G04 #@! TO.N,Net-(D8-A)*
X29210000Y38457500D03*
G04 #@! TO.P,R8,2*
G04 #@! TO.N,/GPIO24*
X29210000Y40282500D03*
G04 #@! TD*
G04 #@! TO.P,R11,1*
G04 #@! TO.N,Net-(D11-A)*
X41910000Y38457500D03*
G04 #@! TO.P,R11,2*
G04 #@! TO.N,/GPIO25*
X41910000Y40282500D03*
G04 #@! TD*
G04 #@! TO.P,R19,1*
G04 #@! TO.N,/VCC*
X71120000Y9247500D03*
G04 #@! TO.P,R19,2*
G04 #@! TO.N,Net-(R19-Pad2)*
X71120000Y11072500D03*
G04 #@! TD*
D10*
G04 #@! TO.P,D14,1,K*
G04 #@! TO.N,Net-(D14-K)*
X54610000Y30875000D03*
G04 #@! TO.P,D14,2,A*
G04 #@! TO.N,Net-(D14-A)*
X54610000Y32625000D03*
G04 #@! TD*
D13*
G04 #@! TO.P,R15,1*
G04 #@! TO.N,Net-(D15-A)*
X57150000Y38457500D03*
G04 #@! TO.P,R15,2*
G04 #@! TO.N,/GPIO13*
X57150000Y40282500D03*
G04 #@! TD*
D15*
G04 #@! TO.P,U5,1*
G04 #@! TO.N,Net-(R17-Pad2)*
X66040000Y18340000D03*
G04 #@! TO.P,U5,2*
G04 #@! TO.N,/K2*
X67310000Y18340000D03*
G04 #@! TO.P,U5,3*
G04 #@! TO.N,Net-(R18-Pad2)*
X68580000Y18340000D03*
G04 #@! TO.P,U5,4*
G04 #@! TO.N,/K1*
X69850000Y18340000D03*
G04 #@! TO.P,U5,5*
G04 #@! TO.N,Net-(R19-Pad2)*
X71120000Y18340000D03*
G04 #@! TO.P,U5,6*
G04 #@! TO.N,/P2*
X72390000Y18340000D03*
G04 #@! TO.P,U5,7*
G04 #@! TO.N,Net-(R20-Pad2)*
X73660000Y18340000D03*
G04 #@! TO.P,U5,8*
G04 #@! TO.N,/P1*
X74930000Y18340000D03*
G04 #@! TO.P,U5,9*
G04 #@! TO.N,/GND2*
X74930000Y24840000D03*
G04 #@! TO.P,U5,10*
G04 #@! TO.N,/GPIO21*
X73660000Y24840000D03*
G04 #@! TO.P,U5,11*
G04 #@! TO.N,/GND2*
X72390000Y24840000D03*
G04 #@! TO.P,U5,12*
G04 #@! TO.N,/GPIO20*
X71120000Y24840000D03*
G04 #@! TO.P,U5,13*
G04 #@! TO.N,/GND2*
X69850000Y24840000D03*
G04 #@! TO.P,U5,14*
G04 #@! TO.N,/GPIO26*
X68580000Y24840000D03*
G04 #@! TO.P,U5,15*
G04 #@! TO.N,/GND2*
X67310000Y24840000D03*
G04 #@! TO.P,U5,16*
G04 #@! TO.N,/GPIO16*
X66040000Y24840000D03*
G04 #@! TD*
D10*
G04 #@! TO.P,D3,1,K*
G04 #@! TO.N,Net-(D3-K)*
X11430000Y30875000D03*
G04 #@! TO.P,D3,2,A*
G04 #@! TO.N,Net-(D3-A)*
X11430000Y32625000D03*
G04 #@! TD*
D13*
G04 #@! TO.P,R20,1*
G04 #@! TO.N,/VCC*
X73660000Y9247500D03*
G04 #@! TO.P,R20,2*
G04 #@! TO.N,Net-(R20-Pad2)*
X73660000Y11072500D03*
G04 #@! TD*
G04 #@! TO.P,R1,1*
G04 #@! TO.N,Net-(D1-A)*
X6350000Y38457500D03*
G04 #@! TO.P,R1,2*
G04 #@! TO.N,/GPIO14*
X6350000Y40282500D03*
G04 #@! TD*
G04 #@! TO.P,R14,1*
G04 #@! TO.N,Net-(D14-A)*
X54610000Y38457500D03*
G04 #@! TO.P,R14,2*
G04 #@! TO.N,/GPIO12*
X54610000Y40282500D03*
G04 #@! TD*
D10*
G04 #@! TO.P,D8,1,K*
G04 #@! TO.N,Net-(D8-K)*
X29210000Y30875000D03*
G04 #@! TO.P,D8,2,A*
G04 #@! TO.N,Net-(D8-A)*
X29210000Y32625000D03*
G04 #@! TD*
D13*
G04 #@! TO.P,R6,1*
G04 #@! TO.N,Net-(D6-A)*
X24130000Y38457500D03*
G04 #@! TO.P,R6,2*
G04 #@! TO.N,/GPIO22*
X24130000Y40282500D03*
G04 #@! TD*
D11*
G04 #@! TO.P,J1,1,3V3*
G04 #@! TO.N,unconnected-(J1-3V3-Pad1)_1*
X8255000Y51435000D03*
D12*
G04 #@! TO.P,J1,2,5V*
G04 #@! TO.N,Net-(J3-Pin_1)*
X8255000Y53975000D03*
G04 #@! TO.P,J1,3,GPIO2/SDA*
G04 #@! TO.N,unconnected-(J1-GPIO2{slash}SDA-Pad3)*
X10795000Y51435000D03*
G04 #@! TO.P,J1,4,5V*
G04 #@! TO.N,Net-(J3-Pin_1)*
X10795000Y53975000D03*
G04 #@! TO.P,J1,5,GPIO3/SCL*
G04 #@! TO.N,unconnected-(J1-GPIO3{slash}SCL-Pad5)*
X13335000Y51435000D03*
G04 #@! TO.P,J1,6,GND*
G04 #@! TO.N,/GND2*
X13335000Y53975000D03*
G04 #@! TO.P,J1,7,GPIO4/GCLK0*
G04 #@! TO.N,unconnected-(J1-GPIO4{slash}GCLK0-Pad7)*
X15875000Y51435000D03*
G04 #@! TO.P,J1,8,GPIO14/TXD*
G04 #@! TO.N,/GPIO14*
X15875000Y53975000D03*
G04 #@! TO.P,J1,9,GND*
G04 #@! TO.N,/GND2*
X18415000Y51435000D03*
G04 #@! TO.P,J1,10,GPIO15/RXD*
G04 #@! TO.N,/GPIO15*
X18415000Y53975000D03*
G04 #@! TO.P,J1,11,GPIO17*
G04 #@! TO.N,/GPIO18*
X20955000Y51435000D03*
G04 #@! TO.P,J1,12,GPIO18/PWM0*
G04 #@! TO.N,/GPIO17*
X20955000Y53975000D03*
G04 #@! TO.P,J1,13,GPIO27*
G04 #@! TO.N,/GPIO27*
X23495000Y51435000D03*
G04 #@! TO.P,J1,14,GND*
G04 #@! TO.N,/GND2*
X23495000Y53975000D03*
G04 #@! TO.P,J1,15,GPIO22*
G04 #@! TO.N,/GPIO22*
X26035000Y51435000D03*
G04 #@! TO.P,J1,16,GPIO23*
G04 #@! TO.N,/GPIO23*
X26035000Y53975000D03*
G04 #@! TO.P,J1,17,3V3*
G04 #@! TO.N,unconnected-(J1-3V3-Pad1)*
X28575000Y51435000D03*
G04 #@! TO.P,J1,18,GPIO24*
G04 #@! TO.N,/GPIO24*
X28575000Y53975000D03*
G04 #@! TO.P,J1,19,GPIO10/MOSI0*
G04 #@! TO.N,/GPIO10*
X31115000Y51435000D03*
G04 #@! TO.P,J1,20,GND*
G04 #@! TO.N,/GND2*
X31115000Y53975000D03*
G04 #@! TO.P,J1,21,GPIO9/MISO0*
G04 #@! TO.N,/GPIO9*
X33655000Y51435000D03*
G04 #@! TO.P,J1,22,GPIO25*
G04 #@! TO.N,/GPIO25*
X33655000Y53975000D03*
G04 #@! TO.P,J1,23,GPIO11/SCLK0*
G04 #@! TO.N,/GPIO11*
X36195000Y51435000D03*
G04 #@! TO.P,J1,24,GPIO8/~{CE0}*
G04 #@! TO.N,/GPIO8*
X36195000Y53975000D03*
G04 #@! TO.P,J1,25,GND*
G04 #@! TO.N,/GND2*
X38735000Y51435000D03*
G04 #@! TO.P,J1,26,GPIO7/~{CE1}*
G04 #@! TO.N,unconnected-(J1-GPIO7{slash}~{CE1}-Pad26)*
X38735000Y53975000D03*
G04 #@! TO.P,J1,27,GPIO0/ID_SD*
G04 #@! TO.N,unconnected-(J1-GPIO0{slash}ID_SD-Pad27)*
X41275000Y51435000D03*
G04 #@! TO.P,J1,28,GPIO1/ID_SC*
G04 #@! TO.N,unconnected-(J1-GPIO1{slash}ID_SC-Pad28)*
X41275000Y53975000D03*
G04 #@! TO.P,J1,29,GPIO5/GCLK1*
G04 #@! TO.N,unconnected-(J1-GPIO5{slash}GCLK1-Pad29)*
X43815000Y51435000D03*
G04 #@! TO.P,J1,30,GND*
G04 #@! TO.N,/GND2*
X43815000Y53975000D03*
G04 #@! TO.P,J1,31,GPIO6/GCLK2*
G04 #@! TO.N,unconnected-(J1-GPIO6{slash}GCLK2-Pad31)*
X46355000Y51435000D03*
G04 #@! TO.P,J1,32,GPIO12/PWM0*
G04 #@! TO.N,/GPIO12*
X46355000Y53975000D03*
G04 #@! TO.P,J1,33,GPIO13/PWM1*
G04 #@! TO.N,/GPIO13*
X48895000Y51435000D03*
G04 #@! TO.P,J1,34,GND*
G04 #@! TO.N,/GND2*
X48895000Y53975000D03*
G04 #@! TO.P,J1,35,GPIO19/MISO1*
G04 #@! TO.N,/GPIO19*
X51435000Y51435000D03*
G04 #@! TO.P,J1,36,GPIO16*
G04 #@! TO.N,/GPIO16*
X51435000Y53975000D03*
G04 #@! TO.P,J1,37,GPIO26*
G04 #@! TO.N,/GPIO26*
X53975000Y51435000D03*
G04 #@! TO.P,J1,38,GPIO20/MOSI1*
G04 #@! TO.N,/GPIO20*
X53975000Y53975000D03*
G04 #@! TO.P,J1,39,GND*
G04 #@! TO.N,/GND2*
X56515000Y51435000D03*
G04 #@! TO.P,J1,40,GPIO21/SCLK1*
G04 #@! TO.N,/GPIO21*
X56515000Y53975000D03*
G04 #@! TD*
D16*
G04 #@! TO.N,/GND2*
X62865000Y33655000D03*
X62865000Y23495000D03*
G04 #@! TO.N,/GND1*
X62865000Y7620000D03*
X62865000Y19685000D03*
X47625000Y11430000D03*
X32385000Y13970000D03*
X17145000Y15875000D03*
G04 #@! TO.N,/GND2*
X66675000Y54610000D03*
X78105000Y54610000D03*
X78105000Y44450000D03*
X78105000Y33655000D03*
X78105000Y23495000D03*
G04 #@! TO.N,/GND1*
X78105000Y19685000D03*
X78105000Y10795000D03*
X78105000Y1905000D03*
G04 #@! TO.N,/VCC*
X66675000Y1905000D03*
X55880000Y1905000D03*
X45085000Y1905000D03*
G04 #@! TO.N,/LEFT*
X13970000Y16510000D03*
G04 #@! TO.N,/PS*
X24130000Y16510000D03*
G04 #@! TO.N,/P1*
X74930000Y16510000D03*
X36830000Y16510000D03*
G04 #@! TO.N,/RIGHT*
X11430000Y16510000D03*
G04 #@! TO.N,/K2*
X67310000Y12700000D03*
X54610000Y12700000D03*
G04 #@! TO.N,/P4*
X44450000Y13970000D03*
G04 #@! TO.N,/P3*
X41910000Y13970000D03*
G04 #@! TO.N,/K4*
X59690000Y11430000D03*
G04 #@! TO.N,/P2*
X39370000Y15240000D03*
X72390000Y15240000D03*
G04 #@! TO.N,/SHARE*
X21590000Y16510000D03*
G04 #@! TO.N,/OPT*
X26670000Y16510000D03*
G04 #@! TO.N,/K3*
X57150000Y11430000D03*
G04 #@! TO.N,/UP*
X6350000Y16510000D03*
G04 #@! TO.N,/K1*
X69850000Y13970000D03*
X52070000Y13970000D03*
G04 #@! TO.N,/DOWN*
X8890000Y16510000D03*
G04 #@! TO.N,/GND1*
X1905000Y10795000D03*
X28575000Y6985000D03*
X17145000Y19685000D03*
X47625000Y19685000D03*
X1905000Y19685000D03*
X32385000Y19685000D03*
X1905000Y1905000D03*
G04 #@! TO.N,/VCC*
X72390000Y8255000D03*
X33655000Y5080000D03*
X33655000Y2540000D03*
X67310000Y8255000D03*
G04 #@! TO.N,/GND2*
X67310000Y46355000D03*
X38100000Y27940000D03*
X12700000Y27940000D03*
X38100000Y41275000D03*
X58420000Y45085000D03*
X47625000Y42545000D03*
X17145000Y44450000D03*
X55880000Y44450000D03*
X69850000Y46990000D03*
X22860000Y27940000D03*
X38100000Y35560000D03*
X40640000Y27940000D03*
X10160000Y27940000D03*
X25400000Y27940000D03*
X25400000Y46990000D03*
X43180000Y42545000D03*
X43180000Y35560000D03*
X69850000Y27940000D03*
X12700000Y35560000D03*
X18415000Y49530000D03*
X1905000Y23495000D03*
X47625000Y33655000D03*
X32385000Y33655000D03*
X24765000Y49530000D03*
X7620000Y27940000D03*
X55880000Y35560000D03*
X40640000Y41910000D03*
X12700000Y45720000D03*
X1905000Y44450000D03*
X38735000Y49530000D03*
X10160000Y35560000D03*
X45085000Y49530000D03*
X1905000Y33655000D03*
X40640000Y35560000D03*
X2540000Y49530000D03*
X43180000Y27940000D03*
X67310000Y27940000D03*
X47625000Y23495000D03*
X7620000Y46990000D03*
X32385000Y23495000D03*
X67310000Y35560000D03*
X25400000Y35560000D03*
X53340000Y35560000D03*
X10160000Y46355000D03*
X72390000Y35560000D03*
X72390000Y27940000D03*
X27940000Y35560000D03*
X62865000Y45085000D03*
X58420000Y27940000D03*
X7620000Y35560000D03*
X27940000Y46990000D03*
X58420000Y35560000D03*
X17145000Y33655000D03*
X27940000Y27940000D03*
X53340000Y27940000D03*
X56515000Y49530000D03*
X32385000Y40005000D03*
X72390000Y47625000D03*
X55880000Y27940000D03*
X17145000Y23495000D03*
X53340000Y43815000D03*
X22860000Y35560000D03*
X50165000Y49530000D03*
X32385000Y49530000D03*
X69850000Y35560000D03*
X12065000Y49530000D03*
G04 #@! TD*
D17*
G04 #@! TO.N,Net-(D1-K)*
X6350000Y24840000D02*
X6350000Y30875000D01*
G04 #@! TO.N,Net-(D1-A)*
X6350000Y38457500D02*
X6350000Y32625000D01*
G04 #@! TO.N,Net-(D2-A)*
X8890000Y32625000D02*
X8890000Y38457500D01*
G04 #@! TO.N,Net-(D2-K)*
X8890000Y24840000D02*
X8890000Y30875000D01*
G04 #@! TO.N,Net-(D3-A)*
X11430000Y38457500D02*
X11430000Y32625000D01*
G04 #@! TO.N,Net-(D3-K)*
X11430000Y24840000D02*
X11430000Y30875000D01*
G04 #@! TO.N,Net-(D4-K)*
X13970000Y24840000D02*
X13970000Y30875000D01*
G04 #@! TO.N,Net-(D4-A)*
X13970000Y32625000D02*
X13970000Y38457500D01*
G04 #@! TO.N,Net-(D5-K)*
X21590000Y24840000D02*
X21590000Y30875000D01*
G04 #@! TO.N,Net-(D5-A)*
X21590000Y32625000D02*
X21590000Y38457500D01*
G04 #@! TO.N,Net-(D6-K)*
X24130000Y30875000D02*
X24130000Y24840000D01*
G04 #@! TO.N,Net-(D6-A)*
X24130000Y38457500D02*
X24130000Y32625000D01*
G04 #@! TO.N,Net-(D7-A)*
X26670000Y32625000D02*
X26670000Y38457500D01*
G04 #@! TO.N,Net-(D7-K)*
X26670000Y30875000D02*
X26670000Y24840000D01*
G04 #@! TO.N,Net-(D8-A)*
X29210000Y38457500D02*
X29210000Y32625000D01*
G04 #@! TO.N,Net-(D8-K)*
X29210000Y30875000D02*
X29210000Y24840000D01*
G04 #@! TO.N,Net-(D9-A)*
X36830000Y32625000D02*
X36830000Y38457500D01*
G04 #@! TO.N,Net-(D9-K)*
X36830000Y30875000D02*
X36830000Y24840000D01*
G04 #@! TO.N,Net-(D10-K)*
X39370000Y24840000D02*
X39370000Y30875000D01*
G04 #@! TO.N,Net-(D10-A)*
X39370000Y38457500D02*
X39370000Y32625000D01*
G04 #@! TO.N,Net-(D11-A)*
X41910000Y32625000D02*
X41910000Y38457500D01*
G04 #@! TO.N,Net-(D11-K)*
X41910000Y30875000D02*
X41910000Y24840000D01*
G04 #@! TO.N,Net-(D12-A)*
X44450000Y38457500D02*
X44450000Y32625000D01*
G04 #@! TO.N,Net-(D12-K)*
X44450000Y24840000D02*
X44450000Y30875000D01*
G04 #@! TO.N,Net-(D13-K)*
X52070000Y30875000D02*
X52070000Y24840000D01*
G04 #@! TO.N,Net-(D13-A)*
X52070000Y32625000D02*
X52070000Y38457500D01*
G04 #@! TO.N,Net-(D14-K)*
X54610000Y24840000D02*
X54610000Y30875000D01*
G04 #@! TO.N,Net-(D14-A)*
X54610000Y38457500D02*
X54610000Y32625000D01*
G04 #@! TO.N,Net-(D15-K)*
X57150000Y30875000D02*
X57150000Y24840000D01*
G04 #@! TO.N,Net-(D15-A)*
X57150000Y32625000D02*
X57150000Y38457500D01*
G04 #@! TO.N,Net-(D16-K)*
X59690000Y24840000D02*
X59690000Y30875000D01*
G04 #@! TO.N,Net-(D16-A)*
X59690000Y38457500D02*
X59690000Y32625000D01*
G04 #@! TO.N,/LEFT*
X13970000Y18340000D02*
X13970000Y16510000D01*
G04 #@! TO.N,/PS*
X24130000Y18340000D02*
X24130000Y16510000D01*
G04 #@! TO.N,/P1*
X36830000Y16510000D02*
X36830000Y18340000D01*
X74930000Y16510000D02*
X74930000Y18340000D01*
G04 #@! TO.N,/RIGHT*
X11430000Y18340000D02*
X11430000Y16510000D01*
G04 #@! TO.N,/K2*
X67310000Y12700000D02*
X67310000Y18340000D01*
X54610000Y12700000D02*
X54610000Y18340000D01*
G04 #@! TO.N,/P4*
X44450000Y13970000D02*
X44450000Y18340000D01*
G04 #@! TO.N,/P3*
X41910000Y13970000D02*
X41910000Y18340000D01*
G04 #@! TO.N,/K4*
X59690000Y11430000D02*
X59690000Y18340000D01*
G04 #@! TO.N,/P2*
X72390000Y15240000D02*
X72390000Y18340000D01*
X39370000Y15240000D02*
X39370000Y18340000D01*
G04 #@! TO.N,/SHARE*
X21590000Y18340000D02*
X21590000Y16510000D01*
G04 #@! TO.N,/OPT*
X26670000Y18340000D02*
X26670000Y16510000D01*
G04 #@! TO.N,/K3*
X57150000Y11430000D02*
X57150000Y18340000D01*
G04 #@! TO.N,/UP*
X6350000Y16510000D02*
X6350000Y18340000D01*
G04 #@! TO.N,/K1*
X52070000Y13970000D02*
X52070000Y18340000D01*
X69850000Y13970000D02*
X69850000Y18340000D01*
G04 #@! TO.N,/DOWN*
X8890000Y16510000D02*
X8890000Y18340000D01*
G04 #@! TO.N,/GND2*
X56515000Y51435000D02*
X56515000Y49530000D01*
X32385000Y49530000D02*
X32385000Y52705000D01*
D18*
X2540000Y51435000D02*
X2540000Y49530000D01*
D17*
X23495000Y53975000D02*
X24765000Y52705000D01*
X45085000Y52705000D02*
X43815000Y53975000D01*
X50165000Y52705000D02*
X48895000Y53975000D01*
X13335000Y53975000D02*
X12065000Y52705000D01*
X38735000Y51435000D02*
X38735000Y49530000D01*
X18415000Y51435000D02*
X18415000Y49530000D01*
X24765000Y52705000D02*
X24765000Y49530000D01*
X32385000Y52705000D02*
X31115000Y53975000D01*
X45085000Y49530000D02*
X45085000Y52705000D01*
X12065000Y52705000D02*
X12065000Y49530000D01*
X50165000Y49530000D02*
X50165000Y52705000D01*
G04 #@! TO.N,/GPIO26*
X68580000Y24840000D02*
X68580000Y46990000D01*
X54610000Y47625000D02*
X53975000Y48260000D01*
X53975000Y48260000D02*
X53975000Y51435000D01*
X67945000Y47625000D02*
X54610000Y47625000D01*
X68580000Y46990000D02*
X67945000Y47625000D01*
G04 #@! TO.N,/GPIO25*
X41275000Y43180000D02*
X35560000Y43180000D01*
X41910000Y42545000D02*
X41275000Y43180000D01*
X41910000Y40282500D02*
X41910000Y42545000D01*
X34925000Y43815000D02*
X34925000Y52705000D01*
X35560000Y43180000D02*
X34925000Y43815000D01*
X34925000Y52705000D02*
X33655000Y53975000D01*
G04 #@! TO.N,/GPIO10*
X31115000Y42545000D02*
X31115000Y51435000D01*
X31750000Y41910000D02*
X31115000Y42545000D01*
X36195000Y41910000D02*
X31750000Y41910000D01*
X36830000Y40282500D02*
X36830000Y41275000D01*
X36830000Y41275000D02*
X36195000Y41910000D01*
G04 #@! TO.N,/GPIO20*
X71120000Y24840000D02*
X71120000Y47625000D01*
X55245000Y52705000D02*
X53975000Y53975000D01*
X70485000Y48260000D02*
X55880000Y48260000D01*
X71120000Y47625000D02*
X70485000Y48260000D01*
X55245000Y48895000D02*
X55245000Y52705000D01*
X55880000Y48260000D02*
X55245000Y48895000D01*
G04 #@! TO.N,/GPIO21*
X73025000Y48895000D02*
X58420000Y48895000D01*
X57785000Y52705000D02*
X56515000Y53975000D01*
X58420000Y48895000D02*
X57785000Y49530000D01*
X73660000Y24840000D02*
X73660000Y48260000D01*
X57785000Y49530000D02*
X57785000Y52705000D01*
X73660000Y48260000D02*
X73025000Y48895000D01*
G04 #@! TO.N,/GPIO27*
X23495000Y51435000D02*
X23495000Y49530000D01*
X21590000Y47625000D02*
X21590000Y40282500D01*
X23495000Y49530000D02*
X21590000Y47625000D01*
G04 #@! TO.N,/GPIO12*
X47625000Y45720000D02*
X47625000Y52705000D01*
X47625000Y52705000D02*
X46355000Y53975000D01*
X54610000Y40282500D02*
X54610000Y44450000D01*
X54610000Y44450000D02*
X53975000Y45085000D01*
X48260000Y45085000D02*
X47625000Y45720000D01*
X53975000Y45085000D02*
X48260000Y45085000D01*
G04 #@! TO.N,/GPIO15*
X17145000Y48260000D02*
X17145000Y52705000D01*
X17145000Y52705000D02*
X18415000Y53975000D01*
X8890000Y46990000D02*
X9525000Y47625000D01*
X9525000Y47625000D02*
X16510000Y47625000D01*
X16510000Y47625000D02*
X17145000Y48260000D01*
X8890000Y40282500D02*
X8890000Y46990000D01*
G04 #@! TO.N,/GPIO24*
X29845000Y48260000D02*
X29210000Y47625000D01*
X29845000Y52705000D02*
X29845000Y48260000D01*
X29210000Y47625000D02*
X29210000Y40282500D01*
X28575000Y53975000D02*
X29845000Y52705000D01*
G04 #@! TO.N,/GPIO16*
X53340000Y46990000D02*
X65405000Y46990000D01*
X52705000Y52705000D02*
X52705000Y47625000D01*
X52705000Y47625000D02*
X53340000Y46990000D01*
X65405000Y46990000D02*
X66040000Y46355000D01*
X66040000Y46355000D02*
X66040000Y24840000D01*
X51435000Y53975000D02*
X52705000Y52705000D01*
G04 #@! TO.N,/GPIO18*
X13970000Y40282500D02*
X13970000Y45720000D01*
X20955000Y46990000D02*
X20955000Y51435000D01*
X20320000Y46355000D02*
X20955000Y46990000D01*
X13970000Y45720000D02*
X14605000Y46355000D01*
X14605000Y46355000D02*
X20320000Y46355000D01*
G04 #@! TO.N,/GPIO23*
X27305000Y48260000D02*
X26670000Y47625000D01*
X27305000Y52705000D02*
X27305000Y48260000D01*
X26670000Y47625000D02*
X26670000Y40282500D01*
X26035000Y53975000D02*
X27305000Y52705000D01*
G04 #@! TO.N,/GPIO22*
X24130000Y47625000D02*
X24130000Y40282500D01*
X26035000Y49530000D02*
X24130000Y47625000D01*
X26035000Y51435000D02*
X26035000Y49530000D01*
G04 #@! TO.N,/GPIO17*
X19050000Y46990000D02*
X19685000Y47625000D01*
X11430000Y46355000D02*
X12065000Y46990000D01*
X11430000Y40282500D02*
X11430000Y46355000D01*
X19685000Y52705000D02*
X20955000Y53975000D01*
X12065000Y46990000D02*
X19050000Y46990000D01*
X19685000Y47625000D02*
X19685000Y52705000D01*
G04 #@! TO.N,/GPIO11*
X36830000Y43815000D02*
X36195000Y44450000D01*
X44450000Y40282500D02*
X44450000Y43180000D01*
X43815000Y43815000D02*
X36830000Y43815000D01*
X36195000Y44450000D02*
X36195000Y51435000D01*
X44450000Y43180000D02*
X43815000Y43815000D01*
G04 #@! TO.N,/GPIO8*
X52070000Y40282500D02*
X52070000Y43815000D01*
X51435000Y44450000D02*
X38100000Y44450000D01*
X37465000Y45085000D02*
X37465000Y52705000D01*
X38100000Y44450000D02*
X37465000Y45085000D01*
X52070000Y43815000D02*
X51435000Y44450000D01*
X37465000Y52705000D02*
X36195000Y53975000D01*
G04 #@! TO.N,/GPIO14*
X6350000Y40282500D02*
X6350000Y47625000D01*
X13970000Y48260000D02*
X14605000Y48895000D01*
X14605000Y52705000D02*
X15875000Y53975000D01*
X6350000Y47625000D02*
X6985000Y48260000D01*
X6985000Y48260000D02*
X13970000Y48260000D01*
X14605000Y48895000D02*
X14605000Y52705000D01*
G04 #@! TO.N,/GPIO13*
X57150000Y40282500D02*
X57150000Y45085000D01*
X56515000Y45720000D02*
X49530000Y45720000D01*
X48895000Y46355000D02*
X48895000Y51435000D01*
X57150000Y45085000D02*
X56515000Y45720000D01*
X49530000Y45720000D02*
X48895000Y46355000D01*
G04 #@! TO.N,/GPIO9*
X39370000Y41910000D02*
X38735000Y42545000D01*
X38735000Y42545000D02*
X34290000Y42545000D01*
X33655000Y43180000D02*
X33655000Y51435000D01*
X34290000Y42545000D02*
X33655000Y43180000D01*
X39370000Y40282500D02*
X39370000Y41910000D01*
G04 #@! TO.N,/GPIO19*
X51435000Y46990000D02*
X51435000Y51435000D01*
X59690000Y40282500D02*
X59690000Y45720000D01*
X59055000Y46355000D02*
X52070000Y46355000D01*
X59690000Y45720000D02*
X59055000Y46355000D01*
X52070000Y46355000D02*
X51435000Y46990000D01*
D18*
G04 #@! TO.N,Net-(J3-Pin_1)*
X2540000Y53975000D02*
X10795000Y53975000D01*
D17*
G04 #@! TO.N,Net-(R17-Pad2)*
X66040000Y11072500D02*
X66040000Y18340000D01*
G04 #@! TO.N,Net-(R18-Pad2)*
X68580000Y11072500D02*
X68580000Y18340000D01*
G04 #@! TO.N,Net-(R19-Pad2)*
X71120000Y11072500D02*
X71120000Y18340000D01*
G04 #@! TO.N,Net-(R20-Pad2)*
X73660000Y11072500D02*
X73660000Y18340000D01*
G04 #@! TD*
G04 #@! TA.AperFunction,Conductor*
G04 #@! TO.N,/GND2*
G36*
X78683039Y55225315D02*
G01*
X78728794Y55172511D01*
X78740000Y55121000D01*
X78740000Y22984000D01*
X78720315Y22916961D01*
X78667511Y22871206D01*
X78616000Y22860000D01*
X1394000Y22860000D01*
X1326961Y22879685D01*
X1281206Y22932489D01*
X1270000Y22984000D01*
X1270000Y24113107D01*
X4305001Y24113107D01*
X4307844Y24076979D01*
X4352779Y23922311D01*
X4352780Y23922308D01*
X4434770Y23783669D01*
X4434776Y23783661D01*
X4548660Y23669777D01*
X4548668Y23669771D01*
X4687305Y23587782D01*
X4830000Y23546326D01*
X4830000Y24590000D01*
X4305001Y24590000D01*
X4305001Y24113107D01*
X1270000Y24113107D01*
X1270000Y25566891D01*
X4305000Y25566891D01*
X4305000Y25090000D01*
X4830000Y25090000D01*
X4830000Y26133676D01*
X4829998Y26133677D01*
X4687310Y26092222D01*
X4687307Y26092220D01*
X4548668Y26010230D01*
X4548660Y26010224D01*
X4434776Y25896340D01*
X4434770Y25896332D01*
X4352780Y25757693D01*
X4352779Y25757690D01*
X4307844Y25603025D01*
X4307843Y25603019D01*
X4305000Y25566891D01*
X1270000Y25566891D01*
X1270000Y50041000D01*
X1289685Y50108039D01*
X1342489Y50153794D01*
X1394000Y50165000D01*
X7089611Y50165000D01*
X7156650Y50145315D01*
X7162209Y50141456D01*
X7162665Y50141207D01*
X7162669Y50141204D01*
X7225539Y50117755D01*
X7297517Y50090909D01*
X7297516Y50090909D01*
X7304444Y50090165D01*
X7357127Y50084500D01*
X9152872Y50084501D01*
X9212483Y50090909D01*
X9347331Y50141204D01*
X9347336Y50141209D01*
X9355109Y50145452D01*
X9355933Y50143943D01*
X9411543Y50164684D01*
X9420389Y50165000D01*
X10313709Y50165000D01*
X10352027Y50158932D01*
X10478757Y50117754D01*
X10688713Y50084500D01*
X10688714Y50084500D01*
X10901286Y50084500D01*
X10901287Y50084500D01*
X11111243Y50117754D01*
X11237972Y50158932D01*
X11276291Y50165000D01*
X12853709Y50165000D01*
X12892027Y50158932D01*
X13018757Y50117754D01*
X13228713Y50084500D01*
X13228714Y50084500D01*
X13441286Y50084500D01*
X13441287Y50084500D01*
X13651243Y50117754D01*
X13777972Y50158932D01*
X13780302Y50159301D01*
X13781356Y50159977D01*
X13816291Y50165000D01*
X13830500Y50165000D01*
X13897539Y50145315D01*
X13943294Y50092511D01*
X13954500Y50041000D01*
X13954500Y49215808D01*
X13934815Y49148769D01*
X13918181Y49128127D01*
X13736873Y48946819D01*
X13675550Y48913334D01*
X13649192Y48910500D01*
X6920929Y48910500D01*
X6795261Y48885503D01*
X6795251Y48885500D01*
X6746220Y48865190D01*
X6676881Y48836470D01*
X6676863Y48836460D01*
X6570332Y48765279D01*
X6570325Y48765273D01*
X5844726Y48039674D01*
X5773534Y47933126D01*
X5724499Y47814745D01*
X5724497Y47814739D01*
X5699500Y47689072D01*
X5699500Y41213208D01*
X5679815Y41146169D01*
X5656619Y41120585D01*
X5656757Y41120447D01*
X5653941Y41117632D01*
X5652407Y41115939D01*
X5651652Y41115343D01*
X5529659Y40993349D01*
X5439093Y40846519D01*
X5439092Y40846516D01*
X5384826Y40682753D01*
X5384826Y40682752D01*
X5384825Y40682752D01*
X5374500Y40581685D01*
X5374500Y39983331D01*
X5374501Y39983313D01*
X5384825Y39882248D01*
X5439092Y39718485D01*
X5439093Y39718482D01*
X5529661Y39571649D01*
X5643629Y39457681D01*
X5677114Y39396358D01*
X5672130Y39326666D01*
X5643629Y39282319D01*
X5529661Y39168352D01*
X5439093Y39021519D01*
X5439092Y39021516D01*
X5384826Y38857753D01*
X5384826Y38857752D01*
X5384825Y38857752D01*
X5374500Y38756685D01*
X5374500Y38158331D01*
X5374501Y38158313D01*
X5384825Y38057248D01*
X5421109Y37947751D01*
X5439092Y37893484D01*
X5529660Y37746650D01*
X5651650Y37624660D01*
X5651656Y37624657D01*
X5652405Y37624064D01*
X5652790Y37623520D01*
X5656757Y37619553D01*
X5656079Y37618876D01*
X5692785Y37567044D01*
X5699500Y37526793D01*
X5699500Y33593208D01*
X5679815Y33526169D01*
X5656619Y33500585D01*
X5656757Y33500447D01*
X5653941Y33497632D01*
X5652407Y33495939D01*
X5651652Y33495343D01*
X5529659Y33373349D01*
X5439093Y33226519D01*
X5439092Y33226516D01*
X5384826Y33062753D01*
X5384826Y33062752D01*
X5384825Y33062752D01*
X5374500Y32961685D01*
X5374500Y32288331D01*
X5374501Y32288313D01*
X5384825Y32187248D01*
X5439092Y32023485D01*
X5439093Y32023482D01*
X5529661Y31876649D01*
X5568629Y31837681D01*
X5602114Y31776358D01*
X5597130Y31706666D01*
X5568629Y31662319D01*
X5529661Y31623352D01*
X5439093Y31476519D01*
X5439092Y31476516D01*
X5384826Y31312753D01*
X5384826Y31312752D01*
X5384825Y31312752D01*
X5374500Y31211685D01*
X5374500Y30538331D01*
X5374501Y30538313D01*
X5384825Y30437248D01*
X5421109Y30327751D01*
X5439092Y30273484D01*
X5529660Y30126650D01*
X5651650Y30004660D01*
X5651656Y30004657D01*
X5652405Y30004064D01*
X5652790Y30003520D01*
X5656757Y29999553D01*
X5656079Y29998876D01*
X5692785Y29947044D01*
X5699500Y29906793D01*
X5699500Y26175482D01*
X5679815Y26108443D01*
X5627011Y26062688D01*
X5557853Y26052744D01*
X5512380Y26068749D01*
X5472690Y26092221D01*
X5472689Y26092222D01*
X5330001Y26133677D01*
X5330000Y26133676D01*
X5330000Y23546327D01*
X5472694Y23587782D01*
X5472695Y23587782D01*
X5611329Y23669769D01*
X5611336Y23669775D01*
X5626963Y23685402D01*
X5688285Y23718889D01*
X5757977Y23713906D01*
X5802329Y23685402D01*
X5818357Y23669374D01*
X5818361Y23669372D01*
X5818363Y23669370D01*
X5818365Y23669369D01*
X5957106Y23587319D01*
X5997928Y23575459D01*
X6111897Y23542347D01*
X6111900Y23542347D01*
X6111902Y23542346D01*
X6148065Y23539500D01*
X6551934Y23539501D01*
X6588098Y23542346D01*
X6742894Y23587319D01*
X6881643Y23669374D01*
X6897672Y23685404D01*
X6958992Y23718889D01*
X7028684Y23713906D01*
X7073036Y23685402D01*
X7088661Y23669777D01*
X7088668Y23669771D01*
X7227305Y23587782D01*
X7370000Y23546326D01*
X7370000Y26133676D01*
X7369998Y26133677D01*
X7227310Y26092222D01*
X7227309Y26092221D01*
X7187620Y26068749D01*
X7119895Y26051568D01*
X7053633Y26073728D01*
X7009871Y26128195D01*
X7000500Y26175482D01*
X7000500Y29906793D01*
X7020185Y29973832D01*
X7043380Y29999416D01*
X7043243Y29999553D01*
X7046050Y30002361D01*
X7047595Y30004064D01*
X7048339Y30004654D01*
X7048350Y30004660D01*
X7170340Y30126650D01*
X7260908Y30273484D01*
X7315174Y30437247D01*
X7325500Y30538323D01*
X7325499Y31211676D01*
X7315174Y31312753D01*
X7260908Y31476516D01*
X7170340Y31623350D01*
X7131371Y31662319D01*
X7097886Y31723642D01*
X7102870Y31793334D01*
X7131371Y31837681D01*
X7170340Y31876650D01*
X7260908Y32023484D01*
X7315174Y32187247D01*
X7325500Y32288323D01*
X7325499Y32961676D01*
X7315174Y33062753D01*
X7260908Y33226516D01*
X7170340Y33373350D01*
X7048350Y33495340D01*
X7048349Y33495341D01*
X7048347Y33495343D01*
X7047593Y33495939D01*
X7047209Y33496481D01*
X7043243Y33500447D01*
X7043920Y33501125D01*
X7007214Y33552959D01*
X7000500Y33593208D01*
X7000500Y37526793D01*
X7020185Y37593832D01*
X7043380Y37619416D01*
X7043243Y37619553D01*
X7046050Y37622361D01*
X7047595Y37624064D01*
X7048339Y37624654D01*
X7048350Y37624660D01*
X7170340Y37746650D01*
X7260908Y37893484D01*
X7315174Y38057247D01*
X7325500Y38158323D01*
X7325499Y38756676D01*
X7315174Y38857753D01*
X7260908Y39021516D01*
X7170340Y39168350D01*
X7056371Y39282319D01*
X7022886Y39343642D01*
X7027870Y39413334D01*
X7056371Y39457681D01*
X7170340Y39571650D01*
X7260908Y39718484D01*
X7315174Y39882247D01*
X7325500Y39983323D01*
X7325499Y40581676D01*
X7315174Y40682753D01*
X7260908Y40846516D01*
X7170340Y40993350D01*
X7048350Y41115340D01*
X7048349Y41115341D01*
X7048347Y41115343D01*
X7047593Y41115939D01*
X7047209Y41116481D01*
X7043243Y41120447D01*
X7043920Y41121125D01*
X7007214Y41172959D01*
X7000500Y41213208D01*
X7000500Y47304192D01*
X7020185Y47371231D01*
X7036819Y47391873D01*
X7218127Y47573181D01*
X7279450Y47606666D01*
X7305808Y47609500D01*
X8290647Y47609500D01*
X8357686Y47589815D01*
X8403441Y47537011D01*
X8413385Y47467853D01*
X8387855Y47409903D01*
X8388108Y47409734D01*
X8387147Y47408296D01*
X8386507Y47406843D01*
X8384726Y47404673D01*
X8313534Y47298126D01*
X8264499Y47179745D01*
X8264497Y47179739D01*
X8239500Y47054072D01*
X8239500Y41213208D01*
X8219815Y41146169D01*
X8196619Y41120585D01*
X8196757Y41120447D01*
X8193941Y41117632D01*
X8192407Y41115939D01*
X8191652Y41115343D01*
X8069659Y40993349D01*
X7979093Y40846519D01*
X7979092Y40846516D01*
X7924826Y40682753D01*
X7924826Y40682752D01*
X7924825Y40682752D01*
X7914500Y40581685D01*
X7914500Y39983331D01*
X7914501Y39983313D01*
X7924825Y39882248D01*
X7979092Y39718485D01*
X7979093Y39718482D01*
X8069661Y39571649D01*
X8183629Y39457681D01*
X8217114Y39396358D01*
X8212130Y39326666D01*
X8183629Y39282319D01*
X8069661Y39168352D01*
X7979093Y39021519D01*
X7979092Y39021516D01*
X7924826Y38857753D01*
X7924826Y38857752D01*
X7924825Y38857752D01*
X7914500Y38756685D01*
X7914500Y38158331D01*
X7914501Y38158313D01*
X7924825Y38057248D01*
X7961109Y37947751D01*
X7979092Y37893484D01*
X8069660Y37746650D01*
X8191650Y37624660D01*
X8191656Y37624657D01*
X8192405Y37624064D01*
X8192790Y37623520D01*
X8196757Y37619553D01*
X8196079Y37618876D01*
X8232785Y37567044D01*
X8239500Y37526793D01*
X8239500Y33593208D01*
X8219815Y33526169D01*
X8196619Y33500585D01*
X8196757Y33500447D01*
X8193941Y33497632D01*
X8192407Y33495939D01*
X8191652Y33495343D01*
X8069659Y33373349D01*
X7979093Y33226519D01*
X7979092Y33226516D01*
X7924826Y33062753D01*
X7924826Y33062752D01*
X7924825Y33062752D01*
X7914500Y32961685D01*
X7914500Y32288331D01*
X7914501Y32288313D01*
X7924825Y32187248D01*
X7979092Y32023485D01*
X7979093Y32023482D01*
X8069661Y31876649D01*
X8108629Y31837681D01*
X8142114Y31776358D01*
X8137130Y31706666D01*
X8108629Y31662319D01*
X8069661Y31623352D01*
X7979093Y31476519D01*
X7979092Y31476516D01*
X7924826Y31312753D01*
X7924826Y31312752D01*
X7924825Y31312752D01*
X7914500Y31211685D01*
X7914500Y30538331D01*
X7914501Y30538313D01*
X7924825Y30437248D01*
X7961109Y30327751D01*
X7979092Y30273484D01*
X8069660Y30126650D01*
X8191650Y30004660D01*
X8191656Y30004657D01*
X8192405Y30004064D01*
X8192790Y30003520D01*
X8196757Y29999553D01*
X8196079Y29998876D01*
X8232785Y29947044D01*
X8239500Y29906793D01*
X8239500Y26175482D01*
X8219815Y26108443D01*
X8167011Y26062688D01*
X8097853Y26052744D01*
X8052380Y26068749D01*
X8012690Y26092221D01*
X8012689Y26092222D01*
X7870001Y26133677D01*
X7870000Y26133676D01*
X7870000Y23546327D01*
X8012694Y23587782D01*
X8012695Y23587782D01*
X8151329Y23669769D01*
X8151336Y23669775D01*
X8166963Y23685402D01*
X8228285Y23718889D01*
X8297977Y23713906D01*
X8342329Y23685402D01*
X8358357Y23669374D01*
X8358361Y23669372D01*
X8358363Y23669370D01*
X8358365Y23669369D01*
X8497106Y23587319D01*
X8537928Y23575459D01*
X8651897Y23542347D01*
X8651900Y23542347D01*
X8651902Y23542346D01*
X8688065Y23539500D01*
X9091934Y23539501D01*
X9128098Y23542346D01*
X9282894Y23587319D01*
X9421643Y23669374D01*
X9437672Y23685404D01*
X9498992Y23718889D01*
X9568684Y23713906D01*
X9613036Y23685402D01*
X9628661Y23669777D01*
X9628668Y23669771D01*
X9767305Y23587782D01*
X9910000Y23546326D01*
X9910000Y26133676D01*
X9909998Y26133677D01*
X9767310Y26092222D01*
X9767309Y26092221D01*
X9727620Y26068749D01*
X9659895Y26051568D01*
X9593633Y26073728D01*
X9549871Y26128195D01*
X9540500Y26175482D01*
X9540500Y29906793D01*
X9560185Y29973832D01*
X9583380Y29999416D01*
X9583243Y29999553D01*
X9586050Y30002361D01*
X9587595Y30004064D01*
X9588339Y30004654D01*
X9588350Y30004660D01*
X9710340Y30126650D01*
X9800908Y30273484D01*
X9855174Y30437247D01*
X9865500Y30538323D01*
X9865499Y31211676D01*
X9855174Y31312753D01*
X9800908Y31476516D01*
X9710340Y31623350D01*
X9671371Y31662319D01*
X9637886Y31723642D01*
X9642870Y31793334D01*
X9671371Y31837681D01*
X9710340Y31876650D01*
X9800908Y32023484D01*
X9855174Y32187247D01*
X9865500Y32288323D01*
X9865499Y32961676D01*
X9855174Y33062753D01*
X9800908Y33226516D01*
X9710340Y33373350D01*
X9588350Y33495340D01*
X9588349Y33495341D01*
X9588347Y33495343D01*
X9587593Y33495939D01*
X9587209Y33496481D01*
X9583243Y33500447D01*
X9583920Y33501125D01*
X9547214Y33552959D01*
X9540500Y33593208D01*
X9540500Y37526793D01*
X9560185Y37593832D01*
X9583380Y37619416D01*
X9583243Y37619553D01*
X9586050Y37622361D01*
X9587595Y37624064D01*
X9588339Y37624654D01*
X9588350Y37624660D01*
X9710340Y37746650D01*
X9800908Y37893484D01*
X9855174Y38057247D01*
X9865500Y38158323D01*
X9865499Y38756676D01*
X9855174Y38857753D01*
X9800908Y39021516D01*
X9710340Y39168350D01*
X9596371Y39282319D01*
X9562886Y39343642D01*
X9567870Y39413334D01*
X9596371Y39457681D01*
X9710340Y39571650D01*
X9800908Y39718484D01*
X9855174Y39882247D01*
X9865500Y39983323D01*
X9865499Y40581676D01*
X9855174Y40682753D01*
X9800908Y40846516D01*
X9710340Y40993350D01*
X9588350Y41115340D01*
X9588349Y41115341D01*
X9588347Y41115343D01*
X9587593Y41115939D01*
X9587209Y41116481D01*
X9583243Y41120447D01*
X9583920Y41121125D01*
X9547214Y41172959D01*
X9540500Y41213208D01*
X9540500Y46669192D01*
X9560185Y46736231D01*
X9576819Y46756873D01*
X9758127Y46938181D01*
X9819450Y46971666D01*
X9845808Y46974500D01*
X10830647Y46974500D01*
X10897686Y46954815D01*
X10943441Y46902011D01*
X10953385Y46832853D01*
X10927855Y46774903D01*
X10928108Y46774734D01*
X10927147Y46773296D01*
X10926507Y46771843D01*
X10924726Y46769673D01*
X10853534Y46663126D01*
X10804499Y46544745D01*
X10804497Y46544739D01*
X10779500Y46419072D01*
X10779500Y41213208D01*
X10759815Y41146169D01*
X10736619Y41120585D01*
X10736757Y41120447D01*
X10733941Y41117632D01*
X10732407Y41115939D01*
X10731652Y41115343D01*
X10609659Y40993349D01*
X10519093Y40846519D01*
X10519092Y40846516D01*
X10464826Y40682753D01*
X10464826Y40682752D01*
X10464825Y40682752D01*
X10454500Y40581685D01*
X10454500Y39983331D01*
X10454501Y39983313D01*
X10464825Y39882248D01*
X10519092Y39718485D01*
X10519093Y39718482D01*
X10609661Y39571649D01*
X10723629Y39457681D01*
X10757114Y39396358D01*
X10752130Y39326666D01*
X10723629Y39282319D01*
X10609661Y39168352D01*
X10519093Y39021519D01*
X10519092Y39021516D01*
X10464826Y38857753D01*
X10464826Y38857752D01*
X10464825Y38857752D01*
X10454500Y38756685D01*
X10454500Y38158331D01*
X10454501Y38158313D01*
X10464825Y38057248D01*
X10501109Y37947751D01*
X10519092Y37893484D01*
X10609660Y37746650D01*
X10731650Y37624660D01*
X10731656Y37624657D01*
X10732405Y37624064D01*
X10732790Y37623520D01*
X10736757Y37619553D01*
X10736079Y37618876D01*
X10772785Y37567044D01*
X10779500Y37526793D01*
X10779500Y33593208D01*
X10759815Y33526169D01*
X10736619Y33500585D01*
X10736757Y33500447D01*
X10733941Y33497632D01*
X10732407Y33495939D01*
X10731652Y33495343D01*
X10609659Y33373349D01*
X10519093Y33226519D01*
X10519092Y33226516D01*
X10464826Y33062753D01*
X10464826Y33062752D01*
X10464825Y33062752D01*
X10454500Y32961685D01*
X10454500Y32288331D01*
X10454501Y32288313D01*
X10464825Y32187248D01*
X10519092Y32023485D01*
X10519093Y32023482D01*
X10609661Y31876649D01*
X10648629Y31837681D01*
X10682114Y31776358D01*
X10677130Y31706666D01*
X10648629Y31662319D01*
X10609661Y31623352D01*
X10519093Y31476519D01*
X10519092Y31476516D01*
X10464826Y31312753D01*
X10464826Y31312752D01*
X10464825Y31312752D01*
X10454500Y31211685D01*
X10454500Y30538331D01*
X10454501Y30538313D01*
X10464825Y30437248D01*
X10501109Y30327751D01*
X10519092Y30273484D01*
X10609660Y30126650D01*
X10731650Y30004660D01*
X10731656Y30004657D01*
X10732405Y30004064D01*
X10732790Y30003520D01*
X10736757Y29999553D01*
X10736079Y29998876D01*
X10772785Y29947044D01*
X10779500Y29906793D01*
X10779500Y26175482D01*
X10759815Y26108443D01*
X10707011Y26062688D01*
X10637853Y26052744D01*
X10592380Y26068749D01*
X10552690Y26092221D01*
X10552689Y26092222D01*
X10410001Y26133677D01*
X10410000Y26133676D01*
X10410000Y23546327D01*
X10552694Y23587782D01*
X10552695Y23587782D01*
X10691329Y23669769D01*
X10691336Y23669775D01*
X10706963Y23685402D01*
X10768285Y23718889D01*
X10837977Y23713906D01*
X10882329Y23685402D01*
X10898357Y23669374D01*
X10898361Y23669372D01*
X10898363Y23669370D01*
X10898365Y23669369D01*
X11037106Y23587319D01*
X11077928Y23575459D01*
X11191897Y23542347D01*
X11191900Y23542347D01*
X11191902Y23542346D01*
X11228065Y23539500D01*
X11631934Y23539501D01*
X11668098Y23542346D01*
X11822894Y23587319D01*
X11961643Y23669374D01*
X11977672Y23685404D01*
X12038992Y23718889D01*
X12108684Y23713906D01*
X12153036Y23685402D01*
X12168661Y23669777D01*
X12168668Y23669771D01*
X12307305Y23587782D01*
X12450000Y23546326D01*
X12450000Y26133676D01*
X12449998Y26133677D01*
X12307310Y26092222D01*
X12307309Y26092221D01*
X12267620Y26068749D01*
X12199895Y26051568D01*
X12133633Y26073728D01*
X12089871Y26128195D01*
X12080500Y26175482D01*
X12080500Y29906793D01*
X12100185Y29973832D01*
X12123380Y29999416D01*
X12123243Y29999553D01*
X12126050Y30002361D01*
X12127595Y30004064D01*
X12128339Y30004654D01*
X12128350Y30004660D01*
X12250340Y30126650D01*
X12340908Y30273484D01*
X12395174Y30437247D01*
X12405500Y30538323D01*
X12405499Y31211676D01*
X12395174Y31312753D01*
X12340908Y31476516D01*
X12250340Y31623350D01*
X12211371Y31662319D01*
X12177886Y31723642D01*
X12182870Y31793334D01*
X12211371Y31837681D01*
X12250340Y31876650D01*
X12340908Y32023484D01*
X12395174Y32187247D01*
X12405500Y32288323D01*
X12405499Y32961676D01*
X12395174Y33062753D01*
X12340908Y33226516D01*
X12250340Y33373350D01*
X12128350Y33495340D01*
X12128349Y33495341D01*
X12128347Y33495343D01*
X12127593Y33495939D01*
X12127209Y33496481D01*
X12123243Y33500447D01*
X12123920Y33501125D01*
X12087214Y33552959D01*
X12080500Y33593208D01*
X12080500Y37526793D01*
X12100185Y37593832D01*
X12123380Y37619416D01*
X12123243Y37619553D01*
X12126050Y37622361D01*
X12127595Y37624064D01*
X12128339Y37624654D01*
X12128350Y37624660D01*
X12250340Y37746650D01*
X12340908Y37893484D01*
X12395174Y38057247D01*
X12405500Y38158323D01*
X12405499Y38756676D01*
X12395174Y38857753D01*
X12340908Y39021516D01*
X12250340Y39168350D01*
X12136371Y39282319D01*
X12102886Y39343642D01*
X12107870Y39413334D01*
X12136371Y39457681D01*
X12250340Y39571650D01*
X12340908Y39718484D01*
X12395174Y39882247D01*
X12405500Y39983323D01*
X12405499Y40581676D01*
X12395174Y40682753D01*
X12340908Y40846516D01*
X12250340Y40993350D01*
X12128350Y41115340D01*
X12128349Y41115341D01*
X12128347Y41115343D01*
X12127593Y41115939D01*
X12127209Y41116481D01*
X12123243Y41120447D01*
X12123920Y41121125D01*
X12087214Y41172959D01*
X12080500Y41213208D01*
X12080500Y46034192D01*
X12100185Y46101231D01*
X12116819Y46121873D01*
X12298127Y46303181D01*
X12359450Y46336666D01*
X12385808Y46339500D01*
X13370647Y46339500D01*
X13437686Y46319815D01*
X13483441Y46267011D01*
X13493385Y46197853D01*
X13467855Y46139903D01*
X13468108Y46139734D01*
X13467147Y46138296D01*
X13466507Y46136843D01*
X13464726Y46134673D01*
X13393534Y46028126D01*
X13344499Y45909745D01*
X13344497Y45909739D01*
X13319500Y45784072D01*
X13319500Y41213208D01*
X13299815Y41146169D01*
X13276619Y41120585D01*
X13276757Y41120447D01*
X13273941Y41117632D01*
X13272407Y41115939D01*
X13271652Y41115343D01*
X13149659Y40993349D01*
X13059093Y40846519D01*
X13059092Y40846516D01*
X13004826Y40682753D01*
X13004826Y40682752D01*
X13004825Y40682752D01*
X12994500Y40581685D01*
X12994500Y39983331D01*
X12994501Y39983313D01*
X13004825Y39882248D01*
X13059092Y39718485D01*
X13059093Y39718482D01*
X13149661Y39571649D01*
X13263629Y39457681D01*
X13297114Y39396358D01*
X13292130Y39326666D01*
X13263629Y39282319D01*
X13149661Y39168352D01*
X13059093Y39021519D01*
X13059092Y39021516D01*
X13004826Y38857753D01*
X13004826Y38857752D01*
X13004825Y38857752D01*
X12994500Y38756685D01*
X12994500Y38158331D01*
X12994501Y38158313D01*
X13004825Y38057248D01*
X13041109Y37947751D01*
X13059092Y37893484D01*
X13149660Y37746650D01*
X13271650Y37624660D01*
X13271656Y37624657D01*
X13272405Y37624064D01*
X13272790Y37623520D01*
X13276757Y37619553D01*
X13276079Y37618876D01*
X13312785Y37567044D01*
X13319500Y37526793D01*
X13319500Y33593208D01*
X13299815Y33526169D01*
X13276619Y33500585D01*
X13276757Y33500447D01*
X13273941Y33497632D01*
X13272407Y33495939D01*
X13271652Y33495343D01*
X13149659Y33373349D01*
X13059093Y33226519D01*
X13059092Y33226516D01*
X13004826Y33062753D01*
X13004826Y33062752D01*
X13004825Y33062752D01*
X12994500Y32961685D01*
X12994500Y32288331D01*
X12994501Y32288313D01*
X13004825Y32187248D01*
X13059092Y32023485D01*
X13059093Y32023482D01*
X13149661Y31876649D01*
X13188629Y31837681D01*
X13222114Y31776358D01*
X13217130Y31706666D01*
X13188629Y31662319D01*
X13149661Y31623352D01*
X13059093Y31476519D01*
X13059092Y31476516D01*
X13004826Y31312753D01*
X13004826Y31312752D01*
X13004825Y31312752D01*
X12994500Y31211685D01*
X12994500Y30538331D01*
X12994501Y30538313D01*
X13004825Y30437248D01*
X13041109Y30327751D01*
X13059092Y30273484D01*
X13149660Y30126650D01*
X13271650Y30004660D01*
X13271656Y30004657D01*
X13272405Y30004064D01*
X13272790Y30003520D01*
X13276757Y29999553D01*
X13276079Y29998876D01*
X13312785Y29947044D01*
X13319500Y29906793D01*
X13319500Y26175482D01*
X13299815Y26108443D01*
X13247011Y26062688D01*
X13177853Y26052744D01*
X13132380Y26068749D01*
X13092690Y26092221D01*
X13092689Y26092222D01*
X12950001Y26133677D01*
X12950000Y26133676D01*
X12950000Y23546327D01*
X13092694Y23587782D01*
X13092695Y23587782D01*
X13231329Y23669769D01*
X13231336Y23669775D01*
X13246963Y23685402D01*
X13308285Y23718889D01*
X13377977Y23713906D01*
X13422329Y23685402D01*
X13438357Y23669374D01*
X13438361Y23669372D01*
X13438363Y23669370D01*
X13438365Y23669369D01*
X13577106Y23587319D01*
X13617928Y23575459D01*
X13731897Y23542347D01*
X13731900Y23542347D01*
X13731902Y23542346D01*
X13768065Y23539500D01*
X14171934Y23539501D01*
X14208098Y23542346D01*
X14362894Y23587319D01*
X14501643Y23669374D01*
X14615626Y23783357D01*
X14697681Y23922106D01*
X14742654Y24076902D01*
X14745500Y24113065D01*
X14745500Y24113107D01*
X19545001Y24113107D01*
X19547844Y24076979D01*
X19592779Y23922311D01*
X19592780Y23922308D01*
X19674770Y23783669D01*
X19674776Y23783661D01*
X19788660Y23669777D01*
X19788668Y23669771D01*
X19927305Y23587782D01*
X20070000Y23546326D01*
X20070000Y24590000D01*
X19545001Y24590000D01*
X19545001Y24113107D01*
X14745500Y24113107D01*
X14745499Y25090000D01*
X14745499Y25566891D01*
X19545000Y25566891D01*
X19545000Y25090000D01*
X20070000Y25090000D01*
X20070000Y26133676D01*
X20069998Y26133677D01*
X19927310Y26092222D01*
X19927307Y26092220D01*
X19788668Y26010230D01*
X19788660Y26010224D01*
X19674776Y25896340D01*
X19674770Y25896332D01*
X19592780Y25757693D01*
X19592779Y25757690D01*
X19547844Y25603025D01*
X19547843Y25603019D01*
X19545000Y25566891D01*
X14745499Y25566891D01*
X14745499Y25566923D01*
X14745498Y25566948D01*
X14745216Y25570532D01*
X14742654Y25603098D01*
X14697681Y25757894D01*
X14637766Y25859206D01*
X14620500Y25922324D01*
X14620500Y29906793D01*
X14640185Y29973832D01*
X14663380Y29999416D01*
X14663243Y29999553D01*
X14666050Y30002361D01*
X14667595Y30004064D01*
X14668339Y30004654D01*
X14668350Y30004660D01*
X14790340Y30126650D01*
X14880908Y30273484D01*
X14935174Y30437247D01*
X14945500Y30538323D01*
X14945499Y31211676D01*
X14935174Y31312753D01*
X14880908Y31476516D01*
X14790340Y31623350D01*
X14751371Y31662319D01*
X14717886Y31723642D01*
X14722870Y31793334D01*
X14751371Y31837681D01*
X14790340Y31876650D01*
X14880908Y32023484D01*
X14935174Y32187247D01*
X14945500Y32288323D01*
X14945499Y32961676D01*
X14935174Y33062753D01*
X14880908Y33226516D01*
X14790340Y33373350D01*
X14668350Y33495340D01*
X14668349Y33495341D01*
X14668347Y33495343D01*
X14667593Y33495939D01*
X14667209Y33496481D01*
X14663243Y33500447D01*
X14663920Y33501125D01*
X14627214Y33552959D01*
X14620500Y33593208D01*
X14620500Y37526793D01*
X14640185Y37593832D01*
X14663380Y37619416D01*
X14663243Y37619553D01*
X14666050Y37622361D01*
X14667595Y37624064D01*
X14668339Y37624654D01*
X14668350Y37624660D01*
X14790340Y37746650D01*
X14880908Y37893484D01*
X14935174Y38057247D01*
X14945500Y38158323D01*
X14945499Y38756676D01*
X14935174Y38857753D01*
X14880908Y39021516D01*
X14790340Y39168350D01*
X14676371Y39282319D01*
X14642886Y39343642D01*
X14647870Y39413334D01*
X14676371Y39457681D01*
X14790340Y39571650D01*
X14880908Y39718484D01*
X14935174Y39882247D01*
X14945500Y39983323D01*
X14945499Y40581676D01*
X14935174Y40682753D01*
X14880908Y40846516D01*
X14790340Y40993350D01*
X14668350Y41115340D01*
X14668349Y41115341D01*
X14668347Y41115343D01*
X14667593Y41115939D01*
X14667209Y41116481D01*
X14663243Y41120447D01*
X14663920Y41121125D01*
X14627214Y41172959D01*
X14620500Y41213208D01*
X14620500Y45399192D01*
X14640185Y45466231D01*
X14656819Y45486873D01*
X14838127Y45668181D01*
X14899450Y45701666D01*
X14925808Y45704500D01*
X20384071Y45704500D01*
X20468615Y45721318D01*
X20509744Y45729499D01*
X20628127Y45778535D01*
X20636409Y45784069D01*
X20734669Y45849723D01*
X20737582Y45852637D01*
X20745937Y45858298D01*
X20774014Y45867292D01*
X20801145Y45878814D01*
X20806907Y45877828D01*
X20812476Y45879611D01*
X20840954Y45871999D01*
X20870013Y45867023D01*
X20874328Y45863077D01*
X20879976Y45861567D01*
X20899815Y45839769D01*
X20921573Y45819871D01*
X20923186Y45814090D01*
X20927005Y45809894D01*
X20931052Y45785912D01*
X20939500Y45755648D01*
X20939500Y41213208D01*
X20919815Y41146169D01*
X20896619Y41120585D01*
X20896757Y41120447D01*
X20893941Y41117632D01*
X20892407Y41115939D01*
X20891652Y41115343D01*
X20769659Y40993349D01*
X20679093Y40846519D01*
X20679092Y40846516D01*
X20624826Y40682753D01*
X20624826Y40682752D01*
X20624825Y40682752D01*
X20614500Y40581685D01*
X20614500Y39983331D01*
X20614501Y39983313D01*
X20624825Y39882248D01*
X20679092Y39718485D01*
X20679093Y39718482D01*
X20769661Y39571649D01*
X20883629Y39457681D01*
X20917114Y39396358D01*
X20912130Y39326666D01*
X20883629Y39282319D01*
X20769661Y39168352D01*
X20679093Y39021519D01*
X20679092Y39021516D01*
X20624826Y38857753D01*
X20624826Y38857752D01*
X20624825Y38857752D01*
X20614500Y38756685D01*
X20614500Y38158331D01*
X20614501Y38158313D01*
X20624825Y38057248D01*
X20661109Y37947751D01*
X20679092Y37893484D01*
X20769660Y37746650D01*
X20891650Y37624660D01*
X20891656Y37624657D01*
X20892405Y37624064D01*
X20892790Y37623520D01*
X20896757Y37619553D01*
X20896079Y37618876D01*
X20932785Y37567044D01*
X20939500Y37526793D01*
X20939500Y33593208D01*
X20919815Y33526169D01*
X20896619Y33500585D01*
X20896757Y33500447D01*
X20893941Y33497632D01*
X20892407Y33495939D01*
X20891652Y33495343D01*
X20769659Y33373349D01*
X20679093Y33226519D01*
X20679092Y33226516D01*
X20624826Y33062753D01*
X20624826Y33062752D01*
X20624825Y33062752D01*
X20614500Y32961685D01*
X20614500Y32288331D01*
X20614501Y32288313D01*
X20624825Y32187248D01*
X20679092Y32023485D01*
X20679093Y32023482D01*
X20769661Y31876649D01*
X20808629Y31837681D01*
X20842114Y31776358D01*
X20837130Y31706666D01*
X20808629Y31662319D01*
X20769661Y31623352D01*
X20679093Y31476519D01*
X20679092Y31476516D01*
X20624826Y31312753D01*
X20624826Y31312752D01*
X20624825Y31312752D01*
X20614500Y31211685D01*
X20614500Y30538331D01*
X20614501Y30538313D01*
X20624825Y30437248D01*
X20661109Y30327751D01*
X20679092Y30273484D01*
X20769660Y30126650D01*
X20891650Y30004660D01*
X20891656Y30004657D01*
X20892405Y30004064D01*
X20892790Y30003520D01*
X20896757Y29999553D01*
X20896079Y29998876D01*
X20932785Y29947044D01*
X20939500Y29906793D01*
X20939500Y26175482D01*
X20919815Y26108443D01*
X20867011Y26062688D01*
X20797853Y26052744D01*
X20752380Y26068749D01*
X20712690Y26092221D01*
X20712689Y26092222D01*
X20570001Y26133677D01*
X20570000Y26133676D01*
X20570000Y23546327D01*
X20712694Y23587782D01*
X20712695Y23587782D01*
X20851329Y23669769D01*
X20851336Y23669775D01*
X20866963Y23685402D01*
X20928285Y23718889D01*
X20997977Y23713906D01*
X21042329Y23685402D01*
X21058357Y23669374D01*
X21058361Y23669372D01*
X21058363Y23669370D01*
X21058365Y23669369D01*
X21197106Y23587319D01*
X21237928Y23575459D01*
X21351897Y23542347D01*
X21351900Y23542347D01*
X21351902Y23542346D01*
X21388065Y23539500D01*
X21791934Y23539501D01*
X21828098Y23542346D01*
X21982894Y23587319D01*
X22121643Y23669374D01*
X22137672Y23685404D01*
X22198992Y23718889D01*
X22268684Y23713906D01*
X22313036Y23685402D01*
X22328661Y23669777D01*
X22328668Y23669771D01*
X22467305Y23587782D01*
X22610000Y23546326D01*
X22610000Y26133676D01*
X22609998Y26133677D01*
X22467310Y26092222D01*
X22467309Y26092221D01*
X22427620Y26068749D01*
X22359895Y26051568D01*
X22293633Y26073728D01*
X22249871Y26128195D01*
X22240500Y26175482D01*
X22240500Y29906793D01*
X22260185Y29973832D01*
X22283380Y29999416D01*
X22283243Y29999553D01*
X22286050Y30002361D01*
X22287595Y30004064D01*
X22288339Y30004654D01*
X22288350Y30004660D01*
X22410340Y30126650D01*
X22500908Y30273484D01*
X22555174Y30437247D01*
X22565500Y30538323D01*
X22565499Y31211676D01*
X22555174Y31312753D01*
X22500908Y31476516D01*
X22410340Y31623350D01*
X22371371Y31662319D01*
X22337886Y31723642D01*
X22342870Y31793334D01*
X22371371Y31837681D01*
X22410340Y31876650D01*
X22500908Y32023484D01*
X22555174Y32187247D01*
X22565500Y32288323D01*
X22565499Y32961676D01*
X22555174Y33062753D01*
X22500908Y33226516D01*
X22410340Y33373350D01*
X22288350Y33495340D01*
X22288349Y33495341D01*
X22288347Y33495343D01*
X22287593Y33495939D01*
X22287209Y33496481D01*
X22283243Y33500447D01*
X22283920Y33501125D01*
X22247214Y33552959D01*
X22240500Y33593208D01*
X22240500Y37526793D01*
X22260185Y37593832D01*
X22283380Y37619416D01*
X22283243Y37619553D01*
X22286050Y37622361D01*
X22287595Y37624064D01*
X22288339Y37624654D01*
X22288350Y37624660D01*
X22410340Y37746650D01*
X22500908Y37893484D01*
X22555174Y38057247D01*
X22565500Y38158323D01*
X22565499Y38756676D01*
X22555174Y38857753D01*
X22500908Y39021516D01*
X22410340Y39168350D01*
X22296371Y39282319D01*
X22262886Y39343642D01*
X22267870Y39413334D01*
X22296371Y39457681D01*
X22410340Y39571650D01*
X22500908Y39718484D01*
X22555174Y39882247D01*
X22565500Y39983323D01*
X22565499Y40581676D01*
X22555174Y40682753D01*
X22500908Y40846516D01*
X22410340Y40993350D01*
X22288350Y41115340D01*
X22288349Y41115341D01*
X22288347Y41115343D01*
X22287593Y41115939D01*
X22287209Y41116481D01*
X22283243Y41120447D01*
X22283920Y41121125D01*
X22247214Y41172959D01*
X22240500Y41213208D01*
X22240500Y47304192D01*
X22260185Y47371231D01*
X22276819Y47391873D01*
X24000273Y49115327D01*
X24000274Y49115328D01*
X24000277Y49115331D01*
X24071465Y49221873D01*
X24120501Y49340256D01*
X24132270Y49399420D01*
X24132440Y49400276D01*
X24132440Y49400278D01*
X24145500Y49465930D01*
X24145500Y50041000D01*
X24165185Y50108039D01*
X24217989Y50153794D01*
X24269500Y50165000D01*
X25260500Y50165000D01*
X25269185Y50162450D01*
X25278147Y50163738D01*
X25302187Y50152760D01*
X25327539Y50145315D01*
X25333466Y50138475D01*
X25341703Y50134713D01*
X25355992Y50112479D01*
X25373294Y50092511D01*
X25375581Y50081997D01*
X25379477Y50075935D01*
X25384500Y50041000D01*
X25384500Y49850809D01*
X25364815Y49783770D01*
X25348181Y49763128D01*
X23624727Y48039675D01*
X23624726Y48039674D01*
X23553534Y47933126D01*
X23504499Y47814745D01*
X23504497Y47814739D01*
X23479500Y47689072D01*
X23479500Y41213208D01*
X23459815Y41146169D01*
X23436619Y41120585D01*
X23436757Y41120447D01*
X23433941Y41117632D01*
X23432407Y41115939D01*
X23431652Y41115343D01*
X23309659Y40993349D01*
X23219093Y40846519D01*
X23219092Y40846516D01*
X23164826Y40682753D01*
X23164826Y40682752D01*
X23164825Y40682752D01*
X23154500Y40581685D01*
X23154500Y39983331D01*
X23154501Y39983313D01*
X23164825Y39882248D01*
X23219092Y39718485D01*
X23219093Y39718482D01*
X23309661Y39571649D01*
X23423629Y39457681D01*
X23457114Y39396358D01*
X23452130Y39326666D01*
X23423629Y39282319D01*
X23309661Y39168352D01*
X23219093Y39021519D01*
X23219092Y39021516D01*
X23164826Y38857753D01*
X23164826Y38857752D01*
X23164825Y38857752D01*
X23154500Y38756685D01*
X23154500Y38158331D01*
X23154501Y38158313D01*
X23164825Y38057248D01*
X23201109Y37947751D01*
X23219092Y37893484D01*
X23309660Y37746650D01*
X23431650Y37624660D01*
X23431656Y37624657D01*
X23432405Y37624064D01*
X23432790Y37623520D01*
X23436757Y37619553D01*
X23436079Y37618876D01*
X23472785Y37567044D01*
X23479500Y37526793D01*
X23479500Y33593208D01*
X23459815Y33526169D01*
X23436619Y33500585D01*
X23436757Y33500447D01*
X23433941Y33497632D01*
X23432407Y33495939D01*
X23431652Y33495343D01*
X23309659Y33373349D01*
X23219093Y33226519D01*
X23219092Y33226516D01*
X23164826Y33062753D01*
X23164826Y33062752D01*
X23164825Y33062752D01*
X23154500Y32961685D01*
X23154500Y32288331D01*
X23154501Y32288313D01*
X23164825Y32187248D01*
X23219092Y32023485D01*
X23219093Y32023482D01*
X23309661Y31876649D01*
X23348629Y31837681D01*
X23382114Y31776358D01*
X23377130Y31706666D01*
X23348629Y31662319D01*
X23309661Y31623352D01*
X23219093Y31476519D01*
X23219092Y31476516D01*
X23164826Y31312753D01*
X23164826Y31312752D01*
X23164825Y31312752D01*
X23154500Y31211685D01*
X23154500Y30538331D01*
X23154501Y30538313D01*
X23164825Y30437248D01*
X23201109Y30327751D01*
X23219092Y30273484D01*
X23309660Y30126650D01*
X23431650Y30004660D01*
X23431656Y30004657D01*
X23432405Y30004064D01*
X23432790Y30003520D01*
X23436757Y29999553D01*
X23436079Y29998876D01*
X23472785Y29947044D01*
X23479500Y29906793D01*
X23479500Y26175482D01*
X23459815Y26108443D01*
X23407011Y26062688D01*
X23337853Y26052744D01*
X23292380Y26068749D01*
X23252690Y26092221D01*
X23252689Y26092222D01*
X23110001Y26133677D01*
X23110000Y26133676D01*
X23110000Y23546327D01*
X23252694Y23587782D01*
X23252695Y23587782D01*
X23391329Y23669769D01*
X23391336Y23669775D01*
X23406963Y23685402D01*
X23468285Y23718889D01*
X23537977Y23713906D01*
X23582329Y23685402D01*
X23598357Y23669374D01*
X23598361Y23669372D01*
X23598363Y23669370D01*
X23598365Y23669369D01*
X23737106Y23587319D01*
X23777928Y23575459D01*
X23891897Y23542347D01*
X23891900Y23542347D01*
X23891902Y23542346D01*
X23928065Y23539500D01*
X24331934Y23539501D01*
X24368098Y23542346D01*
X24522894Y23587319D01*
X24661643Y23669374D01*
X24677672Y23685404D01*
X24738992Y23718889D01*
X24808684Y23713906D01*
X24853036Y23685402D01*
X24868661Y23669777D01*
X24868668Y23669771D01*
X25007305Y23587782D01*
X25150000Y23546326D01*
X25150000Y26133676D01*
X25149998Y26133677D01*
X25007310Y26092222D01*
X25007309Y26092221D01*
X24967620Y26068749D01*
X24899895Y26051568D01*
X24833633Y26073728D01*
X24789871Y26128195D01*
X24780500Y26175482D01*
X24780500Y29906793D01*
X24800185Y29973832D01*
X24823380Y29999416D01*
X24823243Y29999553D01*
X24826050Y30002361D01*
X24827595Y30004064D01*
X24828339Y30004654D01*
X24828350Y30004660D01*
X24950340Y30126650D01*
X25040908Y30273484D01*
X25095174Y30437247D01*
X25105500Y30538323D01*
X25105499Y31211676D01*
X25095174Y31312753D01*
X25040908Y31476516D01*
X24950340Y31623350D01*
X24911371Y31662319D01*
X24877886Y31723642D01*
X24882870Y31793334D01*
X24911371Y31837681D01*
X24950340Y31876650D01*
X25040908Y32023484D01*
X25095174Y32187247D01*
X25105500Y32288323D01*
X25105499Y32961676D01*
X25095174Y33062753D01*
X25040908Y33226516D01*
X24950340Y33373350D01*
X24828350Y33495340D01*
X24828349Y33495341D01*
X24828347Y33495343D01*
X24827593Y33495939D01*
X24827209Y33496481D01*
X24823243Y33500447D01*
X24823920Y33501125D01*
X24787214Y33552959D01*
X24780500Y33593208D01*
X24780500Y37526793D01*
X24800185Y37593832D01*
X24823380Y37619416D01*
X24823243Y37619553D01*
X24826050Y37622361D01*
X24827595Y37624064D01*
X24828339Y37624654D01*
X24828350Y37624660D01*
X24950340Y37746650D01*
X25040908Y37893484D01*
X25095174Y38057247D01*
X25105500Y38158323D01*
X25105499Y38756676D01*
X25095174Y38857753D01*
X25040908Y39021516D01*
X24950340Y39168350D01*
X24836371Y39282319D01*
X24802886Y39343642D01*
X24807870Y39413334D01*
X24836371Y39457681D01*
X24950340Y39571650D01*
X25040908Y39718484D01*
X25095174Y39882247D01*
X25105500Y39983323D01*
X25105499Y40581676D01*
X25095174Y40682753D01*
X25040908Y40846516D01*
X24950340Y40993350D01*
X24828350Y41115340D01*
X24828349Y41115341D01*
X24828347Y41115343D01*
X24827593Y41115939D01*
X24827209Y41116481D01*
X24823243Y41120447D01*
X24823920Y41121125D01*
X24787214Y41172959D01*
X24780500Y41213208D01*
X24780500Y47304192D01*
X24800185Y47371231D01*
X24816819Y47391873D01*
X26442819Y49017873D01*
X26504142Y49051358D01*
X26573834Y49046374D01*
X26629767Y49004502D01*
X26654184Y48939038D01*
X26654500Y48930192D01*
X26654500Y48580809D01*
X26634815Y48513770D01*
X26618181Y48493128D01*
X26164727Y48039675D01*
X26164726Y48039674D01*
X26093534Y47933126D01*
X26044499Y47814745D01*
X26044497Y47814739D01*
X26019500Y47689072D01*
X26019500Y41213208D01*
X25999815Y41146169D01*
X25976619Y41120585D01*
X25976757Y41120447D01*
X25973941Y41117632D01*
X25972407Y41115939D01*
X25971652Y41115343D01*
X25849659Y40993349D01*
X25759093Y40846519D01*
X25759092Y40846516D01*
X25704826Y40682753D01*
X25704826Y40682752D01*
X25704825Y40682752D01*
X25694500Y40581685D01*
X25694500Y39983331D01*
X25694501Y39983313D01*
X25704825Y39882248D01*
X25759092Y39718485D01*
X25759093Y39718482D01*
X25849661Y39571649D01*
X25963629Y39457681D01*
X25997114Y39396358D01*
X25992130Y39326666D01*
X25963629Y39282319D01*
X25849661Y39168352D01*
X25759093Y39021519D01*
X25759092Y39021516D01*
X25704826Y38857753D01*
X25704826Y38857752D01*
X25704825Y38857752D01*
X25694500Y38756685D01*
X25694500Y38158331D01*
X25694501Y38158313D01*
X25704825Y38057248D01*
X25741109Y37947751D01*
X25759092Y37893484D01*
X25849660Y37746650D01*
X25971650Y37624660D01*
X25971656Y37624657D01*
X25972405Y37624064D01*
X25972790Y37623520D01*
X25976757Y37619553D01*
X25976079Y37618876D01*
X26012785Y37567044D01*
X26019500Y37526793D01*
X26019500Y33593208D01*
X25999815Y33526169D01*
X25976619Y33500585D01*
X25976757Y33500447D01*
X25973941Y33497632D01*
X25972407Y33495939D01*
X25971652Y33495343D01*
X25849659Y33373349D01*
X25759093Y33226519D01*
X25759092Y33226516D01*
X25704826Y33062753D01*
X25704826Y33062752D01*
X25704825Y33062752D01*
X25694500Y32961685D01*
X25694500Y32288331D01*
X25694501Y32288313D01*
X25704825Y32187248D01*
X25759092Y32023485D01*
X25759093Y32023482D01*
X25849661Y31876649D01*
X25888629Y31837681D01*
X25922114Y31776358D01*
X25917130Y31706666D01*
X25888629Y31662319D01*
X25849661Y31623352D01*
X25759093Y31476519D01*
X25759092Y31476516D01*
X25704826Y31312753D01*
X25704826Y31312752D01*
X25704825Y31312752D01*
X25694500Y31211685D01*
X25694500Y30538331D01*
X25694501Y30538313D01*
X25704825Y30437248D01*
X25741109Y30327751D01*
X25759092Y30273484D01*
X25849660Y30126650D01*
X25971650Y30004660D01*
X25971656Y30004657D01*
X25972405Y30004064D01*
X25972790Y30003520D01*
X25976757Y29999553D01*
X25976079Y29998876D01*
X26012785Y29947044D01*
X26019500Y29906793D01*
X26019500Y26175482D01*
X25999815Y26108443D01*
X25947011Y26062688D01*
X25877853Y26052744D01*
X25832380Y26068749D01*
X25792690Y26092221D01*
X25792689Y26092222D01*
X25650001Y26133677D01*
X25650000Y26133676D01*
X25650000Y23546327D01*
X25792694Y23587782D01*
X25792695Y23587782D01*
X25931329Y23669769D01*
X25931336Y23669775D01*
X25946963Y23685402D01*
X26008285Y23718889D01*
X26077977Y23713906D01*
X26122329Y23685402D01*
X26138357Y23669374D01*
X26138361Y23669372D01*
X26138363Y23669370D01*
X26138365Y23669369D01*
X26277106Y23587319D01*
X26317928Y23575459D01*
X26431897Y23542347D01*
X26431900Y23542347D01*
X26431902Y23542346D01*
X26468065Y23539500D01*
X26871934Y23539501D01*
X26908098Y23542346D01*
X27062894Y23587319D01*
X27201643Y23669374D01*
X27217672Y23685404D01*
X27278992Y23718889D01*
X27348684Y23713906D01*
X27393036Y23685402D01*
X27408661Y23669777D01*
X27408668Y23669771D01*
X27547305Y23587782D01*
X27690000Y23546326D01*
X27690000Y26133676D01*
X27689998Y26133677D01*
X27547310Y26092222D01*
X27547309Y26092221D01*
X27507620Y26068749D01*
X27439895Y26051568D01*
X27373633Y26073728D01*
X27329871Y26128195D01*
X27320500Y26175482D01*
X27320500Y29906793D01*
X27340185Y29973832D01*
X27363380Y29999416D01*
X27363243Y29999553D01*
X27366050Y30002361D01*
X27367595Y30004064D01*
X27368339Y30004654D01*
X27368350Y30004660D01*
X27490340Y30126650D01*
X27580908Y30273484D01*
X27635174Y30437247D01*
X27645500Y30538323D01*
X27645499Y31211676D01*
X27635174Y31312753D01*
X27580908Y31476516D01*
X27490340Y31623350D01*
X27451371Y31662319D01*
X27417886Y31723642D01*
X27422870Y31793334D01*
X27451371Y31837681D01*
X27490340Y31876650D01*
X27580908Y32023484D01*
X27635174Y32187247D01*
X27645500Y32288323D01*
X27645499Y32961676D01*
X27635174Y33062753D01*
X27580908Y33226516D01*
X27490340Y33373350D01*
X27368350Y33495340D01*
X27368349Y33495341D01*
X27368347Y33495343D01*
X27367593Y33495939D01*
X27367209Y33496481D01*
X27363243Y33500447D01*
X27363920Y33501125D01*
X27327214Y33552959D01*
X27320500Y33593208D01*
X27320500Y37526793D01*
X27340185Y37593832D01*
X27363380Y37619416D01*
X27363243Y37619553D01*
X27366050Y37622361D01*
X27367595Y37624064D01*
X27368339Y37624654D01*
X27368350Y37624660D01*
X27490340Y37746650D01*
X27580908Y37893484D01*
X27635174Y38057247D01*
X27645500Y38158323D01*
X27645499Y38756676D01*
X27635174Y38857753D01*
X27580908Y39021516D01*
X27490340Y39168350D01*
X27376371Y39282319D01*
X27342886Y39343642D01*
X27347870Y39413334D01*
X27376371Y39457681D01*
X27490340Y39571650D01*
X27580908Y39718484D01*
X27635174Y39882247D01*
X27645500Y39983323D01*
X27645499Y40581676D01*
X27635174Y40682753D01*
X27580908Y40846516D01*
X27490340Y40993350D01*
X27368350Y41115340D01*
X27368349Y41115341D01*
X27368347Y41115343D01*
X27367593Y41115939D01*
X27367209Y41116481D01*
X27363243Y41120447D01*
X27363920Y41121125D01*
X27327214Y41172959D01*
X27320500Y41213208D01*
X27320500Y47304192D01*
X27340185Y47371231D01*
X27356819Y47391873D01*
X27810272Y47845326D01*
X27810277Y47845331D01*
X27881466Y47951874D01*
X27930501Y48070257D01*
X27955500Y48195931D01*
X27955500Y48324069D01*
X27955500Y50041000D01*
X27958050Y50049686D01*
X27956762Y50058647D01*
X27967740Y50082688D01*
X27975185Y50108039D01*
X27982025Y50113967D01*
X27985787Y50122203D01*
X28008021Y50136493D01*
X28027989Y50153794D01*
X28038503Y50156082D01*
X28044565Y50159977D01*
X28079500Y50165000D01*
X28093709Y50165000D01*
X28132027Y50158932D01*
X28258757Y50117754D01*
X28468713Y50084500D01*
X28468714Y50084500D01*
X28681286Y50084500D01*
X28681287Y50084500D01*
X28891243Y50117754D01*
X29017972Y50158932D01*
X29020302Y50159301D01*
X29021356Y50159977D01*
X29056291Y50165000D01*
X29070500Y50165000D01*
X29137539Y50145315D01*
X29183294Y50092511D01*
X29194500Y50041000D01*
X29194500Y48580809D01*
X29174815Y48513770D01*
X29158181Y48493128D01*
X28704727Y48039675D01*
X28704726Y48039674D01*
X28633534Y47933126D01*
X28584499Y47814745D01*
X28584497Y47814739D01*
X28559500Y47689072D01*
X28559500Y41213208D01*
X28539815Y41146169D01*
X28516619Y41120585D01*
X28516757Y41120447D01*
X28513941Y41117632D01*
X28512407Y41115939D01*
X28511652Y41115343D01*
X28389659Y40993349D01*
X28299093Y40846519D01*
X28299092Y40846516D01*
X28244826Y40682753D01*
X28244826Y40682752D01*
X28244825Y40682752D01*
X28234500Y40581685D01*
X28234500Y39983331D01*
X28234501Y39983313D01*
X28244825Y39882248D01*
X28299092Y39718485D01*
X28299093Y39718482D01*
X28389661Y39571649D01*
X28503629Y39457681D01*
X28537114Y39396358D01*
X28532130Y39326666D01*
X28503629Y39282319D01*
X28389661Y39168352D01*
X28299093Y39021519D01*
X28299092Y39021516D01*
X28244826Y38857753D01*
X28244826Y38857752D01*
X28244825Y38857752D01*
X28234500Y38756685D01*
X28234500Y38158331D01*
X28234501Y38158313D01*
X28244825Y38057248D01*
X28281109Y37947751D01*
X28299092Y37893484D01*
X28389660Y37746650D01*
X28511650Y37624660D01*
X28511656Y37624657D01*
X28512405Y37624064D01*
X28512790Y37623520D01*
X28516757Y37619553D01*
X28516079Y37618876D01*
X28552785Y37567044D01*
X28559500Y37526793D01*
X28559500Y33593208D01*
X28539815Y33526169D01*
X28516619Y33500585D01*
X28516757Y33500447D01*
X28513941Y33497632D01*
X28512407Y33495939D01*
X28511652Y33495343D01*
X28389659Y33373349D01*
X28299093Y33226519D01*
X28299092Y33226516D01*
X28244826Y33062753D01*
X28244826Y33062752D01*
X28244825Y33062752D01*
X28234500Y32961685D01*
X28234500Y32288331D01*
X28234501Y32288313D01*
X28244825Y32187248D01*
X28299092Y32023485D01*
X28299093Y32023482D01*
X28389661Y31876649D01*
X28428629Y31837681D01*
X28462114Y31776358D01*
X28457130Y31706666D01*
X28428629Y31662319D01*
X28389661Y31623352D01*
X28299093Y31476519D01*
X28299092Y31476516D01*
X28244826Y31312753D01*
X28244826Y31312752D01*
X28244825Y31312752D01*
X28234500Y31211685D01*
X28234500Y30538331D01*
X28234501Y30538313D01*
X28244825Y30437248D01*
X28281109Y30327751D01*
X28299092Y30273484D01*
X28389660Y30126650D01*
X28511650Y30004660D01*
X28511656Y30004657D01*
X28512405Y30004064D01*
X28512790Y30003520D01*
X28516757Y29999553D01*
X28516079Y29998876D01*
X28552785Y29947044D01*
X28559500Y29906793D01*
X28559500Y26175482D01*
X28539815Y26108443D01*
X28487011Y26062688D01*
X28417853Y26052744D01*
X28372380Y26068749D01*
X28332690Y26092221D01*
X28332689Y26092222D01*
X28190001Y26133677D01*
X28190000Y26133676D01*
X28190000Y23546326D01*
X28332694Y23587782D01*
X28332695Y23587782D01*
X28471329Y23669769D01*
X28471336Y23669775D01*
X28486963Y23685402D01*
X28548285Y23718889D01*
X28617977Y23713906D01*
X28662329Y23685402D01*
X28678357Y23669374D01*
X28678361Y23669372D01*
X28678363Y23669370D01*
X28678365Y23669369D01*
X28817106Y23587319D01*
X28857928Y23575459D01*
X28971897Y23542347D01*
X28971900Y23542347D01*
X28971902Y23542346D01*
X29008065Y23539500D01*
X29411934Y23539501D01*
X29448098Y23542346D01*
X29602894Y23587319D01*
X29741643Y23669374D01*
X29855626Y23783357D01*
X29937681Y23922106D01*
X29982654Y24076902D01*
X29985500Y24113065D01*
X29985500Y24113107D01*
X34785001Y24113107D01*
X34787844Y24076979D01*
X34832779Y23922311D01*
X34832780Y23922308D01*
X34914770Y23783669D01*
X34914776Y23783661D01*
X35028660Y23669777D01*
X35028668Y23669771D01*
X35167305Y23587782D01*
X35310000Y23546326D01*
X35310000Y24590000D01*
X34785001Y24590000D01*
X34785001Y24113107D01*
X29985500Y24113107D01*
X29985499Y25090000D01*
X29985499Y25566891D01*
X34785000Y25566891D01*
X34785000Y25090000D01*
X35310000Y25090000D01*
X35310000Y26133676D01*
X35309998Y26133677D01*
X35167310Y26092222D01*
X35167307Y26092220D01*
X35028668Y26010230D01*
X35028660Y26010224D01*
X34914776Y25896340D01*
X34914770Y25896332D01*
X34832780Y25757693D01*
X34832779Y25757690D01*
X34787844Y25603025D01*
X34787843Y25603019D01*
X34785000Y25566891D01*
X29985499Y25566891D01*
X29985499Y25566923D01*
X29985498Y25566948D01*
X29985216Y25570532D01*
X29982654Y25603098D01*
X29937681Y25757894D01*
X29877766Y25859206D01*
X29860500Y25922324D01*
X29860500Y29906793D01*
X29880185Y29973832D01*
X29903380Y29999416D01*
X29903243Y29999553D01*
X29906050Y30002361D01*
X29907595Y30004064D01*
X29908339Y30004654D01*
X29908350Y30004660D01*
X30030340Y30126650D01*
X30120908Y30273484D01*
X30175174Y30437247D01*
X30185500Y30538323D01*
X30185499Y31211676D01*
X30175174Y31312753D01*
X30120908Y31476516D01*
X30030340Y31623350D01*
X29991371Y31662319D01*
X29957886Y31723642D01*
X29962870Y31793334D01*
X29991371Y31837681D01*
X30030340Y31876650D01*
X30120908Y32023484D01*
X30175174Y32187247D01*
X30185500Y32288323D01*
X30185499Y32961676D01*
X30175174Y33062753D01*
X30120908Y33226516D01*
X30030340Y33373350D01*
X29908350Y33495340D01*
X29908349Y33495341D01*
X29908347Y33495343D01*
X29907593Y33495939D01*
X29907209Y33496481D01*
X29903243Y33500447D01*
X29903920Y33501125D01*
X29867214Y33552959D01*
X29860500Y33593208D01*
X29860500Y37526793D01*
X29880185Y37593832D01*
X29903380Y37619416D01*
X29903243Y37619553D01*
X29906050Y37622361D01*
X29907595Y37624064D01*
X29908339Y37624654D01*
X29908350Y37624660D01*
X30030340Y37746650D01*
X30120908Y37893484D01*
X30175174Y38057247D01*
X30185500Y38158323D01*
X30185499Y38756676D01*
X30175174Y38857753D01*
X30120908Y39021516D01*
X30030340Y39168350D01*
X29916371Y39282319D01*
X29882886Y39343642D01*
X29887870Y39413334D01*
X29916371Y39457681D01*
X30030340Y39571650D01*
X30120908Y39718484D01*
X30175174Y39882247D01*
X30185500Y39983323D01*
X30185499Y40581676D01*
X30175174Y40682753D01*
X30120908Y40846516D01*
X30030340Y40993350D01*
X29908350Y41115340D01*
X29908349Y41115341D01*
X29908347Y41115343D01*
X29907593Y41115939D01*
X29907209Y41116481D01*
X29903243Y41120447D01*
X29903920Y41121125D01*
X29867214Y41172959D01*
X29860500Y41213208D01*
X29860500Y47304192D01*
X29880185Y47371231D01*
X29896819Y47391873D01*
X30252819Y47747873D01*
X30314142Y47781358D01*
X30383834Y47776374D01*
X30439767Y47734502D01*
X30464184Y47669038D01*
X30464500Y47660192D01*
X30464500Y42480931D01*
X30477560Y42415277D01*
X30489499Y42355256D01*
X30538535Y42236873D01*
X30609723Y42130331D01*
X30609726Y42130327D01*
X31335325Y41404728D01*
X31335331Y41404723D01*
X31441874Y41333534D01*
X31511221Y41304811D01*
X31560256Y41284499D01*
X31560259Y41284499D01*
X31560260Y41284498D01*
X31685928Y41259500D01*
X31685931Y41259500D01*
X35874192Y41259500D01*
X35903632Y41250856D01*
X35933619Y41244332D01*
X35938634Y41240578D01*
X35941231Y41239815D01*
X35961873Y41223181D01*
X36013001Y41172053D01*
X36046486Y41110730D01*
X36041502Y41041038D01*
X36013001Y40996691D01*
X36009661Y40993352D01*
X35919093Y40846519D01*
X35919092Y40846516D01*
X35864826Y40682753D01*
X35864826Y40682752D01*
X35864825Y40682752D01*
X35854500Y40581685D01*
X35854500Y39983331D01*
X35854501Y39983313D01*
X35864825Y39882248D01*
X35919092Y39718485D01*
X35919093Y39718482D01*
X36009661Y39571649D01*
X36123629Y39457681D01*
X36157114Y39396358D01*
X36152130Y39326666D01*
X36123629Y39282319D01*
X36009661Y39168352D01*
X35919093Y39021519D01*
X35919092Y39021516D01*
X35864826Y38857753D01*
X35864826Y38857752D01*
X35864825Y38857752D01*
X35854500Y38756685D01*
X35854500Y38158331D01*
X35854501Y38158313D01*
X35864825Y38057248D01*
X35901109Y37947751D01*
X35919092Y37893484D01*
X36009660Y37746650D01*
X36131650Y37624660D01*
X36131656Y37624657D01*
X36132405Y37624064D01*
X36132790Y37623520D01*
X36136757Y37619553D01*
X36136079Y37618876D01*
X36172785Y37567044D01*
X36179500Y37526793D01*
X36179500Y33593208D01*
X36159815Y33526169D01*
X36136619Y33500585D01*
X36136757Y33500447D01*
X36133941Y33497632D01*
X36132407Y33495939D01*
X36131652Y33495343D01*
X36009659Y33373349D01*
X35919093Y33226519D01*
X35919092Y33226516D01*
X35864826Y33062753D01*
X35864826Y33062752D01*
X35864825Y33062752D01*
X35854500Y32961685D01*
X35854500Y32288331D01*
X35854501Y32288313D01*
X35864825Y32187248D01*
X35919092Y32023485D01*
X35919093Y32023482D01*
X36009661Y31876649D01*
X36048629Y31837681D01*
X36082114Y31776358D01*
X36077130Y31706666D01*
X36048629Y31662319D01*
X36009661Y31623352D01*
X35919093Y31476519D01*
X35919092Y31476516D01*
X35864826Y31312753D01*
X35864826Y31312752D01*
X35864825Y31312752D01*
X35854500Y31211685D01*
X35854500Y30538331D01*
X35854501Y30538313D01*
X35864825Y30437248D01*
X35901109Y30327751D01*
X35919092Y30273484D01*
X36009660Y30126650D01*
X36131650Y30004660D01*
X36131656Y30004657D01*
X36132405Y30004064D01*
X36132790Y30003520D01*
X36136757Y29999553D01*
X36136079Y29998876D01*
X36172785Y29947044D01*
X36179500Y29906793D01*
X36179500Y26175482D01*
X36159815Y26108443D01*
X36107011Y26062688D01*
X36037853Y26052744D01*
X35992380Y26068749D01*
X35952690Y26092221D01*
X35952689Y26092222D01*
X35810001Y26133677D01*
X35810000Y26133676D01*
X35810000Y23546327D01*
X35952694Y23587782D01*
X35952695Y23587782D01*
X36091329Y23669769D01*
X36091336Y23669775D01*
X36106963Y23685402D01*
X36168285Y23718889D01*
X36237977Y23713906D01*
X36282329Y23685402D01*
X36298357Y23669374D01*
X36298361Y23669372D01*
X36298363Y23669370D01*
X36298365Y23669369D01*
X36437106Y23587319D01*
X36477928Y23575459D01*
X36591897Y23542347D01*
X36591900Y23542347D01*
X36591902Y23542346D01*
X36628065Y23539500D01*
X37031934Y23539501D01*
X37068098Y23542346D01*
X37222894Y23587319D01*
X37361643Y23669374D01*
X37377672Y23685404D01*
X37438992Y23718889D01*
X37508684Y23713906D01*
X37553036Y23685402D01*
X37568661Y23669777D01*
X37568668Y23669771D01*
X37707305Y23587782D01*
X37850000Y23546326D01*
X37850000Y26133676D01*
X37849998Y26133677D01*
X37707310Y26092222D01*
X37707309Y26092221D01*
X37667620Y26068749D01*
X37599895Y26051568D01*
X37533633Y26073728D01*
X37489871Y26128195D01*
X37480500Y26175482D01*
X37480500Y29906793D01*
X37500185Y29973832D01*
X37523380Y29999416D01*
X37523243Y29999553D01*
X37526050Y30002361D01*
X37527595Y30004064D01*
X37528339Y30004654D01*
X37528350Y30004660D01*
X37650340Y30126650D01*
X37740908Y30273484D01*
X37795174Y30437247D01*
X37805500Y30538323D01*
X37805499Y31211676D01*
X37795174Y31312753D01*
X37740908Y31476516D01*
X37650340Y31623350D01*
X37611371Y31662319D01*
X37577886Y31723642D01*
X37582870Y31793334D01*
X37611371Y31837681D01*
X37650340Y31876650D01*
X37740908Y32023484D01*
X37795174Y32187247D01*
X37805500Y32288323D01*
X37805499Y32961676D01*
X37795174Y33062753D01*
X37740908Y33226516D01*
X37650340Y33373350D01*
X37528350Y33495340D01*
X37528349Y33495341D01*
X37528347Y33495343D01*
X37527593Y33495939D01*
X37527209Y33496481D01*
X37523243Y33500447D01*
X37523920Y33501125D01*
X37487214Y33552959D01*
X37480500Y33593208D01*
X37480500Y37526793D01*
X37500185Y37593832D01*
X37523380Y37619416D01*
X37523243Y37619553D01*
X37526050Y37622361D01*
X37527595Y37624064D01*
X37528339Y37624654D01*
X37528350Y37624660D01*
X37650340Y37746650D01*
X37740908Y37893484D01*
X37795174Y38057247D01*
X37805500Y38158323D01*
X37805499Y38756676D01*
X37795174Y38857753D01*
X37740908Y39021516D01*
X37650340Y39168350D01*
X37536371Y39282319D01*
X37502886Y39343642D01*
X37507870Y39413334D01*
X37536371Y39457681D01*
X37650340Y39571650D01*
X37740908Y39718484D01*
X37795174Y39882247D01*
X37805500Y39983323D01*
X37805499Y40581676D01*
X37795174Y40682753D01*
X37740908Y40846516D01*
X37650340Y40993350D01*
X37528350Y41115340D01*
X37528349Y41115341D01*
X37528347Y41115343D01*
X37527593Y41115939D01*
X37527209Y41116481D01*
X37523243Y41120447D01*
X37523920Y41121125D01*
X37487214Y41172959D01*
X37480500Y41213208D01*
X37480500Y41339072D01*
X37455502Y41464740D01*
X37455500Y41464746D01*
X37435189Y41513779D01*
X37406466Y41583126D01*
X37335277Y41689669D01*
X37329443Y41695503D01*
X37321872Y41708663D01*
X37315993Y41733056D01*
X37306185Y41756156D01*
X37307947Y41766445D01*
X37305503Y41776588D01*
X37313745Y41800288D01*
X37317983Y41825022D01*
X37325026Y41832723D01*
X37328455Y41842581D01*
X37348205Y41858065D01*
X37365139Y41876578D01*
X37375515Y41879475D01*
X37383442Y41885688D01*
X37405054Y41887719D01*
X37429353Y41894500D01*
X38414192Y41894500D01*
X38481231Y41874815D01*
X38501873Y41858181D01*
X38683181Y41676873D01*
X38716666Y41615550D01*
X38719500Y41589192D01*
X38719500Y41213208D01*
X38699815Y41146169D01*
X38676619Y41120585D01*
X38676757Y41120447D01*
X38673941Y41117632D01*
X38672407Y41115939D01*
X38671652Y41115343D01*
X38549659Y40993349D01*
X38459093Y40846519D01*
X38459092Y40846516D01*
X38404826Y40682753D01*
X38404826Y40682752D01*
X38404825Y40682752D01*
X38394500Y40581685D01*
X38394500Y39983331D01*
X38394501Y39983313D01*
X38404825Y39882248D01*
X38459092Y39718485D01*
X38459093Y39718482D01*
X38549661Y39571649D01*
X38663629Y39457681D01*
X38697114Y39396358D01*
X38692130Y39326666D01*
X38663629Y39282319D01*
X38549661Y39168352D01*
X38459093Y39021519D01*
X38459092Y39021516D01*
X38404826Y38857753D01*
X38404826Y38857752D01*
X38404825Y38857752D01*
X38394500Y38756685D01*
X38394500Y38158331D01*
X38394501Y38158313D01*
X38404825Y38057248D01*
X38441109Y37947751D01*
X38459092Y37893484D01*
X38549660Y37746650D01*
X38671650Y37624660D01*
X38671656Y37624657D01*
X38672405Y37624064D01*
X38672790Y37623520D01*
X38676757Y37619553D01*
X38676079Y37618876D01*
X38712785Y37567044D01*
X38719500Y37526793D01*
X38719500Y33593208D01*
X38699815Y33526169D01*
X38676619Y33500585D01*
X38676757Y33500447D01*
X38673941Y33497632D01*
X38672407Y33495939D01*
X38671652Y33495343D01*
X38549659Y33373349D01*
X38459093Y33226519D01*
X38459092Y33226516D01*
X38404826Y33062753D01*
X38404826Y33062752D01*
X38404825Y33062752D01*
X38394500Y32961685D01*
X38394500Y32288331D01*
X38394501Y32288313D01*
X38404825Y32187248D01*
X38459092Y32023485D01*
X38459093Y32023482D01*
X38549661Y31876649D01*
X38588629Y31837681D01*
X38622114Y31776358D01*
X38617130Y31706666D01*
X38588629Y31662319D01*
X38549661Y31623352D01*
X38459093Y31476519D01*
X38459092Y31476516D01*
X38404826Y31312753D01*
X38404826Y31312752D01*
X38404825Y31312752D01*
X38394500Y31211685D01*
X38394500Y30538331D01*
X38394501Y30538313D01*
X38404825Y30437248D01*
X38441109Y30327751D01*
X38459092Y30273484D01*
X38549660Y30126650D01*
X38671650Y30004660D01*
X38671656Y30004657D01*
X38672405Y30004064D01*
X38672790Y30003520D01*
X38676757Y29999553D01*
X38676079Y29998876D01*
X38712785Y29947044D01*
X38719500Y29906793D01*
X38719500Y26175482D01*
X38699815Y26108443D01*
X38647011Y26062688D01*
X38577853Y26052744D01*
X38532380Y26068749D01*
X38492690Y26092221D01*
X38492689Y26092222D01*
X38350001Y26133677D01*
X38350000Y26133676D01*
X38350000Y23546327D01*
X38492694Y23587782D01*
X38492695Y23587782D01*
X38631329Y23669769D01*
X38631336Y23669775D01*
X38646963Y23685402D01*
X38708285Y23718889D01*
X38777977Y23713906D01*
X38822329Y23685402D01*
X38838357Y23669374D01*
X38838361Y23669372D01*
X38838363Y23669370D01*
X38838365Y23669369D01*
X38977106Y23587319D01*
X39017928Y23575459D01*
X39131897Y23542347D01*
X39131900Y23542347D01*
X39131902Y23542346D01*
X39168065Y23539500D01*
X39571934Y23539501D01*
X39608098Y23542346D01*
X39762894Y23587319D01*
X39901643Y23669374D01*
X39917672Y23685404D01*
X39978992Y23718889D01*
X40048684Y23713906D01*
X40093036Y23685402D01*
X40108661Y23669777D01*
X40108668Y23669771D01*
X40247305Y23587782D01*
X40390000Y23546326D01*
X40390000Y26133676D01*
X40389998Y26133677D01*
X40247310Y26092222D01*
X40247309Y26092221D01*
X40207620Y26068749D01*
X40139895Y26051568D01*
X40073633Y26073728D01*
X40029871Y26128195D01*
X40020500Y26175482D01*
X40020500Y29906793D01*
X40040185Y29973832D01*
X40063380Y29999416D01*
X40063243Y29999553D01*
X40066050Y30002361D01*
X40067595Y30004064D01*
X40068339Y30004654D01*
X40068350Y30004660D01*
X40190340Y30126650D01*
X40280908Y30273484D01*
X40335174Y30437247D01*
X40345500Y30538323D01*
X40345499Y31211676D01*
X40335174Y31312753D01*
X40280908Y31476516D01*
X40190340Y31623350D01*
X40151371Y31662319D01*
X40117886Y31723642D01*
X40122870Y31793334D01*
X40151371Y31837681D01*
X40190340Y31876650D01*
X40280908Y32023484D01*
X40335174Y32187247D01*
X40345500Y32288323D01*
X40345499Y32961676D01*
X40335174Y33062753D01*
X40280908Y33226516D01*
X40190340Y33373350D01*
X40068350Y33495340D01*
X40068349Y33495341D01*
X40068347Y33495343D01*
X40067593Y33495939D01*
X40067209Y33496481D01*
X40063243Y33500447D01*
X40063920Y33501125D01*
X40027214Y33552959D01*
X40020500Y33593208D01*
X40020500Y37526793D01*
X40040185Y37593832D01*
X40063380Y37619416D01*
X40063243Y37619553D01*
X40066050Y37622361D01*
X40067595Y37624064D01*
X40068339Y37624654D01*
X40068350Y37624660D01*
X40190340Y37746650D01*
X40280908Y37893484D01*
X40335174Y38057247D01*
X40345500Y38158323D01*
X40345499Y38756676D01*
X40335174Y38857753D01*
X40280908Y39021516D01*
X40190340Y39168350D01*
X40076371Y39282319D01*
X40042886Y39343642D01*
X40047870Y39413334D01*
X40076371Y39457681D01*
X40190340Y39571650D01*
X40280908Y39718484D01*
X40335174Y39882247D01*
X40345500Y39983323D01*
X40345499Y40581676D01*
X40335174Y40682753D01*
X40280908Y40846516D01*
X40190340Y40993350D01*
X40068350Y41115340D01*
X40068349Y41115341D01*
X40068347Y41115343D01*
X40067593Y41115939D01*
X40067209Y41116481D01*
X40063243Y41120447D01*
X40063920Y41121125D01*
X40027214Y41172959D01*
X40020500Y41213208D01*
X40020500Y41974072D01*
X39995502Y42099740D01*
X39995500Y42099746D01*
X39982832Y42130327D01*
X39975189Y42148779D01*
X39946466Y42218126D01*
X39875277Y42324669D01*
X39869443Y42330503D01*
X39861872Y42343663D01*
X39855993Y42368056D01*
X39846185Y42391156D01*
X39847947Y42401445D01*
X39845503Y42411588D01*
X39853745Y42435288D01*
X39857983Y42460022D01*
X39865026Y42467723D01*
X39868455Y42477581D01*
X39888205Y42493065D01*
X39905139Y42511578D01*
X39915515Y42514475D01*
X39923442Y42520688D01*
X39945054Y42522719D01*
X39969353Y42529500D01*
X40954192Y42529500D01*
X41021231Y42509815D01*
X41041873Y42493181D01*
X41223181Y42311873D01*
X41256666Y42250550D01*
X41259500Y42224192D01*
X41259500Y41213208D01*
X41239815Y41146169D01*
X41216619Y41120585D01*
X41216757Y41120447D01*
X41213941Y41117632D01*
X41212407Y41115939D01*
X41211652Y41115343D01*
X41089659Y40993349D01*
X40999093Y40846519D01*
X40999092Y40846516D01*
X40944826Y40682753D01*
X40944826Y40682752D01*
X40944825Y40682752D01*
X40934500Y40581685D01*
X40934500Y39983331D01*
X40934501Y39983313D01*
X40944825Y39882248D01*
X40999092Y39718485D01*
X40999093Y39718482D01*
X41089661Y39571649D01*
X41203629Y39457681D01*
X41237114Y39396358D01*
X41232130Y39326666D01*
X41203629Y39282319D01*
X41089661Y39168352D01*
X40999093Y39021519D01*
X40999092Y39021516D01*
X40944826Y38857753D01*
X40944826Y38857752D01*
X40944825Y38857752D01*
X40934500Y38756685D01*
X40934500Y38158331D01*
X40934501Y38158313D01*
X40944825Y38057248D01*
X40981109Y37947751D01*
X40999092Y37893484D01*
X41089660Y37746650D01*
X41211650Y37624660D01*
X41211656Y37624657D01*
X41212405Y37624064D01*
X41212790Y37623520D01*
X41216757Y37619553D01*
X41216079Y37618876D01*
X41252785Y37567044D01*
X41259500Y37526793D01*
X41259500Y33593208D01*
X41239815Y33526169D01*
X41216619Y33500585D01*
X41216757Y33500447D01*
X41213941Y33497632D01*
X41212407Y33495939D01*
X41211652Y33495343D01*
X41089659Y33373349D01*
X40999093Y33226519D01*
X40999092Y33226516D01*
X40944826Y33062753D01*
X40944826Y33062752D01*
X40944825Y33062752D01*
X40934500Y32961685D01*
X40934500Y32288331D01*
X40934501Y32288313D01*
X40944825Y32187248D01*
X40999092Y32023485D01*
X40999093Y32023482D01*
X41089661Y31876649D01*
X41128629Y31837681D01*
X41162114Y31776358D01*
X41157130Y31706666D01*
X41128629Y31662319D01*
X41089661Y31623352D01*
X40999093Y31476519D01*
X40999092Y31476516D01*
X40944826Y31312753D01*
X40944826Y31312752D01*
X40944825Y31312752D01*
X40934500Y31211685D01*
X40934500Y30538331D01*
X40934501Y30538313D01*
X40944825Y30437248D01*
X40981109Y30327751D01*
X40999092Y30273484D01*
X41089660Y30126650D01*
X41211650Y30004660D01*
X41211656Y30004657D01*
X41212405Y30004064D01*
X41212790Y30003520D01*
X41216757Y29999553D01*
X41216079Y29998876D01*
X41252785Y29947044D01*
X41259500Y29906793D01*
X41259500Y26175482D01*
X41239815Y26108443D01*
X41187011Y26062688D01*
X41117853Y26052744D01*
X41072380Y26068749D01*
X41032690Y26092221D01*
X41032689Y26092222D01*
X40890001Y26133677D01*
X40890000Y26133676D01*
X40890000Y23546327D01*
X41032694Y23587782D01*
X41032695Y23587782D01*
X41171329Y23669769D01*
X41171336Y23669775D01*
X41186963Y23685402D01*
X41248285Y23718889D01*
X41317977Y23713906D01*
X41362329Y23685402D01*
X41378357Y23669374D01*
X41378361Y23669372D01*
X41378363Y23669370D01*
X41378365Y23669369D01*
X41517106Y23587319D01*
X41557928Y23575459D01*
X41671897Y23542347D01*
X41671900Y23542347D01*
X41671902Y23542346D01*
X41708065Y23539500D01*
X42111934Y23539501D01*
X42148098Y23542346D01*
X42302894Y23587319D01*
X42441643Y23669374D01*
X42457672Y23685404D01*
X42518992Y23718889D01*
X42588684Y23713906D01*
X42633036Y23685402D01*
X42648661Y23669777D01*
X42648668Y23669771D01*
X42787305Y23587782D01*
X42930000Y23546326D01*
X42930000Y26133676D01*
X42929998Y26133677D01*
X42787310Y26092222D01*
X42787309Y26092221D01*
X42747620Y26068749D01*
X42679895Y26051568D01*
X42613633Y26073728D01*
X42569871Y26128195D01*
X42560500Y26175482D01*
X42560500Y29906793D01*
X42580185Y29973832D01*
X42603380Y29999416D01*
X42603243Y29999553D01*
X42606050Y30002361D01*
X42607595Y30004064D01*
X42608339Y30004654D01*
X42608350Y30004660D01*
X42730340Y30126650D01*
X42820908Y30273484D01*
X42875174Y30437247D01*
X42885500Y30538323D01*
X42885499Y31211676D01*
X42875174Y31312753D01*
X42820908Y31476516D01*
X42730340Y31623350D01*
X42691371Y31662319D01*
X42657886Y31723642D01*
X42662870Y31793334D01*
X42691371Y31837681D01*
X42730340Y31876650D01*
X42820908Y32023484D01*
X42875174Y32187247D01*
X42885500Y32288323D01*
X42885499Y32961676D01*
X42875174Y33062753D01*
X42820908Y33226516D01*
X42730340Y33373350D01*
X42608350Y33495340D01*
X42608349Y33495341D01*
X42608347Y33495343D01*
X42607593Y33495939D01*
X42607209Y33496481D01*
X42603243Y33500447D01*
X42603920Y33501125D01*
X42567214Y33552959D01*
X42560500Y33593208D01*
X42560500Y37526793D01*
X42580185Y37593832D01*
X42603380Y37619416D01*
X42603243Y37619553D01*
X42606050Y37622361D01*
X42607595Y37624064D01*
X42608339Y37624654D01*
X42608350Y37624660D01*
X42730340Y37746650D01*
X42820908Y37893484D01*
X42875174Y38057247D01*
X42885500Y38158323D01*
X42885499Y38756676D01*
X42875174Y38857753D01*
X42820908Y39021516D01*
X42730340Y39168350D01*
X42616371Y39282319D01*
X42582886Y39343642D01*
X42587870Y39413334D01*
X42616371Y39457681D01*
X42730340Y39571650D01*
X42820908Y39718484D01*
X42875174Y39882247D01*
X42885500Y39983323D01*
X42885499Y40581676D01*
X42875174Y40682753D01*
X42820908Y40846516D01*
X42730340Y40993350D01*
X42608350Y41115340D01*
X42608349Y41115341D01*
X42608347Y41115343D01*
X42607593Y41115939D01*
X42607209Y41116481D01*
X42603243Y41120447D01*
X42603920Y41121125D01*
X42567214Y41172959D01*
X42560500Y41213208D01*
X42560500Y42609072D01*
X42535502Y42734740D01*
X42535500Y42734746D01*
X42525009Y42760072D01*
X42515189Y42783779D01*
X42486466Y42853126D01*
X42415277Y42959669D01*
X42409443Y42965503D01*
X42401872Y42978663D01*
X42395993Y43003056D01*
X42386185Y43026156D01*
X42387947Y43036445D01*
X42385503Y43046588D01*
X42393745Y43070288D01*
X42397983Y43095022D01*
X42405026Y43102723D01*
X42408455Y43112581D01*
X42428205Y43128065D01*
X42445139Y43146578D01*
X42455515Y43149475D01*
X42463442Y43155688D01*
X42485054Y43157719D01*
X42509353Y43164500D01*
X43494192Y43164500D01*
X43561231Y43144815D01*
X43581873Y43128181D01*
X43763181Y42946873D01*
X43796666Y42885550D01*
X43799500Y42859192D01*
X43799500Y41213208D01*
X43779815Y41146169D01*
X43756619Y41120585D01*
X43756757Y41120447D01*
X43753941Y41117632D01*
X43752407Y41115939D01*
X43751652Y41115343D01*
X43629659Y40993349D01*
X43539093Y40846519D01*
X43539092Y40846516D01*
X43484826Y40682753D01*
X43484826Y40682752D01*
X43484825Y40682752D01*
X43474500Y40581685D01*
X43474500Y39983331D01*
X43474501Y39983313D01*
X43484825Y39882248D01*
X43539092Y39718485D01*
X43539093Y39718482D01*
X43629661Y39571649D01*
X43743629Y39457681D01*
X43777114Y39396358D01*
X43772130Y39326666D01*
X43743629Y39282319D01*
X43629661Y39168352D01*
X43539093Y39021519D01*
X43539092Y39021516D01*
X43484826Y38857753D01*
X43484826Y38857752D01*
X43484825Y38857752D01*
X43474500Y38756685D01*
X43474500Y38158331D01*
X43474501Y38158313D01*
X43484825Y38057248D01*
X43521109Y37947751D01*
X43539092Y37893484D01*
X43629660Y37746650D01*
X43751650Y37624660D01*
X43751656Y37624657D01*
X43752405Y37624064D01*
X43752790Y37623520D01*
X43756757Y37619553D01*
X43756079Y37618876D01*
X43792785Y37567044D01*
X43799500Y37526793D01*
X43799500Y33593208D01*
X43779815Y33526169D01*
X43756619Y33500585D01*
X43756757Y33500447D01*
X43753941Y33497632D01*
X43752407Y33495939D01*
X43751652Y33495343D01*
X43629659Y33373349D01*
X43539093Y33226519D01*
X43539092Y33226516D01*
X43484826Y33062753D01*
X43484826Y33062752D01*
X43484825Y33062752D01*
X43474500Y32961685D01*
X43474500Y32288331D01*
X43474501Y32288313D01*
X43484825Y32187248D01*
X43539092Y32023485D01*
X43539093Y32023482D01*
X43629661Y31876649D01*
X43668629Y31837681D01*
X43702114Y31776358D01*
X43697130Y31706666D01*
X43668629Y31662319D01*
X43629661Y31623352D01*
X43539093Y31476519D01*
X43539092Y31476516D01*
X43484826Y31312753D01*
X43484826Y31312752D01*
X43484825Y31312752D01*
X43474500Y31211685D01*
X43474500Y30538331D01*
X43474501Y30538313D01*
X43484825Y30437248D01*
X43521109Y30327751D01*
X43539092Y30273484D01*
X43629660Y30126650D01*
X43751650Y30004660D01*
X43751656Y30004657D01*
X43752405Y30004064D01*
X43752790Y30003520D01*
X43756757Y29999553D01*
X43756079Y29998876D01*
X43792785Y29947044D01*
X43799500Y29906793D01*
X43799500Y26175482D01*
X43779815Y26108443D01*
X43727011Y26062688D01*
X43657853Y26052744D01*
X43612380Y26068749D01*
X43572690Y26092221D01*
X43572689Y26092222D01*
X43430001Y26133677D01*
X43430000Y26133676D01*
X43430000Y23546327D01*
X43572694Y23587782D01*
X43572695Y23587782D01*
X43711329Y23669769D01*
X43711336Y23669775D01*
X43726963Y23685402D01*
X43788285Y23718889D01*
X43857977Y23713906D01*
X43902329Y23685402D01*
X43918357Y23669374D01*
X43918361Y23669372D01*
X43918363Y23669370D01*
X43918365Y23669369D01*
X44057106Y23587319D01*
X44097928Y23575459D01*
X44211897Y23542347D01*
X44211900Y23542347D01*
X44211902Y23542346D01*
X44248065Y23539500D01*
X44651934Y23539501D01*
X44688098Y23542346D01*
X44842894Y23587319D01*
X44981643Y23669374D01*
X45095626Y23783357D01*
X45177681Y23922106D01*
X45222654Y24076902D01*
X45225500Y24113065D01*
X45225500Y24113107D01*
X50025001Y24113107D01*
X50027844Y24076979D01*
X50072779Y23922311D01*
X50072780Y23922308D01*
X50154770Y23783669D01*
X50154776Y23783661D01*
X50268660Y23669777D01*
X50268668Y23669771D01*
X50407305Y23587782D01*
X50550000Y23546326D01*
X50550000Y24590000D01*
X50025001Y24590000D01*
X50025001Y24113107D01*
X45225500Y24113107D01*
X45225499Y25090000D01*
X45225499Y25566891D01*
X50025000Y25566891D01*
X50025000Y25090000D01*
X50550000Y25090000D01*
X50550000Y26133676D01*
X50549998Y26133677D01*
X50407310Y26092222D01*
X50407307Y26092220D01*
X50268668Y26010230D01*
X50268660Y26010224D01*
X50154776Y25896340D01*
X50154770Y25896332D01*
X50072780Y25757693D01*
X50072779Y25757690D01*
X50027844Y25603025D01*
X50027843Y25603019D01*
X50025000Y25566891D01*
X45225499Y25566891D01*
X45225499Y25566923D01*
X45225498Y25566948D01*
X45225216Y25570532D01*
X45222654Y25603098D01*
X45177681Y25757894D01*
X45117766Y25859206D01*
X45100500Y25922324D01*
X45100500Y29906793D01*
X45120185Y29973832D01*
X45143380Y29999416D01*
X45143243Y29999553D01*
X45146050Y30002361D01*
X45147595Y30004064D01*
X45148339Y30004654D01*
X45148350Y30004660D01*
X45270340Y30126650D01*
X45360908Y30273484D01*
X45415174Y30437247D01*
X45425500Y30538323D01*
X45425499Y31211676D01*
X45415174Y31312753D01*
X45360908Y31476516D01*
X45270340Y31623350D01*
X45231371Y31662319D01*
X45197886Y31723642D01*
X45202870Y31793334D01*
X45231371Y31837681D01*
X45270340Y31876650D01*
X45360908Y32023484D01*
X45415174Y32187247D01*
X45425500Y32288323D01*
X45425499Y32961676D01*
X45415174Y33062753D01*
X45360908Y33226516D01*
X45270340Y33373350D01*
X45148350Y33495340D01*
X45148349Y33495341D01*
X45148347Y33495343D01*
X45147593Y33495939D01*
X45147209Y33496481D01*
X45143243Y33500447D01*
X45143920Y33501125D01*
X45107214Y33552959D01*
X45100500Y33593208D01*
X45100500Y37526793D01*
X45120185Y37593832D01*
X45143380Y37619416D01*
X45143243Y37619553D01*
X45146050Y37622361D01*
X45147595Y37624064D01*
X45148339Y37624654D01*
X45148350Y37624660D01*
X45270340Y37746650D01*
X45360908Y37893484D01*
X45415174Y38057247D01*
X45425500Y38158323D01*
X45425499Y38756676D01*
X45415174Y38857753D01*
X45360908Y39021516D01*
X45270340Y39168350D01*
X45156371Y39282319D01*
X45122886Y39343642D01*
X45127870Y39413334D01*
X45156371Y39457681D01*
X45270340Y39571650D01*
X45360908Y39718484D01*
X45415174Y39882247D01*
X45425500Y39983323D01*
X45425499Y40581676D01*
X45415174Y40682753D01*
X45360908Y40846516D01*
X45270340Y40993350D01*
X45148350Y41115340D01*
X45148349Y41115341D01*
X45148347Y41115343D01*
X45147593Y41115939D01*
X45147209Y41116481D01*
X45143243Y41120447D01*
X45143920Y41121125D01*
X45107214Y41172959D01*
X45100500Y41213208D01*
X45100500Y43244072D01*
X45075502Y43369740D01*
X45075500Y43369746D01*
X45055189Y43418779D01*
X45026466Y43488126D01*
X44955277Y43594669D01*
X44949443Y43600503D01*
X44941872Y43613663D01*
X44935993Y43638056D01*
X44926185Y43661156D01*
X44927947Y43671445D01*
X44925503Y43681588D01*
X44933745Y43705288D01*
X44937983Y43730022D01*
X44945026Y43737723D01*
X44948455Y43747581D01*
X44968205Y43763065D01*
X44985139Y43781578D01*
X44995515Y43784475D01*
X45003442Y43790688D01*
X45025054Y43792719D01*
X45049353Y43799500D01*
X51114192Y43799500D01*
X51181231Y43779815D01*
X51201873Y43763181D01*
X51383181Y43581873D01*
X51416666Y43520550D01*
X51419500Y43494192D01*
X51419500Y41213208D01*
X51399815Y41146169D01*
X51376619Y41120585D01*
X51376757Y41120447D01*
X51373941Y41117632D01*
X51372407Y41115939D01*
X51371652Y41115343D01*
X51249659Y40993349D01*
X51159093Y40846519D01*
X51159092Y40846516D01*
X51104826Y40682753D01*
X51104826Y40682752D01*
X51104825Y40682752D01*
X51094500Y40581685D01*
X51094500Y39983331D01*
X51094501Y39983313D01*
X51104825Y39882248D01*
X51159092Y39718485D01*
X51159093Y39718482D01*
X51249661Y39571649D01*
X51363629Y39457681D01*
X51397114Y39396358D01*
X51392130Y39326666D01*
X51363629Y39282319D01*
X51249661Y39168352D01*
X51159093Y39021519D01*
X51159092Y39021516D01*
X51104826Y38857753D01*
X51104826Y38857752D01*
X51104825Y38857752D01*
X51094500Y38756685D01*
X51094500Y38158331D01*
X51094501Y38158313D01*
X51104825Y38057248D01*
X51141109Y37947751D01*
X51159092Y37893484D01*
X51249660Y37746650D01*
X51371650Y37624660D01*
X51371656Y37624657D01*
X51372405Y37624064D01*
X51372790Y37623520D01*
X51376757Y37619553D01*
X51376079Y37618876D01*
X51412785Y37567044D01*
X51419500Y37526793D01*
X51419500Y33593208D01*
X51399815Y33526169D01*
X51376619Y33500585D01*
X51376757Y33500447D01*
X51373941Y33497632D01*
X51372407Y33495939D01*
X51371652Y33495343D01*
X51249659Y33373349D01*
X51159093Y33226519D01*
X51159092Y33226516D01*
X51104826Y33062753D01*
X51104826Y33062752D01*
X51104825Y33062752D01*
X51094500Y32961685D01*
X51094500Y32288331D01*
X51094501Y32288313D01*
X51104825Y32187248D01*
X51159092Y32023485D01*
X51159093Y32023482D01*
X51249661Y31876649D01*
X51288629Y31837681D01*
X51322114Y31776358D01*
X51317130Y31706666D01*
X51288629Y31662319D01*
X51249661Y31623352D01*
X51159093Y31476519D01*
X51159092Y31476516D01*
X51104826Y31312753D01*
X51104826Y31312752D01*
X51104825Y31312752D01*
X51094500Y31211685D01*
X51094500Y30538331D01*
X51094501Y30538313D01*
X51104825Y30437248D01*
X51141109Y30327751D01*
X51159092Y30273484D01*
X51249660Y30126650D01*
X51371650Y30004660D01*
X51371656Y30004657D01*
X51372405Y30004064D01*
X51372790Y30003520D01*
X51376757Y29999553D01*
X51376079Y29998876D01*
X51412785Y29947044D01*
X51419500Y29906793D01*
X51419500Y26175482D01*
X51399815Y26108443D01*
X51347011Y26062688D01*
X51277853Y26052744D01*
X51232380Y26068749D01*
X51192690Y26092221D01*
X51192689Y26092222D01*
X51050001Y26133677D01*
X51050000Y26133676D01*
X51050000Y23546326D01*
X51192694Y23587782D01*
X51192695Y23587782D01*
X51331329Y23669769D01*
X51331336Y23669775D01*
X51346963Y23685402D01*
X51408285Y23718889D01*
X51477977Y23713906D01*
X51522329Y23685402D01*
X51538357Y23669374D01*
X51538361Y23669372D01*
X51538363Y23669370D01*
X51538365Y23669369D01*
X51677106Y23587319D01*
X51717928Y23575459D01*
X51831897Y23542347D01*
X51831900Y23542347D01*
X51831902Y23542346D01*
X51868065Y23539500D01*
X52271934Y23539501D01*
X52308098Y23542346D01*
X52462894Y23587319D01*
X52601643Y23669374D01*
X52617672Y23685404D01*
X52678992Y23718889D01*
X52748684Y23713906D01*
X52793036Y23685402D01*
X52808661Y23669777D01*
X52808668Y23669771D01*
X52947305Y23587782D01*
X53090000Y23546326D01*
X53090000Y26133676D01*
X53089998Y26133677D01*
X52947310Y26092222D01*
X52947309Y26092221D01*
X52907620Y26068749D01*
X52839895Y26051568D01*
X52773633Y26073728D01*
X52729871Y26128195D01*
X52720500Y26175482D01*
X52720500Y29906793D01*
X52740185Y29973832D01*
X52763380Y29999416D01*
X52763243Y29999553D01*
X52766050Y30002361D01*
X52767595Y30004064D01*
X52768339Y30004654D01*
X52768350Y30004660D01*
X52890340Y30126650D01*
X52980908Y30273484D01*
X53035174Y30437247D01*
X53045500Y30538323D01*
X53045499Y31211676D01*
X53035174Y31312753D01*
X52980908Y31476516D01*
X52890340Y31623350D01*
X52851371Y31662319D01*
X52817886Y31723642D01*
X52822870Y31793334D01*
X52851371Y31837681D01*
X52890340Y31876650D01*
X52980908Y32023484D01*
X53035174Y32187247D01*
X53045500Y32288323D01*
X53045499Y32961676D01*
X53035174Y33062753D01*
X52980908Y33226516D01*
X52890340Y33373350D01*
X52768350Y33495340D01*
X52768349Y33495341D01*
X52768347Y33495343D01*
X52767593Y33495939D01*
X52767209Y33496481D01*
X52763243Y33500447D01*
X52763920Y33501125D01*
X52727214Y33552959D01*
X52720500Y33593208D01*
X52720500Y37526793D01*
X52740185Y37593832D01*
X52763380Y37619416D01*
X52763243Y37619553D01*
X52766050Y37622361D01*
X52767595Y37624064D01*
X52768339Y37624654D01*
X52768350Y37624660D01*
X52890340Y37746650D01*
X52980908Y37893484D01*
X53035174Y38057247D01*
X53045500Y38158323D01*
X53045499Y38756676D01*
X53035174Y38857753D01*
X52980908Y39021516D01*
X52890340Y39168350D01*
X52776371Y39282319D01*
X52742886Y39343642D01*
X52747870Y39413334D01*
X52776371Y39457681D01*
X52890340Y39571650D01*
X52980908Y39718484D01*
X53035174Y39882247D01*
X53045500Y39983323D01*
X53045499Y40581676D01*
X53035174Y40682753D01*
X52980908Y40846516D01*
X52890340Y40993350D01*
X52768350Y41115340D01*
X52768349Y41115341D01*
X52768347Y41115343D01*
X52767593Y41115939D01*
X52767209Y41116481D01*
X52763243Y41120447D01*
X52763920Y41121125D01*
X52727214Y41172959D01*
X52720500Y41213208D01*
X52720500Y43879072D01*
X52695502Y44004740D01*
X52695500Y44004746D01*
X52675189Y44053779D01*
X52646466Y44123126D01*
X52575277Y44229669D01*
X52569443Y44235503D01*
X52561872Y44248663D01*
X52555993Y44273056D01*
X52546185Y44296156D01*
X52547947Y44306445D01*
X52545503Y44316588D01*
X52553745Y44340288D01*
X52557983Y44365022D01*
X52565026Y44372723D01*
X52568455Y44382581D01*
X52588205Y44398065D01*
X52605139Y44416578D01*
X52615515Y44419475D01*
X52623442Y44425688D01*
X52645054Y44427719D01*
X52669353Y44434500D01*
X53654192Y44434500D01*
X53721231Y44414815D01*
X53741873Y44398181D01*
X53923181Y44216873D01*
X53956666Y44155550D01*
X53959500Y44129192D01*
X53959500Y41213208D01*
X53939815Y41146169D01*
X53916619Y41120585D01*
X53916757Y41120447D01*
X53913941Y41117632D01*
X53912407Y41115939D01*
X53911652Y41115343D01*
X53789659Y40993349D01*
X53699093Y40846519D01*
X53699092Y40846516D01*
X53644826Y40682753D01*
X53644826Y40682752D01*
X53644825Y40682752D01*
X53634500Y40581685D01*
X53634500Y39983331D01*
X53634501Y39983313D01*
X53644825Y39882248D01*
X53699092Y39718485D01*
X53699093Y39718482D01*
X53789661Y39571649D01*
X53903629Y39457681D01*
X53937114Y39396358D01*
X53932130Y39326666D01*
X53903629Y39282319D01*
X53789661Y39168352D01*
X53699093Y39021519D01*
X53699092Y39021516D01*
X53644826Y38857753D01*
X53644826Y38857752D01*
X53644825Y38857752D01*
X53634500Y38756685D01*
X53634500Y38158331D01*
X53634501Y38158313D01*
X53644825Y38057248D01*
X53681109Y37947751D01*
X53699092Y37893484D01*
X53789660Y37746650D01*
X53911650Y37624660D01*
X53911656Y37624657D01*
X53912405Y37624064D01*
X53912790Y37623520D01*
X53916757Y37619553D01*
X53916079Y37618876D01*
X53952785Y37567044D01*
X53959500Y37526793D01*
X53959500Y33593208D01*
X53939815Y33526169D01*
X53916619Y33500585D01*
X53916757Y33500447D01*
X53913941Y33497632D01*
X53912407Y33495939D01*
X53911652Y33495343D01*
X53789659Y33373349D01*
X53699093Y33226519D01*
X53699092Y33226516D01*
X53644826Y33062753D01*
X53644826Y33062752D01*
X53644825Y33062752D01*
X53634500Y32961685D01*
X53634500Y32288331D01*
X53634501Y32288313D01*
X53644825Y32187248D01*
X53699092Y32023485D01*
X53699093Y32023482D01*
X53789661Y31876649D01*
X53828629Y31837681D01*
X53862114Y31776358D01*
X53857130Y31706666D01*
X53828629Y31662319D01*
X53789661Y31623352D01*
X53699093Y31476519D01*
X53699092Y31476516D01*
X53644826Y31312753D01*
X53644826Y31312752D01*
X53644825Y31312752D01*
X53634500Y31211685D01*
X53634500Y30538331D01*
X53634501Y30538313D01*
X53644825Y30437248D01*
X53681109Y30327751D01*
X53699092Y30273484D01*
X53789660Y30126650D01*
X53911650Y30004660D01*
X53911656Y30004657D01*
X53912405Y30004064D01*
X53912790Y30003520D01*
X53916757Y29999553D01*
X53916079Y29998876D01*
X53952785Y29947044D01*
X53959500Y29906793D01*
X53959500Y26175482D01*
X53939815Y26108443D01*
X53887011Y26062688D01*
X53817853Y26052744D01*
X53772380Y26068749D01*
X53732690Y26092221D01*
X53732689Y26092222D01*
X53590001Y26133677D01*
X53590000Y26133676D01*
X53590000Y23546326D01*
X53732694Y23587782D01*
X53732695Y23587782D01*
X53871329Y23669769D01*
X53871336Y23669775D01*
X53886963Y23685402D01*
X53948285Y23718889D01*
X54017977Y23713906D01*
X54062329Y23685402D01*
X54078357Y23669374D01*
X54078361Y23669372D01*
X54078363Y23669370D01*
X54078365Y23669369D01*
X54217106Y23587319D01*
X54257928Y23575459D01*
X54371897Y23542347D01*
X54371900Y23542347D01*
X54371902Y23542346D01*
X54408065Y23539500D01*
X54811934Y23539501D01*
X54848098Y23542346D01*
X55002894Y23587319D01*
X55141643Y23669374D01*
X55157672Y23685404D01*
X55218992Y23718889D01*
X55288684Y23713906D01*
X55333036Y23685402D01*
X55348661Y23669777D01*
X55348668Y23669771D01*
X55487305Y23587782D01*
X55630000Y23546326D01*
X55630000Y26133676D01*
X55629998Y26133677D01*
X55487310Y26092222D01*
X55487309Y26092221D01*
X55447620Y26068749D01*
X55379895Y26051568D01*
X55313633Y26073728D01*
X55269871Y26128195D01*
X55260500Y26175482D01*
X55260500Y29906793D01*
X55280185Y29973832D01*
X55303380Y29999416D01*
X55303243Y29999553D01*
X55306050Y30002361D01*
X55307595Y30004064D01*
X55308339Y30004654D01*
X55308350Y30004660D01*
X55430340Y30126650D01*
X55520908Y30273484D01*
X55575174Y30437247D01*
X55585500Y30538323D01*
X55585499Y31211676D01*
X55575174Y31312753D01*
X55520908Y31476516D01*
X55430340Y31623350D01*
X55391371Y31662319D01*
X55357886Y31723642D01*
X55362870Y31793334D01*
X55391371Y31837681D01*
X55430340Y31876650D01*
X55520908Y32023484D01*
X55575174Y32187247D01*
X55585500Y32288323D01*
X55585499Y32961676D01*
X55575174Y33062753D01*
X55520908Y33226516D01*
X55430340Y33373350D01*
X55308350Y33495340D01*
X55308349Y33495341D01*
X55308347Y33495343D01*
X55307593Y33495939D01*
X55307209Y33496481D01*
X55303243Y33500447D01*
X55303920Y33501125D01*
X55267214Y33552959D01*
X55260500Y33593208D01*
X55260500Y37526793D01*
X55280185Y37593832D01*
X55303380Y37619416D01*
X55303243Y37619553D01*
X55306050Y37622361D01*
X55307595Y37624064D01*
X55308339Y37624654D01*
X55308350Y37624660D01*
X55430340Y37746650D01*
X55520908Y37893484D01*
X55575174Y38057247D01*
X55585500Y38158323D01*
X55585499Y38756676D01*
X55575174Y38857753D01*
X55520908Y39021516D01*
X55430340Y39168350D01*
X55316371Y39282319D01*
X55282886Y39343642D01*
X55287870Y39413334D01*
X55316371Y39457681D01*
X55430340Y39571650D01*
X55520908Y39718484D01*
X55575174Y39882247D01*
X55585500Y39983323D01*
X55585499Y40581676D01*
X55575174Y40682753D01*
X55520908Y40846516D01*
X55430340Y40993350D01*
X55308350Y41115340D01*
X55308349Y41115341D01*
X55308347Y41115343D01*
X55307593Y41115939D01*
X55307209Y41116481D01*
X55303243Y41120447D01*
X55303920Y41121125D01*
X55267214Y41172959D01*
X55260500Y41213208D01*
X55260500Y44514072D01*
X55235502Y44639740D01*
X55235500Y44639746D01*
X55215189Y44688779D01*
X55186466Y44758126D01*
X55115277Y44864669D01*
X55109443Y44870503D01*
X55101872Y44883663D01*
X55095993Y44908056D01*
X55086185Y44931156D01*
X55087947Y44941445D01*
X55085503Y44951588D01*
X55093745Y44975288D01*
X55097983Y45000022D01*
X55105026Y45007723D01*
X55108455Y45017581D01*
X55128205Y45033065D01*
X55145139Y45051578D01*
X55155515Y45054475D01*
X55163442Y45060688D01*
X55185054Y45062719D01*
X55209353Y45069500D01*
X56194192Y45069500D01*
X56261231Y45049815D01*
X56281873Y45033181D01*
X56463181Y44851873D01*
X56496666Y44790550D01*
X56499500Y44764192D01*
X56499500Y41213208D01*
X56479815Y41146169D01*
X56456619Y41120585D01*
X56456757Y41120447D01*
X56453941Y41117632D01*
X56452407Y41115939D01*
X56451652Y41115343D01*
X56329659Y40993349D01*
X56239093Y40846519D01*
X56239092Y40846516D01*
X56184826Y40682753D01*
X56184826Y40682752D01*
X56184825Y40682752D01*
X56174500Y40581685D01*
X56174500Y39983331D01*
X56174501Y39983313D01*
X56184825Y39882248D01*
X56239092Y39718485D01*
X56239093Y39718482D01*
X56329661Y39571649D01*
X56443629Y39457681D01*
X56477114Y39396358D01*
X56472130Y39326666D01*
X56443629Y39282319D01*
X56329661Y39168352D01*
X56239093Y39021519D01*
X56239092Y39021516D01*
X56184826Y38857753D01*
X56184826Y38857752D01*
X56184825Y38857752D01*
X56174500Y38756685D01*
X56174500Y38158331D01*
X56174501Y38158313D01*
X56184825Y38057248D01*
X56221109Y37947751D01*
X56239092Y37893484D01*
X56329660Y37746650D01*
X56451650Y37624660D01*
X56451656Y37624657D01*
X56452405Y37624064D01*
X56452790Y37623520D01*
X56456757Y37619553D01*
X56456079Y37618876D01*
X56492785Y37567044D01*
X56499500Y37526793D01*
X56499500Y33593208D01*
X56479815Y33526169D01*
X56456619Y33500585D01*
X56456757Y33500447D01*
X56453941Y33497632D01*
X56452407Y33495939D01*
X56451652Y33495343D01*
X56329659Y33373349D01*
X56239093Y33226519D01*
X56239092Y33226516D01*
X56184826Y33062753D01*
X56184826Y33062752D01*
X56184825Y33062752D01*
X56174500Y32961685D01*
X56174500Y32288331D01*
X56174501Y32288313D01*
X56184825Y32187248D01*
X56239092Y32023485D01*
X56239093Y32023482D01*
X56329661Y31876649D01*
X56368629Y31837681D01*
X56402114Y31776358D01*
X56397130Y31706666D01*
X56368629Y31662319D01*
X56329661Y31623352D01*
X56239093Y31476519D01*
X56239092Y31476516D01*
X56184826Y31312753D01*
X56184826Y31312752D01*
X56184825Y31312752D01*
X56174500Y31211685D01*
X56174500Y30538331D01*
X56174501Y30538313D01*
X56184825Y30437248D01*
X56221109Y30327751D01*
X56239092Y30273484D01*
X56329660Y30126650D01*
X56451650Y30004660D01*
X56451656Y30004657D01*
X56452405Y30004064D01*
X56452790Y30003520D01*
X56456757Y29999553D01*
X56456079Y29998876D01*
X56492785Y29947044D01*
X56499500Y29906793D01*
X56499500Y26175482D01*
X56479815Y26108443D01*
X56427011Y26062688D01*
X56357853Y26052744D01*
X56312380Y26068749D01*
X56272690Y26092221D01*
X56272689Y26092222D01*
X56130001Y26133677D01*
X56130000Y26133676D01*
X56130000Y23546327D01*
X56272694Y23587782D01*
X56272695Y23587782D01*
X56411329Y23669769D01*
X56411336Y23669775D01*
X56426963Y23685402D01*
X56488285Y23718889D01*
X56557977Y23713906D01*
X56602329Y23685402D01*
X56618357Y23669374D01*
X56618361Y23669372D01*
X56618363Y23669370D01*
X56618365Y23669369D01*
X56757106Y23587319D01*
X56797928Y23575459D01*
X56911897Y23542347D01*
X56911900Y23542347D01*
X56911902Y23542346D01*
X56948065Y23539500D01*
X57351934Y23539501D01*
X57388098Y23542346D01*
X57542894Y23587319D01*
X57681643Y23669374D01*
X57697672Y23685404D01*
X57758992Y23718889D01*
X57828684Y23713906D01*
X57873036Y23685402D01*
X57888661Y23669777D01*
X57888668Y23669771D01*
X58027305Y23587782D01*
X58170000Y23546326D01*
X58170000Y26133676D01*
X58169998Y26133677D01*
X58027310Y26092222D01*
X58027309Y26092221D01*
X57987620Y26068749D01*
X57919895Y26051568D01*
X57853633Y26073728D01*
X57809871Y26128195D01*
X57800500Y26175482D01*
X57800500Y29906793D01*
X57820185Y29973832D01*
X57843380Y29999416D01*
X57843243Y29999553D01*
X57846050Y30002361D01*
X57847595Y30004064D01*
X57848339Y30004654D01*
X57848350Y30004660D01*
X57970340Y30126650D01*
X58060908Y30273484D01*
X58115174Y30437247D01*
X58125500Y30538323D01*
X58125499Y31211676D01*
X58115174Y31312753D01*
X58060908Y31476516D01*
X57970340Y31623350D01*
X57931371Y31662319D01*
X57897886Y31723642D01*
X57902870Y31793334D01*
X57931371Y31837681D01*
X57970340Y31876650D01*
X58060908Y32023484D01*
X58115174Y32187247D01*
X58125500Y32288323D01*
X58125499Y32961676D01*
X58115174Y33062753D01*
X58060908Y33226516D01*
X57970340Y33373350D01*
X57848350Y33495340D01*
X57848349Y33495341D01*
X57848347Y33495343D01*
X57847593Y33495939D01*
X57847209Y33496481D01*
X57843243Y33500447D01*
X57843920Y33501125D01*
X57807214Y33552959D01*
X57800500Y33593208D01*
X57800500Y37526793D01*
X57820185Y37593832D01*
X57843380Y37619416D01*
X57843243Y37619553D01*
X57846050Y37622361D01*
X57847595Y37624064D01*
X57848339Y37624654D01*
X57848350Y37624660D01*
X57970340Y37746650D01*
X58060908Y37893484D01*
X58115174Y38057247D01*
X58125500Y38158323D01*
X58125499Y38756676D01*
X58115174Y38857753D01*
X58060908Y39021516D01*
X57970340Y39168350D01*
X57856371Y39282319D01*
X57822886Y39343642D01*
X57827870Y39413334D01*
X57856371Y39457681D01*
X57970340Y39571650D01*
X58060908Y39718484D01*
X58115174Y39882247D01*
X58125500Y39983323D01*
X58125499Y40581676D01*
X58115174Y40682753D01*
X58060908Y40846516D01*
X57970340Y40993350D01*
X57848350Y41115340D01*
X57848349Y41115341D01*
X57848347Y41115343D01*
X57847593Y41115939D01*
X57847209Y41116481D01*
X57843243Y41120447D01*
X57843920Y41121125D01*
X57807214Y41172959D01*
X57800500Y41213208D01*
X57800500Y45149072D01*
X57775502Y45274740D01*
X57775500Y45274746D01*
X57765009Y45300072D01*
X57755189Y45323779D01*
X57726466Y45393126D01*
X57655277Y45499669D01*
X57649443Y45505503D01*
X57641872Y45518663D01*
X57635993Y45543056D01*
X57626185Y45566156D01*
X57627947Y45576445D01*
X57625503Y45586588D01*
X57633745Y45610288D01*
X57637983Y45635022D01*
X57645026Y45642723D01*
X57648455Y45652581D01*
X57668205Y45668065D01*
X57685139Y45686578D01*
X57695515Y45689475D01*
X57703442Y45695688D01*
X57725054Y45697719D01*
X57749353Y45704500D01*
X58734192Y45704500D01*
X58801231Y45684815D01*
X58821873Y45668181D01*
X59003181Y45486873D01*
X59036666Y45425550D01*
X59039500Y45399192D01*
X59039500Y41213208D01*
X59019815Y41146169D01*
X58996619Y41120585D01*
X58996757Y41120447D01*
X58993941Y41117632D01*
X58992407Y41115939D01*
X58991652Y41115343D01*
X58869659Y40993349D01*
X58779093Y40846519D01*
X58779092Y40846516D01*
X58724826Y40682753D01*
X58724826Y40682752D01*
X58724825Y40682752D01*
X58714500Y40581685D01*
X58714500Y39983331D01*
X58714501Y39983313D01*
X58724825Y39882248D01*
X58779092Y39718485D01*
X58779093Y39718482D01*
X58869661Y39571649D01*
X58983629Y39457681D01*
X59017114Y39396358D01*
X59012130Y39326666D01*
X58983629Y39282319D01*
X58869661Y39168352D01*
X58779093Y39021519D01*
X58779092Y39021516D01*
X58724826Y38857753D01*
X58724826Y38857752D01*
X58724825Y38857752D01*
X58714500Y38756685D01*
X58714500Y38158331D01*
X58714501Y38158313D01*
X58724825Y38057248D01*
X58761109Y37947751D01*
X58779092Y37893484D01*
X58869660Y37746650D01*
X58991650Y37624660D01*
X58991656Y37624657D01*
X58992405Y37624064D01*
X58992790Y37623520D01*
X58996757Y37619553D01*
X58996079Y37618876D01*
X59032785Y37567044D01*
X59039500Y37526793D01*
X59039500Y33593208D01*
X59019815Y33526169D01*
X58996619Y33500585D01*
X58996757Y33500447D01*
X58993941Y33497632D01*
X58992407Y33495939D01*
X58991652Y33495343D01*
X58869659Y33373349D01*
X58779093Y33226519D01*
X58779092Y33226516D01*
X58724826Y33062753D01*
X58724826Y33062752D01*
X58724825Y33062752D01*
X58714500Y32961685D01*
X58714500Y32288331D01*
X58714501Y32288313D01*
X58724825Y32187248D01*
X58779092Y32023485D01*
X58779093Y32023482D01*
X58869661Y31876649D01*
X58908629Y31837681D01*
X58942114Y31776358D01*
X58937130Y31706666D01*
X58908629Y31662319D01*
X58869661Y31623352D01*
X58779093Y31476519D01*
X58779092Y31476516D01*
X58724826Y31312753D01*
X58724826Y31312752D01*
X58724825Y31312752D01*
X58714500Y31211685D01*
X58714500Y30538331D01*
X58714501Y30538313D01*
X58724825Y30437248D01*
X58761109Y30327751D01*
X58779092Y30273484D01*
X58869660Y30126650D01*
X58991650Y30004660D01*
X58991656Y30004657D01*
X58992405Y30004064D01*
X58992790Y30003520D01*
X58996757Y29999553D01*
X58996079Y29998876D01*
X59032785Y29947044D01*
X59039500Y29906793D01*
X59039500Y26175482D01*
X59019815Y26108443D01*
X58967011Y26062688D01*
X58897853Y26052744D01*
X58852380Y26068749D01*
X58812690Y26092221D01*
X58812689Y26092222D01*
X58670001Y26133677D01*
X58670000Y26133676D01*
X58670000Y23546326D01*
X58812694Y23587782D01*
X58812695Y23587782D01*
X58951329Y23669769D01*
X58951336Y23669775D01*
X58966963Y23685402D01*
X59028285Y23718889D01*
X59097977Y23713906D01*
X59142329Y23685402D01*
X59158357Y23669374D01*
X59158361Y23669372D01*
X59158363Y23669370D01*
X59158365Y23669369D01*
X59297106Y23587319D01*
X59337928Y23575459D01*
X59451897Y23542347D01*
X59451900Y23542347D01*
X59451902Y23542346D01*
X59488065Y23539500D01*
X59891934Y23539501D01*
X59928098Y23542346D01*
X60082894Y23587319D01*
X60221643Y23669374D01*
X60335626Y23783357D01*
X60417681Y23922106D01*
X60462654Y24076902D01*
X60465500Y24113065D01*
X60465499Y25566934D01*
X60462654Y25603098D01*
X60417681Y25757894D01*
X60357766Y25859206D01*
X60340500Y25922324D01*
X60340500Y29906793D01*
X60360185Y29973832D01*
X60383380Y29999416D01*
X60383243Y29999553D01*
X60386050Y30002361D01*
X60387595Y30004064D01*
X60388339Y30004654D01*
X60388350Y30004660D01*
X60510340Y30126650D01*
X60600908Y30273484D01*
X60655174Y30437247D01*
X60665500Y30538323D01*
X60665499Y31211676D01*
X60655174Y31312753D01*
X60600908Y31476516D01*
X60510340Y31623350D01*
X60471371Y31662319D01*
X60437886Y31723642D01*
X60442870Y31793334D01*
X60471371Y31837681D01*
X60510340Y31876650D01*
X60600908Y32023484D01*
X60655174Y32187247D01*
X60665500Y32288323D01*
X60665499Y32961676D01*
X60655174Y33062753D01*
X60600908Y33226516D01*
X60510340Y33373350D01*
X60388350Y33495340D01*
X60388349Y33495341D01*
X60388347Y33495343D01*
X60387593Y33495939D01*
X60387209Y33496481D01*
X60383243Y33500447D01*
X60383920Y33501125D01*
X60347214Y33552959D01*
X60340500Y33593208D01*
X60340500Y37526793D01*
X60360185Y37593832D01*
X60383380Y37619416D01*
X60383243Y37619553D01*
X60386050Y37622361D01*
X60387595Y37624064D01*
X60388339Y37624654D01*
X60388350Y37624660D01*
X60510340Y37746650D01*
X60600908Y37893484D01*
X60655174Y38057247D01*
X60665500Y38158323D01*
X60665499Y38756676D01*
X60655174Y38857753D01*
X60600908Y39021516D01*
X60510340Y39168350D01*
X60396371Y39282319D01*
X60362886Y39343642D01*
X60367870Y39413334D01*
X60396371Y39457681D01*
X60510340Y39571650D01*
X60600908Y39718484D01*
X60655174Y39882247D01*
X60665500Y39983323D01*
X60665499Y40581676D01*
X60655174Y40682753D01*
X60600908Y40846516D01*
X60510340Y40993350D01*
X60388350Y41115340D01*
X60388349Y41115341D01*
X60388347Y41115343D01*
X60387593Y41115939D01*
X60387209Y41116481D01*
X60383243Y41120447D01*
X60383920Y41121125D01*
X60347214Y41172959D01*
X60340500Y41213208D01*
X60340500Y45784072D01*
X60315502Y45909740D01*
X60315500Y45909745D01*
X60295189Y45958779D01*
X60266466Y46028126D01*
X60195277Y46134669D01*
X60189443Y46140503D01*
X60181872Y46153663D01*
X60175993Y46178056D01*
X60166185Y46201156D01*
X60167947Y46211445D01*
X60165503Y46221588D01*
X60173745Y46245288D01*
X60177983Y46270022D01*
X60185026Y46277723D01*
X60188455Y46287581D01*
X60208205Y46303065D01*
X60225139Y46321578D01*
X60235515Y46324475D01*
X60243442Y46330688D01*
X60265054Y46332719D01*
X60289353Y46339500D01*
X65084192Y46339500D01*
X65151231Y46319815D01*
X65171873Y46303181D01*
X65353181Y46121873D01*
X65386666Y46060550D01*
X65389500Y46034192D01*
X65389500Y25922324D01*
X65372233Y25859204D01*
X65312317Y25757891D01*
X65312317Y25757890D01*
X65267346Y25603103D01*
X65267345Y25603097D01*
X65264500Y25566943D01*
X65264500Y24113078D01*
X65264501Y24113053D01*
X65267346Y24076902D01*
X65312317Y23922111D01*
X65312320Y23922104D01*
X65394369Y23783364D01*
X65394378Y23783352D01*
X65508351Y23669379D01*
X65508354Y23669377D01*
X65508357Y23669374D01*
X65508360Y23669373D01*
X65508363Y23669370D01*
X65508365Y23669369D01*
X65647106Y23587319D01*
X65687928Y23575459D01*
X65801897Y23542347D01*
X65801900Y23542347D01*
X65801902Y23542346D01*
X65838065Y23539500D01*
X66241934Y23539501D01*
X66278098Y23542346D01*
X66432894Y23587319D01*
X66571643Y23669374D01*
X66587672Y23685404D01*
X66648992Y23718889D01*
X66718684Y23713906D01*
X66763036Y23685402D01*
X66778661Y23669777D01*
X66778668Y23669771D01*
X66917305Y23587782D01*
X67060000Y23546326D01*
X67060000Y26133676D01*
X67059998Y26133677D01*
X66917310Y26092222D01*
X66917309Y26092221D01*
X66877620Y26068749D01*
X66809895Y26051568D01*
X66743633Y26073728D01*
X66699871Y26128195D01*
X66690500Y26175482D01*
X66690500Y46419072D01*
X66665502Y46544740D01*
X66665500Y46544745D01*
X66645189Y46593779D01*
X66616466Y46663126D01*
X66545277Y46769669D01*
X66539443Y46775503D01*
X66531872Y46788663D01*
X66525993Y46813056D01*
X66516185Y46836156D01*
X66517947Y46846445D01*
X66515503Y46856588D01*
X66523745Y46880288D01*
X66527983Y46905022D01*
X66535026Y46912723D01*
X66538455Y46922581D01*
X66558205Y46938065D01*
X66575139Y46956578D01*
X66585515Y46959475D01*
X66593442Y46965688D01*
X66615054Y46967719D01*
X66639353Y46974500D01*
X67624192Y46974500D01*
X67691231Y46954815D01*
X67711873Y46938181D01*
X67893181Y46756873D01*
X67926666Y46695550D01*
X67929500Y46669192D01*
X67929500Y26175482D01*
X67909815Y26108443D01*
X67857011Y26062688D01*
X67787853Y26052744D01*
X67742380Y26068749D01*
X67702690Y26092221D01*
X67702689Y26092222D01*
X67560001Y26133677D01*
X67560000Y26133676D01*
X67560000Y23546326D01*
X67702694Y23587782D01*
X67702695Y23587782D01*
X67841329Y23669769D01*
X67841336Y23669775D01*
X67856963Y23685402D01*
X67918285Y23718889D01*
X67987977Y23713906D01*
X68032329Y23685402D01*
X68048357Y23669374D01*
X68048361Y23669372D01*
X68048363Y23669370D01*
X68048365Y23669369D01*
X68187106Y23587319D01*
X68227928Y23575459D01*
X68341897Y23542347D01*
X68341900Y23542347D01*
X68341902Y23542346D01*
X68378065Y23539500D01*
X68781934Y23539501D01*
X68818098Y23542346D01*
X68972894Y23587319D01*
X69111643Y23669374D01*
X69127672Y23685404D01*
X69188992Y23718889D01*
X69258684Y23713906D01*
X69303036Y23685402D01*
X69318661Y23669777D01*
X69318668Y23669771D01*
X69457305Y23587782D01*
X69600000Y23546326D01*
X69600000Y26133676D01*
X69599998Y26133677D01*
X69457310Y26092222D01*
X69457309Y26092221D01*
X69417620Y26068749D01*
X69349895Y26051568D01*
X69283633Y26073728D01*
X69239871Y26128195D01*
X69230500Y26175482D01*
X69230500Y47054072D01*
X69205502Y47179740D01*
X69205500Y47179745D01*
X69185189Y47228779D01*
X69156466Y47298126D01*
X69085277Y47404669D01*
X69079443Y47410503D01*
X69071872Y47423663D01*
X69065993Y47448056D01*
X69056185Y47471156D01*
X69057947Y47481445D01*
X69055503Y47491588D01*
X69063745Y47515288D01*
X69067983Y47540022D01*
X69075026Y47547723D01*
X69078455Y47557581D01*
X69098205Y47573065D01*
X69115139Y47591578D01*
X69125515Y47594475D01*
X69133442Y47600688D01*
X69155054Y47602719D01*
X69179353Y47609500D01*
X70164192Y47609500D01*
X70231231Y47589815D01*
X70251873Y47573181D01*
X70433181Y47391873D01*
X70466666Y47330550D01*
X70469500Y47304192D01*
X70469500Y26175482D01*
X70449815Y26108443D01*
X70397011Y26062688D01*
X70327853Y26052744D01*
X70282380Y26068749D01*
X70242690Y26092221D01*
X70242689Y26092222D01*
X70100001Y26133677D01*
X70100000Y26133676D01*
X70100000Y23546327D01*
X70242694Y23587782D01*
X70242695Y23587782D01*
X70381329Y23669769D01*
X70381336Y23669775D01*
X70396963Y23685402D01*
X70458285Y23718889D01*
X70527977Y23713906D01*
X70572329Y23685402D01*
X70588357Y23669374D01*
X70588361Y23669372D01*
X70588363Y23669370D01*
X70588365Y23669369D01*
X70727106Y23587319D01*
X70767928Y23575459D01*
X70881897Y23542347D01*
X70881900Y23542347D01*
X70881902Y23542346D01*
X70918065Y23539500D01*
X71321934Y23539501D01*
X71358098Y23542346D01*
X71512894Y23587319D01*
X71651643Y23669374D01*
X71667672Y23685404D01*
X71728992Y23718889D01*
X71798684Y23713906D01*
X71843036Y23685402D01*
X71858661Y23669777D01*
X71858668Y23669771D01*
X71997305Y23587782D01*
X72140000Y23546326D01*
X72140000Y26133676D01*
X72139998Y26133677D01*
X71997310Y26092222D01*
X71997309Y26092221D01*
X71957620Y26068749D01*
X71889895Y26051568D01*
X71823633Y26073728D01*
X71779871Y26128195D01*
X71770500Y26175482D01*
X71770500Y47689072D01*
X71745502Y47814740D01*
X71745500Y47814745D01*
X71725189Y47863779D01*
X71696466Y47933126D01*
X71625277Y48039669D01*
X71619443Y48045503D01*
X71611872Y48058663D01*
X71605993Y48083056D01*
X71596185Y48106156D01*
X71597947Y48116445D01*
X71595503Y48126588D01*
X71603745Y48150288D01*
X71607983Y48175022D01*
X71615026Y48182723D01*
X71618455Y48192581D01*
X71638205Y48208065D01*
X71655139Y48226578D01*
X71665515Y48229475D01*
X71673442Y48235688D01*
X71695054Y48237719D01*
X71719353Y48244500D01*
X72704192Y48244500D01*
X72771231Y48224815D01*
X72791873Y48208181D01*
X72973181Y48026873D01*
X73006666Y47965550D01*
X73009500Y47939192D01*
X73009500Y26175482D01*
X72989815Y26108443D01*
X72937011Y26062688D01*
X72867853Y26052744D01*
X72822380Y26068749D01*
X72782690Y26092221D01*
X72782689Y26092222D01*
X72640001Y26133677D01*
X72640000Y26133676D01*
X72640000Y23546327D01*
X72782694Y23587782D01*
X72782695Y23587782D01*
X72921329Y23669769D01*
X72921336Y23669775D01*
X72936963Y23685402D01*
X72998285Y23718889D01*
X73067977Y23713906D01*
X73112329Y23685402D01*
X73128357Y23669374D01*
X73128361Y23669372D01*
X73128363Y23669370D01*
X73128365Y23669369D01*
X73267106Y23587319D01*
X73307928Y23575459D01*
X73421897Y23542347D01*
X73421900Y23542347D01*
X73421902Y23542346D01*
X73458065Y23539500D01*
X73861934Y23539501D01*
X73898098Y23542346D01*
X74052894Y23587319D01*
X74191643Y23669374D01*
X74207672Y23685404D01*
X74268992Y23718889D01*
X74338684Y23713906D01*
X74383036Y23685402D01*
X74398661Y23669777D01*
X74398668Y23669771D01*
X74537305Y23587782D01*
X74680000Y23546326D01*
X75180000Y23546326D01*
X75322694Y23587782D01*
X75322695Y23587782D01*
X75461331Y23669771D01*
X75461339Y23669777D01*
X75575223Y23783661D01*
X75575229Y23783669D01*
X75657219Y23922308D01*
X75657220Y23922311D01*
X75702155Y24076976D01*
X75702156Y24076982D01*
X75704999Y24113110D01*
X75705000Y24113125D01*
X75705000Y24590000D01*
X75180000Y24590000D01*
X75180000Y23546326D01*
X74680000Y23546326D01*
X74680000Y26133676D01*
X75180000Y26133676D01*
X75180000Y25090000D01*
X75704999Y25090000D01*
X75704999Y25566872D01*
X75704998Y25566894D01*
X75702155Y25603022D01*
X75657220Y25757690D01*
X75657219Y25757693D01*
X75575229Y25896332D01*
X75575223Y25896340D01*
X75461339Y26010224D01*
X75461331Y26010230D01*
X75322692Y26092220D01*
X75322689Y26092222D01*
X75180001Y26133677D01*
X75180000Y26133676D01*
X74680000Y26133676D01*
X74679998Y26133677D01*
X74537310Y26092222D01*
X74537309Y26092221D01*
X74497620Y26068749D01*
X74429895Y26051568D01*
X74363633Y26073728D01*
X74319871Y26128195D01*
X74310500Y26175482D01*
X74310500Y48324072D01*
X74285502Y48449740D01*
X74285500Y48449746D01*
X74265189Y48498779D01*
X74265187Y48498784D01*
X74236468Y48568122D01*
X74236462Y48568132D01*
X74165278Y48674668D01*
X74165272Y48674675D01*
X73439673Y49400274D01*
X73439669Y49400277D01*
X73333127Y49471465D01*
X73214744Y49520501D01*
X73214738Y49520503D01*
X73089071Y49545500D01*
X73089069Y49545500D01*
X58740808Y49545500D01*
X58673769Y49565185D01*
X58653127Y49581819D01*
X58471819Y49763127D01*
X58438334Y49824450D01*
X58435500Y49850808D01*
X58435500Y52769072D01*
X58422383Y52835012D01*
X58420000Y52859204D01*
X58420000Y55121000D01*
X58439685Y55188039D01*
X58492489Y55233794D01*
X58544000Y55245000D01*
X78616000Y55245000D01*
X78683039Y55225315D01*
G37*
G04 #@! TD.AperFunction*
G04 #@! TA.AperFunction,Conductor*
G36*
X32947539Y50145315D02*
G01*
X32993294Y50092511D01*
X33004500Y50041000D01*
X33004500Y43115931D01*
X33017560Y43050277D01*
X33029499Y42990256D01*
X33078535Y42871873D01*
X33149723Y42765331D01*
X33149726Y42765328D01*
X33151507Y42763157D01*
X33152083Y42761800D01*
X33153108Y42760266D01*
X33152817Y42760072D01*
X33178815Y42698844D01*
X33167017Y42629978D01*
X33119861Y42578422D01*
X33055647Y42560500D01*
X32070808Y42560500D01*
X32003769Y42580185D01*
X31983127Y42596819D01*
X31801819Y42778127D01*
X31768334Y42839450D01*
X31765500Y42865808D01*
X31765500Y50041000D01*
X31785185Y50108039D01*
X31837989Y50153794D01*
X31889500Y50165000D01*
X32880500Y50165000D01*
X32947539Y50145315D01*
G37*
G04 #@! TD.AperFunction*
G04 #@! TA.AperFunction,Conductor*
G36*
X40796039Y50164631D02*
G01*
X40797250Y50164949D01*
X40832027Y50158932D01*
X40958757Y50117754D01*
X41168713Y50084500D01*
X41168714Y50084500D01*
X41381286Y50084500D01*
X41381287Y50084500D01*
X41591243Y50117754D01*
X41717972Y50158932D01*
X41756291Y50165000D01*
X43333709Y50165000D01*
X43372027Y50158932D01*
X43498757Y50117754D01*
X43708713Y50084500D01*
X43708714Y50084500D01*
X43921286Y50084500D01*
X43921287Y50084500D01*
X44131243Y50117754D01*
X44257972Y50158932D01*
X44296291Y50165000D01*
X45873709Y50165000D01*
X45912027Y50158932D01*
X46038757Y50117754D01*
X46248713Y50084500D01*
X46248714Y50084500D01*
X46461286Y50084500D01*
X46461287Y50084500D01*
X46671243Y50117754D01*
X46797972Y50158932D01*
X46800302Y50159301D01*
X46801356Y50159977D01*
X46836291Y50165000D01*
X46850500Y50165000D01*
X46917539Y50145315D01*
X46963294Y50092511D01*
X46974500Y50041000D01*
X46974500Y45655931D01*
X46987560Y45590277D01*
X46999499Y45530256D01*
X47048535Y45411873D01*
X47119723Y45305331D01*
X47119726Y45305328D01*
X47121507Y45303157D01*
X47122083Y45301800D01*
X47123108Y45300266D01*
X47122817Y45300072D01*
X47148815Y45238844D01*
X47137017Y45169978D01*
X47089861Y45118422D01*
X47025647Y45100500D01*
X38420808Y45100500D01*
X38353769Y45120185D01*
X38333127Y45136819D01*
X38151819Y45318127D01*
X38118334Y45379450D01*
X38115500Y45405808D01*
X38115500Y50041000D01*
X38135185Y50108039D01*
X38187989Y50153794D01*
X38239500Y50165000D01*
X40793709Y50165000D01*
X40796039Y50164631D01*
G37*
G04 #@! TD.AperFunction*
G04 #@! TA.AperFunction,Conductor*
G36*
X50727539Y50145315D02*
G01*
X50773294Y50092511D01*
X50784500Y50041000D01*
X50784500Y46925931D01*
X50797560Y46860277D01*
X50809499Y46800256D01*
X50858535Y46681873D01*
X50929723Y46575331D01*
X50929726Y46575328D01*
X50931507Y46573157D01*
X50932083Y46571800D01*
X50933108Y46570266D01*
X50932817Y46570072D01*
X50958815Y46508844D01*
X50947017Y46439978D01*
X50899861Y46388422D01*
X50835647Y46370500D01*
X49850808Y46370500D01*
X49783769Y46390185D01*
X49763127Y46406819D01*
X49581819Y46588127D01*
X49548334Y46649450D01*
X49545500Y46675808D01*
X49545500Y50041000D01*
X49565185Y50108039D01*
X49617989Y50153794D01*
X49669500Y50165000D01*
X50660500Y50165000D01*
X50727539Y50145315D01*
G37*
G04 #@! TD.AperFunction*
G04 #@! TA.AperFunction,Conductor*
G36*
X18977539Y50145315D02*
G01*
X19023294Y50092511D01*
X19034500Y50041000D01*
X19034500Y47945808D01*
X19014815Y47878769D01*
X18998181Y47858127D01*
X18816873Y47676819D01*
X18755550Y47643334D01*
X18729192Y47640500D01*
X17744353Y47640500D01*
X17677314Y47660185D01*
X17631559Y47712989D01*
X17621615Y47782147D01*
X17647145Y47840098D01*
X17646893Y47840266D01*
X17647851Y47841700D01*
X17648493Y47843157D01*
X17650272Y47845326D01*
X17650277Y47845331D01*
X17721466Y47951874D01*
X17770501Y48070257D01*
X17795500Y48195931D01*
X17795500Y48324069D01*
X17795500Y50041000D01*
X17815185Y50108039D01*
X17867989Y50153794D01*
X17919500Y50165000D01*
X18910500Y50165000D01*
X18977539Y50145315D01*
G37*
G04 #@! TD.AperFunction*
G04 #@! TA.AperFunction,Conductor*
G36*
X57077539Y50145315D02*
G01*
X57123294Y50092511D01*
X57134500Y50041000D01*
X57134500Y49465931D01*
X57147560Y49400277D01*
X57159499Y49340256D01*
X57208535Y49221873D01*
X57279723Y49115331D01*
X57279726Y49115328D01*
X57281507Y49113157D01*
X57282083Y49111800D01*
X57283108Y49110266D01*
X57282817Y49110072D01*
X57308815Y49048844D01*
X57297017Y48979978D01*
X57249861Y48928422D01*
X57185647Y48910500D01*
X56200808Y48910500D01*
X56133769Y48930185D01*
X56113127Y48946819D01*
X55931819Y49128127D01*
X55898334Y49189450D01*
X55895500Y49215808D01*
X55895500Y50041000D01*
X55915185Y50108039D01*
X55967989Y50153794D01*
X56019500Y50165000D01*
X57010500Y50165000D01*
X57077539Y50145315D01*
G37*
G04 #@! TD.AperFunction*
G04 #@! TD*
G04 #@! TA.AperFunction,Conductor*
G04 #@! TO.N,/VCC*
G36*
X67593177Y9505315D02*
G01*
X67602875Y9497500D01*
X69562331Y9497500D01*
X69607503Y9522166D01*
X69633861Y9525000D01*
X70066138Y9525000D01*
X70133177Y9505315D01*
X70142875Y9497500D01*
X72102331Y9497500D01*
X72147503Y9522166D01*
X72173861Y9525000D01*
X72606138Y9525000D01*
X72673177Y9505315D01*
X72682875Y9497500D01*
X73536000Y9497500D01*
X73603039Y9477815D01*
X73648794Y9425011D01*
X73660000Y9373500D01*
X73660000Y9247500D01*
X73786000Y9247500D01*
X73853039Y9227815D01*
X73898794Y9175011D01*
X73910000Y9123500D01*
X73910000Y8260001D01*
X73946640Y8260001D01*
X73946654Y8260002D01*
X74047652Y8270320D01*
X74131996Y8298268D01*
X74201824Y8300670D01*
X74261866Y8264938D01*
X74293059Y8202418D01*
X74295000Y8180562D01*
X74295000Y1394000D01*
X74275315Y1326961D01*
X74222511Y1281206D01*
X74171000Y1270000D01*
X33144000Y1270000D01*
X33076961Y1289685D01*
X33031206Y1342489D01*
X33020000Y1394000D01*
X33020000Y5591000D01*
X33039685Y5658039D01*
X33092489Y5703794D01*
X33144000Y5715000D01*
X65405000Y5715000D01*
X65405000Y8180562D01*
X65424685Y8247601D01*
X65477489Y8293356D01*
X65546647Y8303300D01*
X65568004Y8298268D01*
X65652348Y8270320D01*
X65753352Y8260001D01*
X65790000Y8260001D01*
X66290000Y8260001D01*
X66326640Y8260001D01*
X66326654Y8260002D01*
X66427652Y8270320D01*
X66591300Y8324547D01*
X66591311Y8324552D01*
X66738034Y8415053D01*
X66738038Y8415056D01*
X66859944Y8536962D01*
X66859947Y8536966D01*
X66950448Y8683689D01*
X66950453Y8683700D01*
X67004680Y8847348D01*
X67014999Y8948346D01*
X67605001Y8948346D01*
X67615319Y8847348D01*
X67669546Y8683700D01*
X67669551Y8683689D01*
X67760052Y8536966D01*
X67760055Y8536962D01*
X67881961Y8415056D01*
X67881965Y8415053D01*
X68028688Y8324552D01*
X68028699Y8324547D01*
X68192347Y8270320D01*
X68293352Y8260001D01*
X68330000Y8260001D01*
X68830000Y8260001D01*
X68866640Y8260001D01*
X68866654Y8260002D01*
X68967652Y8270320D01*
X69131300Y8324547D01*
X69131311Y8324552D01*
X69278034Y8415053D01*
X69278038Y8415056D01*
X69399944Y8536962D01*
X69399947Y8536966D01*
X69490448Y8683689D01*
X69490453Y8683700D01*
X69544680Y8847348D01*
X69554999Y8948346D01*
X70145001Y8948346D01*
X70155319Y8847348D01*
X70209546Y8683700D01*
X70209551Y8683689D01*
X70300052Y8536966D01*
X70300055Y8536962D01*
X70421961Y8415056D01*
X70421965Y8415053D01*
X70568688Y8324552D01*
X70568699Y8324547D01*
X70732347Y8270320D01*
X70833352Y8260001D01*
X70870000Y8260001D01*
X71370000Y8260001D01*
X71406640Y8260001D01*
X71406654Y8260002D01*
X71507652Y8270320D01*
X71671300Y8324547D01*
X71671311Y8324552D01*
X71818034Y8415053D01*
X71818038Y8415056D01*
X71939944Y8536962D01*
X71939947Y8536966D01*
X72030448Y8683689D01*
X72030453Y8683700D01*
X72084680Y8847348D01*
X72094999Y8948346D01*
X72685001Y8948346D01*
X72695319Y8847348D01*
X72749546Y8683700D01*
X72749551Y8683689D01*
X72840052Y8536966D01*
X72840055Y8536962D01*
X72961961Y8415056D01*
X72961965Y8415053D01*
X73108688Y8324552D01*
X73108699Y8324547D01*
X73272347Y8270320D01*
X73373352Y8260001D01*
X73410000Y8260001D01*
X73410000Y8997500D01*
X72685001Y8997500D01*
X72685001Y8948346D01*
X72094999Y8948346D01*
X72095000Y8948359D01*
X72095000Y8997500D01*
X71370000Y8997500D01*
X71370000Y8260001D01*
X70870000Y8260001D01*
X70870000Y8997500D01*
X70145001Y8997500D01*
X70145001Y8948346D01*
X69554999Y8948346D01*
X69555000Y8948359D01*
X69555000Y8997500D01*
X68830000Y8997500D01*
X68830000Y8260001D01*
X68330000Y8260001D01*
X68330000Y8997500D01*
X67605001Y8997500D01*
X67605001Y8948346D01*
X67014999Y8948346D01*
X67015000Y8948359D01*
X67015000Y8997500D01*
X66290000Y8997500D01*
X66290000Y8260001D01*
X65790000Y8260001D01*
X65790000Y9123500D01*
X65809685Y9190539D01*
X65862489Y9236294D01*
X65914000Y9247500D01*
X66040000Y9247500D01*
X66040000Y9373500D01*
X66059685Y9440539D01*
X66112489Y9486294D01*
X66164000Y9497500D01*
X67022331Y9497500D01*
X67067503Y9522166D01*
X67093861Y9525000D01*
X67526138Y9525000D01*
X67593177Y9505315D01*
G37*
G04 #@! TD.AperFunction*
G04 #@! TD*
G04 #@! TA.AperFunction,Conductor*
G04 #@! TO.N,/GND1*
G36*
X78683039Y20300315D02*
G01*
X78728794Y20247511D01*
X78740000Y20196000D01*
X78740000Y1394000D01*
X78720315Y1326961D01*
X78667511Y1281206D01*
X78616000Y1270000D01*
X75689000Y1270000D01*
X75621961Y1289685D01*
X75576206Y1342489D01*
X75565000Y1394000D01*
X75565000Y10795000D01*
X74759500Y10795000D01*
X74692461Y10814685D01*
X74646706Y10867489D01*
X74635500Y10919000D01*
X74635499Y11371670D01*
X74635498Y11371688D01*
X74625174Y11472753D01*
X74613214Y11508845D01*
X74570908Y11636516D01*
X74480340Y11783350D01*
X74358350Y11905340D01*
X74358349Y11905341D01*
X74358347Y11905343D01*
X74357593Y11905939D01*
X74357209Y11906481D01*
X74353243Y11910447D01*
X74353920Y11911125D01*
X74317214Y11962959D01*
X74310500Y12003208D01*
X74310500Y15729196D01*
X74330185Y15796235D01*
X74382989Y15841990D01*
X74452147Y15851934D01*
X74503392Y15832297D01*
X74550812Y15800611D01*
X74550827Y15800603D01*
X74696498Y15740265D01*
X74696503Y15740263D01*
X74851153Y15709501D01*
X74851156Y15709500D01*
X74851158Y15709500D01*
X75008844Y15709500D01*
X75008845Y15709501D01*
X75163497Y15740263D01*
X75276166Y15786933D01*
X75309172Y15800603D01*
X75309172Y15800604D01*
X75309179Y15800606D01*
X75440289Y15888211D01*
X75551789Y15999711D01*
X75639394Y16130821D01*
X75699737Y16276503D01*
X75730500Y16431158D01*
X75730500Y16588842D01*
X75730500Y16588845D01*
X75730499Y16588847D01*
X75699738Y16743490D01*
X75699737Y16743497D01*
X75639394Y16889179D01*
X75601396Y16946047D01*
X75595746Y16964093D01*
X75585523Y16980001D01*
X75581071Y17010964D01*
X75580520Y17012724D01*
X75580500Y17014936D01*
X75580500Y17257677D01*
X75597768Y17320798D01*
X75657681Y17422106D01*
X75702654Y17576902D01*
X75705500Y17613065D01*
X75705499Y19066934D01*
X75702654Y19103098D01*
X75657681Y19257894D01*
X75575810Y19396332D01*
X75575630Y19396637D01*
X75575621Y19396649D01*
X75461648Y19510622D01*
X75461636Y19510631D01*
X75322896Y19592680D01*
X75322889Y19592683D01*
X75168102Y19637654D01*
X75168096Y19637655D01*
X75131935Y19640500D01*
X74728077Y19640500D01*
X74728052Y19640499D01*
X74691901Y19637654D01*
X74537110Y19592683D01*
X74537103Y19592680D01*
X74398363Y19510631D01*
X74398351Y19510622D01*
X74382681Y19494951D01*
X74321358Y19461466D01*
X74251666Y19466450D01*
X74207319Y19494951D01*
X74191648Y19510622D01*
X74191636Y19510631D01*
X74052896Y19592680D01*
X74052889Y19592683D01*
X73898102Y19637654D01*
X73898096Y19637655D01*
X73861935Y19640500D01*
X73458077Y19640500D01*
X73458052Y19640499D01*
X73421901Y19637654D01*
X73267110Y19592683D01*
X73267103Y19592680D01*
X73128363Y19510631D01*
X73128351Y19510622D01*
X73112681Y19494951D01*
X73051358Y19461466D01*
X72981666Y19466450D01*
X72937319Y19494951D01*
X72921648Y19510622D01*
X72921636Y19510631D01*
X72782896Y19592680D01*
X72782889Y19592683D01*
X72628102Y19637654D01*
X72628096Y19637655D01*
X72591935Y19640500D01*
X72188077Y19640500D01*
X72188052Y19640499D01*
X72151901Y19637654D01*
X71997110Y19592683D01*
X71997103Y19592680D01*
X71858363Y19510631D01*
X71858351Y19510622D01*
X71842681Y19494951D01*
X71781358Y19461466D01*
X71711666Y19466450D01*
X71667319Y19494951D01*
X71651648Y19510622D01*
X71651636Y19510631D01*
X71512896Y19592680D01*
X71512889Y19592683D01*
X71358102Y19637654D01*
X71358096Y19637655D01*
X71321935Y19640500D01*
X70918077Y19640500D01*
X70918052Y19640499D01*
X70881901Y19637654D01*
X70727110Y19592683D01*
X70727103Y19592680D01*
X70588363Y19510631D01*
X70588351Y19510622D01*
X70572681Y19494951D01*
X70511358Y19461466D01*
X70441666Y19466450D01*
X70397319Y19494951D01*
X70381648Y19510622D01*
X70381636Y19510631D01*
X70242896Y19592680D01*
X70242889Y19592683D01*
X70088102Y19637654D01*
X70088096Y19637655D01*
X70051935Y19640500D01*
X69648077Y19640500D01*
X69648052Y19640499D01*
X69611901Y19637654D01*
X69457110Y19592683D01*
X69457103Y19592680D01*
X69318363Y19510631D01*
X69318351Y19510622D01*
X69302681Y19494951D01*
X69241358Y19461466D01*
X69171666Y19466450D01*
X69127319Y19494951D01*
X69111648Y19510622D01*
X69111636Y19510631D01*
X68972896Y19592680D01*
X68972889Y19592683D01*
X68818102Y19637654D01*
X68818096Y19637655D01*
X68781935Y19640500D01*
X68378077Y19640500D01*
X68378052Y19640499D01*
X68341901Y19637654D01*
X68187110Y19592683D01*
X68187103Y19592680D01*
X68048363Y19510631D01*
X68048351Y19510622D01*
X68032681Y19494951D01*
X67971358Y19461466D01*
X67901666Y19466450D01*
X67857319Y19494951D01*
X67841648Y19510622D01*
X67841636Y19510631D01*
X67702896Y19592680D01*
X67702889Y19592683D01*
X67548102Y19637654D01*
X67548096Y19637655D01*
X67511935Y19640500D01*
X67108077Y19640500D01*
X67108052Y19640499D01*
X67071901Y19637654D01*
X66917110Y19592683D01*
X66917103Y19592680D01*
X66778363Y19510631D01*
X66778351Y19510622D01*
X66762681Y19494951D01*
X66701358Y19461466D01*
X66631666Y19466450D01*
X66587319Y19494951D01*
X66571648Y19510622D01*
X66571636Y19510631D01*
X66432896Y19592680D01*
X66432889Y19592683D01*
X66278102Y19637654D01*
X66278096Y19637655D01*
X66241935Y19640500D01*
X65838077Y19640500D01*
X65838052Y19640499D01*
X65801901Y19637654D01*
X65647110Y19592683D01*
X65647103Y19592680D01*
X65508363Y19510631D01*
X65508351Y19510622D01*
X65394378Y19396649D01*
X65394369Y19396637D01*
X65312320Y19257897D01*
X65312317Y19257890D01*
X65267346Y19103103D01*
X65267345Y19103097D01*
X65264500Y19066943D01*
X65264500Y17613078D01*
X65264501Y17613053D01*
X65267346Y17576902D01*
X65312317Y17422111D01*
X65312318Y17422108D01*
X65372232Y17320798D01*
X65389500Y17257677D01*
X65389500Y12003208D01*
X65369815Y11936169D01*
X65346619Y11910585D01*
X65346757Y11910447D01*
X65343941Y11907632D01*
X65342407Y11905939D01*
X65341652Y11905343D01*
X65219659Y11783349D01*
X65129093Y11636519D01*
X65129092Y11636516D01*
X65074826Y11472753D01*
X65074826Y11472752D01*
X65074825Y11472752D01*
X65064500Y11371685D01*
X65064500Y11371672D01*
X65064501Y10919000D01*
X65044817Y10851961D01*
X64992013Y10806206D01*
X64940501Y10795000D01*
X64135000Y10795000D01*
X64135000Y7109000D01*
X64115315Y7041961D01*
X64062511Y6996206D01*
X64011000Y6985000D01*
X6985000Y6985000D01*
X6985000Y5561291D01*
X6978931Y5522973D01*
X6937754Y5396243D01*
X6904500Y5186287D01*
X6904500Y4973713D01*
X6937754Y4763757D01*
X6958203Y4700821D01*
X6978931Y4637029D01*
X6985000Y4598711D01*
X6985000Y3705390D01*
X6965315Y3638351D01*
X6961454Y3632791D01*
X6961202Y3632329D01*
X6910908Y3497483D01*
X6904501Y3437884D01*
X6904500Y3437865D01*
X6904500Y1642130D01*
X6904501Y1642124D01*
X6910908Y1582517D01*
X6964303Y1439359D01*
X6961360Y1438262D01*
X6972910Y1385141D01*
X6948486Y1319679D01*
X6892548Y1277814D01*
X6849227Y1270000D01*
X1394000Y1270000D01*
X1326961Y1289685D01*
X1281206Y1342489D01*
X1270000Y1394000D01*
X1270000Y17613107D01*
X4305001Y17613107D01*
X4307844Y17576979D01*
X4352779Y17422311D01*
X4352780Y17422308D01*
X4434770Y17283669D01*
X4434776Y17283661D01*
X4548660Y17169777D01*
X4548668Y17169771D01*
X4687305Y17087782D01*
X4830000Y17046326D01*
X4830000Y18090000D01*
X4305001Y18090000D01*
X4305001Y17613107D01*
X1270000Y17613107D01*
X1270000Y19066891D01*
X4305000Y19066891D01*
X4305000Y18590000D01*
X4830000Y18590000D01*
X4830000Y19633676D01*
X5330000Y19633676D01*
X5330000Y17046327D01*
X5472694Y17087782D01*
X5500871Y17104445D01*
X5568595Y17121628D01*
X5634858Y17099468D01*
X5678621Y17045002D01*
X5685990Y16975522D01*
X5667095Y16928823D01*
X5640608Y16889183D01*
X5640602Y16889172D01*
X5580264Y16743502D01*
X5580261Y16743490D01*
X5549500Y16588847D01*
X5549500Y16431154D01*
X5580261Y16276511D01*
X5580264Y16276499D01*
X5640602Y16130828D01*
X5640609Y16130815D01*
X5728210Y15999712D01*
X5728213Y15999708D01*
X5839707Y15888214D01*
X5839711Y15888211D01*
X5970814Y15800610D01*
X5970827Y15800603D01*
X6116498Y15740265D01*
X6116503Y15740263D01*
X6271153Y15709501D01*
X6271156Y15709500D01*
X6271158Y15709500D01*
X6428844Y15709500D01*
X6428845Y15709501D01*
X6583497Y15740263D01*
X6696166Y15786933D01*
X6729172Y15800603D01*
X6729172Y15800604D01*
X6729179Y15800606D01*
X6860289Y15888211D01*
X6971789Y15999711D01*
X7059394Y16130821D01*
X7119737Y16276503D01*
X7150500Y16431158D01*
X7150500Y16588842D01*
X7150500Y16588845D01*
X7150499Y16588847D01*
X7119738Y16743490D01*
X7119737Y16743497D01*
X7059394Y16889179D01*
X7032904Y16928824D01*
X7012027Y16995499D01*
X7030511Y17062879D01*
X7082490Y17109570D01*
X7151460Y17120746D01*
X7199127Y17104446D01*
X7227306Y17087782D01*
X7370000Y17046326D01*
X7370000Y19633676D01*
X7870000Y19633676D01*
X7870000Y17046327D01*
X8012694Y17087782D01*
X8040871Y17104445D01*
X8108595Y17121628D01*
X8174858Y17099468D01*
X8218621Y17045002D01*
X8225990Y16975522D01*
X8207095Y16928823D01*
X8180608Y16889183D01*
X8180602Y16889172D01*
X8120264Y16743502D01*
X8120261Y16743490D01*
X8089500Y16588847D01*
X8089500Y16431154D01*
X8120261Y16276511D01*
X8120264Y16276499D01*
X8180602Y16130828D01*
X8180609Y16130815D01*
X8268210Y15999712D01*
X8268213Y15999708D01*
X8379707Y15888214D01*
X8379711Y15888211D01*
X8510814Y15800610D01*
X8510827Y15800603D01*
X8656498Y15740265D01*
X8656503Y15740263D01*
X8811153Y15709501D01*
X8811156Y15709500D01*
X8811158Y15709500D01*
X8968844Y15709500D01*
X8968845Y15709501D01*
X9123497Y15740263D01*
X9236166Y15786933D01*
X9269172Y15800603D01*
X9269172Y15800604D01*
X9269179Y15800606D01*
X9400289Y15888211D01*
X9511789Y15999711D01*
X9599394Y16130821D01*
X9659737Y16276503D01*
X9690500Y16431158D01*
X9690500Y16588842D01*
X9690500Y16588845D01*
X9690499Y16588847D01*
X9659738Y16743490D01*
X9659737Y16743497D01*
X9599394Y16889179D01*
X9572904Y16928824D01*
X9552027Y16995499D01*
X9570511Y17062879D01*
X9622490Y17109570D01*
X9691460Y17120746D01*
X9739127Y17104446D01*
X9767306Y17087782D01*
X9910000Y17046326D01*
X9910000Y19633676D01*
X10410000Y19633676D01*
X10410000Y17046327D01*
X10552694Y17087782D01*
X10580871Y17104445D01*
X10648595Y17121628D01*
X10714858Y17099468D01*
X10758621Y17045002D01*
X10765990Y16975522D01*
X10747095Y16928823D01*
X10720608Y16889183D01*
X10720602Y16889172D01*
X10660264Y16743502D01*
X10660261Y16743490D01*
X10629500Y16588847D01*
X10629500Y16431154D01*
X10660261Y16276511D01*
X10660264Y16276499D01*
X10720602Y16130828D01*
X10720609Y16130815D01*
X10808210Y15999712D01*
X10808213Y15999708D01*
X10919707Y15888214D01*
X10919711Y15888211D01*
X11050814Y15800610D01*
X11050827Y15800603D01*
X11196498Y15740265D01*
X11196503Y15740263D01*
X11351153Y15709501D01*
X11351156Y15709500D01*
X11351158Y15709500D01*
X11508844Y15709500D01*
X11508845Y15709501D01*
X11663497Y15740263D01*
X11776166Y15786933D01*
X11809172Y15800603D01*
X11809172Y15800604D01*
X11809179Y15800606D01*
X11940289Y15888211D01*
X12051789Y15999711D01*
X12139394Y16130821D01*
X12199737Y16276503D01*
X12230500Y16431158D01*
X12230500Y16588842D01*
X12230500Y16588845D01*
X12230499Y16588847D01*
X12199738Y16743490D01*
X12199737Y16743497D01*
X12139394Y16889179D01*
X12112904Y16928824D01*
X12092027Y16995499D01*
X12110511Y17062879D01*
X12162490Y17109570D01*
X12231460Y17120746D01*
X12279127Y17104446D01*
X12307306Y17087782D01*
X12450000Y17046326D01*
X12450000Y19633676D01*
X12950000Y19633676D01*
X12950000Y17046327D01*
X13092694Y17087782D01*
X13120871Y17104445D01*
X13188595Y17121628D01*
X13254858Y17099468D01*
X13298621Y17045002D01*
X13305990Y16975522D01*
X13287095Y16928823D01*
X13260608Y16889183D01*
X13260602Y16889172D01*
X13200264Y16743502D01*
X13200261Y16743490D01*
X13169500Y16588847D01*
X13169500Y16431154D01*
X13200261Y16276511D01*
X13200264Y16276499D01*
X13260602Y16130828D01*
X13260609Y16130815D01*
X13348210Y15999712D01*
X13348213Y15999708D01*
X13459707Y15888214D01*
X13459711Y15888211D01*
X13590814Y15800610D01*
X13590827Y15800603D01*
X13736498Y15740265D01*
X13736503Y15740263D01*
X13891153Y15709501D01*
X13891156Y15709500D01*
X13891158Y15709500D01*
X14048844Y15709500D01*
X14048845Y15709501D01*
X14203497Y15740263D01*
X14316166Y15786933D01*
X14349172Y15800603D01*
X14349172Y15800604D01*
X14349179Y15800606D01*
X14480289Y15888211D01*
X14591789Y15999711D01*
X14679394Y16130821D01*
X14739737Y16276503D01*
X14770500Y16431158D01*
X14770500Y16588842D01*
X14770500Y16588845D01*
X14770499Y16588847D01*
X14739738Y16743490D01*
X14739737Y16743497D01*
X14679394Y16889179D01*
X14641396Y16946047D01*
X14635746Y16964093D01*
X14625523Y16980001D01*
X14621071Y17010964D01*
X14620520Y17012724D01*
X14620500Y17014936D01*
X14620500Y17257677D01*
X14637768Y17320798D01*
X14697681Y17422106D01*
X14742654Y17576902D01*
X14745500Y17613065D01*
X14745500Y17613107D01*
X19545001Y17613107D01*
X19547844Y17576979D01*
X19592779Y17422311D01*
X19592780Y17422308D01*
X19674770Y17283669D01*
X19674776Y17283661D01*
X19788660Y17169777D01*
X19788668Y17169771D01*
X19927305Y17087782D01*
X20070000Y17046326D01*
X20070000Y18090000D01*
X19545001Y18090000D01*
X19545001Y17613107D01*
X14745500Y17613107D01*
X14745499Y18590000D01*
X14745499Y19066891D01*
X19545000Y19066891D01*
X19545000Y18590000D01*
X20070000Y18590000D01*
X20070000Y19633676D01*
X20570000Y19633676D01*
X20570000Y17046327D01*
X20712694Y17087782D01*
X20740871Y17104445D01*
X20808595Y17121628D01*
X20874858Y17099468D01*
X20918621Y17045002D01*
X20925990Y16975522D01*
X20907095Y16928823D01*
X20880608Y16889183D01*
X20880602Y16889172D01*
X20820264Y16743502D01*
X20820261Y16743490D01*
X20789500Y16588847D01*
X20789500Y16431154D01*
X20820261Y16276511D01*
X20820264Y16276499D01*
X20880602Y16130828D01*
X20880609Y16130815D01*
X20968210Y15999712D01*
X20968213Y15999708D01*
X21079707Y15888214D01*
X21079711Y15888211D01*
X21210814Y15800610D01*
X21210827Y15800603D01*
X21356498Y15740265D01*
X21356503Y15740263D01*
X21511153Y15709501D01*
X21511156Y15709500D01*
X21511158Y15709500D01*
X21668844Y15709500D01*
X21668845Y15709501D01*
X21823497Y15740263D01*
X21936166Y15786933D01*
X21969172Y15800603D01*
X21969172Y15800604D01*
X21969179Y15800606D01*
X22100289Y15888211D01*
X22211789Y15999711D01*
X22299394Y16130821D01*
X22359737Y16276503D01*
X22390500Y16431158D01*
X22390500Y16588842D01*
X22390500Y16588845D01*
X22390499Y16588847D01*
X22359738Y16743490D01*
X22359737Y16743497D01*
X22299394Y16889179D01*
X22272904Y16928824D01*
X22252027Y16995499D01*
X22270511Y17062879D01*
X22322490Y17109570D01*
X22391460Y17120746D01*
X22439127Y17104446D01*
X22467306Y17087782D01*
X22610000Y17046326D01*
X22610000Y19633676D01*
X23110000Y19633676D01*
X23110000Y17046326D01*
X23252694Y17087782D01*
X23280871Y17104445D01*
X23348595Y17121628D01*
X23414858Y17099468D01*
X23458621Y17045002D01*
X23465990Y16975522D01*
X23447095Y16928823D01*
X23420608Y16889183D01*
X23420602Y16889172D01*
X23360264Y16743502D01*
X23360261Y16743490D01*
X23329500Y16588847D01*
X23329500Y16431154D01*
X23360261Y16276511D01*
X23360264Y16276499D01*
X23420602Y16130828D01*
X23420609Y16130815D01*
X23508210Y15999712D01*
X23508213Y15999708D01*
X23619707Y15888214D01*
X23619711Y15888211D01*
X23750814Y15800610D01*
X23750827Y15800603D01*
X23896498Y15740265D01*
X23896503Y15740263D01*
X24051153Y15709501D01*
X24051156Y15709500D01*
X24051158Y15709500D01*
X24208844Y15709500D01*
X24208845Y15709501D01*
X24363497Y15740263D01*
X24476166Y15786933D01*
X24509172Y15800603D01*
X24509172Y15800604D01*
X24509179Y15800606D01*
X24640289Y15888211D01*
X24751789Y15999711D01*
X24839394Y16130821D01*
X24899737Y16276503D01*
X24930500Y16431158D01*
X24930500Y16588842D01*
X24930500Y16588845D01*
X24930499Y16588847D01*
X24899738Y16743490D01*
X24899737Y16743497D01*
X24839394Y16889179D01*
X24812904Y16928824D01*
X24792027Y16995499D01*
X24810511Y17062879D01*
X24862490Y17109570D01*
X24931460Y17120746D01*
X24979127Y17104446D01*
X25007306Y17087782D01*
X25150000Y17046326D01*
X25150000Y19633676D01*
X25650000Y19633676D01*
X25650000Y17046327D01*
X25792694Y17087782D01*
X25820871Y17104445D01*
X25888595Y17121628D01*
X25954858Y17099468D01*
X25998621Y17045002D01*
X26005990Y16975522D01*
X25987095Y16928823D01*
X25960608Y16889183D01*
X25960602Y16889172D01*
X25900264Y16743502D01*
X25900261Y16743490D01*
X25869500Y16588847D01*
X25869500Y16431154D01*
X25900261Y16276511D01*
X25900264Y16276499D01*
X25960602Y16130828D01*
X25960609Y16130815D01*
X26048210Y15999712D01*
X26048213Y15999708D01*
X26159707Y15888214D01*
X26159711Y15888211D01*
X26290814Y15800610D01*
X26290827Y15800603D01*
X26436498Y15740265D01*
X26436503Y15740263D01*
X26591153Y15709501D01*
X26591156Y15709500D01*
X26591158Y15709500D01*
X26748844Y15709500D01*
X26748845Y15709501D01*
X26903497Y15740263D01*
X27016166Y15786933D01*
X27049172Y15800603D01*
X27049172Y15800604D01*
X27049179Y15800606D01*
X27180289Y15888211D01*
X27291789Y15999711D01*
X27379394Y16130821D01*
X27439737Y16276503D01*
X27470500Y16431158D01*
X27470500Y16588842D01*
X27470500Y16588845D01*
X27470499Y16588847D01*
X27439738Y16743490D01*
X27439737Y16743497D01*
X27379394Y16889179D01*
X27352904Y16928824D01*
X27332027Y16995499D01*
X27350511Y17062879D01*
X27402490Y17109570D01*
X27471460Y17120746D01*
X27519127Y17104446D01*
X27547306Y17087782D01*
X27690000Y17046326D01*
X27690000Y19633676D01*
X28190000Y19633676D01*
X28190000Y17046327D01*
X28332694Y17087782D01*
X28332695Y17087782D01*
X28471329Y17169769D01*
X28471336Y17169775D01*
X28486963Y17185402D01*
X28548285Y17218889D01*
X28617977Y17213906D01*
X28662329Y17185402D01*
X28678357Y17169374D01*
X28678361Y17169372D01*
X28678363Y17169370D01*
X28749574Y17127257D01*
X28817106Y17087319D01*
X28857928Y17075459D01*
X28971897Y17042347D01*
X28971900Y17042347D01*
X28971902Y17042346D01*
X29008065Y17039500D01*
X29411934Y17039501D01*
X29448098Y17042346D01*
X29602894Y17087319D01*
X29741643Y17169374D01*
X29855626Y17283357D01*
X29937681Y17422106D01*
X29982654Y17576902D01*
X29985500Y17613065D01*
X29985500Y17613107D01*
X34785001Y17613107D01*
X34787844Y17576979D01*
X34832779Y17422311D01*
X34832780Y17422308D01*
X34914770Y17283669D01*
X34914776Y17283661D01*
X35028660Y17169777D01*
X35028668Y17169771D01*
X35167305Y17087782D01*
X35310000Y17046326D01*
X35310000Y18090000D01*
X34785001Y18090000D01*
X34785001Y17613107D01*
X29985500Y17613107D01*
X29985499Y18590000D01*
X29985499Y19066891D01*
X34785000Y19066891D01*
X34785000Y18590000D01*
X35310000Y18590000D01*
X35310000Y19633676D01*
X35810000Y19633676D01*
X35810000Y17046326D01*
X35952694Y17087782D01*
X35980871Y17104445D01*
X36048595Y17121628D01*
X36114858Y17099468D01*
X36158621Y17045002D01*
X36165990Y16975522D01*
X36147095Y16928823D01*
X36120608Y16889183D01*
X36120602Y16889172D01*
X36060264Y16743502D01*
X36060261Y16743490D01*
X36029500Y16588847D01*
X36029500Y16431154D01*
X36060261Y16276511D01*
X36060264Y16276499D01*
X36120602Y16130828D01*
X36120609Y16130815D01*
X36208210Y15999712D01*
X36208213Y15999708D01*
X36319707Y15888214D01*
X36319711Y15888211D01*
X36450814Y15800610D01*
X36450827Y15800603D01*
X36596498Y15740265D01*
X36596503Y15740263D01*
X36751153Y15709501D01*
X36751156Y15709500D01*
X36751158Y15709500D01*
X36908844Y15709500D01*
X36908845Y15709501D01*
X37063497Y15740263D01*
X37176166Y15786933D01*
X37209172Y15800603D01*
X37209172Y15800604D01*
X37209179Y15800606D01*
X37340289Y15888211D01*
X37451789Y15999711D01*
X37539394Y16130821D01*
X37599737Y16276503D01*
X37630500Y16431158D01*
X37630500Y16588842D01*
X37630500Y16588845D01*
X37630499Y16588847D01*
X37599738Y16743490D01*
X37599737Y16743497D01*
X37539394Y16889179D01*
X37512904Y16928824D01*
X37492027Y16995499D01*
X37510511Y17062879D01*
X37562490Y17109570D01*
X37631460Y17120746D01*
X37679127Y17104446D01*
X37707306Y17087782D01*
X37850000Y17046326D01*
X37850000Y19633676D01*
X38350000Y19633676D01*
X38350000Y17046327D01*
X38492694Y17087782D01*
X38532379Y17111251D01*
X38600103Y17128434D01*
X38666365Y17106274D01*
X38710129Y17051808D01*
X38719500Y17004519D01*
X38719500Y15744936D01*
X38699815Y15677897D01*
X38698603Y15676046D01*
X38660608Y15619183D01*
X38660602Y15619172D01*
X38600264Y15473502D01*
X38600261Y15473490D01*
X38569500Y15318847D01*
X38569500Y15161154D01*
X38600261Y15006511D01*
X38600264Y15006499D01*
X38660602Y14860828D01*
X38660609Y14860815D01*
X38748210Y14729712D01*
X38748213Y14729708D01*
X38859707Y14618214D01*
X38859711Y14618211D01*
X38990814Y14530610D01*
X38990827Y14530603D01*
X39136498Y14470265D01*
X39136503Y14470263D01*
X39291153Y14439501D01*
X39291156Y14439500D01*
X39291158Y14439500D01*
X39448844Y14439500D01*
X39448845Y14439501D01*
X39603497Y14470263D01*
X39716166Y14516933D01*
X39749172Y14530603D01*
X39749172Y14530604D01*
X39749179Y14530606D01*
X39880289Y14618211D01*
X39991789Y14729711D01*
X40079394Y14860821D01*
X40139737Y15006503D01*
X40170500Y15161158D01*
X40170500Y15318842D01*
X40170500Y15318845D01*
X40170499Y15318847D01*
X40139738Y15473490D01*
X40139737Y15473497D01*
X40079394Y15619179D01*
X40041396Y15676047D01*
X40020520Y15742724D01*
X40020500Y15744936D01*
X40020500Y17004519D01*
X40040185Y17071558D01*
X40092989Y17117313D01*
X40162147Y17127257D01*
X40207621Y17111251D01*
X40247305Y17087782D01*
X40390000Y17046326D01*
X40390000Y19633676D01*
X40890000Y19633676D01*
X40890000Y17046326D01*
X41032694Y17087782D01*
X41072379Y17111251D01*
X41140103Y17128434D01*
X41206365Y17106274D01*
X41250129Y17051808D01*
X41259500Y17004519D01*
X41259500Y14474936D01*
X41239815Y14407897D01*
X41238603Y14406046D01*
X41200608Y14349183D01*
X41200602Y14349172D01*
X41140264Y14203502D01*
X41140261Y14203490D01*
X41109500Y14048847D01*
X41109500Y13891154D01*
X41140261Y13736511D01*
X41140264Y13736499D01*
X41200602Y13590828D01*
X41200609Y13590815D01*
X41288210Y13459712D01*
X41288213Y13459708D01*
X41399707Y13348214D01*
X41399711Y13348211D01*
X41530814Y13260610D01*
X41530827Y13260603D01*
X41676498Y13200265D01*
X41676503Y13200263D01*
X41831153Y13169501D01*
X41831156Y13169500D01*
X41831158Y13169500D01*
X41988844Y13169500D01*
X41988845Y13169501D01*
X42143497Y13200263D01*
X42256166Y13246933D01*
X42289172Y13260603D01*
X42289172Y13260604D01*
X42289179Y13260606D01*
X42420289Y13348211D01*
X42531789Y13459711D01*
X42619394Y13590821D01*
X42679737Y13736503D01*
X42710500Y13891158D01*
X42710500Y14048842D01*
X42710500Y14048845D01*
X42710499Y14048847D01*
X42679738Y14203490D01*
X42679737Y14203497D01*
X42619394Y14349179D01*
X42581396Y14406047D01*
X42560520Y14472724D01*
X42560500Y14474936D01*
X42560500Y17004519D01*
X42580185Y17071558D01*
X42632989Y17117313D01*
X42702147Y17127257D01*
X42747621Y17111251D01*
X42787305Y17087782D01*
X42930000Y17046326D01*
X42930000Y19633676D01*
X43430000Y19633676D01*
X43430000Y17046326D01*
X43572694Y17087782D01*
X43612379Y17111251D01*
X43680103Y17128434D01*
X43746365Y17106274D01*
X43790129Y17051808D01*
X43799500Y17004519D01*
X43799500Y14474936D01*
X43779815Y14407897D01*
X43778603Y14406046D01*
X43740608Y14349183D01*
X43740602Y14349172D01*
X43680264Y14203502D01*
X43680261Y14203490D01*
X43649500Y14048847D01*
X43649500Y13891154D01*
X43680261Y13736511D01*
X43680264Y13736499D01*
X43740602Y13590828D01*
X43740609Y13590815D01*
X43828210Y13459712D01*
X43828213Y13459708D01*
X43939707Y13348214D01*
X43939711Y13348211D01*
X44070814Y13260610D01*
X44070827Y13260603D01*
X44216498Y13200265D01*
X44216503Y13200263D01*
X44371153Y13169501D01*
X44371156Y13169500D01*
X44371158Y13169500D01*
X44528844Y13169500D01*
X44528845Y13169501D01*
X44683497Y13200263D01*
X44796166Y13246933D01*
X44829172Y13260603D01*
X44829172Y13260604D01*
X44829179Y13260606D01*
X44960289Y13348211D01*
X45071789Y13459711D01*
X45159394Y13590821D01*
X45219737Y13736503D01*
X45250500Y13891158D01*
X45250500Y14048842D01*
X45250500Y14048845D01*
X45250499Y14048847D01*
X45219738Y14203490D01*
X45219737Y14203497D01*
X45159394Y14349179D01*
X45121396Y14406047D01*
X45100520Y14472724D01*
X45100500Y14474936D01*
X45100500Y17257677D01*
X45117768Y17320798D01*
X45177681Y17422106D01*
X45222654Y17576902D01*
X45225500Y17613065D01*
X45225500Y17613107D01*
X50025001Y17613107D01*
X50027844Y17576979D01*
X50072779Y17422311D01*
X50072780Y17422308D01*
X50154770Y17283669D01*
X50154776Y17283661D01*
X50268660Y17169777D01*
X50268668Y17169771D01*
X50407305Y17087782D01*
X50550000Y17046326D01*
X50550000Y18090000D01*
X50025001Y18090000D01*
X50025001Y17613107D01*
X45225500Y17613107D01*
X45225499Y18590000D01*
X45225499Y19066891D01*
X50025000Y19066891D01*
X50025000Y18590000D01*
X50550000Y18590000D01*
X50550000Y19633676D01*
X51050000Y19633676D01*
X51050000Y17046326D01*
X51192694Y17087782D01*
X51232379Y17111251D01*
X51300103Y17128434D01*
X51366365Y17106274D01*
X51410129Y17051808D01*
X51419500Y17004519D01*
X51419500Y14474936D01*
X51399815Y14407897D01*
X51398603Y14406046D01*
X51360608Y14349183D01*
X51360602Y14349172D01*
X51300264Y14203502D01*
X51300261Y14203490D01*
X51269500Y14048847D01*
X51269500Y13891154D01*
X51300261Y13736511D01*
X51300264Y13736499D01*
X51360602Y13590828D01*
X51360609Y13590815D01*
X51448210Y13459712D01*
X51448213Y13459708D01*
X51559707Y13348214D01*
X51559711Y13348211D01*
X51690814Y13260610D01*
X51690827Y13260603D01*
X51836498Y13200265D01*
X51836503Y13200263D01*
X51991153Y13169501D01*
X51991156Y13169500D01*
X51991158Y13169500D01*
X52148844Y13169500D01*
X52148845Y13169501D01*
X52303497Y13200263D01*
X52416166Y13246933D01*
X52449172Y13260603D01*
X52449172Y13260604D01*
X52449179Y13260606D01*
X52580289Y13348211D01*
X52691789Y13459711D01*
X52779394Y13590821D01*
X52839737Y13736503D01*
X52870500Y13891158D01*
X52870500Y14048842D01*
X52870500Y14048845D01*
X52870499Y14048847D01*
X52839738Y14203490D01*
X52839737Y14203497D01*
X52779394Y14349179D01*
X52741396Y14406047D01*
X52720520Y14472724D01*
X52720500Y14474936D01*
X52720500Y17004519D01*
X52740185Y17071558D01*
X52792989Y17117313D01*
X52862147Y17127257D01*
X52907621Y17111251D01*
X52947305Y17087782D01*
X53090000Y17046326D01*
X53090000Y19633676D01*
X53590000Y19633676D01*
X53590000Y17046327D01*
X53732694Y17087782D01*
X53772379Y17111251D01*
X53840103Y17128434D01*
X53906365Y17106274D01*
X53950129Y17051808D01*
X53959500Y17004519D01*
X53959500Y13204936D01*
X53939815Y13137897D01*
X53938603Y13136046D01*
X53900608Y13079183D01*
X53900602Y13079172D01*
X53840264Y12933502D01*
X53840261Y12933490D01*
X53809500Y12778847D01*
X53809500Y12621154D01*
X53840261Y12466511D01*
X53840264Y12466499D01*
X53900602Y12320828D01*
X53900609Y12320815D01*
X53988210Y12189712D01*
X53988213Y12189708D01*
X54099707Y12078214D01*
X54099711Y12078211D01*
X54230814Y11990610D01*
X54230827Y11990603D01*
X54376254Y11930366D01*
X54376503Y11930263D01*
X54501799Y11905340D01*
X54531153Y11899501D01*
X54531156Y11899500D01*
X54531158Y11899500D01*
X54688844Y11899500D01*
X54688845Y11899501D01*
X54843497Y11930263D01*
X54989179Y11990606D01*
X55120289Y12078211D01*
X55231789Y12189711D01*
X55319394Y12320821D01*
X55379737Y12466503D01*
X55410500Y12621158D01*
X55410500Y12778842D01*
X55410500Y12778845D01*
X55410499Y12778847D01*
X55379738Y12933490D01*
X55379737Y12933497D01*
X55319394Y13079179D01*
X55281396Y13136047D01*
X55260520Y13202724D01*
X55260500Y13204936D01*
X55260500Y17004519D01*
X55280185Y17071558D01*
X55332989Y17117313D01*
X55402147Y17127257D01*
X55447621Y17111251D01*
X55487305Y17087782D01*
X55630000Y17046326D01*
X55630000Y19633676D01*
X56130000Y19633676D01*
X56130000Y17046327D01*
X56272694Y17087782D01*
X56312379Y17111251D01*
X56380103Y17128434D01*
X56446365Y17106274D01*
X56490129Y17051808D01*
X56499500Y17004519D01*
X56499500Y11934936D01*
X56479815Y11867897D01*
X56478603Y11866046D01*
X56440608Y11809183D01*
X56440602Y11809172D01*
X56380264Y11663502D01*
X56380261Y11663490D01*
X56349500Y11508847D01*
X56349500Y11351154D01*
X56380261Y11196511D01*
X56380264Y11196499D01*
X56440602Y11050828D01*
X56440609Y11050815D01*
X56528210Y10919712D01*
X56528213Y10919708D01*
X56639707Y10808214D01*
X56639711Y10808211D01*
X56770814Y10720610D01*
X56770827Y10720603D01*
X56916498Y10660265D01*
X56916503Y10660263D01*
X57071153Y10629501D01*
X57071156Y10629500D01*
X57071158Y10629500D01*
X57228844Y10629500D01*
X57228845Y10629501D01*
X57383497Y10660263D01*
X57529179Y10720606D01*
X57660289Y10808211D01*
X57771789Y10919711D01*
X57859394Y11050821D01*
X57919737Y11196503D01*
X57950500Y11351158D01*
X57950500Y11508842D01*
X57950500Y11508845D01*
X57950499Y11508847D01*
X57919738Y11663490D01*
X57919737Y11663497D01*
X57859394Y11809179D01*
X57821396Y11866047D01*
X57800520Y11932724D01*
X57800500Y11934936D01*
X57800500Y17004519D01*
X57820185Y17071558D01*
X57872989Y17117313D01*
X57942147Y17127257D01*
X57987621Y17111251D01*
X58027305Y17087782D01*
X58170000Y17046326D01*
X58170000Y19633676D01*
X58670000Y19633676D01*
X58670000Y17046326D01*
X58812694Y17087782D01*
X58852379Y17111251D01*
X58920103Y17128434D01*
X58986365Y17106274D01*
X59030129Y17051808D01*
X59039500Y17004519D01*
X59039500Y11934936D01*
X59019815Y11867897D01*
X59018603Y11866046D01*
X58980608Y11809183D01*
X58980602Y11809172D01*
X58920264Y11663502D01*
X58920261Y11663490D01*
X58889500Y11508847D01*
X58889500Y11351154D01*
X58920261Y11196511D01*
X58920264Y11196499D01*
X58980602Y11050828D01*
X58980609Y11050815D01*
X59068210Y10919712D01*
X59068213Y10919708D01*
X59179707Y10808214D01*
X59179711Y10808211D01*
X59310814Y10720610D01*
X59310827Y10720603D01*
X59456498Y10660265D01*
X59456503Y10660263D01*
X59611153Y10629501D01*
X59611156Y10629500D01*
X59611158Y10629500D01*
X59768844Y10629500D01*
X59768845Y10629501D01*
X59923497Y10660263D01*
X60069179Y10720606D01*
X60200289Y10808211D01*
X60311789Y10919711D01*
X60399394Y11050821D01*
X60459737Y11196503D01*
X60490500Y11351158D01*
X60490500Y11508842D01*
X60490500Y11508845D01*
X60490499Y11508847D01*
X60459738Y11663490D01*
X60459737Y11663497D01*
X60399394Y11809179D01*
X60361396Y11866047D01*
X60340520Y11932724D01*
X60340500Y11934936D01*
X60340500Y17257677D01*
X60357768Y17320798D01*
X60417681Y17422106D01*
X60462654Y17576902D01*
X60465500Y17613065D01*
X60465499Y19066934D01*
X60462654Y19103098D01*
X60417681Y19257894D01*
X60335810Y19396332D01*
X60335630Y19396637D01*
X60335621Y19396649D01*
X60221648Y19510622D01*
X60221636Y19510631D01*
X60082896Y19592680D01*
X60082889Y19592683D01*
X59928102Y19637654D01*
X59928096Y19637655D01*
X59891935Y19640500D01*
X59488077Y19640500D01*
X59488052Y19640499D01*
X59451901Y19637654D01*
X59297110Y19592683D01*
X59297103Y19592680D01*
X59158365Y19510632D01*
X59158351Y19510621D01*
X59142323Y19494594D01*
X59080998Y19461112D01*
X59011307Y19466099D01*
X58966965Y19494598D01*
X58951339Y19510224D01*
X58951331Y19510230D01*
X58812692Y19592220D01*
X58812689Y19592222D01*
X58670001Y19633677D01*
X58670000Y19633676D01*
X58170000Y19633676D01*
X58169998Y19633677D01*
X58027310Y19592222D01*
X58027307Y19592220D01*
X57888671Y19510232D01*
X57888659Y19510223D01*
X57873030Y19494594D01*
X57811705Y19461112D01*
X57742014Y19466099D01*
X57697672Y19494598D01*
X57681648Y19510622D01*
X57681636Y19510631D01*
X57542896Y19592680D01*
X57542889Y19592683D01*
X57388102Y19637654D01*
X57388096Y19637655D01*
X57351935Y19640500D01*
X56948077Y19640500D01*
X56948052Y19640499D01*
X56911901Y19637654D01*
X56757110Y19592683D01*
X56757103Y19592680D01*
X56618365Y19510632D01*
X56618351Y19510621D01*
X56602323Y19494594D01*
X56540998Y19461112D01*
X56471307Y19466099D01*
X56426965Y19494598D01*
X56411339Y19510224D01*
X56411331Y19510230D01*
X56272692Y19592220D01*
X56272689Y19592222D01*
X56130001Y19633677D01*
X56130000Y19633676D01*
X55630000Y19633676D01*
X55629998Y19633677D01*
X55487310Y19592222D01*
X55487307Y19592220D01*
X55348671Y19510232D01*
X55348659Y19510223D01*
X55333030Y19494594D01*
X55271705Y19461112D01*
X55202014Y19466099D01*
X55157672Y19494598D01*
X55141648Y19510622D01*
X55141636Y19510631D01*
X55002896Y19592680D01*
X55002889Y19592683D01*
X54848102Y19637654D01*
X54848096Y19637655D01*
X54811935Y19640500D01*
X54408077Y19640500D01*
X54408052Y19640499D01*
X54371901Y19637654D01*
X54217110Y19592683D01*
X54217103Y19592680D01*
X54078365Y19510632D01*
X54078351Y19510621D01*
X54062323Y19494594D01*
X54000998Y19461112D01*
X53931307Y19466099D01*
X53886965Y19494598D01*
X53871339Y19510224D01*
X53871331Y19510230D01*
X53732692Y19592220D01*
X53732689Y19592222D01*
X53590001Y19633677D01*
X53590000Y19633676D01*
X53090000Y19633676D01*
X53089998Y19633677D01*
X52947310Y19592222D01*
X52947307Y19592220D01*
X52808671Y19510232D01*
X52808659Y19510223D01*
X52793030Y19494594D01*
X52731705Y19461112D01*
X52662014Y19466099D01*
X52617672Y19494598D01*
X52601648Y19510622D01*
X52601636Y19510631D01*
X52462896Y19592680D01*
X52462889Y19592683D01*
X52308102Y19637654D01*
X52308096Y19637655D01*
X52271935Y19640500D01*
X51868077Y19640500D01*
X51868052Y19640499D01*
X51831901Y19637654D01*
X51677110Y19592683D01*
X51677103Y19592680D01*
X51538365Y19510632D01*
X51538351Y19510621D01*
X51522323Y19494594D01*
X51460998Y19461112D01*
X51391307Y19466099D01*
X51346965Y19494598D01*
X51331339Y19510224D01*
X51331331Y19510230D01*
X51192692Y19592220D01*
X51192689Y19592222D01*
X51050001Y19633677D01*
X51050000Y19633676D01*
X50550000Y19633676D01*
X50549998Y19633677D01*
X50407310Y19592222D01*
X50407307Y19592220D01*
X50268668Y19510230D01*
X50268660Y19510224D01*
X50154776Y19396340D01*
X50154770Y19396332D01*
X50072780Y19257693D01*
X50072779Y19257690D01*
X50027844Y19103025D01*
X50027843Y19103019D01*
X50025000Y19066891D01*
X45225499Y19066891D01*
X45225499Y19066923D01*
X45225498Y19066948D01*
X45225216Y19070532D01*
X45222654Y19103098D01*
X45177681Y19257894D01*
X45095810Y19396332D01*
X45095630Y19396637D01*
X45095621Y19396649D01*
X44981648Y19510622D01*
X44981636Y19510631D01*
X44842896Y19592680D01*
X44842889Y19592683D01*
X44688102Y19637654D01*
X44688096Y19637655D01*
X44651935Y19640500D01*
X44248077Y19640500D01*
X44248052Y19640499D01*
X44211901Y19637654D01*
X44057110Y19592683D01*
X44057103Y19592680D01*
X43918365Y19510632D01*
X43918351Y19510621D01*
X43902323Y19494594D01*
X43840998Y19461112D01*
X43771307Y19466099D01*
X43726965Y19494598D01*
X43711339Y19510224D01*
X43711331Y19510230D01*
X43572692Y19592220D01*
X43572689Y19592222D01*
X43430001Y19633677D01*
X43430000Y19633676D01*
X42930000Y19633676D01*
X42929998Y19633677D01*
X42787310Y19592222D01*
X42787307Y19592220D01*
X42648671Y19510232D01*
X42648659Y19510223D01*
X42633030Y19494594D01*
X42571705Y19461112D01*
X42502014Y19466099D01*
X42457672Y19494598D01*
X42441648Y19510622D01*
X42441636Y19510631D01*
X42302896Y19592680D01*
X42302889Y19592683D01*
X42148102Y19637654D01*
X42148096Y19637655D01*
X42111935Y19640500D01*
X41708077Y19640500D01*
X41708052Y19640499D01*
X41671901Y19637654D01*
X41517110Y19592683D01*
X41517103Y19592680D01*
X41378365Y19510632D01*
X41378351Y19510621D01*
X41362323Y19494594D01*
X41300998Y19461112D01*
X41231307Y19466099D01*
X41186965Y19494598D01*
X41171339Y19510224D01*
X41171331Y19510230D01*
X41032692Y19592220D01*
X41032689Y19592222D01*
X40890001Y19633677D01*
X40890000Y19633676D01*
X40390000Y19633676D01*
X40389998Y19633677D01*
X40247310Y19592222D01*
X40247307Y19592220D01*
X40108671Y19510232D01*
X40108659Y19510223D01*
X40093030Y19494594D01*
X40031705Y19461112D01*
X39962014Y19466099D01*
X39917672Y19494598D01*
X39901648Y19510622D01*
X39901636Y19510631D01*
X39762896Y19592680D01*
X39762889Y19592683D01*
X39608102Y19637654D01*
X39608096Y19637655D01*
X39571935Y19640500D01*
X39168077Y19640500D01*
X39168052Y19640499D01*
X39131901Y19637654D01*
X38977110Y19592683D01*
X38977103Y19592680D01*
X38838365Y19510632D01*
X38838351Y19510621D01*
X38822323Y19494594D01*
X38760998Y19461112D01*
X38691307Y19466099D01*
X38646965Y19494598D01*
X38631339Y19510224D01*
X38631331Y19510230D01*
X38492692Y19592220D01*
X38492689Y19592222D01*
X38350001Y19633677D01*
X38350000Y19633676D01*
X37850000Y19633676D01*
X37849998Y19633677D01*
X37707310Y19592222D01*
X37707307Y19592220D01*
X37568671Y19510232D01*
X37568659Y19510223D01*
X37553030Y19494594D01*
X37491705Y19461112D01*
X37422014Y19466099D01*
X37377672Y19494598D01*
X37361648Y19510622D01*
X37361636Y19510631D01*
X37222896Y19592680D01*
X37222889Y19592683D01*
X37068102Y19637654D01*
X37068096Y19637655D01*
X37031935Y19640500D01*
X36628077Y19640500D01*
X36628052Y19640499D01*
X36591901Y19637654D01*
X36437110Y19592683D01*
X36437103Y19592680D01*
X36298365Y19510632D01*
X36298351Y19510621D01*
X36282323Y19494594D01*
X36220998Y19461112D01*
X36151307Y19466099D01*
X36106965Y19494598D01*
X36091339Y19510224D01*
X36091331Y19510230D01*
X35952692Y19592220D01*
X35952689Y19592222D01*
X35810001Y19633677D01*
X35810000Y19633676D01*
X35310000Y19633676D01*
X35309998Y19633677D01*
X35167310Y19592222D01*
X35167307Y19592220D01*
X35028668Y19510230D01*
X35028660Y19510224D01*
X34914776Y19396340D01*
X34914770Y19396332D01*
X34832780Y19257693D01*
X34832779Y19257690D01*
X34787844Y19103025D01*
X34787843Y19103019D01*
X34785000Y19066891D01*
X29985499Y19066891D01*
X29985499Y19066923D01*
X29985498Y19066948D01*
X29985216Y19070532D01*
X29982654Y19103098D01*
X29937681Y19257894D01*
X29855810Y19396332D01*
X29855630Y19396637D01*
X29855621Y19396649D01*
X29741648Y19510622D01*
X29741636Y19510631D01*
X29602896Y19592680D01*
X29602889Y19592683D01*
X29448102Y19637654D01*
X29448096Y19637655D01*
X29411935Y19640500D01*
X29008077Y19640500D01*
X29008052Y19640499D01*
X28971901Y19637654D01*
X28817110Y19592683D01*
X28817103Y19592680D01*
X28678365Y19510632D01*
X28678351Y19510621D01*
X28662323Y19494594D01*
X28600998Y19461112D01*
X28531307Y19466099D01*
X28486965Y19494598D01*
X28471339Y19510224D01*
X28471331Y19510230D01*
X28332692Y19592220D01*
X28332689Y19592222D01*
X28190001Y19633677D01*
X28190000Y19633676D01*
X27690000Y19633676D01*
X27689998Y19633677D01*
X27547310Y19592222D01*
X27547307Y19592220D01*
X27408671Y19510232D01*
X27408659Y19510223D01*
X27393030Y19494594D01*
X27331705Y19461112D01*
X27262014Y19466099D01*
X27217672Y19494598D01*
X27201648Y19510622D01*
X27201636Y19510631D01*
X27062896Y19592680D01*
X27062889Y19592683D01*
X26908102Y19637654D01*
X26908096Y19637655D01*
X26871935Y19640500D01*
X26468077Y19640500D01*
X26468052Y19640499D01*
X26431901Y19637654D01*
X26277110Y19592683D01*
X26277103Y19592680D01*
X26138365Y19510632D01*
X26138351Y19510621D01*
X26122323Y19494594D01*
X26060998Y19461112D01*
X25991307Y19466099D01*
X25946965Y19494598D01*
X25931339Y19510224D01*
X25931331Y19510230D01*
X25792692Y19592220D01*
X25792689Y19592222D01*
X25650001Y19633677D01*
X25650000Y19633676D01*
X25150000Y19633676D01*
X25149998Y19633677D01*
X25007310Y19592222D01*
X25007307Y19592220D01*
X24868671Y19510232D01*
X24868659Y19510223D01*
X24853030Y19494594D01*
X24791705Y19461112D01*
X24722014Y19466099D01*
X24677672Y19494598D01*
X24661648Y19510622D01*
X24661636Y19510631D01*
X24522896Y19592680D01*
X24522889Y19592683D01*
X24368102Y19637654D01*
X24368096Y19637655D01*
X24331935Y19640500D01*
X23928077Y19640500D01*
X23928052Y19640499D01*
X23891901Y19637654D01*
X23737110Y19592683D01*
X23737103Y19592680D01*
X23598365Y19510632D01*
X23598351Y19510621D01*
X23582323Y19494594D01*
X23520998Y19461112D01*
X23451307Y19466099D01*
X23406965Y19494598D01*
X23391339Y19510224D01*
X23391331Y19510230D01*
X23252692Y19592220D01*
X23252689Y19592222D01*
X23110001Y19633677D01*
X23110000Y19633676D01*
X22610000Y19633676D01*
X22609998Y19633677D01*
X22467310Y19592222D01*
X22467307Y19592220D01*
X22328671Y19510232D01*
X22328659Y19510223D01*
X22313030Y19494594D01*
X22251705Y19461112D01*
X22182014Y19466099D01*
X22137672Y19494598D01*
X22121648Y19510622D01*
X22121636Y19510631D01*
X21982896Y19592680D01*
X21982889Y19592683D01*
X21828102Y19637654D01*
X21828096Y19637655D01*
X21791935Y19640500D01*
X21388077Y19640500D01*
X21388052Y19640499D01*
X21351901Y19637654D01*
X21197110Y19592683D01*
X21197103Y19592680D01*
X21058365Y19510632D01*
X21058351Y19510621D01*
X21042323Y19494594D01*
X20980998Y19461112D01*
X20911307Y19466099D01*
X20866965Y19494598D01*
X20851339Y19510224D01*
X20851331Y19510230D01*
X20712692Y19592220D01*
X20712689Y19592222D01*
X20570001Y19633677D01*
X20570000Y19633676D01*
X20070000Y19633676D01*
X20069998Y19633677D01*
X19927310Y19592222D01*
X19927307Y19592220D01*
X19788668Y19510230D01*
X19788660Y19510224D01*
X19674776Y19396340D01*
X19674770Y19396332D01*
X19592780Y19257693D01*
X19592779Y19257690D01*
X19547844Y19103025D01*
X19547843Y19103019D01*
X19545000Y19066891D01*
X14745499Y19066891D01*
X14745499Y19066923D01*
X14745498Y19066948D01*
X14745216Y19070532D01*
X14742654Y19103098D01*
X14697681Y19257894D01*
X14615810Y19396332D01*
X14615630Y19396637D01*
X14615621Y19396649D01*
X14501648Y19510622D01*
X14501636Y19510631D01*
X14362896Y19592680D01*
X14362889Y19592683D01*
X14208102Y19637654D01*
X14208096Y19637655D01*
X14171935Y19640500D01*
X13768077Y19640500D01*
X13768052Y19640499D01*
X13731901Y19637654D01*
X13577110Y19592683D01*
X13577103Y19592680D01*
X13438365Y19510632D01*
X13438351Y19510621D01*
X13422323Y19494594D01*
X13360998Y19461112D01*
X13291307Y19466099D01*
X13246965Y19494598D01*
X13231339Y19510224D01*
X13231331Y19510230D01*
X13092692Y19592220D01*
X13092689Y19592222D01*
X12950001Y19633677D01*
X12950000Y19633676D01*
X12450000Y19633676D01*
X12449998Y19633677D01*
X12307310Y19592222D01*
X12307307Y19592220D01*
X12168671Y19510232D01*
X12168659Y19510223D01*
X12153030Y19494594D01*
X12091705Y19461112D01*
X12022014Y19466099D01*
X11977672Y19494598D01*
X11961648Y19510622D01*
X11961636Y19510631D01*
X11822896Y19592680D01*
X11822889Y19592683D01*
X11668102Y19637654D01*
X11668096Y19637655D01*
X11631935Y19640500D01*
X11228077Y19640500D01*
X11228052Y19640499D01*
X11191901Y19637654D01*
X11037110Y19592683D01*
X11037103Y19592680D01*
X10898365Y19510632D01*
X10898351Y19510621D01*
X10882323Y19494594D01*
X10820998Y19461112D01*
X10751307Y19466099D01*
X10706965Y19494598D01*
X10691339Y19510224D01*
X10691331Y19510230D01*
X10552692Y19592220D01*
X10552689Y19592222D01*
X10410001Y19633677D01*
X10410000Y19633676D01*
X9910000Y19633676D01*
X9909998Y19633677D01*
X9767310Y19592222D01*
X9767307Y19592220D01*
X9628671Y19510232D01*
X9628659Y19510223D01*
X9613030Y19494594D01*
X9551705Y19461112D01*
X9482014Y19466099D01*
X9437672Y19494598D01*
X9421648Y19510622D01*
X9421636Y19510631D01*
X9282896Y19592680D01*
X9282889Y19592683D01*
X9128102Y19637654D01*
X9128096Y19637655D01*
X9091935Y19640500D01*
X8688077Y19640500D01*
X8688052Y19640499D01*
X8651901Y19637654D01*
X8497110Y19592683D01*
X8497103Y19592680D01*
X8358365Y19510632D01*
X8358351Y19510621D01*
X8342323Y19494594D01*
X8280998Y19461112D01*
X8211307Y19466099D01*
X8166965Y19494598D01*
X8151339Y19510224D01*
X8151331Y19510230D01*
X8012692Y19592220D01*
X8012689Y19592222D01*
X7870001Y19633677D01*
X7870000Y19633676D01*
X7370000Y19633676D01*
X7369998Y19633677D01*
X7227310Y19592222D01*
X7227307Y19592220D01*
X7088671Y19510232D01*
X7088659Y19510223D01*
X7073030Y19494594D01*
X7011705Y19461112D01*
X6942014Y19466099D01*
X6897672Y19494598D01*
X6881648Y19510622D01*
X6881636Y19510631D01*
X6742896Y19592680D01*
X6742889Y19592683D01*
X6588102Y19637654D01*
X6588096Y19637655D01*
X6551935Y19640500D01*
X6148077Y19640500D01*
X6148052Y19640499D01*
X6111901Y19637654D01*
X5957110Y19592683D01*
X5957103Y19592680D01*
X5818365Y19510632D01*
X5818351Y19510621D01*
X5802323Y19494594D01*
X5740998Y19461112D01*
X5671307Y19466099D01*
X5626965Y19494598D01*
X5611339Y19510224D01*
X5611331Y19510230D01*
X5472692Y19592220D01*
X5472689Y19592222D01*
X5330001Y19633677D01*
X5330000Y19633676D01*
X4830000Y19633676D01*
X4829998Y19633677D01*
X4687310Y19592222D01*
X4687307Y19592220D01*
X4548668Y19510230D01*
X4548660Y19510224D01*
X4434776Y19396340D01*
X4434770Y19396332D01*
X4352780Y19257693D01*
X4352779Y19257690D01*
X4307844Y19103025D01*
X4307843Y19103019D01*
X4305000Y19066891D01*
X1270000Y19066891D01*
X1270000Y20196000D01*
X1289685Y20263039D01*
X1342489Y20308794D01*
X1394000Y20320000D01*
X78616000Y20320000D01*
X78683039Y20300315D01*
G37*
G04 #@! TD.AperFunction*
G04 #@! TD*
M02*
