%TF.GenerationSoftware,KiCad,Pcbnew,9.0.0*%
%TF.CreationDate,2025-03-06T11:49:14+09:00*%
%TF.ProjectId,ufb_hat,7566625f-6861-4742-9e6b-696361645f70,rev?*%
%TF.SameCoordinates,PX2fd7508PY6486dd0*%
%TF.FileFunction,Drillmap*%
%TF.FilePolarity,Positive*%
%FSLAX45Y45*%
G04 Gerber Fmt 4.5, Leading zero omitted, Abs format (unit mm)*
G04 Created by KiCad (PCBNEW 9.0.0) date 2025-03-06 11:49:14*
%MOMM*%
%LPD*%
G01*
G04 APERTURE LIST*
%ADD10C,0.050000*%
%ADD11C,0.200000*%
%ADD12C,0.100000*%
G04 APERTURE END LIST*
D10*
X0Y5650000D02*
X8000000Y5650000D01*
X8000000Y0D01*
X0Y0D01*
X0Y5650000D01*
D11*
D12*
X175500Y4460000D02*
X205500Y4430000D01*
X205500Y4460000D02*
X175500Y4430000D01*
X175500Y3380500D02*
X205500Y3350500D01*
X205500Y3380500D02*
X175500Y3350500D01*
X175500Y2364500D02*
X205500Y2334500D01*
X205500Y2364500D02*
X175500Y2334500D01*
X175500Y1983500D02*
X205500Y1953500D01*
X205500Y1983500D02*
X175500Y1953500D01*
X175500Y1094500D02*
X205500Y1064500D01*
X205500Y1094500D02*
X175500Y1064500D01*
X175500Y205500D02*
X205500Y175500D01*
X205500Y205500D02*
X175500Y175500D01*
X239000Y4968000D02*
X269000Y4938000D01*
X269000Y4968000D02*
X239000Y4938000D01*
X620000Y1666000D02*
X650000Y1636000D01*
X650000Y1666000D02*
X620000Y1636000D01*
X747000Y4714000D02*
X777000Y4684000D01*
X777000Y4714000D02*
X747000Y4684000D01*
X747000Y3571000D02*
X777000Y3541000D01*
X777000Y3571000D02*
X747000Y3541000D01*
X747000Y2809000D02*
X777000Y2779000D01*
X777000Y2809000D02*
X747000Y2779000D01*
X874000Y1666000D02*
X904000Y1636000D01*
X904000Y1666000D02*
X874000Y1636000D01*
X1001000Y4650500D02*
X1031000Y4620500D01*
X1031000Y4650500D02*
X1001000Y4620500D01*
X1001000Y3571000D02*
X1031000Y3541000D01*
X1031000Y3571000D02*
X1001000Y3541000D01*
X1001000Y2809000D02*
X1031000Y2779000D01*
X1031000Y2809000D02*
X1001000Y2779000D01*
X1128000Y1666000D02*
X1158000Y1636000D01*
X1158000Y1666000D02*
X1128000Y1636000D01*
X1191500Y4968000D02*
X1221500Y4938000D01*
X1221500Y4968000D02*
X1191500Y4938000D01*
X1255000Y4587000D02*
X1285000Y4557000D01*
X1285000Y4587000D02*
X1255000Y4557000D01*
X1255000Y3571000D02*
X1285000Y3541000D01*
X1285000Y3571000D02*
X1255000Y3541000D01*
X1255000Y2809000D02*
X1285000Y2779000D01*
X1285000Y2809000D02*
X1255000Y2779000D01*
X1382000Y1666000D02*
X1412000Y1636000D01*
X1412000Y1666000D02*
X1382000Y1636000D01*
X1699500Y4460000D02*
X1729500Y4430000D01*
X1729500Y4460000D02*
X1699500Y4430000D01*
X1699500Y3380500D02*
X1729500Y3350500D01*
X1729500Y3380500D02*
X1699500Y3350500D01*
X1699500Y2364500D02*
X1729500Y2334500D01*
X1729500Y2364500D02*
X1699500Y2334500D01*
X1699500Y1983500D02*
X1729500Y1953500D01*
X1729500Y1983500D02*
X1699500Y1953500D01*
X1699500Y1602500D02*
X1729500Y1572500D01*
X1729500Y1602500D02*
X1699500Y1572500D01*
X1826500Y4968000D02*
X1856500Y4938000D01*
X1856500Y4968000D02*
X1826500Y4938000D01*
X2144000Y1666000D02*
X2174000Y1636000D01*
X2174000Y1666000D02*
X2144000Y1636000D01*
X2271000Y3571000D02*
X2301000Y3541000D01*
X2301000Y3571000D02*
X2271000Y3541000D01*
X2271000Y2809000D02*
X2301000Y2779000D01*
X2301000Y2809000D02*
X2271000Y2779000D01*
X2398000Y1666000D02*
X2428000Y1636000D01*
X2428000Y1666000D02*
X2398000Y1636000D01*
X2461500Y4968000D02*
X2491500Y4938000D01*
X2491500Y4968000D02*
X2461500Y4938000D01*
X2525000Y4714000D02*
X2555000Y4684000D01*
X2555000Y4714000D02*
X2525000Y4684000D01*
X2525000Y3571000D02*
X2555000Y3541000D01*
X2555000Y3571000D02*
X2525000Y3541000D01*
X2525000Y2809000D02*
X2555000Y2779000D01*
X2555000Y2809000D02*
X2525000Y2779000D01*
X2652000Y1666000D02*
X2682000Y1636000D01*
X2682000Y1666000D02*
X2652000Y1636000D01*
X2779000Y4714000D02*
X2809000Y4684000D01*
X2809000Y4714000D02*
X2779000Y4684000D01*
X2779000Y3571000D02*
X2809000Y3541000D01*
X2809000Y3571000D02*
X2779000Y3541000D01*
X2779000Y2809000D02*
X2809000Y2779000D01*
X2809000Y2809000D02*
X2779000Y2779000D01*
X2842500Y713500D02*
X2872500Y683500D01*
X2872500Y713500D02*
X2842500Y683500D01*
X3223500Y4968000D02*
X3253500Y4938000D01*
X3253500Y4968000D02*
X3223500Y4938000D01*
X3223500Y4015500D02*
X3253500Y3985500D01*
X3253500Y4015500D02*
X3223500Y3985500D01*
X3223500Y3380500D02*
X3253500Y3350500D01*
X3253500Y3380500D02*
X3223500Y3350500D01*
X3223500Y2364500D02*
X3253500Y2334500D01*
X3253500Y2364500D02*
X3223500Y2334500D01*
X3223500Y1983500D02*
X3253500Y1953500D01*
X3253500Y1983500D02*
X3223500Y1953500D01*
X3223500Y1412000D02*
X3253500Y1382000D01*
X3253500Y1412000D02*
X3223500Y1382000D01*
X3350500Y523000D02*
X3380500Y493000D01*
X3380500Y523000D02*
X3350500Y493000D01*
X3350500Y269000D02*
X3380500Y239000D01*
X3380500Y269000D02*
X3350500Y239000D01*
X3668000Y1666000D02*
X3698000Y1636000D01*
X3698000Y1666000D02*
X3668000Y1636000D01*
X3795000Y4142500D02*
X3825000Y4112500D01*
X3825000Y4142500D02*
X3795000Y4112500D01*
X3795000Y3571000D02*
X3825000Y3541000D01*
X3825000Y3571000D02*
X3795000Y3541000D01*
X3795000Y2809000D02*
X3825000Y2779000D01*
X3825000Y2809000D02*
X3795000Y2779000D01*
X3858500Y4968000D02*
X3888500Y4938000D01*
X3888500Y4968000D02*
X3858500Y4938000D01*
X3922000Y1539000D02*
X3952000Y1509000D01*
X3952000Y1539000D02*
X3922000Y1509000D01*
X4049000Y4206000D02*
X4079000Y4176000D01*
X4079000Y4206000D02*
X4049000Y4176000D01*
X4049000Y3571000D02*
X4079000Y3541000D01*
X4079000Y3571000D02*
X4049000Y3541000D01*
X4049000Y2809000D02*
X4079000Y2779000D01*
X4079000Y2809000D02*
X4049000Y2779000D01*
X4176000Y1412000D02*
X4206000Y1382000D01*
X4206000Y1412000D02*
X4176000Y1382000D01*
X4303000Y4269500D02*
X4333000Y4239500D01*
X4333000Y4269500D02*
X4303000Y4239500D01*
X4303000Y3571000D02*
X4333000Y3541000D01*
X4333000Y3571000D02*
X4303000Y3541000D01*
X4303000Y2809000D02*
X4333000Y2779000D01*
X4333000Y2809000D02*
X4303000Y2779000D01*
X4430000Y1412000D02*
X4460000Y1382000D01*
X4460000Y1412000D02*
X4430000Y1382000D01*
X4493500Y4968000D02*
X4523500Y4938000D01*
X4523500Y4968000D02*
X4493500Y4938000D01*
X4493500Y205500D02*
X4523500Y175500D01*
X4523500Y205500D02*
X4493500Y175500D01*
X4747500Y4269500D02*
X4777500Y4239500D01*
X4777500Y4269500D02*
X4747500Y4239500D01*
X4747500Y3380500D02*
X4777500Y3350500D01*
X4777500Y3380500D02*
X4747500Y3350500D01*
X4747500Y2364500D02*
X4777500Y2334500D01*
X4777500Y2364500D02*
X4747500Y2334500D01*
X4747500Y1983500D02*
X4777500Y1953500D01*
X4777500Y1983500D02*
X4747500Y1953500D01*
X4747500Y1158000D02*
X4777500Y1128000D01*
X4777500Y1158000D02*
X4747500Y1128000D01*
X5001500Y4968000D02*
X5031500Y4938000D01*
X5031500Y4968000D02*
X5001500Y4938000D01*
X5192000Y1412000D02*
X5222000Y1382000D01*
X5222000Y1412000D02*
X5192000Y1382000D01*
X5319000Y4396500D02*
X5349000Y4366500D01*
X5349000Y4396500D02*
X5319000Y4366500D01*
X5319000Y3571000D02*
X5349000Y3541000D01*
X5349000Y3571000D02*
X5319000Y3541000D01*
X5319000Y2809000D02*
X5349000Y2779000D01*
X5349000Y2809000D02*
X5319000Y2779000D01*
X5446000Y1285000D02*
X5476000Y1255000D01*
X5476000Y1285000D02*
X5446000Y1255000D01*
X5573000Y4460000D02*
X5603000Y4430000D01*
X5603000Y4460000D02*
X5573000Y4430000D01*
X5573000Y3571000D02*
X5603000Y3541000D01*
X5603000Y3571000D02*
X5573000Y3541000D01*
X5573000Y2809000D02*
X5603000Y2779000D01*
X5603000Y2809000D02*
X5573000Y2779000D01*
X5573000Y205500D02*
X5603000Y175500D01*
X5603000Y205500D02*
X5573000Y175500D01*
X5636500Y4968000D02*
X5666500Y4938000D01*
X5666500Y4968000D02*
X5636500Y4938000D01*
X5700000Y1158000D02*
X5730000Y1128000D01*
X5730000Y1158000D02*
X5700000Y1128000D01*
X5827000Y4523500D02*
X5857000Y4493500D01*
X5857000Y4523500D02*
X5827000Y4493500D01*
X5827000Y3571000D02*
X5857000Y3541000D01*
X5857000Y3571000D02*
X5827000Y3541000D01*
X5827000Y2809000D02*
X5857000Y2779000D01*
X5857000Y2809000D02*
X5827000Y2779000D01*
X5954000Y1158000D02*
X5984000Y1128000D01*
X5984000Y1158000D02*
X5954000Y1128000D01*
X6271500Y4523500D02*
X6301500Y4493500D01*
X6301500Y4523500D02*
X6271500Y4493500D01*
X6271500Y3380500D02*
X6301500Y3350500D01*
X6301500Y3380500D02*
X6271500Y3350500D01*
X6271500Y2364500D02*
X6301500Y2334500D01*
X6301500Y2364500D02*
X6271500Y2334500D01*
X6271500Y1983500D02*
X6301500Y1953500D01*
X6301500Y1983500D02*
X6271500Y1953500D01*
X6271500Y777000D02*
X6301500Y747000D01*
X6301500Y777000D02*
X6271500Y747000D01*
X6652500Y5476000D02*
X6682500Y5446000D01*
X6682500Y5476000D02*
X6652500Y5446000D01*
X6652500Y205500D02*
X6682500Y175500D01*
X6682500Y205500D02*
X6652500Y175500D01*
X6716000Y4650500D02*
X6746000Y4620500D01*
X6746000Y4650500D02*
X6716000Y4620500D01*
X6716000Y3571000D02*
X6746000Y3541000D01*
X6746000Y3571000D02*
X6716000Y3541000D01*
X6716000Y2809000D02*
X6746000Y2779000D01*
X6746000Y2809000D02*
X6716000Y2779000D01*
X6716000Y1285000D02*
X6746000Y1255000D01*
X6746000Y1285000D02*
X6716000Y1255000D01*
X6716000Y840500D02*
X6746000Y810500D01*
X6746000Y840500D02*
X6716000Y810500D01*
X6970000Y4714000D02*
X7000000Y4684000D01*
X7000000Y4714000D02*
X6970000Y4684000D01*
X6970000Y3571000D02*
X7000000Y3541000D01*
X7000000Y3571000D02*
X6970000Y3541000D01*
X6970000Y2809000D02*
X7000000Y2779000D01*
X7000000Y2809000D02*
X6970000Y2779000D01*
X6970000Y1412000D02*
X7000000Y1382000D01*
X7000000Y1412000D02*
X6970000Y1382000D01*
X7224000Y4777500D02*
X7254000Y4747500D01*
X7254000Y4777500D02*
X7224000Y4747500D01*
X7224000Y3571000D02*
X7254000Y3541000D01*
X7254000Y3571000D02*
X7224000Y3541000D01*
X7224000Y2809000D02*
X7254000Y2779000D01*
X7254000Y2809000D02*
X7224000Y2779000D01*
X7224000Y1539000D02*
X7254000Y1509000D01*
X7254000Y1539000D02*
X7224000Y1509000D01*
X7224000Y840500D02*
X7254000Y810500D01*
X7254000Y840500D02*
X7224000Y810500D01*
X7478000Y1666000D02*
X7508000Y1636000D01*
X7508000Y1666000D02*
X7478000Y1636000D01*
X7795500Y5476000D02*
X7825500Y5446000D01*
X7825500Y5476000D02*
X7795500Y5446000D01*
X7795500Y4460000D02*
X7825500Y4430000D01*
X7825500Y4460000D02*
X7795500Y4430000D01*
X7795500Y3380500D02*
X7825500Y3350500D01*
X7825500Y3380500D02*
X7795500Y3350500D01*
X7795500Y2364500D02*
X7825500Y2334500D01*
X7825500Y2364500D02*
X7795500Y2334500D01*
X7795500Y1983500D02*
X7825500Y1953500D01*
X7825500Y1983500D02*
X7795500Y1953500D01*
X7795500Y1094500D02*
X7825500Y1064500D01*
X7825500Y1094500D02*
X7795500Y1064500D01*
X7795500Y205500D02*
X7825500Y175500D01*
X7825500Y205500D02*
X7795500Y175500D01*
X304000Y5397500D02*
G75*
G02*
X204000Y5397500I-50000J0D01*
G01*
X204000Y5397500D02*
G75*
G02*
X304000Y5397500I50000J0D01*
G01*
X304000Y5143500D02*
G75*
G02*
X204000Y5143500I-50000J0D01*
G01*
X204000Y5143500D02*
G75*
G02*
X304000Y5143500I50000J0D01*
G01*
X875500Y5397500D02*
G75*
G02*
X775500Y5397500I-50000J0D01*
G01*
X775500Y5397500D02*
G75*
G02*
X875500Y5397500I50000J0D01*
G01*
X875500Y5143500D02*
G75*
G02*
X775500Y5143500I-50000J0D01*
G01*
X775500Y5143500D02*
G75*
G02*
X875500Y5143500I50000J0D01*
G01*
X875500Y508000D02*
G75*
G02*
X775500Y508000I-50000J0D01*
G01*
X775500Y508000D02*
G75*
G02*
X875500Y508000I50000J0D01*
G01*
X875500Y254000D02*
G75*
G02*
X775500Y254000I-50000J0D01*
G01*
X775500Y254000D02*
G75*
G02*
X875500Y254000I50000J0D01*
G01*
X1129500Y5397500D02*
G75*
G02*
X1029500Y5397500I-50000J0D01*
G01*
X1029500Y5397500D02*
G75*
G02*
X1129500Y5397500I50000J0D01*
G01*
X1129500Y5143500D02*
G75*
G02*
X1029500Y5143500I-50000J0D01*
G01*
X1029500Y5143500D02*
G75*
G02*
X1129500Y5143500I50000J0D01*
G01*
X1129500Y508000D02*
G75*
G02*
X1029500Y508000I-50000J0D01*
G01*
X1029500Y508000D02*
G75*
G02*
X1129500Y508000I50000J0D01*
G01*
X1129500Y254000D02*
G75*
G02*
X1029500Y254000I-50000J0D01*
G01*
X1029500Y254000D02*
G75*
G02*
X1129500Y254000I50000J0D01*
G01*
X1383500Y5397500D02*
G75*
G02*
X1283500Y5397500I-50000J0D01*
G01*
X1283500Y5397500D02*
G75*
G02*
X1383500Y5397500I50000J0D01*
G01*
X1383500Y5143500D02*
G75*
G02*
X1283500Y5143500I-50000J0D01*
G01*
X1283500Y5143500D02*
G75*
G02*
X1383500Y5143500I50000J0D01*
G01*
X1383500Y508000D02*
G75*
G02*
X1283500Y508000I-50000J0D01*
G01*
X1283500Y508000D02*
G75*
G02*
X1383500Y508000I50000J0D01*
G01*
X1383500Y254000D02*
G75*
G02*
X1283500Y254000I-50000J0D01*
G01*
X1283500Y254000D02*
G75*
G02*
X1383500Y254000I50000J0D01*
G01*
X1637500Y5397500D02*
G75*
G02*
X1537500Y5397500I-50000J0D01*
G01*
X1537500Y5397500D02*
G75*
G02*
X1637500Y5397500I50000J0D01*
G01*
X1637500Y5143500D02*
G75*
G02*
X1537500Y5143500I-50000J0D01*
G01*
X1537500Y5143500D02*
G75*
G02*
X1637500Y5143500I50000J0D01*
G01*
X1637500Y508000D02*
G75*
G02*
X1537500Y508000I-50000J0D01*
G01*
X1537500Y508000D02*
G75*
G02*
X1637500Y508000I50000J0D01*
G01*
X1637500Y254000D02*
G75*
G02*
X1537500Y254000I-50000J0D01*
G01*
X1537500Y254000D02*
G75*
G02*
X1637500Y254000I50000J0D01*
G01*
X1891500Y5397500D02*
G75*
G02*
X1791500Y5397500I-50000J0D01*
G01*
X1791500Y5397500D02*
G75*
G02*
X1891500Y5397500I50000J0D01*
G01*
X1891500Y5143500D02*
G75*
G02*
X1791500Y5143500I-50000J0D01*
G01*
X1791500Y5143500D02*
G75*
G02*
X1891500Y5143500I50000J0D01*
G01*
X1891500Y508000D02*
G75*
G02*
X1791500Y508000I-50000J0D01*
G01*
X1791500Y508000D02*
G75*
G02*
X1891500Y508000I50000J0D01*
G01*
X1891500Y254000D02*
G75*
G02*
X1791500Y254000I-50000J0D01*
G01*
X1791500Y254000D02*
G75*
G02*
X1891500Y254000I50000J0D01*
G01*
X2145500Y5397500D02*
G75*
G02*
X2045500Y5397500I-50000J0D01*
G01*
X2045500Y5397500D02*
G75*
G02*
X2145500Y5397500I50000J0D01*
G01*
X2145500Y5143500D02*
G75*
G02*
X2045500Y5143500I-50000J0D01*
G01*
X2045500Y5143500D02*
G75*
G02*
X2145500Y5143500I50000J0D01*
G01*
X2145500Y508000D02*
G75*
G02*
X2045500Y508000I-50000J0D01*
G01*
X2045500Y508000D02*
G75*
G02*
X2145500Y508000I50000J0D01*
G01*
X2145500Y254000D02*
G75*
G02*
X2045500Y254000I-50000J0D01*
G01*
X2045500Y254000D02*
G75*
G02*
X2145500Y254000I50000J0D01*
G01*
X2399500Y5397500D02*
G75*
G02*
X2299500Y5397500I-50000J0D01*
G01*
X2299500Y5397500D02*
G75*
G02*
X2399500Y5397500I50000J0D01*
G01*
X2399500Y5143500D02*
G75*
G02*
X2299500Y5143500I-50000J0D01*
G01*
X2299500Y5143500D02*
G75*
G02*
X2399500Y5143500I50000J0D01*
G01*
X2399500Y508000D02*
G75*
G02*
X2299500Y508000I-50000J0D01*
G01*
X2299500Y508000D02*
G75*
G02*
X2399500Y508000I50000J0D01*
G01*
X2399500Y254000D02*
G75*
G02*
X2299500Y254000I-50000J0D01*
G01*
X2299500Y254000D02*
G75*
G02*
X2399500Y254000I50000J0D01*
G01*
X2653500Y5397500D02*
G75*
G02*
X2553500Y5397500I-50000J0D01*
G01*
X2553500Y5397500D02*
G75*
G02*
X2653500Y5397500I50000J0D01*
G01*
X2653500Y5143500D02*
G75*
G02*
X2553500Y5143500I-50000J0D01*
G01*
X2553500Y5143500D02*
G75*
G02*
X2653500Y5143500I50000J0D01*
G01*
X2653500Y508000D02*
G75*
G02*
X2553500Y508000I-50000J0D01*
G01*
X2553500Y508000D02*
G75*
G02*
X2653500Y508000I50000J0D01*
G01*
X2653500Y254000D02*
G75*
G02*
X2553500Y254000I-50000J0D01*
G01*
X2553500Y254000D02*
G75*
G02*
X2653500Y254000I50000J0D01*
G01*
X2907500Y5397500D02*
G75*
G02*
X2807500Y5397500I-50000J0D01*
G01*
X2807500Y5397500D02*
G75*
G02*
X2907500Y5397500I50000J0D01*
G01*
X2907500Y5143500D02*
G75*
G02*
X2807500Y5143500I-50000J0D01*
G01*
X2807500Y5143500D02*
G75*
G02*
X2907500Y5143500I50000J0D01*
G01*
X2907500Y508000D02*
G75*
G02*
X2807500Y508000I-50000J0D01*
G01*
X2807500Y508000D02*
G75*
G02*
X2907500Y508000I50000J0D01*
G01*
X2907500Y254000D02*
G75*
G02*
X2807500Y254000I-50000J0D01*
G01*
X2807500Y254000D02*
G75*
G02*
X2907500Y254000I50000J0D01*
G01*
X3161500Y5397500D02*
G75*
G02*
X3061500Y5397500I-50000J0D01*
G01*
X3061500Y5397500D02*
G75*
G02*
X3161500Y5397500I50000J0D01*
G01*
X3161500Y5143500D02*
G75*
G02*
X3061500Y5143500I-50000J0D01*
G01*
X3061500Y5143500D02*
G75*
G02*
X3161500Y5143500I50000J0D01*
G01*
X3161500Y508000D02*
G75*
G02*
X3061500Y508000I-50000J0D01*
G01*
X3061500Y508000D02*
G75*
G02*
X3161500Y508000I50000J0D01*
G01*
X3161500Y254000D02*
G75*
G02*
X3061500Y254000I-50000J0D01*
G01*
X3061500Y254000D02*
G75*
G02*
X3161500Y254000I50000J0D01*
G01*
X3415500Y5397500D02*
G75*
G02*
X3315500Y5397500I-50000J0D01*
G01*
X3315500Y5397500D02*
G75*
G02*
X3415500Y5397500I50000J0D01*
G01*
X3415500Y5143500D02*
G75*
G02*
X3315500Y5143500I-50000J0D01*
G01*
X3315500Y5143500D02*
G75*
G02*
X3415500Y5143500I50000J0D01*
G01*
X3669500Y5397500D02*
G75*
G02*
X3569500Y5397500I-50000J0D01*
G01*
X3569500Y5397500D02*
G75*
G02*
X3669500Y5397500I50000J0D01*
G01*
X3669500Y5143500D02*
G75*
G02*
X3569500Y5143500I-50000J0D01*
G01*
X3569500Y5143500D02*
G75*
G02*
X3669500Y5143500I50000J0D01*
G01*
X3923500Y5397500D02*
G75*
G02*
X3823500Y5397500I-50000J0D01*
G01*
X3823500Y5397500D02*
G75*
G02*
X3923500Y5397500I50000J0D01*
G01*
X3923500Y5143500D02*
G75*
G02*
X3823500Y5143500I-50000J0D01*
G01*
X3823500Y5143500D02*
G75*
G02*
X3923500Y5143500I50000J0D01*
G01*
X4177500Y5397500D02*
G75*
G02*
X4077500Y5397500I-50000J0D01*
G01*
X4077500Y5397500D02*
G75*
G02*
X4177500Y5397500I50000J0D01*
G01*
X4177500Y5143500D02*
G75*
G02*
X4077500Y5143500I-50000J0D01*
G01*
X4077500Y5143500D02*
G75*
G02*
X4177500Y5143500I50000J0D01*
G01*
X4431500Y5397500D02*
G75*
G02*
X4331500Y5397500I-50000J0D01*
G01*
X4331500Y5397500D02*
G75*
G02*
X4431500Y5397500I50000J0D01*
G01*
X4431500Y5143500D02*
G75*
G02*
X4331500Y5143500I-50000J0D01*
G01*
X4331500Y5143500D02*
G75*
G02*
X4431500Y5143500I50000J0D01*
G01*
X4685500Y5397500D02*
G75*
G02*
X4585500Y5397500I-50000J0D01*
G01*
X4585500Y5397500D02*
G75*
G02*
X4685500Y5397500I50000J0D01*
G01*
X4685500Y5143500D02*
G75*
G02*
X4585500Y5143500I-50000J0D01*
G01*
X4585500Y5143500D02*
G75*
G02*
X4685500Y5143500I50000J0D01*
G01*
X4939500Y5397500D02*
G75*
G02*
X4839500Y5397500I-50000J0D01*
G01*
X4839500Y5397500D02*
G75*
G02*
X4939500Y5397500I50000J0D01*
G01*
X4939500Y5143500D02*
G75*
G02*
X4839500Y5143500I-50000J0D01*
G01*
X4839500Y5143500D02*
G75*
G02*
X4939500Y5143500I50000J0D01*
G01*
X5193500Y5397500D02*
G75*
G02*
X5093500Y5397500I-50000J0D01*
G01*
X5093500Y5397500D02*
G75*
G02*
X5193500Y5397500I50000J0D01*
G01*
X5193500Y5143500D02*
G75*
G02*
X5093500Y5143500I-50000J0D01*
G01*
X5093500Y5143500D02*
G75*
G02*
X5193500Y5143500I50000J0D01*
G01*
X5447500Y5397500D02*
G75*
G02*
X5347500Y5397500I-50000J0D01*
G01*
X5347500Y5397500D02*
G75*
G02*
X5447500Y5397500I50000J0D01*
G01*
X5447500Y5143500D02*
G75*
G02*
X5347500Y5143500I-50000J0D01*
G01*
X5347500Y5143500D02*
G75*
G02*
X5447500Y5143500I50000J0D01*
G01*
X5701500Y5397500D02*
G75*
G02*
X5601500Y5397500I-50000J0D01*
G01*
X5601500Y5397500D02*
G75*
G02*
X5701500Y5397500I50000J0D01*
G01*
X5701500Y5143500D02*
G75*
G02*
X5601500Y5143500I-50000J0D01*
G01*
X5601500Y5143500D02*
G75*
G02*
X5701500Y5143500I50000J0D01*
G01*
D11*
X258277Y-313984D02*
X258277Y-113984D01*
X258277Y-113984D02*
X305896Y-113984D01*
X305896Y-113984D02*
X334467Y-123508D01*
X334467Y-123508D02*
X353515Y-142555D01*
X353515Y-142555D02*
X363039Y-161603D01*
X363039Y-161603D02*
X372562Y-199698D01*
X372562Y-199698D02*
X372562Y-228269D01*
X372562Y-228269D02*
X363039Y-266365D01*
X363039Y-266365D02*
X353515Y-285412D01*
X353515Y-285412D02*
X334467Y-304460D01*
X334467Y-304460D02*
X305896Y-313984D01*
X305896Y-313984D02*
X258277Y-313984D01*
X458277Y-313984D02*
X458277Y-180650D01*
X458277Y-218746D02*
X467801Y-199698D01*
X467801Y-199698D02*
X477324Y-190174D01*
X477324Y-190174D02*
X496372Y-180650D01*
X496372Y-180650D02*
X515420Y-180650D01*
X582086Y-313984D02*
X582086Y-180650D01*
X582086Y-113984D02*
X572563Y-123508D01*
X572563Y-123508D02*
X582086Y-133031D01*
X582086Y-133031D02*
X591610Y-123508D01*
X591610Y-123508D02*
X582086Y-113984D01*
X582086Y-113984D02*
X582086Y-133031D01*
X705896Y-313984D02*
X686848Y-304460D01*
X686848Y-304460D02*
X677324Y-285412D01*
X677324Y-285412D02*
X677324Y-113984D01*
X810658Y-313984D02*
X791610Y-304460D01*
X791610Y-304460D02*
X782086Y-285412D01*
X782086Y-285412D02*
X782086Y-113984D01*
X1039229Y-313984D02*
X1039229Y-113984D01*
X1039229Y-113984D02*
X1105896Y-256841D01*
X1105896Y-256841D02*
X1172563Y-113984D01*
X1172563Y-113984D02*
X1172563Y-313984D01*
X1353515Y-313984D02*
X1353515Y-209222D01*
X1353515Y-209222D02*
X1343991Y-190174D01*
X1343991Y-190174D02*
X1324944Y-180650D01*
X1324944Y-180650D02*
X1286848Y-180650D01*
X1286848Y-180650D02*
X1267801Y-190174D01*
X1353515Y-304460D02*
X1334467Y-313984D01*
X1334467Y-313984D02*
X1286848Y-313984D01*
X1286848Y-313984D02*
X1267801Y-304460D01*
X1267801Y-304460D02*
X1258277Y-285412D01*
X1258277Y-285412D02*
X1258277Y-266365D01*
X1258277Y-266365D02*
X1267801Y-247317D01*
X1267801Y-247317D02*
X1286848Y-237793D01*
X1286848Y-237793D02*
X1334467Y-237793D01*
X1334467Y-237793D02*
X1353515Y-228269D01*
X1448753Y-180650D02*
X1448753Y-380650D01*
X1448753Y-190174D02*
X1467801Y-180650D01*
X1467801Y-180650D02*
X1505896Y-180650D01*
X1505896Y-180650D02*
X1524943Y-190174D01*
X1524943Y-190174D02*
X1534467Y-199698D01*
X1534467Y-199698D02*
X1543991Y-218746D01*
X1543991Y-218746D02*
X1543991Y-275889D01*
X1543991Y-275889D02*
X1534467Y-294936D01*
X1534467Y-294936D02*
X1524943Y-304460D01*
X1524943Y-304460D02*
X1505896Y-313984D01*
X1505896Y-313984D02*
X1467801Y-313984D01*
X1467801Y-313984D02*
X1448753Y-304460D01*
X1629705Y-294936D02*
X1639229Y-304460D01*
X1639229Y-304460D02*
X1629705Y-313984D01*
X1629705Y-313984D02*
X1620182Y-304460D01*
X1620182Y-304460D02*
X1629705Y-294936D01*
X1629705Y-294936D02*
X1629705Y-313984D01*
X1629705Y-190174D02*
X1639229Y-199698D01*
X1639229Y-199698D02*
X1629705Y-209222D01*
X1629705Y-209222D02*
X1620182Y-199698D01*
X1620182Y-199698D02*
X1629705Y-190174D01*
X1629705Y-190174D02*
X1629705Y-209222D01*
D12*
X-32500Y-627500D02*
X-2500Y-657500D01*
X-2500Y-627500D02*
X-32500Y-657500D01*
D11*
X296372Y-533984D02*
X315420Y-533984D01*
X315420Y-533984D02*
X334467Y-543508D01*
X334467Y-543508D02*
X343991Y-553031D01*
X343991Y-553031D02*
X353515Y-572079D01*
X353515Y-572079D02*
X363039Y-610174D01*
X363039Y-610174D02*
X363039Y-657793D01*
X363039Y-657793D02*
X353515Y-695889D01*
X353515Y-695889D02*
X343991Y-714936D01*
X343991Y-714936D02*
X334467Y-724460D01*
X334467Y-724460D02*
X315420Y-733984D01*
X315420Y-733984D02*
X296372Y-733984D01*
X296372Y-733984D02*
X277324Y-724460D01*
X277324Y-724460D02*
X267801Y-714936D01*
X267801Y-714936D02*
X258277Y-695889D01*
X258277Y-695889D02*
X248753Y-657793D01*
X248753Y-657793D02*
X248753Y-610174D01*
X248753Y-610174D02*
X258277Y-572079D01*
X258277Y-572079D02*
X267801Y-553031D01*
X267801Y-553031D02*
X277324Y-543508D01*
X277324Y-543508D02*
X296372Y-533984D01*
X448753Y-714936D02*
X458277Y-724460D01*
X458277Y-724460D02*
X448753Y-733984D01*
X448753Y-733984D02*
X439229Y-724460D01*
X439229Y-724460D02*
X448753Y-714936D01*
X448753Y-714936D02*
X448753Y-733984D01*
X524944Y-533984D02*
X648753Y-533984D01*
X648753Y-533984D02*
X582086Y-610174D01*
X582086Y-610174D02*
X610658Y-610174D01*
X610658Y-610174D02*
X629705Y-619698D01*
X629705Y-619698D02*
X639229Y-629222D01*
X639229Y-629222D02*
X648753Y-648270D01*
X648753Y-648270D02*
X648753Y-695889D01*
X648753Y-695889D02*
X639229Y-714936D01*
X639229Y-714936D02*
X629705Y-724460D01*
X629705Y-724460D02*
X610658Y-733984D01*
X610658Y-733984D02*
X553515Y-733984D01*
X553515Y-733984D02*
X534467Y-724460D01*
X534467Y-724460D02*
X524944Y-714936D01*
X772562Y-533984D02*
X791610Y-533984D01*
X791610Y-533984D02*
X810658Y-543508D01*
X810658Y-543508D02*
X820182Y-553031D01*
X820182Y-553031D02*
X829705Y-572079D01*
X829705Y-572079D02*
X839229Y-610174D01*
X839229Y-610174D02*
X839229Y-657793D01*
X839229Y-657793D02*
X829705Y-695889D01*
X829705Y-695889D02*
X820182Y-714936D01*
X820182Y-714936D02*
X810658Y-724460D01*
X810658Y-724460D02*
X791610Y-733984D01*
X791610Y-733984D02*
X772562Y-733984D01*
X772562Y-733984D02*
X753515Y-724460D01*
X753515Y-724460D02*
X743991Y-714936D01*
X743991Y-714936D02*
X734467Y-695889D01*
X734467Y-695889D02*
X724943Y-657793D01*
X724943Y-657793D02*
X724943Y-610174D01*
X724943Y-610174D02*
X734467Y-572079D01*
X734467Y-572079D02*
X743991Y-553031D01*
X743991Y-553031D02*
X753515Y-543508D01*
X753515Y-543508D02*
X772562Y-533984D01*
X963039Y-533984D02*
X982086Y-533984D01*
X982086Y-533984D02*
X1001134Y-543508D01*
X1001134Y-543508D02*
X1010658Y-553031D01*
X1010658Y-553031D02*
X1020182Y-572079D01*
X1020182Y-572079D02*
X1029705Y-610174D01*
X1029705Y-610174D02*
X1029705Y-657793D01*
X1029705Y-657793D02*
X1020182Y-695889D01*
X1020182Y-695889D02*
X1010658Y-714936D01*
X1010658Y-714936D02*
X1001134Y-724460D01*
X1001134Y-724460D02*
X982086Y-733984D01*
X982086Y-733984D02*
X963039Y-733984D01*
X963039Y-733984D02*
X943991Y-724460D01*
X943991Y-724460D02*
X934467Y-714936D01*
X934467Y-714936D02*
X924943Y-695889D01*
X924943Y-695889D02*
X915420Y-657793D01*
X915420Y-657793D02*
X915420Y-610174D01*
X915420Y-610174D02*
X924943Y-572079D01*
X924943Y-572079D02*
X934467Y-553031D01*
X934467Y-553031D02*
X943991Y-543508D01*
X943991Y-543508D02*
X963039Y-533984D01*
X1115420Y-733984D02*
X1115420Y-600650D01*
X1115420Y-619698D02*
X1124944Y-610174D01*
X1124944Y-610174D02*
X1143991Y-600650D01*
X1143991Y-600650D02*
X1172563Y-600650D01*
X1172563Y-600650D02*
X1191610Y-610174D01*
X1191610Y-610174D02*
X1201134Y-629222D01*
X1201134Y-629222D02*
X1201134Y-733984D01*
X1201134Y-629222D02*
X1210658Y-610174D01*
X1210658Y-610174D02*
X1229705Y-600650D01*
X1229705Y-600650D02*
X1258277Y-600650D01*
X1258277Y-600650D02*
X1277325Y-610174D01*
X1277325Y-610174D02*
X1286848Y-629222D01*
X1286848Y-629222D02*
X1286848Y-733984D01*
X1382086Y-733984D02*
X1382086Y-600650D01*
X1382086Y-619698D02*
X1391610Y-610174D01*
X1391610Y-610174D02*
X1410658Y-600650D01*
X1410658Y-600650D02*
X1439229Y-600650D01*
X1439229Y-600650D02*
X1458277Y-610174D01*
X1458277Y-610174D02*
X1467801Y-629222D01*
X1467801Y-629222D02*
X1467801Y-733984D01*
X1467801Y-629222D02*
X1477324Y-610174D01*
X1477324Y-610174D02*
X1496372Y-600650D01*
X1496372Y-600650D02*
X1524943Y-600650D01*
X1524943Y-600650D02*
X1543991Y-610174D01*
X1543991Y-610174D02*
X1553515Y-629222D01*
X1553515Y-629222D02*
X1553515Y-733984D01*
X1943991Y-524460D02*
X1772563Y-781603D01*
X2201134Y-533984D02*
X2220182Y-533984D01*
X2220182Y-533984D02*
X2239229Y-543508D01*
X2239229Y-543508D02*
X2248753Y-553031D01*
X2248753Y-553031D02*
X2258277Y-572079D01*
X2258277Y-572079D02*
X2267801Y-610174D01*
X2267801Y-610174D02*
X2267801Y-657793D01*
X2267801Y-657793D02*
X2258277Y-695889D01*
X2258277Y-695889D02*
X2248753Y-714936D01*
X2248753Y-714936D02*
X2239229Y-724460D01*
X2239229Y-724460D02*
X2220182Y-733984D01*
X2220182Y-733984D02*
X2201134Y-733984D01*
X2201134Y-733984D02*
X2182087Y-724460D01*
X2182087Y-724460D02*
X2172563Y-714936D01*
X2172563Y-714936D02*
X2163039Y-695889D01*
X2163039Y-695889D02*
X2153515Y-657793D01*
X2153515Y-657793D02*
X2153515Y-610174D01*
X2153515Y-610174D02*
X2163039Y-572079D01*
X2163039Y-572079D02*
X2172563Y-553031D01*
X2172563Y-553031D02*
X2182087Y-543508D01*
X2182087Y-543508D02*
X2201134Y-533984D01*
X2353515Y-714936D02*
X2363039Y-724460D01*
X2363039Y-724460D02*
X2353515Y-733984D01*
X2353515Y-733984D02*
X2343991Y-724460D01*
X2343991Y-724460D02*
X2353515Y-714936D01*
X2353515Y-714936D02*
X2353515Y-733984D01*
X2486848Y-533984D02*
X2505896Y-533984D01*
X2505896Y-533984D02*
X2524944Y-543508D01*
X2524944Y-543508D02*
X2534468Y-553031D01*
X2534468Y-553031D02*
X2543991Y-572079D01*
X2543991Y-572079D02*
X2553515Y-610174D01*
X2553515Y-610174D02*
X2553515Y-657793D01*
X2553515Y-657793D02*
X2543991Y-695889D01*
X2543991Y-695889D02*
X2534468Y-714936D01*
X2534468Y-714936D02*
X2524944Y-724460D01*
X2524944Y-724460D02*
X2505896Y-733984D01*
X2505896Y-733984D02*
X2486848Y-733984D01*
X2486848Y-733984D02*
X2467801Y-724460D01*
X2467801Y-724460D02*
X2458277Y-714936D01*
X2458277Y-714936D02*
X2448753Y-695889D01*
X2448753Y-695889D02*
X2439229Y-657793D01*
X2439229Y-657793D02*
X2439229Y-610174D01*
X2439229Y-610174D02*
X2448753Y-572079D01*
X2448753Y-572079D02*
X2458277Y-553031D01*
X2458277Y-553031D02*
X2467801Y-543508D01*
X2467801Y-543508D02*
X2486848Y-533984D01*
X2743991Y-733984D02*
X2629706Y-733984D01*
X2686848Y-733984D02*
X2686848Y-533984D01*
X2686848Y-533984D02*
X2667801Y-562555D01*
X2667801Y-562555D02*
X2648753Y-581603D01*
X2648753Y-581603D02*
X2629706Y-591127D01*
X2934467Y-733984D02*
X2820182Y-733984D01*
X2877325Y-733984D02*
X2877325Y-533984D01*
X2877325Y-533984D02*
X2858277Y-562555D01*
X2858277Y-562555D02*
X2839229Y-581603D01*
X2839229Y-581603D02*
X2820182Y-591127D01*
X3048753Y-619698D02*
X3029706Y-610174D01*
X3029706Y-610174D02*
X3020182Y-600650D01*
X3020182Y-600650D02*
X3010658Y-581603D01*
X3010658Y-581603D02*
X3010658Y-572079D01*
X3010658Y-572079D02*
X3020182Y-553031D01*
X3020182Y-553031D02*
X3029706Y-543508D01*
X3029706Y-543508D02*
X3048753Y-533984D01*
X3048753Y-533984D02*
X3086848Y-533984D01*
X3086848Y-533984D02*
X3105896Y-543508D01*
X3105896Y-543508D02*
X3115420Y-553031D01*
X3115420Y-553031D02*
X3124944Y-572079D01*
X3124944Y-572079D02*
X3124944Y-581603D01*
X3124944Y-581603D02*
X3115420Y-600650D01*
X3115420Y-600650D02*
X3105896Y-610174D01*
X3105896Y-610174D02*
X3086848Y-619698D01*
X3086848Y-619698D02*
X3048753Y-619698D01*
X3048753Y-619698D02*
X3029706Y-629222D01*
X3029706Y-629222D02*
X3020182Y-638746D01*
X3020182Y-638746D02*
X3010658Y-657793D01*
X3010658Y-657793D02*
X3010658Y-695889D01*
X3010658Y-695889D02*
X3020182Y-714936D01*
X3020182Y-714936D02*
X3029706Y-724460D01*
X3029706Y-724460D02*
X3048753Y-733984D01*
X3048753Y-733984D02*
X3086848Y-733984D01*
X3086848Y-733984D02*
X3105896Y-724460D01*
X3105896Y-724460D02*
X3115420Y-714936D01*
X3115420Y-714936D02*
X3124944Y-695889D01*
X3124944Y-695889D02*
X3124944Y-657793D01*
X3124944Y-657793D02*
X3115420Y-638746D01*
X3115420Y-638746D02*
X3105896Y-629222D01*
X3105896Y-629222D02*
X3086848Y-619698D01*
X3201134Y-533984D02*
X3201134Y-572079D01*
X3277325Y-533984D02*
X3277325Y-572079D01*
X3572563Y-810174D02*
X3563039Y-800650D01*
X3563039Y-800650D02*
X3543991Y-772079D01*
X3543991Y-772079D02*
X3534468Y-753031D01*
X3534468Y-753031D02*
X3524944Y-724460D01*
X3524944Y-724460D02*
X3515420Y-676841D01*
X3515420Y-676841D02*
X3515420Y-638746D01*
X3515420Y-638746D02*
X3524944Y-591127D01*
X3524944Y-591127D02*
X3534468Y-562555D01*
X3534468Y-562555D02*
X3543991Y-543508D01*
X3543991Y-543508D02*
X3563039Y-514936D01*
X3563039Y-514936D02*
X3572563Y-505412D01*
X3753515Y-733984D02*
X3639229Y-733984D01*
X3696372Y-733984D02*
X3696372Y-533984D01*
X3696372Y-533984D02*
X3677325Y-562555D01*
X3677325Y-562555D02*
X3658277Y-581603D01*
X3658277Y-581603D02*
X3639229Y-591127D01*
X3943991Y-733984D02*
X3829706Y-733984D01*
X3886848Y-733984D02*
X3886848Y-533984D01*
X3886848Y-533984D02*
X3867801Y-562555D01*
X3867801Y-562555D02*
X3848753Y-581603D01*
X3848753Y-581603D02*
X3829706Y-591127D01*
X4115420Y-600650D02*
X4115420Y-733984D01*
X4067801Y-524460D02*
X4020182Y-667317D01*
X4020182Y-667317D02*
X4143991Y-667317D01*
X4372563Y-733984D02*
X4372563Y-533984D01*
X4458277Y-733984D02*
X4458277Y-629222D01*
X4458277Y-629222D02*
X4448753Y-610174D01*
X4448753Y-610174D02*
X4429706Y-600650D01*
X4429706Y-600650D02*
X4401134Y-600650D01*
X4401134Y-600650D02*
X4382087Y-610174D01*
X4382087Y-610174D02*
X4372563Y-619698D01*
X4582087Y-733984D02*
X4563039Y-724460D01*
X4563039Y-724460D02*
X4553515Y-714936D01*
X4553515Y-714936D02*
X4543992Y-695889D01*
X4543992Y-695889D02*
X4543992Y-638746D01*
X4543992Y-638746D02*
X4553515Y-619698D01*
X4553515Y-619698D02*
X4563039Y-610174D01*
X4563039Y-610174D02*
X4582087Y-600650D01*
X4582087Y-600650D02*
X4610658Y-600650D01*
X4610658Y-600650D02*
X4629706Y-610174D01*
X4629706Y-610174D02*
X4639230Y-619698D01*
X4639230Y-619698D02*
X4648753Y-638746D01*
X4648753Y-638746D02*
X4648753Y-695889D01*
X4648753Y-695889D02*
X4639230Y-714936D01*
X4639230Y-714936D02*
X4629706Y-724460D01*
X4629706Y-724460D02*
X4610658Y-733984D01*
X4610658Y-733984D02*
X4582087Y-733984D01*
X4763039Y-733984D02*
X4743992Y-724460D01*
X4743992Y-724460D02*
X4734468Y-705412D01*
X4734468Y-705412D02*
X4734468Y-533984D01*
X4915420Y-724460D02*
X4896373Y-733984D01*
X4896373Y-733984D02*
X4858277Y-733984D01*
X4858277Y-733984D02*
X4839230Y-724460D01*
X4839230Y-724460D02*
X4829706Y-705412D01*
X4829706Y-705412D02*
X4829706Y-629222D01*
X4829706Y-629222D02*
X4839230Y-610174D01*
X4839230Y-610174D02*
X4858277Y-600650D01*
X4858277Y-600650D02*
X4896373Y-600650D01*
X4896373Y-600650D02*
X4915420Y-610174D01*
X4915420Y-610174D02*
X4924944Y-629222D01*
X4924944Y-629222D02*
X4924944Y-648270D01*
X4924944Y-648270D02*
X4829706Y-667317D01*
X5001134Y-724460D02*
X5020182Y-733984D01*
X5020182Y-733984D02*
X5058277Y-733984D01*
X5058277Y-733984D02*
X5077325Y-724460D01*
X5077325Y-724460D02*
X5086849Y-705412D01*
X5086849Y-705412D02*
X5086849Y-695889D01*
X5086849Y-695889D02*
X5077325Y-676841D01*
X5077325Y-676841D02*
X5058277Y-667317D01*
X5058277Y-667317D02*
X5029706Y-667317D01*
X5029706Y-667317D02*
X5010658Y-657793D01*
X5010658Y-657793D02*
X5001134Y-638746D01*
X5001134Y-638746D02*
X5001134Y-629222D01*
X5001134Y-629222D02*
X5010658Y-610174D01*
X5010658Y-610174D02*
X5029706Y-600650D01*
X5029706Y-600650D02*
X5058277Y-600650D01*
X5058277Y-600650D02*
X5077325Y-610174D01*
X5153515Y-810174D02*
X5163039Y-800650D01*
X5163039Y-800650D02*
X5182087Y-772079D01*
X5182087Y-772079D02*
X5191611Y-753031D01*
X5191611Y-753031D02*
X5201134Y-724460D01*
X5201134Y-724460D02*
X5210658Y-676841D01*
X5210658Y-676841D02*
X5210658Y-638746D01*
X5210658Y-638746D02*
X5201134Y-591127D01*
X5201134Y-591127D02*
X5191611Y-562555D01*
X5191611Y-562555D02*
X5182087Y-543508D01*
X5182087Y-543508D02*
X5163039Y-514936D01*
X5163039Y-514936D02*
X5153515Y-505412D01*
D12*
X-2500Y-906500D02*
G75*
G02*
X-102500Y-906500I-50000J0D01*
G01*
X-102500Y-906500D02*
G75*
G02*
X-2500Y-906500I50000J0D01*
G01*
D11*
X363039Y-997984D02*
X248753Y-997984D01*
X305896Y-997984D02*
X305896Y-797984D01*
X305896Y-797984D02*
X286848Y-826555D01*
X286848Y-826555D02*
X267801Y-845603D01*
X267801Y-845603D02*
X248753Y-855127D01*
X448753Y-978936D02*
X458277Y-988460D01*
X458277Y-988460D02*
X448753Y-997984D01*
X448753Y-997984D02*
X439229Y-988460D01*
X439229Y-988460D02*
X448753Y-978936D01*
X448753Y-978936D02*
X448753Y-997984D01*
X582086Y-797984D02*
X601134Y-797984D01*
X601134Y-797984D02*
X620182Y-807508D01*
X620182Y-807508D02*
X629705Y-817031D01*
X629705Y-817031D02*
X639229Y-836079D01*
X639229Y-836079D02*
X648753Y-874174D01*
X648753Y-874174D02*
X648753Y-921793D01*
X648753Y-921793D02*
X639229Y-959888D01*
X639229Y-959888D02*
X629705Y-978936D01*
X629705Y-978936D02*
X620182Y-988460D01*
X620182Y-988460D02*
X601134Y-997984D01*
X601134Y-997984D02*
X582086Y-997984D01*
X582086Y-997984D02*
X563039Y-988460D01*
X563039Y-988460D02*
X553515Y-978936D01*
X553515Y-978936D02*
X543991Y-959888D01*
X543991Y-959888D02*
X534467Y-921793D01*
X534467Y-921793D02*
X534467Y-874174D01*
X534467Y-874174D02*
X543991Y-836079D01*
X543991Y-836079D02*
X553515Y-817031D01*
X553515Y-817031D02*
X563039Y-807508D01*
X563039Y-807508D02*
X582086Y-797984D01*
X772562Y-797984D02*
X791610Y-797984D01*
X791610Y-797984D02*
X810658Y-807508D01*
X810658Y-807508D02*
X820182Y-817031D01*
X820182Y-817031D02*
X829705Y-836079D01*
X829705Y-836079D02*
X839229Y-874174D01*
X839229Y-874174D02*
X839229Y-921793D01*
X839229Y-921793D02*
X829705Y-959888D01*
X829705Y-959888D02*
X820182Y-978936D01*
X820182Y-978936D02*
X810658Y-988460D01*
X810658Y-988460D02*
X791610Y-997984D01*
X791610Y-997984D02*
X772562Y-997984D01*
X772562Y-997984D02*
X753515Y-988460D01*
X753515Y-988460D02*
X743991Y-978936D01*
X743991Y-978936D02*
X734467Y-959888D01*
X734467Y-959888D02*
X724943Y-921793D01*
X724943Y-921793D02*
X724943Y-874174D01*
X724943Y-874174D02*
X734467Y-836079D01*
X734467Y-836079D02*
X743991Y-817031D01*
X743991Y-817031D02*
X753515Y-807508D01*
X753515Y-807508D02*
X772562Y-797984D01*
X963039Y-797984D02*
X982086Y-797984D01*
X982086Y-797984D02*
X1001134Y-807508D01*
X1001134Y-807508D02*
X1010658Y-817031D01*
X1010658Y-817031D02*
X1020182Y-836079D01*
X1020182Y-836079D02*
X1029705Y-874174D01*
X1029705Y-874174D02*
X1029705Y-921793D01*
X1029705Y-921793D02*
X1020182Y-959888D01*
X1020182Y-959888D02*
X1010658Y-978936D01*
X1010658Y-978936D02*
X1001134Y-988460D01*
X1001134Y-988460D02*
X982086Y-997984D01*
X982086Y-997984D02*
X963039Y-997984D01*
X963039Y-997984D02*
X943991Y-988460D01*
X943991Y-988460D02*
X934467Y-978936D01*
X934467Y-978936D02*
X924943Y-959888D01*
X924943Y-959888D02*
X915420Y-921793D01*
X915420Y-921793D02*
X915420Y-874174D01*
X915420Y-874174D02*
X924943Y-836079D01*
X924943Y-836079D02*
X934467Y-817031D01*
X934467Y-817031D02*
X943991Y-807508D01*
X943991Y-807508D02*
X963039Y-797984D01*
X1115420Y-997984D02*
X1115420Y-864650D01*
X1115420Y-883698D02*
X1124944Y-874174D01*
X1124944Y-874174D02*
X1143991Y-864650D01*
X1143991Y-864650D02*
X1172563Y-864650D01*
X1172563Y-864650D02*
X1191610Y-874174D01*
X1191610Y-874174D02*
X1201134Y-893222D01*
X1201134Y-893222D02*
X1201134Y-997984D01*
X1201134Y-893222D02*
X1210658Y-874174D01*
X1210658Y-874174D02*
X1229705Y-864650D01*
X1229705Y-864650D02*
X1258277Y-864650D01*
X1258277Y-864650D02*
X1277325Y-874174D01*
X1277325Y-874174D02*
X1286848Y-893222D01*
X1286848Y-893222D02*
X1286848Y-997984D01*
X1382086Y-997984D02*
X1382086Y-864650D01*
X1382086Y-883698D02*
X1391610Y-874174D01*
X1391610Y-874174D02*
X1410658Y-864650D01*
X1410658Y-864650D02*
X1439229Y-864650D01*
X1439229Y-864650D02*
X1458277Y-874174D01*
X1458277Y-874174D02*
X1467801Y-893222D01*
X1467801Y-893222D02*
X1467801Y-997984D01*
X1467801Y-893222D02*
X1477324Y-874174D01*
X1477324Y-874174D02*
X1496372Y-864650D01*
X1496372Y-864650D02*
X1524943Y-864650D01*
X1524943Y-864650D02*
X1543991Y-874174D01*
X1543991Y-874174D02*
X1553515Y-893222D01*
X1553515Y-893222D02*
X1553515Y-997984D01*
X1943991Y-788460D02*
X1772563Y-1045603D01*
X2201134Y-797984D02*
X2220182Y-797984D01*
X2220182Y-797984D02*
X2239229Y-807508D01*
X2239229Y-807508D02*
X2248753Y-817031D01*
X2248753Y-817031D02*
X2258277Y-836079D01*
X2258277Y-836079D02*
X2267801Y-874174D01*
X2267801Y-874174D02*
X2267801Y-921793D01*
X2267801Y-921793D02*
X2258277Y-959888D01*
X2258277Y-959888D02*
X2248753Y-978936D01*
X2248753Y-978936D02*
X2239229Y-988460D01*
X2239229Y-988460D02*
X2220182Y-997984D01*
X2220182Y-997984D02*
X2201134Y-997984D01*
X2201134Y-997984D02*
X2182087Y-988460D01*
X2182087Y-988460D02*
X2172563Y-978936D01*
X2172563Y-978936D02*
X2163039Y-959888D01*
X2163039Y-959888D02*
X2153515Y-921793D01*
X2153515Y-921793D02*
X2153515Y-874174D01*
X2153515Y-874174D02*
X2163039Y-836079D01*
X2163039Y-836079D02*
X2172563Y-817031D01*
X2172563Y-817031D02*
X2182087Y-807508D01*
X2182087Y-807508D02*
X2201134Y-797984D01*
X2353515Y-978936D02*
X2363039Y-988460D01*
X2363039Y-988460D02*
X2353515Y-997984D01*
X2353515Y-997984D02*
X2343991Y-988460D01*
X2343991Y-988460D02*
X2353515Y-978936D01*
X2353515Y-978936D02*
X2353515Y-997984D01*
X2486848Y-797984D02*
X2505896Y-797984D01*
X2505896Y-797984D02*
X2524944Y-807508D01*
X2524944Y-807508D02*
X2534468Y-817031D01*
X2534468Y-817031D02*
X2543991Y-836079D01*
X2543991Y-836079D02*
X2553515Y-874174D01*
X2553515Y-874174D02*
X2553515Y-921793D01*
X2553515Y-921793D02*
X2543991Y-959888D01*
X2543991Y-959888D02*
X2534468Y-978936D01*
X2534468Y-978936D02*
X2524944Y-988460D01*
X2524944Y-988460D02*
X2505896Y-997984D01*
X2505896Y-997984D02*
X2486848Y-997984D01*
X2486848Y-997984D02*
X2467801Y-988460D01*
X2467801Y-988460D02*
X2458277Y-978936D01*
X2458277Y-978936D02*
X2448753Y-959888D01*
X2448753Y-959888D02*
X2439229Y-921793D01*
X2439229Y-921793D02*
X2439229Y-874174D01*
X2439229Y-874174D02*
X2448753Y-836079D01*
X2448753Y-836079D02*
X2458277Y-817031D01*
X2458277Y-817031D02*
X2467801Y-807508D01*
X2467801Y-807508D02*
X2486848Y-797984D01*
X2620182Y-797984D02*
X2743991Y-797984D01*
X2743991Y-797984D02*
X2677325Y-874174D01*
X2677325Y-874174D02*
X2705896Y-874174D01*
X2705896Y-874174D02*
X2724944Y-883698D01*
X2724944Y-883698D02*
X2734468Y-893222D01*
X2734468Y-893222D02*
X2743991Y-912269D01*
X2743991Y-912269D02*
X2743991Y-959888D01*
X2743991Y-959888D02*
X2734468Y-978936D01*
X2734468Y-978936D02*
X2724944Y-988460D01*
X2724944Y-988460D02*
X2705896Y-997984D01*
X2705896Y-997984D02*
X2648753Y-997984D01*
X2648753Y-997984D02*
X2629706Y-988460D01*
X2629706Y-988460D02*
X2620182Y-978936D01*
X2839229Y-997984D02*
X2877325Y-997984D01*
X2877325Y-997984D02*
X2896372Y-988460D01*
X2896372Y-988460D02*
X2905896Y-978936D01*
X2905896Y-978936D02*
X2924944Y-950365D01*
X2924944Y-950365D02*
X2934467Y-912269D01*
X2934467Y-912269D02*
X2934467Y-836079D01*
X2934467Y-836079D02*
X2924944Y-817031D01*
X2924944Y-817031D02*
X2915420Y-807508D01*
X2915420Y-807508D02*
X2896372Y-797984D01*
X2896372Y-797984D02*
X2858277Y-797984D01*
X2858277Y-797984D02*
X2839229Y-807508D01*
X2839229Y-807508D02*
X2829706Y-817031D01*
X2829706Y-817031D02*
X2820182Y-836079D01*
X2820182Y-836079D02*
X2820182Y-883698D01*
X2820182Y-883698D02*
X2829706Y-902746D01*
X2829706Y-902746D02*
X2839229Y-912269D01*
X2839229Y-912269D02*
X2858277Y-921793D01*
X2858277Y-921793D02*
X2896372Y-921793D01*
X2896372Y-921793D02*
X2915420Y-912269D01*
X2915420Y-912269D02*
X2924944Y-902746D01*
X2924944Y-902746D02*
X2934467Y-883698D01*
X3105896Y-864650D02*
X3105896Y-997984D01*
X3058277Y-788460D02*
X3010658Y-931317D01*
X3010658Y-931317D02*
X3134467Y-931317D01*
X3201134Y-797984D02*
X3201134Y-836079D01*
X3277325Y-797984D02*
X3277325Y-836079D01*
X3572563Y-1074174D02*
X3563039Y-1064650D01*
X3563039Y-1064650D02*
X3543991Y-1036079D01*
X3543991Y-1036079D02*
X3534468Y-1017031D01*
X3534468Y-1017031D02*
X3524944Y-988460D01*
X3524944Y-988460D02*
X3515420Y-940841D01*
X3515420Y-940841D02*
X3515420Y-902746D01*
X3515420Y-902746D02*
X3524944Y-855127D01*
X3524944Y-855127D02*
X3534468Y-826555D01*
X3534468Y-826555D02*
X3543991Y-807508D01*
X3543991Y-807508D02*
X3563039Y-778936D01*
X3563039Y-778936D02*
X3572563Y-769412D01*
X3734468Y-797984D02*
X3696372Y-797984D01*
X3696372Y-797984D02*
X3677325Y-807508D01*
X3677325Y-807508D02*
X3667801Y-817031D01*
X3667801Y-817031D02*
X3648753Y-845603D01*
X3648753Y-845603D02*
X3639229Y-883698D01*
X3639229Y-883698D02*
X3639229Y-959888D01*
X3639229Y-959888D02*
X3648753Y-978936D01*
X3648753Y-978936D02*
X3658277Y-988460D01*
X3658277Y-988460D02*
X3677325Y-997984D01*
X3677325Y-997984D02*
X3715420Y-997984D01*
X3715420Y-997984D02*
X3734468Y-988460D01*
X3734468Y-988460D02*
X3743991Y-978936D01*
X3743991Y-978936D02*
X3753515Y-959888D01*
X3753515Y-959888D02*
X3753515Y-912269D01*
X3753515Y-912269D02*
X3743991Y-893222D01*
X3743991Y-893222D02*
X3734468Y-883698D01*
X3734468Y-883698D02*
X3715420Y-874174D01*
X3715420Y-874174D02*
X3677325Y-874174D01*
X3677325Y-874174D02*
X3658277Y-883698D01*
X3658277Y-883698D02*
X3648753Y-893222D01*
X3648753Y-893222D02*
X3639229Y-912269D01*
X3829706Y-817031D02*
X3839229Y-807508D01*
X3839229Y-807508D02*
X3858277Y-797984D01*
X3858277Y-797984D02*
X3905896Y-797984D01*
X3905896Y-797984D02*
X3924944Y-807508D01*
X3924944Y-807508D02*
X3934468Y-817031D01*
X3934468Y-817031D02*
X3943991Y-836079D01*
X3943991Y-836079D02*
X3943991Y-855127D01*
X3943991Y-855127D02*
X3934468Y-883698D01*
X3934468Y-883698D02*
X3820182Y-997984D01*
X3820182Y-997984D02*
X3943991Y-997984D01*
X4182087Y-997984D02*
X4182087Y-797984D01*
X4267801Y-997984D02*
X4267801Y-893222D01*
X4267801Y-893222D02*
X4258277Y-874174D01*
X4258277Y-874174D02*
X4239230Y-864650D01*
X4239230Y-864650D02*
X4210658Y-864650D01*
X4210658Y-864650D02*
X4191610Y-874174D01*
X4191610Y-874174D02*
X4182087Y-883698D01*
X4391611Y-997984D02*
X4372563Y-988460D01*
X4372563Y-988460D02*
X4363039Y-978936D01*
X4363039Y-978936D02*
X4353515Y-959888D01*
X4353515Y-959888D02*
X4353515Y-902746D01*
X4353515Y-902746D02*
X4363039Y-883698D01*
X4363039Y-883698D02*
X4372563Y-874174D01*
X4372563Y-874174D02*
X4391611Y-864650D01*
X4391611Y-864650D02*
X4420182Y-864650D01*
X4420182Y-864650D02*
X4439230Y-874174D01*
X4439230Y-874174D02*
X4448753Y-883698D01*
X4448753Y-883698D02*
X4458277Y-902746D01*
X4458277Y-902746D02*
X4458277Y-959888D01*
X4458277Y-959888D02*
X4448753Y-978936D01*
X4448753Y-978936D02*
X4439230Y-988460D01*
X4439230Y-988460D02*
X4420182Y-997984D01*
X4420182Y-997984D02*
X4391611Y-997984D01*
X4572563Y-997984D02*
X4553515Y-988460D01*
X4553515Y-988460D02*
X4543992Y-969412D01*
X4543992Y-969412D02*
X4543992Y-797984D01*
X4724944Y-988460D02*
X4705896Y-997984D01*
X4705896Y-997984D02*
X4667801Y-997984D01*
X4667801Y-997984D02*
X4648753Y-988460D01*
X4648753Y-988460D02*
X4639230Y-969412D01*
X4639230Y-969412D02*
X4639230Y-893222D01*
X4639230Y-893222D02*
X4648753Y-874174D01*
X4648753Y-874174D02*
X4667801Y-864650D01*
X4667801Y-864650D02*
X4705896Y-864650D01*
X4705896Y-864650D02*
X4724944Y-874174D01*
X4724944Y-874174D02*
X4734468Y-893222D01*
X4734468Y-893222D02*
X4734468Y-912269D01*
X4734468Y-912269D02*
X4639230Y-931317D01*
X4810658Y-988460D02*
X4829706Y-997984D01*
X4829706Y-997984D02*
X4867801Y-997984D01*
X4867801Y-997984D02*
X4886849Y-988460D01*
X4886849Y-988460D02*
X4896373Y-969412D01*
X4896373Y-969412D02*
X4896373Y-959888D01*
X4896373Y-959888D02*
X4886849Y-940841D01*
X4886849Y-940841D02*
X4867801Y-931317D01*
X4867801Y-931317D02*
X4839230Y-931317D01*
X4839230Y-931317D02*
X4820182Y-921793D01*
X4820182Y-921793D02*
X4810658Y-902746D01*
X4810658Y-902746D02*
X4810658Y-893222D01*
X4810658Y-893222D02*
X4820182Y-874174D01*
X4820182Y-874174D02*
X4839230Y-864650D01*
X4839230Y-864650D02*
X4867801Y-864650D01*
X4867801Y-864650D02*
X4886849Y-874174D01*
X4963039Y-1074174D02*
X4972563Y-1064650D01*
X4972563Y-1064650D02*
X4991611Y-1036079D01*
X4991611Y-1036079D02*
X5001134Y-1017031D01*
X5001134Y-1017031D02*
X5010658Y-988460D01*
X5010658Y-988460D02*
X5020182Y-940841D01*
X5020182Y-940841D02*
X5020182Y-902746D01*
X5020182Y-902746D02*
X5010658Y-855127D01*
X5010658Y-855127D02*
X5001134Y-826555D01*
X5001134Y-826555D02*
X4991611Y-807508D01*
X4991611Y-807508D02*
X4972563Y-778936D01*
X4972563Y-778936D02*
X4963039Y-769412D01*
M02*
