M48
; DRILL file {KiCad 9.0.0} date 2025-03-06T11:49:14+0900
; FORMAT={-:-/ absolute / metric / decimal}
; #@! TF.CreationDate,2025-03-06T11:49:14+09:00
; #@! TF.GenerationSoftware,Kicad,Pcbnew,9.0.0
; #@! TF.FileFunction,MixedPlating,1,2
FMAT,2
METRIC
; #@! TA.AperFunction,Plated,PTH,ViaDrill
T1C0.300
; #@! TA.AperFunction,Plated,PTH,ComponentDrill
T2C1.000
%
G90
G05
T1
X1.905Y44.45
X1.905Y33.655
X1.905Y23.495
X1.905Y19.685
X1.905Y10.795
X1.905Y1.905
X2.54Y49.53
X6.35Y16.51
X7.62Y46.99
X7.62Y35.56
X7.62Y27.94
X8.89Y16.51
X10.16Y46.355
X10.16Y35.56
X10.16Y27.94
X11.43Y16.51
X12.065Y49.53
X12.7Y45.72
X12.7Y35.56
X12.7Y27.94
X13.97Y16.51
X17.145Y44.45
X17.145Y33.655
X17.145Y23.495
X17.145Y19.685
X17.145Y15.875
X18.415Y49.53
X21.59Y16.51
X22.86Y35.56
X22.86Y27.94
X24.13Y16.51
X24.765Y49.53
X25.4Y46.99
X25.4Y35.56
X25.4Y27.94
X26.67Y16.51
X27.94Y46.99
X27.94Y35.56
X27.94Y27.94
X28.575Y6.985
X32.385Y49.53
X32.385Y40.005
X32.385Y33.655
X32.385Y23.495
X32.385Y19.685
X32.385Y13.97
X33.655Y5.08
X33.655Y2.54
X36.83Y16.51
X38.1Y41.275
X38.1Y35.56
X38.1Y27.94
X38.735Y49.53
X39.37Y15.24
X40.64Y41.91
X40.64Y35.56
X40.64Y27.94
X41.91Y13.97
X43.18Y42.545
X43.18Y35.56
X43.18Y27.94
X44.45Y13.97
X45.085Y49.53
X45.085Y1.905
X47.625Y42.545
X47.625Y33.655
X47.625Y23.495
X47.625Y19.685
X47.625Y11.43
X50.165Y49.53
X52.07Y13.97
X53.34Y43.815
X53.34Y35.56
X53.34Y27.94
X54.61Y12.7
X55.88Y44.45
X55.88Y35.56
X55.88Y27.94
X55.88Y1.905
X56.515Y49.53
X57.15Y11.43
X58.42Y45.085
X58.42Y35.56
X58.42Y27.94
X59.69Y11.43
X62.865Y45.085
X62.865Y33.655
X62.865Y23.495
X62.865Y19.685
X62.865Y7.62
X66.675Y54.61
X66.675Y1.905
X67.31Y46.355
X67.31Y35.56
X67.31Y27.94
X67.31Y12.7
X67.31Y8.255
X69.85Y46.99
X69.85Y35.56
X69.85Y27.94
X69.85Y13.97
X72.39Y47.625
X72.39Y35.56
X72.39Y27.94
X72.39Y15.24
X72.39Y8.255
X74.93Y16.51
X78.105Y54.61
X78.105Y44.45
X78.105Y33.655
X78.105Y23.495
X78.105Y19.685
X78.105Y10.795
X78.105Y1.905
T2
X2.54Y53.975
X2.54Y51.435
X8.255Y53.975
X8.255Y51.435
X8.255Y5.08
X8.255Y2.54
X10.795Y53.975
X10.795Y51.435
X10.795Y5.08
X10.795Y2.54
X13.335Y53.975
X13.335Y51.435
X13.335Y5.08
X13.335Y2.54
X15.875Y53.975
X15.875Y51.435
X15.875Y5.08
X15.875Y2.54
X18.415Y53.975
X18.415Y51.435
X18.415Y5.08
X18.415Y2.54
X20.955Y53.975
X20.955Y51.435
X20.955Y5.08
X20.955Y2.54
X23.495Y53.975
X23.495Y51.435
X23.495Y5.08
X23.495Y2.54
X26.035Y53.975
X26.035Y51.435
X26.035Y5.08
X26.035Y2.54
X28.575Y53.975
X28.575Y51.435
X28.575Y5.08
X28.575Y2.54
X31.115Y53.975
X31.115Y51.435
X31.115Y5.08
X31.115Y2.54
X33.655Y53.975
X33.655Y51.435
X36.195Y53.975
X36.195Y51.435
X38.735Y53.975
X38.735Y51.435
X41.275Y53.975
X41.275Y51.435
X43.815Y53.975
X43.815Y51.435
X46.355Y53.975
X46.355Y51.435
X48.895Y53.975
X48.895Y51.435
X51.435Y53.975
X51.435Y51.435
X53.975Y53.975
X53.975Y51.435
X56.515Y53.975
X56.515Y51.435
M30
