G04 #@! TF.GenerationSoftware,KiCad,Pcbnew,9.0.0*
G04 #@! TF.CreationDate,2025-03-06T11:49:08+09:00*
G04 #@! TF.ProjectId,ufb_hat,7566625f-6861-4742-9e6b-696361645f70,rev?*
G04 #@! TF.SameCoordinates,PX2fd7508PY6486dd0*
G04 #@! TF.FileFunction,Legend,Top*
G04 #@! TF.FilePolarity,Positive*
%FSLAX46Y46*%
G04 Gerber Fmt 4.6, Leading zero omitted, Abs format (unit mm)*
G04 Created by KiCad (PCBNEW 9.0.0) date 2025-03-06 11:49:08*
%MOMM*%
%LPD*%
G01*
G04 APERTURE LIST*
%ADD10C,0.150000*%
%ADD11C,0.120000*%
G04 APERTURE END LIST*
D10*
X8709819Y28032031D02*
X7709819Y28032031D01*
X7709819Y28032031D02*
X7709819Y28270126D01*
X7709819Y28270126D02*
X7757438Y28412983D01*
X7757438Y28412983D02*
X7852676Y28508221D01*
X7852676Y28508221D02*
X7947914Y28555840D01*
X7947914Y28555840D02*
X8138390Y28603459D01*
X8138390Y28603459D02*
X8281247Y28603459D01*
X8281247Y28603459D02*
X8471723Y28555840D01*
X8471723Y28555840D02*
X8566961Y28508221D01*
X8566961Y28508221D02*
X8662200Y28412983D01*
X8662200Y28412983D02*
X8709819Y28270126D01*
X8709819Y28270126D02*
X8709819Y28032031D01*
X7805057Y28984412D02*
X7757438Y29032031D01*
X7757438Y29032031D02*
X7709819Y29127269D01*
X7709819Y29127269D02*
X7709819Y29365364D01*
X7709819Y29365364D02*
X7757438Y29460602D01*
X7757438Y29460602D02*
X7805057Y29508221D01*
X7805057Y29508221D02*
X7900295Y29555840D01*
X7900295Y29555840D02*
X7995533Y29555840D01*
X7995533Y29555840D02*
X8138390Y29508221D01*
X8138390Y29508221D02*
X8709819Y28936793D01*
X8709819Y28936793D02*
X8709819Y29555840D01*
X2206666Y48805181D02*
X2206666Y48090896D01*
X2206666Y48090896D02*
X2159047Y47948039D01*
X2159047Y47948039D02*
X2063809Y47852800D01*
X2063809Y47852800D02*
X1920952Y47805181D01*
X1920952Y47805181D02*
X1825714Y47805181D01*
X2587619Y48805181D02*
X3206666Y48805181D01*
X3206666Y48805181D02*
X2873333Y48424229D01*
X2873333Y48424229D02*
X3016190Y48424229D01*
X3016190Y48424229D02*
X3111428Y48376610D01*
X3111428Y48376610D02*
X3159047Y48328991D01*
X3159047Y48328991D02*
X3206666Y48233753D01*
X3206666Y48233753D02*
X3206666Y47995658D01*
X3206666Y47995658D02*
X3159047Y47900420D01*
X3159047Y47900420D02*
X3111428Y47852800D01*
X3111428Y47852800D02*
X3016190Y47805181D01*
X3016190Y47805181D02*
X2730476Y47805181D01*
X2730476Y47805181D02*
X2635238Y47852800D01*
X2635238Y47852800D02*
X2587619Y47900420D01*
X39189819Y35271078D02*
X38713628Y34937745D01*
X39189819Y34699650D02*
X38189819Y34699650D01*
X38189819Y34699650D02*
X38189819Y35080602D01*
X38189819Y35080602D02*
X38237438Y35175840D01*
X38237438Y35175840D02*
X38285057Y35223459D01*
X38285057Y35223459D02*
X38380295Y35271078D01*
X38380295Y35271078D02*
X38523152Y35271078D01*
X38523152Y35271078D02*
X38618390Y35223459D01*
X38618390Y35223459D02*
X38666009Y35175840D01*
X38666009Y35175840D02*
X38713628Y35080602D01*
X38713628Y35080602D02*
X38713628Y34699650D01*
X39189819Y36223459D02*
X39189819Y35652031D01*
X39189819Y35937745D02*
X38189819Y35937745D01*
X38189819Y35937745D02*
X38332676Y35842507D01*
X38332676Y35842507D02*
X38427914Y35747269D01*
X38427914Y35747269D02*
X38475533Y35652031D01*
X38189819Y36842507D02*
X38189819Y36937745D01*
X38189819Y36937745D02*
X38237438Y37032983D01*
X38237438Y37032983D02*
X38285057Y37080602D01*
X38285057Y37080602D02*
X38380295Y37128221D01*
X38380295Y37128221D02*
X38570771Y37175840D01*
X38570771Y37175840D02*
X38808866Y37175840D01*
X38808866Y37175840D02*
X38999342Y37128221D01*
X38999342Y37128221D02*
X39094580Y37080602D01*
X39094580Y37080602D02*
X39142200Y37032983D01*
X39142200Y37032983D02*
X39189819Y36937745D01*
X39189819Y36937745D02*
X39189819Y36842507D01*
X39189819Y36842507D02*
X39142200Y36747269D01*
X39142200Y36747269D02*
X39094580Y36699650D01*
X39094580Y36699650D02*
X38999342Y36652031D01*
X38999342Y36652031D02*
X38808866Y36604412D01*
X38808866Y36604412D02*
X38570771Y36604412D01*
X38570771Y36604412D02*
X38380295Y36652031D01*
X38380295Y36652031D02*
X38285057Y36699650D01*
X38285057Y36699650D02*
X38237438Y36747269D01*
X38237438Y36747269D02*
X38189819Y36842507D01*
X51889819Y27079650D02*
X50889819Y27079650D01*
X50889819Y27079650D02*
X50889819Y27317745D01*
X50889819Y27317745D02*
X50937438Y27460602D01*
X50937438Y27460602D02*
X51032676Y27555840D01*
X51032676Y27555840D02*
X51127914Y27603459D01*
X51127914Y27603459D02*
X51318390Y27651078D01*
X51318390Y27651078D02*
X51461247Y27651078D01*
X51461247Y27651078D02*
X51651723Y27603459D01*
X51651723Y27603459D02*
X51746961Y27555840D01*
X51746961Y27555840D02*
X51842200Y27460602D01*
X51842200Y27460602D02*
X51889819Y27317745D01*
X51889819Y27317745D02*
X51889819Y27079650D01*
X51889819Y28603459D02*
X51889819Y28032031D01*
X51889819Y28317745D02*
X50889819Y28317745D01*
X50889819Y28317745D02*
X51032676Y28222507D01*
X51032676Y28222507D02*
X51127914Y28127269D01*
X51127914Y28127269D02*
X51175533Y28032031D01*
X50889819Y28936793D02*
X50889819Y29555840D01*
X50889819Y29555840D02*
X51270771Y29222507D01*
X51270771Y29222507D02*
X51270771Y29365364D01*
X51270771Y29365364D02*
X51318390Y29460602D01*
X51318390Y29460602D02*
X51366009Y29508221D01*
X51366009Y29508221D02*
X51461247Y29555840D01*
X51461247Y29555840D02*
X51699342Y29555840D01*
X51699342Y29555840D02*
X51794580Y29508221D01*
X51794580Y29508221D02*
X51842200Y29460602D01*
X51842200Y29460602D02*
X51889819Y29365364D01*
X51889819Y29365364D02*
X51889819Y29079650D01*
X51889819Y29079650D02*
X51842200Y28984412D01*
X51842200Y28984412D02*
X51794580Y28936793D01*
X44269819Y27079650D02*
X43269819Y27079650D01*
X43269819Y27079650D02*
X43269819Y27317745D01*
X43269819Y27317745D02*
X43317438Y27460602D01*
X43317438Y27460602D02*
X43412676Y27555840D01*
X43412676Y27555840D02*
X43507914Y27603459D01*
X43507914Y27603459D02*
X43698390Y27651078D01*
X43698390Y27651078D02*
X43841247Y27651078D01*
X43841247Y27651078D02*
X44031723Y27603459D01*
X44031723Y27603459D02*
X44126961Y27555840D01*
X44126961Y27555840D02*
X44222200Y27460602D01*
X44222200Y27460602D02*
X44269819Y27317745D01*
X44269819Y27317745D02*
X44269819Y27079650D01*
X44269819Y28603459D02*
X44269819Y28032031D01*
X44269819Y28317745D02*
X43269819Y28317745D01*
X43269819Y28317745D02*
X43412676Y28222507D01*
X43412676Y28222507D02*
X43507914Y28127269D01*
X43507914Y28127269D02*
X43555533Y28032031D01*
X43365057Y28984412D02*
X43317438Y29032031D01*
X43317438Y29032031D02*
X43269819Y29127269D01*
X43269819Y29127269D02*
X43269819Y29365364D01*
X43269819Y29365364D02*
X43317438Y29460602D01*
X43317438Y29460602D02*
X43365057Y29508221D01*
X43365057Y29508221D02*
X43460295Y29555840D01*
X43460295Y29555840D02*
X43555533Y29555840D01*
X43555533Y29555840D02*
X43698390Y29508221D01*
X43698390Y29508221D02*
X44269819Y28936793D01*
X44269819Y28936793D02*
X44269819Y29555840D01*
X44269819Y35271078D02*
X43793628Y34937745D01*
X44269819Y34699650D02*
X43269819Y34699650D01*
X43269819Y34699650D02*
X43269819Y35080602D01*
X43269819Y35080602D02*
X43317438Y35175840D01*
X43317438Y35175840D02*
X43365057Y35223459D01*
X43365057Y35223459D02*
X43460295Y35271078D01*
X43460295Y35271078D02*
X43603152Y35271078D01*
X43603152Y35271078D02*
X43698390Y35223459D01*
X43698390Y35223459D02*
X43746009Y35175840D01*
X43746009Y35175840D02*
X43793628Y35080602D01*
X43793628Y35080602D02*
X43793628Y34699650D01*
X44269819Y36223459D02*
X44269819Y35652031D01*
X44269819Y35937745D02*
X43269819Y35937745D01*
X43269819Y35937745D02*
X43412676Y35842507D01*
X43412676Y35842507D02*
X43507914Y35747269D01*
X43507914Y35747269D02*
X43555533Y35652031D01*
X43365057Y36604412D02*
X43317438Y36652031D01*
X43317438Y36652031D02*
X43269819Y36747269D01*
X43269819Y36747269D02*
X43269819Y36985364D01*
X43269819Y36985364D02*
X43317438Y37080602D01*
X43317438Y37080602D02*
X43365057Y37128221D01*
X43365057Y37128221D02*
X43460295Y37175840D01*
X43460295Y37175840D02*
X43555533Y37175840D01*
X43555533Y37175840D02*
X43698390Y37128221D01*
X43698390Y37128221D02*
X44269819Y36556793D01*
X44269819Y36556793D02*
X44269819Y37175840D01*
X21409819Y28032031D02*
X20409819Y28032031D01*
X20409819Y28032031D02*
X20409819Y28270126D01*
X20409819Y28270126D02*
X20457438Y28412983D01*
X20457438Y28412983D02*
X20552676Y28508221D01*
X20552676Y28508221D02*
X20647914Y28555840D01*
X20647914Y28555840D02*
X20838390Y28603459D01*
X20838390Y28603459D02*
X20981247Y28603459D01*
X20981247Y28603459D02*
X21171723Y28555840D01*
X21171723Y28555840D02*
X21266961Y28508221D01*
X21266961Y28508221D02*
X21362200Y28412983D01*
X21362200Y28412983D02*
X21409819Y28270126D01*
X21409819Y28270126D02*
X21409819Y28032031D01*
X20409819Y29508221D02*
X20409819Y29032031D01*
X20409819Y29032031D02*
X20886009Y28984412D01*
X20886009Y28984412D02*
X20838390Y29032031D01*
X20838390Y29032031D02*
X20790771Y29127269D01*
X20790771Y29127269D02*
X20790771Y29365364D01*
X20790771Y29365364D02*
X20838390Y29460602D01*
X20838390Y29460602D02*
X20886009Y29508221D01*
X20886009Y29508221D02*
X20981247Y29555840D01*
X20981247Y29555840D02*
X21219342Y29555840D01*
X21219342Y29555840D02*
X21314580Y29508221D01*
X21314580Y29508221D02*
X21362200Y29460602D01*
X21362200Y29460602D02*
X21409819Y29365364D01*
X21409819Y29365364D02*
X21409819Y29127269D01*
X21409819Y29127269D02*
X21362200Y29032031D01*
X21362200Y29032031D02*
X21314580Y28984412D01*
X13789819Y36223459D02*
X13313628Y35890126D01*
X13789819Y35652031D02*
X12789819Y35652031D01*
X12789819Y35652031D02*
X12789819Y36032983D01*
X12789819Y36032983D02*
X12837438Y36128221D01*
X12837438Y36128221D02*
X12885057Y36175840D01*
X12885057Y36175840D02*
X12980295Y36223459D01*
X12980295Y36223459D02*
X13123152Y36223459D01*
X13123152Y36223459D02*
X13218390Y36175840D01*
X13218390Y36175840D02*
X13266009Y36128221D01*
X13266009Y36128221D02*
X13313628Y36032983D01*
X13313628Y36032983D02*
X13313628Y35652031D01*
X13123152Y37080602D02*
X13789819Y37080602D01*
X12742200Y36842507D02*
X13456485Y36604412D01*
X13456485Y36604412D02*
X13456485Y37223459D01*
X39189819Y27079650D02*
X38189819Y27079650D01*
X38189819Y27079650D02*
X38189819Y27317745D01*
X38189819Y27317745D02*
X38237438Y27460602D01*
X38237438Y27460602D02*
X38332676Y27555840D01*
X38332676Y27555840D02*
X38427914Y27603459D01*
X38427914Y27603459D02*
X38618390Y27651078D01*
X38618390Y27651078D02*
X38761247Y27651078D01*
X38761247Y27651078D02*
X38951723Y27603459D01*
X38951723Y27603459D02*
X39046961Y27555840D01*
X39046961Y27555840D02*
X39142200Y27460602D01*
X39142200Y27460602D02*
X39189819Y27317745D01*
X39189819Y27317745D02*
X39189819Y27079650D01*
X39189819Y28603459D02*
X39189819Y28032031D01*
X39189819Y28317745D02*
X38189819Y28317745D01*
X38189819Y28317745D02*
X38332676Y28222507D01*
X38332676Y28222507D02*
X38427914Y28127269D01*
X38427914Y28127269D02*
X38475533Y28032031D01*
X38189819Y29222507D02*
X38189819Y29317745D01*
X38189819Y29317745D02*
X38237438Y29412983D01*
X38237438Y29412983D02*
X38285057Y29460602D01*
X38285057Y29460602D02*
X38380295Y29508221D01*
X38380295Y29508221D02*
X38570771Y29555840D01*
X38570771Y29555840D02*
X38808866Y29555840D01*
X38808866Y29555840D02*
X38999342Y29508221D01*
X38999342Y29508221D02*
X39094580Y29460602D01*
X39094580Y29460602D02*
X39142200Y29412983D01*
X39142200Y29412983D02*
X39189819Y29317745D01*
X39189819Y29317745D02*
X39189819Y29222507D01*
X39189819Y29222507D02*
X39142200Y29127269D01*
X39142200Y29127269D02*
X39094580Y29079650D01*
X39094580Y29079650D02*
X38999342Y29032031D01*
X38999342Y29032031D02*
X38808866Y28984412D01*
X38808866Y28984412D02*
X38570771Y28984412D01*
X38570771Y28984412D02*
X38380295Y29032031D01*
X38380295Y29032031D02*
X38285057Y29079650D01*
X38285057Y29079650D02*
X38237438Y29127269D01*
X38237438Y29127269D02*
X38189819Y29222507D01*
X36649819Y28032031D02*
X35649819Y28032031D01*
X35649819Y28032031D02*
X35649819Y28270126D01*
X35649819Y28270126D02*
X35697438Y28412983D01*
X35697438Y28412983D02*
X35792676Y28508221D01*
X35792676Y28508221D02*
X35887914Y28555840D01*
X35887914Y28555840D02*
X36078390Y28603459D01*
X36078390Y28603459D02*
X36221247Y28603459D01*
X36221247Y28603459D02*
X36411723Y28555840D01*
X36411723Y28555840D02*
X36506961Y28508221D01*
X36506961Y28508221D02*
X36602200Y28412983D01*
X36602200Y28412983D02*
X36649819Y28270126D01*
X36649819Y28270126D02*
X36649819Y28032031D01*
X36649819Y29079650D02*
X36649819Y29270126D01*
X36649819Y29270126D02*
X36602200Y29365364D01*
X36602200Y29365364D02*
X36554580Y29412983D01*
X36554580Y29412983D02*
X36411723Y29508221D01*
X36411723Y29508221D02*
X36221247Y29555840D01*
X36221247Y29555840D02*
X35840295Y29555840D01*
X35840295Y29555840D02*
X35745057Y29508221D01*
X35745057Y29508221D02*
X35697438Y29460602D01*
X35697438Y29460602D02*
X35649819Y29365364D01*
X35649819Y29365364D02*
X35649819Y29174888D01*
X35649819Y29174888D02*
X35697438Y29079650D01*
X35697438Y29079650D02*
X35745057Y29032031D01*
X35745057Y29032031D02*
X35840295Y28984412D01*
X35840295Y28984412D02*
X36078390Y28984412D01*
X36078390Y28984412D02*
X36173628Y29032031D01*
X36173628Y29032031D02*
X36221247Y29079650D01*
X36221247Y29079650D02*
X36268866Y29174888D01*
X36268866Y29174888D02*
X36268866Y29365364D01*
X36268866Y29365364D02*
X36221247Y29460602D01*
X36221247Y29460602D02*
X36173628Y29508221D01*
X36173628Y29508221D02*
X36078390Y29555840D01*
X21409819Y36223459D02*
X20933628Y35890126D01*
X21409819Y35652031D02*
X20409819Y35652031D01*
X20409819Y35652031D02*
X20409819Y36032983D01*
X20409819Y36032983D02*
X20457438Y36128221D01*
X20457438Y36128221D02*
X20505057Y36175840D01*
X20505057Y36175840D02*
X20600295Y36223459D01*
X20600295Y36223459D02*
X20743152Y36223459D01*
X20743152Y36223459D02*
X20838390Y36175840D01*
X20838390Y36175840D02*
X20886009Y36128221D01*
X20886009Y36128221D02*
X20933628Y36032983D01*
X20933628Y36032983D02*
X20933628Y35652031D01*
X20409819Y37128221D02*
X20409819Y36652031D01*
X20409819Y36652031D02*
X20886009Y36604412D01*
X20886009Y36604412D02*
X20838390Y36652031D01*
X20838390Y36652031D02*
X20790771Y36747269D01*
X20790771Y36747269D02*
X20790771Y36985364D01*
X20790771Y36985364D02*
X20838390Y37080602D01*
X20838390Y37080602D02*
X20886009Y37128221D01*
X20886009Y37128221D02*
X20981247Y37175840D01*
X20981247Y37175840D02*
X21219342Y37175840D01*
X21219342Y37175840D02*
X21314580Y37128221D01*
X21314580Y37128221D02*
X21362200Y37080602D01*
X21362200Y37080602D02*
X21409819Y36985364D01*
X21409819Y36985364D02*
X21409819Y36747269D01*
X21409819Y36747269D02*
X21362200Y36652031D01*
X21362200Y36652031D02*
X21314580Y36604412D01*
X36649819Y36223459D02*
X36173628Y35890126D01*
X36649819Y35652031D02*
X35649819Y35652031D01*
X35649819Y35652031D02*
X35649819Y36032983D01*
X35649819Y36032983D02*
X35697438Y36128221D01*
X35697438Y36128221D02*
X35745057Y36175840D01*
X35745057Y36175840D02*
X35840295Y36223459D01*
X35840295Y36223459D02*
X35983152Y36223459D01*
X35983152Y36223459D02*
X36078390Y36175840D01*
X36078390Y36175840D02*
X36126009Y36128221D01*
X36126009Y36128221D02*
X36173628Y36032983D01*
X36173628Y36032983D02*
X36173628Y35652031D01*
X36649819Y36699650D02*
X36649819Y36890126D01*
X36649819Y36890126D02*
X36602200Y36985364D01*
X36602200Y36985364D02*
X36554580Y37032983D01*
X36554580Y37032983D02*
X36411723Y37128221D01*
X36411723Y37128221D02*
X36221247Y37175840D01*
X36221247Y37175840D02*
X35840295Y37175840D01*
X35840295Y37175840D02*
X35745057Y37128221D01*
X35745057Y37128221D02*
X35697438Y37080602D01*
X35697438Y37080602D02*
X35649819Y36985364D01*
X35649819Y36985364D02*
X35649819Y36794888D01*
X35649819Y36794888D02*
X35697438Y36699650D01*
X35697438Y36699650D02*
X35745057Y36652031D01*
X35745057Y36652031D02*
X35840295Y36604412D01*
X35840295Y36604412D02*
X36078390Y36604412D01*
X36078390Y36604412D02*
X36173628Y36652031D01*
X36173628Y36652031D02*
X36221247Y36699650D01*
X36221247Y36699650D02*
X36268866Y36794888D01*
X36268866Y36794888D02*
X36268866Y36985364D01*
X36268866Y36985364D02*
X36221247Y37080602D01*
X36221247Y37080602D02*
X36173628Y37128221D01*
X36173628Y37128221D02*
X36078390Y37175840D01*
X45559819Y20828096D02*
X46369342Y20828096D01*
X46369342Y20828096D02*
X46464580Y20875715D01*
X46464580Y20875715D02*
X46512200Y20923334D01*
X46512200Y20923334D02*
X46559819Y21018572D01*
X46559819Y21018572D02*
X46559819Y21209048D01*
X46559819Y21209048D02*
X46512200Y21304286D01*
X46512200Y21304286D02*
X46464580Y21351905D01*
X46464580Y21351905D02*
X46369342Y21399524D01*
X46369342Y21399524D02*
X45559819Y21399524D01*
X45559819Y21780477D02*
X45559819Y22399524D01*
X45559819Y22399524D02*
X45940771Y22066191D01*
X45940771Y22066191D02*
X45940771Y22209048D01*
X45940771Y22209048D02*
X45988390Y22304286D01*
X45988390Y22304286D02*
X46036009Y22351905D01*
X46036009Y22351905D02*
X46131247Y22399524D01*
X46131247Y22399524D02*
X46369342Y22399524D01*
X46369342Y22399524D02*
X46464580Y22351905D01*
X46464580Y22351905D02*
X46512200Y22304286D01*
X46512200Y22304286D02*
X46559819Y22209048D01*
X46559819Y22209048D02*
X46559819Y21923334D01*
X46559819Y21923334D02*
X46512200Y21828096D01*
X46512200Y21828096D02*
X46464580Y21780477D01*
X30319819Y20828096D02*
X31129342Y20828096D01*
X31129342Y20828096D02*
X31224580Y20875715D01*
X31224580Y20875715D02*
X31272200Y20923334D01*
X31272200Y20923334D02*
X31319819Y21018572D01*
X31319819Y21018572D02*
X31319819Y21209048D01*
X31319819Y21209048D02*
X31272200Y21304286D01*
X31272200Y21304286D02*
X31224580Y21351905D01*
X31224580Y21351905D02*
X31129342Y21399524D01*
X31129342Y21399524D02*
X30319819Y21399524D01*
X30415057Y21828096D02*
X30367438Y21875715D01*
X30367438Y21875715D02*
X30319819Y21970953D01*
X30319819Y21970953D02*
X30319819Y22209048D01*
X30319819Y22209048D02*
X30367438Y22304286D01*
X30367438Y22304286D02*
X30415057Y22351905D01*
X30415057Y22351905D02*
X30510295Y22399524D01*
X30510295Y22399524D02*
X30605533Y22399524D01*
X30605533Y22399524D02*
X30748390Y22351905D01*
X30748390Y22351905D02*
X31319819Y21780477D01*
X31319819Y21780477D02*
X31319819Y22399524D01*
X26489819Y36223459D02*
X26013628Y35890126D01*
X26489819Y35652031D02*
X25489819Y35652031D01*
X25489819Y35652031D02*
X25489819Y36032983D01*
X25489819Y36032983D02*
X25537438Y36128221D01*
X25537438Y36128221D02*
X25585057Y36175840D01*
X25585057Y36175840D02*
X25680295Y36223459D01*
X25680295Y36223459D02*
X25823152Y36223459D01*
X25823152Y36223459D02*
X25918390Y36175840D01*
X25918390Y36175840D02*
X25966009Y36128221D01*
X25966009Y36128221D02*
X26013628Y36032983D01*
X26013628Y36032983D02*
X26013628Y35652031D01*
X25489819Y36556793D02*
X25489819Y37223459D01*
X25489819Y37223459D02*
X26489819Y36794888D01*
X59509819Y27079650D02*
X58509819Y27079650D01*
X58509819Y27079650D02*
X58509819Y27317745D01*
X58509819Y27317745D02*
X58557438Y27460602D01*
X58557438Y27460602D02*
X58652676Y27555840D01*
X58652676Y27555840D02*
X58747914Y27603459D01*
X58747914Y27603459D02*
X58938390Y27651078D01*
X58938390Y27651078D02*
X59081247Y27651078D01*
X59081247Y27651078D02*
X59271723Y27603459D01*
X59271723Y27603459D02*
X59366961Y27555840D01*
X59366961Y27555840D02*
X59462200Y27460602D01*
X59462200Y27460602D02*
X59509819Y27317745D01*
X59509819Y27317745D02*
X59509819Y27079650D01*
X59509819Y28603459D02*
X59509819Y28032031D01*
X59509819Y28317745D02*
X58509819Y28317745D01*
X58509819Y28317745D02*
X58652676Y28222507D01*
X58652676Y28222507D02*
X58747914Y28127269D01*
X58747914Y28127269D02*
X58795533Y28032031D01*
X58509819Y29460602D02*
X58509819Y29270126D01*
X58509819Y29270126D02*
X58557438Y29174888D01*
X58557438Y29174888D02*
X58605057Y29127269D01*
X58605057Y29127269D02*
X58747914Y29032031D01*
X58747914Y29032031D02*
X58938390Y28984412D01*
X58938390Y28984412D02*
X59319342Y28984412D01*
X59319342Y28984412D02*
X59414580Y29032031D01*
X59414580Y29032031D02*
X59462200Y29079650D01*
X59462200Y29079650D02*
X59509819Y29174888D01*
X59509819Y29174888D02*
X59509819Y29365364D01*
X59509819Y29365364D02*
X59462200Y29460602D01*
X59462200Y29460602D02*
X59414580Y29508221D01*
X59414580Y29508221D02*
X59319342Y29555840D01*
X59319342Y29555840D02*
X59081247Y29555840D01*
X59081247Y29555840D02*
X58986009Y29508221D01*
X58986009Y29508221D02*
X58938390Y29460602D01*
X58938390Y29460602D02*
X58890771Y29365364D01*
X58890771Y29365364D02*
X58890771Y29174888D01*
X58890771Y29174888D02*
X58938390Y29079650D01*
X58938390Y29079650D02*
X58986009Y29032031D01*
X58986009Y29032031D02*
X59081247Y28984412D01*
X65859819Y6061078D02*
X65383628Y5727745D01*
X65859819Y5489650D02*
X64859819Y5489650D01*
X64859819Y5489650D02*
X64859819Y5870602D01*
X64859819Y5870602D02*
X64907438Y5965840D01*
X64907438Y5965840D02*
X64955057Y6013459D01*
X64955057Y6013459D02*
X65050295Y6061078D01*
X65050295Y6061078D02*
X65193152Y6061078D01*
X65193152Y6061078D02*
X65288390Y6013459D01*
X65288390Y6013459D02*
X65336009Y5965840D01*
X65336009Y5965840D02*
X65383628Y5870602D01*
X65383628Y5870602D02*
X65383628Y5489650D01*
X65859819Y7013459D02*
X65859819Y6442031D01*
X65859819Y6727745D02*
X64859819Y6727745D01*
X64859819Y6727745D02*
X65002676Y6632507D01*
X65002676Y6632507D02*
X65097914Y6537269D01*
X65097914Y6537269D02*
X65145533Y6442031D01*
X64859819Y7346793D02*
X64859819Y8013459D01*
X64859819Y8013459D02*
X65859819Y7584888D01*
X13789819Y28032031D02*
X12789819Y28032031D01*
X12789819Y28032031D02*
X12789819Y28270126D01*
X12789819Y28270126D02*
X12837438Y28412983D01*
X12837438Y28412983D02*
X12932676Y28508221D01*
X12932676Y28508221D02*
X13027914Y28555840D01*
X13027914Y28555840D02*
X13218390Y28603459D01*
X13218390Y28603459D02*
X13361247Y28603459D01*
X13361247Y28603459D02*
X13551723Y28555840D01*
X13551723Y28555840D02*
X13646961Y28508221D01*
X13646961Y28508221D02*
X13742200Y28412983D01*
X13742200Y28412983D02*
X13789819Y28270126D01*
X13789819Y28270126D02*
X13789819Y28032031D01*
X13123152Y29460602D02*
X13789819Y29460602D01*
X12742200Y29222507D02*
X13456485Y28984412D01*
X13456485Y28984412D02*
X13456485Y29603459D01*
X5379819Y3476667D02*
X6094104Y3476667D01*
X6094104Y3476667D02*
X6236961Y3429048D01*
X6236961Y3429048D02*
X6332200Y3333810D01*
X6332200Y3333810D02*
X6379819Y3190953D01*
X6379819Y3190953D02*
X6379819Y3095715D01*
X5475057Y3905239D02*
X5427438Y3952858D01*
X5427438Y3952858D02*
X5379819Y4048096D01*
X5379819Y4048096D02*
X5379819Y4286191D01*
X5379819Y4286191D02*
X5427438Y4381429D01*
X5427438Y4381429D02*
X5475057Y4429048D01*
X5475057Y4429048D02*
X5570295Y4476667D01*
X5570295Y4476667D02*
X5665533Y4476667D01*
X5665533Y4476667D02*
X5808390Y4429048D01*
X5808390Y4429048D02*
X6379819Y3857620D01*
X6379819Y3857620D02*
X6379819Y4476667D01*
X51889819Y35271078D02*
X51413628Y34937745D01*
X51889819Y34699650D02*
X50889819Y34699650D01*
X50889819Y34699650D02*
X50889819Y35080602D01*
X50889819Y35080602D02*
X50937438Y35175840D01*
X50937438Y35175840D02*
X50985057Y35223459D01*
X50985057Y35223459D02*
X51080295Y35271078D01*
X51080295Y35271078D02*
X51223152Y35271078D01*
X51223152Y35271078D02*
X51318390Y35223459D01*
X51318390Y35223459D02*
X51366009Y35175840D01*
X51366009Y35175840D02*
X51413628Y35080602D01*
X51413628Y35080602D02*
X51413628Y34699650D01*
X51889819Y36223459D02*
X51889819Y35652031D01*
X51889819Y35937745D02*
X50889819Y35937745D01*
X50889819Y35937745D02*
X51032676Y35842507D01*
X51032676Y35842507D02*
X51127914Y35747269D01*
X51127914Y35747269D02*
X51175533Y35652031D01*
X50889819Y36556793D02*
X50889819Y37175840D01*
X50889819Y37175840D02*
X51270771Y36842507D01*
X51270771Y36842507D02*
X51270771Y36985364D01*
X51270771Y36985364D02*
X51318390Y37080602D01*
X51318390Y37080602D02*
X51366009Y37128221D01*
X51366009Y37128221D02*
X51461247Y37175840D01*
X51461247Y37175840D02*
X51699342Y37175840D01*
X51699342Y37175840D02*
X51794580Y37128221D01*
X51794580Y37128221D02*
X51842200Y37080602D01*
X51842200Y37080602D02*
X51889819Y36985364D01*
X51889819Y36985364D02*
X51889819Y36699650D01*
X51889819Y36699650D02*
X51842200Y36604412D01*
X51842200Y36604412D02*
X51794580Y36556793D01*
X11249819Y36223459D02*
X10773628Y35890126D01*
X11249819Y35652031D02*
X10249819Y35652031D01*
X10249819Y35652031D02*
X10249819Y36032983D01*
X10249819Y36032983D02*
X10297438Y36128221D01*
X10297438Y36128221D02*
X10345057Y36175840D01*
X10345057Y36175840D02*
X10440295Y36223459D01*
X10440295Y36223459D02*
X10583152Y36223459D01*
X10583152Y36223459D02*
X10678390Y36175840D01*
X10678390Y36175840D02*
X10726009Y36128221D01*
X10726009Y36128221D02*
X10773628Y36032983D01*
X10773628Y36032983D02*
X10773628Y35652031D01*
X10249819Y36556793D02*
X10249819Y37175840D01*
X10249819Y37175840D02*
X10630771Y36842507D01*
X10630771Y36842507D02*
X10630771Y36985364D01*
X10630771Y36985364D02*
X10678390Y37080602D01*
X10678390Y37080602D02*
X10726009Y37128221D01*
X10726009Y37128221D02*
X10821247Y37175840D01*
X10821247Y37175840D02*
X11059342Y37175840D01*
X11059342Y37175840D02*
X11154580Y37128221D01*
X11154580Y37128221D02*
X11202200Y37080602D01*
X11202200Y37080602D02*
X11249819Y36985364D01*
X11249819Y36985364D02*
X11249819Y36699650D01*
X11249819Y36699650D02*
X11202200Y36604412D01*
X11202200Y36604412D02*
X11154580Y36556793D01*
X68399819Y6061078D02*
X67923628Y5727745D01*
X68399819Y5489650D02*
X67399819Y5489650D01*
X67399819Y5489650D02*
X67399819Y5870602D01*
X67399819Y5870602D02*
X67447438Y5965840D01*
X67447438Y5965840D02*
X67495057Y6013459D01*
X67495057Y6013459D02*
X67590295Y6061078D01*
X67590295Y6061078D02*
X67733152Y6061078D01*
X67733152Y6061078D02*
X67828390Y6013459D01*
X67828390Y6013459D02*
X67876009Y5965840D01*
X67876009Y5965840D02*
X67923628Y5870602D01*
X67923628Y5870602D02*
X67923628Y5489650D01*
X68399819Y7013459D02*
X68399819Y6442031D01*
X68399819Y6727745D02*
X67399819Y6727745D01*
X67399819Y6727745D02*
X67542676Y6632507D01*
X67542676Y6632507D02*
X67637914Y6537269D01*
X67637914Y6537269D02*
X67685533Y6442031D01*
X67828390Y7584888D02*
X67780771Y7489650D01*
X67780771Y7489650D02*
X67733152Y7442031D01*
X67733152Y7442031D02*
X67637914Y7394412D01*
X67637914Y7394412D02*
X67590295Y7394412D01*
X67590295Y7394412D02*
X67495057Y7442031D01*
X67495057Y7442031D02*
X67447438Y7489650D01*
X67447438Y7489650D02*
X67399819Y7584888D01*
X67399819Y7584888D02*
X67399819Y7775364D01*
X67399819Y7775364D02*
X67447438Y7870602D01*
X67447438Y7870602D02*
X67495057Y7918221D01*
X67495057Y7918221D02*
X67590295Y7965840D01*
X67590295Y7965840D02*
X67637914Y7965840D01*
X67637914Y7965840D02*
X67733152Y7918221D01*
X67733152Y7918221D02*
X67780771Y7870602D01*
X67780771Y7870602D02*
X67828390Y7775364D01*
X67828390Y7775364D02*
X67828390Y7584888D01*
X67828390Y7584888D02*
X67876009Y7489650D01*
X67876009Y7489650D02*
X67923628Y7442031D01*
X67923628Y7442031D02*
X68018866Y7394412D01*
X68018866Y7394412D02*
X68209342Y7394412D01*
X68209342Y7394412D02*
X68304580Y7442031D01*
X68304580Y7442031D02*
X68352200Y7489650D01*
X68352200Y7489650D02*
X68399819Y7584888D01*
X68399819Y7584888D02*
X68399819Y7775364D01*
X68399819Y7775364D02*
X68352200Y7870602D01*
X68352200Y7870602D02*
X68304580Y7918221D01*
X68304580Y7918221D02*
X68209342Y7965840D01*
X68209342Y7965840D02*
X68018866Y7965840D01*
X68018866Y7965840D02*
X67923628Y7918221D01*
X67923628Y7918221D02*
X67876009Y7870602D01*
X67876009Y7870602D02*
X67828390Y7775364D01*
X56969819Y27079650D02*
X55969819Y27079650D01*
X55969819Y27079650D02*
X55969819Y27317745D01*
X55969819Y27317745D02*
X56017438Y27460602D01*
X56017438Y27460602D02*
X56112676Y27555840D01*
X56112676Y27555840D02*
X56207914Y27603459D01*
X56207914Y27603459D02*
X56398390Y27651078D01*
X56398390Y27651078D02*
X56541247Y27651078D01*
X56541247Y27651078D02*
X56731723Y27603459D01*
X56731723Y27603459D02*
X56826961Y27555840D01*
X56826961Y27555840D02*
X56922200Y27460602D01*
X56922200Y27460602D02*
X56969819Y27317745D01*
X56969819Y27317745D02*
X56969819Y27079650D01*
X56969819Y28603459D02*
X56969819Y28032031D01*
X56969819Y28317745D02*
X55969819Y28317745D01*
X55969819Y28317745D02*
X56112676Y28222507D01*
X56112676Y28222507D02*
X56207914Y28127269D01*
X56207914Y28127269D02*
X56255533Y28032031D01*
X55969819Y29508221D02*
X55969819Y29032031D01*
X55969819Y29032031D02*
X56446009Y28984412D01*
X56446009Y28984412D02*
X56398390Y29032031D01*
X56398390Y29032031D02*
X56350771Y29127269D01*
X56350771Y29127269D02*
X56350771Y29365364D01*
X56350771Y29365364D02*
X56398390Y29460602D01*
X56398390Y29460602D02*
X56446009Y29508221D01*
X56446009Y29508221D02*
X56541247Y29555840D01*
X56541247Y29555840D02*
X56779342Y29555840D01*
X56779342Y29555840D02*
X56874580Y29508221D01*
X56874580Y29508221D02*
X56922200Y29460602D01*
X56922200Y29460602D02*
X56969819Y29365364D01*
X56969819Y29365364D02*
X56969819Y29127269D01*
X56969819Y29127269D02*
X56922200Y29032031D01*
X56922200Y29032031D02*
X56874580Y28984412D01*
X15079819Y20828096D02*
X15889342Y20828096D01*
X15889342Y20828096D02*
X15984580Y20875715D01*
X15984580Y20875715D02*
X16032200Y20923334D01*
X16032200Y20923334D02*
X16079819Y21018572D01*
X16079819Y21018572D02*
X16079819Y21209048D01*
X16079819Y21209048D02*
X16032200Y21304286D01*
X16032200Y21304286D02*
X15984580Y21351905D01*
X15984580Y21351905D02*
X15889342Y21399524D01*
X15889342Y21399524D02*
X15079819Y21399524D01*
X16079819Y22399524D02*
X16079819Y21828096D01*
X16079819Y22113810D02*
X15079819Y22113810D01*
X15079819Y22113810D02*
X15222676Y22018572D01*
X15222676Y22018572D02*
X15317914Y21923334D01*
X15317914Y21923334D02*
X15365533Y21828096D01*
X41729819Y27079650D02*
X40729819Y27079650D01*
X40729819Y27079650D02*
X40729819Y27317745D01*
X40729819Y27317745D02*
X40777438Y27460602D01*
X40777438Y27460602D02*
X40872676Y27555840D01*
X40872676Y27555840D02*
X40967914Y27603459D01*
X40967914Y27603459D02*
X41158390Y27651078D01*
X41158390Y27651078D02*
X41301247Y27651078D01*
X41301247Y27651078D02*
X41491723Y27603459D01*
X41491723Y27603459D02*
X41586961Y27555840D01*
X41586961Y27555840D02*
X41682200Y27460602D01*
X41682200Y27460602D02*
X41729819Y27317745D01*
X41729819Y27317745D02*
X41729819Y27079650D01*
X41729819Y28603459D02*
X41729819Y28032031D01*
X41729819Y28317745D02*
X40729819Y28317745D01*
X40729819Y28317745D02*
X40872676Y28222507D01*
X40872676Y28222507D02*
X40967914Y28127269D01*
X40967914Y28127269D02*
X41015533Y28032031D01*
X41729819Y29555840D02*
X41729819Y28984412D01*
X41729819Y29270126D02*
X40729819Y29270126D01*
X40729819Y29270126D02*
X40872676Y29174888D01*
X40872676Y29174888D02*
X40967914Y29079650D01*
X40967914Y29079650D02*
X41015533Y28984412D01*
X6169819Y28032031D02*
X5169819Y28032031D01*
X5169819Y28032031D02*
X5169819Y28270126D01*
X5169819Y28270126D02*
X5217438Y28412983D01*
X5217438Y28412983D02*
X5312676Y28508221D01*
X5312676Y28508221D02*
X5407914Y28555840D01*
X5407914Y28555840D02*
X5598390Y28603459D01*
X5598390Y28603459D02*
X5741247Y28603459D01*
X5741247Y28603459D02*
X5931723Y28555840D01*
X5931723Y28555840D02*
X6026961Y28508221D01*
X6026961Y28508221D02*
X6122200Y28412983D01*
X6122200Y28412983D02*
X6169819Y28270126D01*
X6169819Y28270126D02*
X6169819Y28032031D01*
X6169819Y29555840D02*
X6169819Y28984412D01*
X6169819Y29270126D02*
X5169819Y29270126D01*
X5169819Y29270126D02*
X5312676Y29174888D01*
X5312676Y29174888D02*
X5407914Y29079650D01*
X5407914Y29079650D02*
X5455533Y28984412D01*
X59509819Y35271078D02*
X59033628Y34937745D01*
X59509819Y34699650D02*
X58509819Y34699650D01*
X58509819Y34699650D02*
X58509819Y35080602D01*
X58509819Y35080602D02*
X58557438Y35175840D01*
X58557438Y35175840D02*
X58605057Y35223459D01*
X58605057Y35223459D02*
X58700295Y35271078D01*
X58700295Y35271078D02*
X58843152Y35271078D01*
X58843152Y35271078D02*
X58938390Y35223459D01*
X58938390Y35223459D02*
X58986009Y35175840D01*
X58986009Y35175840D02*
X59033628Y35080602D01*
X59033628Y35080602D02*
X59033628Y34699650D01*
X59509819Y36223459D02*
X59509819Y35652031D01*
X59509819Y35937745D02*
X58509819Y35937745D01*
X58509819Y35937745D02*
X58652676Y35842507D01*
X58652676Y35842507D02*
X58747914Y35747269D01*
X58747914Y35747269D02*
X58795533Y35652031D01*
X58509819Y37080602D02*
X58509819Y36890126D01*
X58509819Y36890126D02*
X58557438Y36794888D01*
X58557438Y36794888D02*
X58605057Y36747269D01*
X58605057Y36747269D02*
X58747914Y36652031D01*
X58747914Y36652031D02*
X58938390Y36604412D01*
X58938390Y36604412D02*
X59319342Y36604412D01*
X59319342Y36604412D02*
X59414580Y36652031D01*
X59414580Y36652031D02*
X59462200Y36699650D01*
X59462200Y36699650D02*
X59509819Y36794888D01*
X59509819Y36794888D02*
X59509819Y36985364D01*
X59509819Y36985364D02*
X59462200Y37080602D01*
X59462200Y37080602D02*
X59414580Y37128221D01*
X59414580Y37128221D02*
X59319342Y37175840D01*
X59319342Y37175840D02*
X59081247Y37175840D01*
X59081247Y37175840D02*
X58986009Y37128221D01*
X58986009Y37128221D02*
X58938390Y37080602D01*
X58938390Y37080602D02*
X58890771Y36985364D01*
X58890771Y36985364D02*
X58890771Y36794888D01*
X58890771Y36794888D02*
X58938390Y36699650D01*
X58938390Y36699650D02*
X58986009Y36652031D01*
X58986009Y36652031D02*
X59081247Y36604412D01*
X26489819Y28032031D02*
X25489819Y28032031D01*
X25489819Y28032031D02*
X25489819Y28270126D01*
X25489819Y28270126D02*
X25537438Y28412983D01*
X25537438Y28412983D02*
X25632676Y28508221D01*
X25632676Y28508221D02*
X25727914Y28555840D01*
X25727914Y28555840D02*
X25918390Y28603459D01*
X25918390Y28603459D02*
X26061247Y28603459D01*
X26061247Y28603459D02*
X26251723Y28555840D01*
X26251723Y28555840D02*
X26346961Y28508221D01*
X26346961Y28508221D02*
X26442200Y28412983D01*
X26442200Y28412983D02*
X26489819Y28270126D01*
X26489819Y28270126D02*
X26489819Y28032031D01*
X25489819Y28936793D02*
X25489819Y29603459D01*
X25489819Y29603459D02*
X26489819Y29174888D01*
X8709819Y36223459D02*
X8233628Y35890126D01*
X8709819Y35652031D02*
X7709819Y35652031D01*
X7709819Y35652031D02*
X7709819Y36032983D01*
X7709819Y36032983D02*
X7757438Y36128221D01*
X7757438Y36128221D02*
X7805057Y36175840D01*
X7805057Y36175840D02*
X7900295Y36223459D01*
X7900295Y36223459D02*
X8043152Y36223459D01*
X8043152Y36223459D02*
X8138390Y36175840D01*
X8138390Y36175840D02*
X8186009Y36128221D01*
X8186009Y36128221D02*
X8233628Y36032983D01*
X8233628Y36032983D02*
X8233628Y35652031D01*
X7805057Y36604412D02*
X7757438Y36652031D01*
X7757438Y36652031D02*
X7709819Y36747269D01*
X7709819Y36747269D02*
X7709819Y36985364D01*
X7709819Y36985364D02*
X7757438Y37080602D01*
X7757438Y37080602D02*
X7805057Y37128221D01*
X7805057Y37128221D02*
X7900295Y37175840D01*
X7900295Y37175840D02*
X7995533Y37175840D01*
X7995533Y37175840D02*
X8138390Y37128221D01*
X8138390Y37128221D02*
X8709819Y36556793D01*
X8709819Y36556793D02*
X8709819Y37175840D01*
X23949819Y28032031D02*
X22949819Y28032031D01*
X22949819Y28032031D02*
X22949819Y28270126D01*
X22949819Y28270126D02*
X22997438Y28412983D01*
X22997438Y28412983D02*
X23092676Y28508221D01*
X23092676Y28508221D02*
X23187914Y28555840D01*
X23187914Y28555840D02*
X23378390Y28603459D01*
X23378390Y28603459D02*
X23521247Y28603459D01*
X23521247Y28603459D02*
X23711723Y28555840D01*
X23711723Y28555840D02*
X23806961Y28508221D01*
X23806961Y28508221D02*
X23902200Y28412983D01*
X23902200Y28412983D02*
X23949819Y28270126D01*
X23949819Y28270126D02*
X23949819Y28032031D01*
X22949819Y29460602D02*
X22949819Y29270126D01*
X22949819Y29270126D02*
X22997438Y29174888D01*
X22997438Y29174888D02*
X23045057Y29127269D01*
X23045057Y29127269D02*
X23187914Y29032031D01*
X23187914Y29032031D02*
X23378390Y28984412D01*
X23378390Y28984412D02*
X23759342Y28984412D01*
X23759342Y28984412D02*
X23854580Y29032031D01*
X23854580Y29032031D02*
X23902200Y29079650D01*
X23902200Y29079650D02*
X23949819Y29174888D01*
X23949819Y29174888D02*
X23949819Y29365364D01*
X23949819Y29365364D02*
X23902200Y29460602D01*
X23902200Y29460602D02*
X23854580Y29508221D01*
X23854580Y29508221D02*
X23759342Y29555840D01*
X23759342Y29555840D02*
X23521247Y29555840D01*
X23521247Y29555840D02*
X23426009Y29508221D01*
X23426009Y29508221D02*
X23378390Y29460602D01*
X23378390Y29460602D02*
X23330771Y29365364D01*
X23330771Y29365364D02*
X23330771Y29174888D01*
X23330771Y29174888D02*
X23378390Y29079650D01*
X23378390Y29079650D02*
X23426009Y29032031D01*
X23426009Y29032031D02*
X23521247Y28984412D01*
X60799819Y20828096D02*
X61609342Y20828096D01*
X61609342Y20828096D02*
X61704580Y20875715D01*
X61704580Y20875715D02*
X61752200Y20923334D01*
X61752200Y20923334D02*
X61799819Y21018572D01*
X61799819Y21018572D02*
X61799819Y21209048D01*
X61799819Y21209048D02*
X61752200Y21304286D01*
X61752200Y21304286D02*
X61704580Y21351905D01*
X61704580Y21351905D02*
X61609342Y21399524D01*
X61609342Y21399524D02*
X60799819Y21399524D01*
X61133152Y22304286D02*
X61799819Y22304286D01*
X60752200Y22066191D02*
X61466485Y21828096D01*
X61466485Y21828096D02*
X61466485Y22447143D01*
X29029819Y36223459D02*
X28553628Y35890126D01*
X29029819Y35652031D02*
X28029819Y35652031D01*
X28029819Y35652031D02*
X28029819Y36032983D01*
X28029819Y36032983D02*
X28077438Y36128221D01*
X28077438Y36128221D02*
X28125057Y36175840D01*
X28125057Y36175840D02*
X28220295Y36223459D01*
X28220295Y36223459D02*
X28363152Y36223459D01*
X28363152Y36223459D02*
X28458390Y36175840D01*
X28458390Y36175840D02*
X28506009Y36128221D01*
X28506009Y36128221D02*
X28553628Y36032983D01*
X28553628Y36032983D02*
X28553628Y35652031D01*
X28458390Y36794888D02*
X28410771Y36699650D01*
X28410771Y36699650D02*
X28363152Y36652031D01*
X28363152Y36652031D02*
X28267914Y36604412D01*
X28267914Y36604412D02*
X28220295Y36604412D01*
X28220295Y36604412D02*
X28125057Y36652031D01*
X28125057Y36652031D02*
X28077438Y36699650D01*
X28077438Y36699650D02*
X28029819Y36794888D01*
X28029819Y36794888D02*
X28029819Y36985364D01*
X28029819Y36985364D02*
X28077438Y37080602D01*
X28077438Y37080602D02*
X28125057Y37128221D01*
X28125057Y37128221D02*
X28220295Y37175840D01*
X28220295Y37175840D02*
X28267914Y37175840D01*
X28267914Y37175840D02*
X28363152Y37128221D01*
X28363152Y37128221D02*
X28410771Y37080602D01*
X28410771Y37080602D02*
X28458390Y36985364D01*
X28458390Y36985364D02*
X28458390Y36794888D01*
X28458390Y36794888D02*
X28506009Y36699650D01*
X28506009Y36699650D02*
X28553628Y36652031D01*
X28553628Y36652031D02*
X28648866Y36604412D01*
X28648866Y36604412D02*
X28839342Y36604412D01*
X28839342Y36604412D02*
X28934580Y36652031D01*
X28934580Y36652031D02*
X28982200Y36699650D01*
X28982200Y36699650D02*
X29029819Y36794888D01*
X29029819Y36794888D02*
X29029819Y36985364D01*
X29029819Y36985364D02*
X28982200Y37080602D01*
X28982200Y37080602D02*
X28934580Y37128221D01*
X28934580Y37128221D02*
X28839342Y37175840D01*
X28839342Y37175840D02*
X28648866Y37175840D01*
X28648866Y37175840D02*
X28553628Y37128221D01*
X28553628Y37128221D02*
X28506009Y37080602D01*
X28506009Y37080602D02*
X28458390Y36985364D01*
X41729819Y35271078D02*
X41253628Y34937745D01*
X41729819Y34699650D02*
X40729819Y34699650D01*
X40729819Y34699650D02*
X40729819Y35080602D01*
X40729819Y35080602D02*
X40777438Y35175840D01*
X40777438Y35175840D02*
X40825057Y35223459D01*
X40825057Y35223459D02*
X40920295Y35271078D01*
X40920295Y35271078D02*
X41063152Y35271078D01*
X41063152Y35271078D02*
X41158390Y35223459D01*
X41158390Y35223459D02*
X41206009Y35175840D01*
X41206009Y35175840D02*
X41253628Y35080602D01*
X41253628Y35080602D02*
X41253628Y34699650D01*
X41729819Y36223459D02*
X41729819Y35652031D01*
X41729819Y35937745D02*
X40729819Y35937745D01*
X40729819Y35937745D02*
X40872676Y35842507D01*
X40872676Y35842507D02*
X40967914Y35747269D01*
X40967914Y35747269D02*
X41015533Y35652031D01*
X41729819Y37175840D02*
X41729819Y36604412D01*
X41729819Y36890126D02*
X40729819Y36890126D01*
X40729819Y36890126D02*
X40872676Y36794888D01*
X40872676Y36794888D02*
X40967914Y36699650D01*
X40967914Y36699650D02*
X41015533Y36604412D01*
X70939819Y6061078D02*
X70463628Y5727745D01*
X70939819Y5489650D02*
X69939819Y5489650D01*
X69939819Y5489650D02*
X69939819Y5870602D01*
X69939819Y5870602D02*
X69987438Y5965840D01*
X69987438Y5965840D02*
X70035057Y6013459D01*
X70035057Y6013459D02*
X70130295Y6061078D01*
X70130295Y6061078D02*
X70273152Y6061078D01*
X70273152Y6061078D02*
X70368390Y6013459D01*
X70368390Y6013459D02*
X70416009Y5965840D01*
X70416009Y5965840D02*
X70463628Y5870602D01*
X70463628Y5870602D02*
X70463628Y5489650D01*
X70939819Y7013459D02*
X70939819Y6442031D01*
X70939819Y6727745D02*
X69939819Y6727745D01*
X69939819Y6727745D02*
X70082676Y6632507D01*
X70082676Y6632507D02*
X70177914Y6537269D01*
X70177914Y6537269D02*
X70225533Y6442031D01*
X70939819Y7489650D02*
X70939819Y7680126D01*
X70939819Y7680126D02*
X70892200Y7775364D01*
X70892200Y7775364D02*
X70844580Y7822983D01*
X70844580Y7822983D02*
X70701723Y7918221D01*
X70701723Y7918221D02*
X70511247Y7965840D01*
X70511247Y7965840D02*
X70130295Y7965840D01*
X70130295Y7965840D02*
X70035057Y7918221D01*
X70035057Y7918221D02*
X69987438Y7870602D01*
X69987438Y7870602D02*
X69939819Y7775364D01*
X69939819Y7775364D02*
X69939819Y7584888D01*
X69939819Y7584888D02*
X69987438Y7489650D01*
X69987438Y7489650D02*
X70035057Y7442031D01*
X70035057Y7442031D02*
X70130295Y7394412D01*
X70130295Y7394412D02*
X70368390Y7394412D01*
X70368390Y7394412D02*
X70463628Y7442031D01*
X70463628Y7442031D02*
X70511247Y7489650D01*
X70511247Y7489650D02*
X70558866Y7584888D01*
X70558866Y7584888D02*
X70558866Y7775364D01*
X70558866Y7775364D02*
X70511247Y7870602D01*
X70511247Y7870602D02*
X70463628Y7918221D01*
X70463628Y7918221D02*
X70368390Y7965840D01*
X54429819Y27079650D02*
X53429819Y27079650D01*
X53429819Y27079650D02*
X53429819Y27317745D01*
X53429819Y27317745D02*
X53477438Y27460602D01*
X53477438Y27460602D02*
X53572676Y27555840D01*
X53572676Y27555840D02*
X53667914Y27603459D01*
X53667914Y27603459D02*
X53858390Y27651078D01*
X53858390Y27651078D02*
X54001247Y27651078D01*
X54001247Y27651078D02*
X54191723Y27603459D01*
X54191723Y27603459D02*
X54286961Y27555840D01*
X54286961Y27555840D02*
X54382200Y27460602D01*
X54382200Y27460602D02*
X54429819Y27317745D01*
X54429819Y27317745D02*
X54429819Y27079650D01*
X54429819Y28603459D02*
X54429819Y28032031D01*
X54429819Y28317745D02*
X53429819Y28317745D01*
X53429819Y28317745D02*
X53572676Y28222507D01*
X53572676Y28222507D02*
X53667914Y28127269D01*
X53667914Y28127269D02*
X53715533Y28032031D01*
X53763152Y29460602D02*
X54429819Y29460602D01*
X53382200Y29222507D02*
X54096485Y28984412D01*
X54096485Y28984412D02*
X54096485Y29603459D01*
X56969819Y35271078D02*
X56493628Y34937745D01*
X56969819Y34699650D02*
X55969819Y34699650D01*
X55969819Y34699650D02*
X55969819Y35080602D01*
X55969819Y35080602D02*
X56017438Y35175840D01*
X56017438Y35175840D02*
X56065057Y35223459D01*
X56065057Y35223459D02*
X56160295Y35271078D01*
X56160295Y35271078D02*
X56303152Y35271078D01*
X56303152Y35271078D02*
X56398390Y35223459D01*
X56398390Y35223459D02*
X56446009Y35175840D01*
X56446009Y35175840D02*
X56493628Y35080602D01*
X56493628Y35080602D02*
X56493628Y34699650D01*
X56969819Y36223459D02*
X56969819Y35652031D01*
X56969819Y35937745D02*
X55969819Y35937745D01*
X55969819Y35937745D02*
X56112676Y35842507D01*
X56112676Y35842507D02*
X56207914Y35747269D01*
X56207914Y35747269D02*
X56255533Y35652031D01*
X55969819Y37128221D02*
X55969819Y36652031D01*
X55969819Y36652031D02*
X56446009Y36604412D01*
X56446009Y36604412D02*
X56398390Y36652031D01*
X56398390Y36652031D02*
X56350771Y36747269D01*
X56350771Y36747269D02*
X56350771Y36985364D01*
X56350771Y36985364D02*
X56398390Y37080602D01*
X56398390Y37080602D02*
X56446009Y37128221D01*
X56446009Y37128221D02*
X56541247Y37175840D01*
X56541247Y37175840D02*
X56779342Y37175840D01*
X56779342Y37175840D02*
X56874580Y37128221D01*
X56874580Y37128221D02*
X56922200Y37080602D01*
X56922200Y37080602D02*
X56969819Y36985364D01*
X56969819Y36985364D02*
X56969819Y36747269D01*
X56969819Y36747269D02*
X56922200Y36652031D01*
X56922200Y36652031D02*
X56874580Y36604412D01*
X63839819Y20828096D02*
X64649342Y20828096D01*
X64649342Y20828096D02*
X64744580Y20875715D01*
X64744580Y20875715D02*
X64792200Y20923334D01*
X64792200Y20923334D02*
X64839819Y21018572D01*
X64839819Y21018572D02*
X64839819Y21209048D01*
X64839819Y21209048D02*
X64792200Y21304286D01*
X64792200Y21304286D02*
X64744580Y21351905D01*
X64744580Y21351905D02*
X64649342Y21399524D01*
X64649342Y21399524D02*
X63839819Y21399524D01*
X63839819Y22351905D02*
X63839819Y21875715D01*
X63839819Y21875715D02*
X64316009Y21828096D01*
X64316009Y21828096D02*
X64268390Y21875715D01*
X64268390Y21875715D02*
X64220771Y21970953D01*
X64220771Y21970953D02*
X64220771Y22209048D01*
X64220771Y22209048D02*
X64268390Y22304286D01*
X64268390Y22304286D02*
X64316009Y22351905D01*
X64316009Y22351905D02*
X64411247Y22399524D01*
X64411247Y22399524D02*
X64649342Y22399524D01*
X64649342Y22399524D02*
X64744580Y22351905D01*
X64744580Y22351905D02*
X64792200Y22304286D01*
X64792200Y22304286D02*
X64839819Y22209048D01*
X64839819Y22209048D02*
X64839819Y21970953D01*
X64839819Y21970953D02*
X64792200Y21875715D01*
X64792200Y21875715D02*
X64744580Y21828096D01*
X11249819Y28032031D02*
X10249819Y28032031D01*
X10249819Y28032031D02*
X10249819Y28270126D01*
X10249819Y28270126D02*
X10297438Y28412983D01*
X10297438Y28412983D02*
X10392676Y28508221D01*
X10392676Y28508221D02*
X10487914Y28555840D01*
X10487914Y28555840D02*
X10678390Y28603459D01*
X10678390Y28603459D02*
X10821247Y28603459D01*
X10821247Y28603459D02*
X11011723Y28555840D01*
X11011723Y28555840D02*
X11106961Y28508221D01*
X11106961Y28508221D02*
X11202200Y28412983D01*
X11202200Y28412983D02*
X11249819Y28270126D01*
X11249819Y28270126D02*
X11249819Y28032031D01*
X10249819Y28936793D02*
X10249819Y29555840D01*
X10249819Y29555840D02*
X10630771Y29222507D01*
X10630771Y29222507D02*
X10630771Y29365364D01*
X10630771Y29365364D02*
X10678390Y29460602D01*
X10678390Y29460602D02*
X10726009Y29508221D01*
X10726009Y29508221D02*
X10821247Y29555840D01*
X10821247Y29555840D02*
X11059342Y29555840D01*
X11059342Y29555840D02*
X11154580Y29508221D01*
X11154580Y29508221D02*
X11202200Y29460602D01*
X11202200Y29460602D02*
X11249819Y29365364D01*
X11249819Y29365364D02*
X11249819Y29079650D01*
X11249819Y29079650D02*
X11202200Y28984412D01*
X11202200Y28984412D02*
X11154580Y28936793D01*
X73479819Y6061078D02*
X73003628Y5727745D01*
X73479819Y5489650D02*
X72479819Y5489650D01*
X72479819Y5489650D02*
X72479819Y5870602D01*
X72479819Y5870602D02*
X72527438Y5965840D01*
X72527438Y5965840D02*
X72575057Y6013459D01*
X72575057Y6013459D02*
X72670295Y6061078D01*
X72670295Y6061078D02*
X72813152Y6061078D01*
X72813152Y6061078D02*
X72908390Y6013459D01*
X72908390Y6013459D02*
X72956009Y5965840D01*
X72956009Y5965840D02*
X73003628Y5870602D01*
X73003628Y5870602D02*
X73003628Y5489650D01*
X72575057Y6442031D02*
X72527438Y6489650D01*
X72527438Y6489650D02*
X72479819Y6584888D01*
X72479819Y6584888D02*
X72479819Y6822983D01*
X72479819Y6822983D02*
X72527438Y6918221D01*
X72527438Y6918221D02*
X72575057Y6965840D01*
X72575057Y6965840D02*
X72670295Y7013459D01*
X72670295Y7013459D02*
X72765533Y7013459D01*
X72765533Y7013459D02*
X72908390Y6965840D01*
X72908390Y6965840D02*
X73479819Y6394412D01*
X73479819Y6394412D02*
X73479819Y7013459D01*
X72479819Y7632507D02*
X72479819Y7727745D01*
X72479819Y7727745D02*
X72527438Y7822983D01*
X72527438Y7822983D02*
X72575057Y7870602D01*
X72575057Y7870602D02*
X72670295Y7918221D01*
X72670295Y7918221D02*
X72860771Y7965840D01*
X72860771Y7965840D02*
X73098866Y7965840D01*
X73098866Y7965840D02*
X73289342Y7918221D01*
X73289342Y7918221D02*
X73384580Y7870602D01*
X73384580Y7870602D02*
X73432200Y7822983D01*
X73432200Y7822983D02*
X73479819Y7727745D01*
X73479819Y7727745D02*
X73479819Y7632507D01*
X73479819Y7632507D02*
X73432200Y7537269D01*
X73432200Y7537269D02*
X73384580Y7489650D01*
X73384580Y7489650D02*
X73289342Y7442031D01*
X73289342Y7442031D02*
X73098866Y7394412D01*
X73098866Y7394412D02*
X72860771Y7394412D01*
X72860771Y7394412D02*
X72670295Y7442031D01*
X72670295Y7442031D02*
X72575057Y7489650D01*
X72575057Y7489650D02*
X72527438Y7537269D01*
X72527438Y7537269D02*
X72479819Y7632507D01*
X6169819Y36223459D02*
X5693628Y35890126D01*
X6169819Y35652031D02*
X5169819Y35652031D01*
X5169819Y35652031D02*
X5169819Y36032983D01*
X5169819Y36032983D02*
X5217438Y36128221D01*
X5217438Y36128221D02*
X5265057Y36175840D01*
X5265057Y36175840D02*
X5360295Y36223459D01*
X5360295Y36223459D02*
X5503152Y36223459D01*
X5503152Y36223459D02*
X5598390Y36175840D01*
X5598390Y36175840D02*
X5646009Y36128221D01*
X5646009Y36128221D02*
X5693628Y36032983D01*
X5693628Y36032983D02*
X5693628Y35652031D01*
X6169819Y37175840D02*
X6169819Y36604412D01*
X6169819Y36890126D02*
X5169819Y36890126D01*
X5169819Y36890126D02*
X5312676Y36794888D01*
X5312676Y36794888D02*
X5407914Y36699650D01*
X5407914Y36699650D02*
X5455533Y36604412D01*
X54429819Y35271078D02*
X53953628Y34937745D01*
X54429819Y34699650D02*
X53429819Y34699650D01*
X53429819Y34699650D02*
X53429819Y35080602D01*
X53429819Y35080602D02*
X53477438Y35175840D01*
X53477438Y35175840D02*
X53525057Y35223459D01*
X53525057Y35223459D02*
X53620295Y35271078D01*
X53620295Y35271078D02*
X53763152Y35271078D01*
X53763152Y35271078D02*
X53858390Y35223459D01*
X53858390Y35223459D02*
X53906009Y35175840D01*
X53906009Y35175840D02*
X53953628Y35080602D01*
X53953628Y35080602D02*
X53953628Y34699650D01*
X54429819Y36223459D02*
X54429819Y35652031D01*
X54429819Y35937745D02*
X53429819Y35937745D01*
X53429819Y35937745D02*
X53572676Y35842507D01*
X53572676Y35842507D02*
X53667914Y35747269D01*
X53667914Y35747269D02*
X53715533Y35652031D01*
X53763152Y37080602D02*
X54429819Y37080602D01*
X53382200Y36842507D02*
X54096485Y36604412D01*
X54096485Y36604412D02*
X54096485Y37223459D01*
X29029819Y28032031D02*
X28029819Y28032031D01*
X28029819Y28032031D02*
X28029819Y28270126D01*
X28029819Y28270126D02*
X28077438Y28412983D01*
X28077438Y28412983D02*
X28172676Y28508221D01*
X28172676Y28508221D02*
X28267914Y28555840D01*
X28267914Y28555840D02*
X28458390Y28603459D01*
X28458390Y28603459D02*
X28601247Y28603459D01*
X28601247Y28603459D02*
X28791723Y28555840D01*
X28791723Y28555840D02*
X28886961Y28508221D01*
X28886961Y28508221D02*
X28982200Y28412983D01*
X28982200Y28412983D02*
X29029819Y28270126D01*
X29029819Y28270126D02*
X29029819Y28032031D01*
X28458390Y29174888D02*
X28410771Y29079650D01*
X28410771Y29079650D02*
X28363152Y29032031D01*
X28363152Y29032031D02*
X28267914Y28984412D01*
X28267914Y28984412D02*
X28220295Y28984412D01*
X28220295Y28984412D02*
X28125057Y29032031D01*
X28125057Y29032031D02*
X28077438Y29079650D01*
X28077438Y29079650D02*
X28029819Y29174888D01*
X28029819Y29174888D02*
X28029819Y29365364D01*
X28029819Y29365364D02*
X28077438Y29460602D01*
X28077438Y29460602D02*
X28125057Y29508221D01*
X28125057Y29508221D02*
X28220295Y29555840D01*
X28220295Y29555840D02*
X28267914Y29555840D01*
X28267914Y29555840D02*
X28363152Y29508221D01*
X28363152Y29508221D02*
X28410771Y29460602D01*
X28410771Y29460602D02*
X28458390Y29365364D01*
X28458390Y29365364D02*
X28458390Y29174888D01*
X28458390Y29174888D02*
X28506009Y29079650D01*
X28506009Y29079650D02*
X28553628Y29032031D01*
X28553628Y29032031D02*
X28648866Y28984412D01*
X28648866Y28984412D02*
X28839342Y28984412D01*
X28839342Y28984412D02*
X28934580Y29032031D01*
X28934580Y29032031D02*
X28982200Y29079650D01*
X28982200Y29079650D02*
X29029819Y29174888D01*
X29029819Y29174888D02*
X29029819Y29365364D01*
X29029819Y29365364D02*
X28982200Y29460602D01*
X28982200Y29460602D02*
X28934580Y29508221D01*
X28934580Y29508221D02*
X28839342Y29555840D01*
X28839342Y29555840D02*
X28648866Y29555840D01*
X28648866Y29555840D02*
X28553628Y29508221D01*
X28553628Y29508221D02*
X28506009Y29460602D01*
X28506009Y29460602D02*
X28458390Y29365364D01*
X23949819Y36223459D02*
X23473628Y35890126D01*
X23949819Y35652031D02*
X22949819Y35652031D01*
X22949819Y35652031D02*
X22949819Y36032983D01*
X22949819Y36032983D02*
X22997438Y36128221D01*
X22997438Y36128221D02*
X23045057Y36175840D01*
X23045057Y36175840D02*
X23140295Y36223459D01*
X23140295Y36223459D02*
X23283152Y36223459D01*
X23283152Y36223459D02*
X23378390Y36175840D01*
X23378390Y36175840D02*
X23426009Y36128221D01*
X23426009Y36128221D02*
X23473628Y36032983D01*
X23473628Y36032983D02*
X23473628Y35652031D01*
X22949819Y37080602D02*
X22949819Y36890126D01*
X22949819Y36890126D02*
X22997438Y36794888D01*
X22997438Y36794888D02*
X23045057Y36747269D01*
X23045057Y36747269D02*
X23187914Y36652031D01*
X23187914Y36652031D02*
X23378390Y36604412D01*
X23378390Y36604412D02*
X23759342Y36604412D01*
X23759342Y36604412D02*
X23854580Y36652031D01*
X23854580Y36652031D02*
X23902200Y36699650D01*
X23902200Y36699650D02*
X23949819Y36794888D01*
X23949819Y36794888D02*
X23949819Y36985364D01*
X23949819Y36985364D02*
X23902200Y37080602D01*
X23902200Y37080602D02*
X23854580Y37128221D01*
X23854580Y37128221D02*
X23759342Y37175840D01*
X23759342Y37175840D02*
X23521247Y37175840D01*
X23521247Y37175840D02*
X23426009Y37128221D01*
X23426009Y37128221D02*
X23378390Y37080602D01*
X23378390Y37080602D02*
X23330771Y36985364D01*
X23330771Y36985364D02*
X23330771Y36794888D01*
X23330771Y36794888D02*
X23378390Y36699650D01*
X23378390Y36699650D02*
X23426009Y36652031D01*
X23426009Y36652031D02*
X23521247Y36604412D01*
X4939819Y52371667D02*
X5654104Y52371667D01*
X5654104Y52371667D02*
X5796961Y52324048D01*
X5796961Y52324048D02*
X5892200Y52228810D01*
X5892200Y52228810D02*
X5939819Y52085953D01*
X5939819Y52085953D02*
X5939819Y51990715D01*
X5939819Y53371667D02*
X5939819Y52800239D01*
X5939819Y53085953D02*
X4939819Y53085953D01*
X4939819Y53085953D02*
X5082676Y52990715D01*
X5082676Y52990715D02*
X5177914Y52895477D01*
X5177914Y52895477D02*
X5225533Y52800239D01*
D11*
G04 #@! TO.C,D2*
X8155000Y32550000D02*
X8155000Y30090000D01*
X8155000Y30090000D02*
X9625000Y30090000D01*
X9625000Y30090000D02*
X9625000Y32550000D01*
G04 #@! TO.C,J3*
X1210000Y55305000D02*
X2540000Y55305000D01*
X1210000Y53975000D02*
X1210000Y55305000D01*
X1210000Y52705000D02*
X1210000Y50105000D01*
X1210000Y52705000D02*
X3870000Y52705000D01*
X1210000Y50105000D02*
X3870000Y50105000D01*
X3870000Y52705000D02*
X3870000Y50105000D01*
G04 #@! TO.C,R10*
X38847500Y39115276D02*
X38847500Y39624724D01*
X39892500Y39115276D02*
X39892500Y39624724D01*
G04 #@! TO.C,D13*
X51335000Y32550000D02*
X51335000Y30090000D01*
X51335000Y30090000D02*
X52805000Y30090000D01*
X52805000Y30090000D02*
X52805000Y32550000D01*
G04 #@! TO.C,D12*
X43715000Y32550000D02*
X43715000Y30090000D01*
X43715000Y30090000D02*
X45185000Y30090000D01*
X45185000Y30090000D02*
X45185000Y32550000D01*
G04 #@! TO.C,R12*
X43927500Y39115276D02*
X43927500Y39624724D01*
X44972500Y39115276D02*
X44972500Y39624724D01*
G04 #@! TO.C,D5*
X20855000Y32550000D02*
X20855000Y30090000D01*
X20855000Y30090000D02*
X22325000Y30090000D01*
X22325000Y30090000D02*
X22325000Y32550000D01*
G04 #@! TO.C,R4*
X13447500Y39115276D02*
X13447500Y39624724D01*
X14492500Y39115276D02*
X14492500Y39624724D01*
G04 #@! TO.C,D10*
X38635000Y32550000D02*
X38635000Y30090000D01*
X38635000Y30090000D02*
X40105000Y30090000D01*
X40105000Y30090000D02*
X40105000Y32550000D01*
G04 #@! TO.C,D9*
X36095000Y32550000D02*
X36095000Y30090000D01*
X36095000Y30090000D02*
X37565000Y30090000D01*
X37565000Y30090000D02*
X37565000Y32550000D01*
G04 #@! TO.C,R5*
X21067500Y39115276D02*
X21067500Y39624724D01*
X22112500Y39115276D02*
X22112500Y39624724D01*
G04 #@! TO.C,R9*
X36307500Y39115276D02*
X36307500Y39624724D01*
X37352500Y39115276D02*
X37352500Y39624724D01*
G04 #@! TO.C,U3*
X34745000Y23975000D02*
X35025000Y23975000D01*
X34745000Y21590000D02*
X34745000Y23975000D01*
X34745000Y21590000D02*
X34745000Y19205000D01*
X34745000Y19205000D02*
X35025000Y19205000D01*
X45265000Y23975000D02*
X44985000Y23975000D01*
X45265000Y21590000D02*
X45265000Y23975000D01*
X45265000Y21590000D02*
X45265000Y19205000D01*
X45265000Y19205000D02*
X44985000Y19205000D01*
X45315000Y24512500D02*
X44985000Y24752500D01*
X45315000Y24992500D01*
X45315000Y24512500D01*
G36*
X45315000Y24512500D02*
G01*
X44985000Y24752500D01*
X45315000Y24992500D01*
X45315000Y24512500D01*
G37*
G04 #@! TO.C,U2*
X19505000Y23975000D02*
X19785000Y23975000D01*
X19505000Y21590000D02*
X19505000Y23975000D01*
X19505000Y21590000D02*
X19505000Y19205000D01*
X19505000Y19205000D02*
X19785000Y19205000D01*
X30025000Y23975000D02*
X29745000Y23975000D01*
X30025000Y21590000D02*
X30025000Y23975000D01*
X30025000Y21590000D02*
X30025000Y19205000D01*
X30025000Y19205000D02*
X29745000Y19205000D01*
X30075000Y24512500D02*
X29745000Y24752500D01*
X30075000Y24992500D01*
X30075000Y24512500D01*
G36*
X30075000Y24512500D02*
G01*
X29745000Y24752500D01*
X30075000Y24992500D01*
X30075000Y24512500D01*
G37*
G04 #@! TO.C,R7*
X26147500Y39115276D02*
X26147500Y39624724D01*
X27192500Y39115276D02*
X27192500Y39624724D01*
G04 #@! TO.C,D16*
X58955000Y32550000D02*
X58955000Y30090000D01*
X58955000Y30090000D02*
X60425000Y30090000D01*
X60425000Y30090000D02*
X60425000Y32550000D01*
G04 #@! TO.C,R17*
X65517500Y9905276D02*
X65517500Y10414724D01*
X66562500Y9905276D02*
X66562500Y10414724D01*
G04 #@! TO.C,D4*
X13235000Y32550000D02*
X13235000Y30090000D01*
X13235000Y30090000D02*
X14705000Y30090000D01*
X14705000Y30090000D02*
X14705000Y32550000D01*
G04 #@! TO.C,J2*
X6925000Y6410000D02*
X32445000Y6410000D01*
X6925000Y3810000D02*
X6925000Y6410000D01*
X6925000Y1210000D02*
X6925000Y2540000D01*
X8255000Y1210000D02*
X6925000Y1210000D01*
X9525000Y3810000D02*
X6925000Y3810000D01*
X9525000Y1210000D02*
X9525000Y3810000D01*
X9525000Y1210000D02*
X32445000Y1210000D01*
X32445000Y1210000D02*
X32445000Y6410000D01*
G04 #@! TO.C,R13*
X51547500Y39115276D02*
X51547500Y39624724D01*
X52592500Y39115276D02*
X52592500Y39624724D01*
G04 #@! TO.C,R3*
X10907500Y39115276D02*
X10907500Y39624724D01*
X11952500Y39115276D02*
X11952500Y39624724D01*
G04 #@! TO.C,R18*
X68057500Y9905276D02*
X68057500Y10414724D01*
X69102500Y9905276D02*
X69102500Y10414724D01*
G04 #@! TO.C,D15*
X56415000Y32550000D02*
X56415000Y30090000D01*
X56415000Y30090000D02*
X57885000Y30090000D01*
X57885000Y30090000D02*
X57885000Y32550000D01*
G04 #@! TO.C,U1*
X4265000Y23975000D02*
X4545000Y23975000D01*
X4265000Y21590000D02*
X4265000Y23975000D01*
X4265000Y21590000D02*
X4265000Y19205000D01*
X4265000Y19205000D02*
X4545000Y19205000D01*
X14785000Y23975000D02*
X14505000Y23975000D01*
X14785000Y21590000D02*
X14785000Y23975000D01*
X14785000Y21590000D02*
X14785000Y19205000D01*
X14785000Y19205000D02*
X14505000Y19205000D01*
X14835000Y24512500D02*
X14505000Y24752500D01*
X14835000Y24992500D01*
X14835000Y24512500D01*
G36*
X14835000Y24512500D02*
G01*
X14505000Y24752500D01*
X14835000Y24992500D01*
X14835000Y24512500D01*
G37*
G04 #@! TO.C,D11*
X41175000Y32550000D02*
X41175000Y30090000D01*
X41175000Y30090000D02*
X42645000Y30090000D01*
X42645000Y30090000D02*
X42645000Y32550000D01*
G04 #@! TO.C,D1*
X5615000Y32550000D02*
X5615000Y30090000D01*
X5615000Y30090000D02*
X7085000Y30090000D01*
X7085000Y30090000D02*
X7085000Y32550000D01*
G04 #@! TO.C,R16*
X59167500Y39115276D02*
X59167500Y39624724D01*
X60212500Y39115276D02*
X60212500Y39624724D01*
G04 #@! TO.C,D7*
X25935000Y32550000D02*
X25935000Y30090000D01*
X25935000Y30090000D02*
X27405000Y30090000D01*
X27405000Y30090000D02*
X27405000Y32550000D01*
G04 #@! TO.C,R2*
X8367500Y39115276D02*
X8367500Y39624724D01*
X9412500Y39115276D02*
X9412500Y39624724D01*
G04 #@! TO.C,D6*
X23395000Y32550000D02*
X23395000Y30090000D01*
X23395000Y30090000D02*
X24865000Y30090000D01*
X24865000Y30090000D02*
X24865000Y32550000D01*
G04 #@! TO.C,U4*
X49985000Y23975000D02*
X50265000Y23975000D01*
X49985000Y21590000D02*
X49985000Y23975000D01*
X49985000Y21590000D02*
X49985000Y19205000D01*
X49985000Y19205000D02*
X50265000Y19205000D01*
X60505000Y23975000D02*
X60225000Y23975000D01*
X60505000Y21590000D02*
X60505000Y23975000D01*
X60505000Y21590000D02*
X60505000Y19205000D01*
X60505000Y19205000D02*
X60225000Y19205000D01*
X60555000Y24512500D02*
X60225000Y24752500D01*
X60555000Y24992500D01*
X60555000Y24512500D01*
G36*
X60555000Y24512500D02*
G01*
X60225000Y24752500D01*
X60555000Y24992500D01*
X60555000Y24512500D01*
G37*
G04 #@! TO.C,R8*
X28687500Y39115276D02*
X28687500Y39624724D01*
X29732500Y39115276D02*
X29732500Y39624724D01*
G04 #@! TO.C,R11*
X41387500Y39115276D02*
X41387500Y39624724D01*
X42432500Y39115276D02*
X42432500Y39624724D01*
G04 #@! TO.C,R19*
X70597500Y9905276D02*
X70597500Y10414724D01*
X71642500Y9905276D02*
X71642500Y10414724D01*
G04 #@! TO.C,D14*
X53875000Y32550000D02*
X53875000Y30090000D01*
X53875000Y30090000D02*
X55345000Y30090000D01*
X55345000Y30090000D02*
X55345000Y32550000D01*
G04 #@! TO.C,R15*
X56627500Y39115276D02*
X56627500Y39624724D01*
X57672500Y39115276D02*
X57672500Y39624724D01*
G04 #@! TO.C,U5*
X65225000Y23975000D02*
X65505000Y23975000D01*
X65225000Y21590000D02*
X65225000Y23975000D01*
X65225000Y21590000D02*
X65225000Y19205000D01*
X65225000Y19205000D02*
X65505000Y19205000D01*
X75745000Y23975000D02*
X75465000Y23975000D01*
X75745000Y21590000D02*
X75745000Y23975000D01*
X75745000Y21590000D02*
X75745000Y19205000D01*
X75745000Y19205000D02*
X75465000Y19205000D01*
X65505000Y18427500D02*
X65175000Y18187500D01*
X65175000Y18667500D01*
X65505000Y18427500D01*
G36*
X65505000Y18427500D02*
G01*
X65175000Y18187500D01*
X65175000Y18667500D01*
X65505000Y18427500D01*
G37*
G04 #@! TO.C,D3*
X10695000Y32550000D02*
X10695000Y30090000D01*
X10695000Y30090000D02*
X12165000Y30090000D01*
X12165000Y30090000D02*
X12165000Y32550000D01*
G04 #@! TO.C,R20*
X73137500Y9905276D02*
X73137500Y10414724D01*
X74182500Y9905276D02*
X74182500Y10414724D01*
G04 #@! TO.C,R1*
X5827500Y39115276D02*
X5827500Y39624724D01*
X6872500Y39115276D02*
X6872500Y39624724D01*
G04 #@! TO.C,R14*
X54087500Y39115276D02*
X54087500Y39624724D01*
X55132500Y39115276D02*
X55132500Y39624724D01*
G04 #@! TO.C,D8*
X28475000Y32550000D02*
X28475000Y30090000D01*
X28475000Y30090000D02*
X29945000Y30090000D01*
X29945000Y30090000D02*
X29945000Y32550000D01*
G04 #@! TO.C,R6*
X23607500Y39115276D02*
X23607500Y39624724D01*
X24652500Y39115276D02*
X24652500Y39624724D01*
G04 #@! TO.C,J1*
X6925000Y55305000D02*
X6925000Y53985000D01*
X6925000Y53505000D02*
X6925000Y52705000D01*
X6925000Y55305000D02*
X8245000Y55305000D01*
X8725000Y55305000D02*
X10045000Y55305000D01*
X10525000Y55305000D02*
X11845000Y55305000D01*
X12325000Y55305000D02*
X13645000Y55305000D01*
X14125000Y55305000D02*
X15445000Y55305000D01*
X15925000Y55305000D02*
X17245000Y55305000D01*
X17725000Y55305000D02*
X19045000Y55305000D01*
X19525000Y55305000D02*
X20845000Y55305000D01*
X21325000Y55305000D02*
X22645000Y55305000D01*
X23125000Y55305000D02*
X24445000Y55305000D01*
X24925000Y55305000D02*
X26245000Y55305000D01*
X26725000Y55305000D02*
X28045000Y55305000D01*
X28525000Y55305000D02*
X29845000Y55305000D01*
X30325000Y55305000D02*
X31645000Y55305000D01*
X32125000Y55305000D02*
X33445000Y55305000D01*
X33925000Y55305000D02*
X35245000Y55305000D01*
X35725000Y55305000D02*
X37045000Y55305000D01*
X37525000Y55305000D02*
X38845000Y55305000D01*
X39325000Y55305000D02*
X40645000Y55305000D01*
X41125000Y55305000D02*
X42445000Y55305000D01*
X42925000Y55305000D02*
X44245000Y55305000D01*
X44725000Y55305000D02*
X46045000Y55305000D01*
X46525000Y55305000D02*
X47845000Y55305000D01*
X48325000Y55305000D02*
X49645000Y55305000D01*
X50125000Y55305000D02*
X51445000Y55305000D01*
X51925000Y55305000D02*
X53245000Y55305000D01*
X53725000Y55305000D02*
X55045000Y55305000D01*
X55525000Y55305000D02*
X56845000Y55305000D01*
X57325000Y55305000D02*
X57845000Y55305000D01*
X6925000Y52705000D02*
X8245000Y52705000D01*
X8725000Y52705000D02*
X9525000Y52705000D01*
X6925000Y51435000D02*
X6925000Y50115000D01*
X6925000Y50105000D02*
X8245000Y50105000D01*
X9525000Y52705000D02*
X9525000Y51385000D01*
X9525000Y50905000D02*
X9525000Y50105000D01*
X9525000Y50105000D02*
X10845000Y50105000D01*
X11325000Y50105000D02*
X12645000Y50105000D01*
X13125000Y50105000D02*
X14445000Y50105000D01*
X14925000Y50105000D02*
X16245000Y50105000D01*
X16725000Y50105000D02*
X18045000Y50105000D01*
X18525000Y50105000D02*
X19845000Y50105000D01*
X20325000Y50105000D02*
X21645000Y50105000D01*
X22125000Y50105000D02*
X23445000Y50105000D01*
X23925000Y50105000D02*
X25245000Y50105000D01*
X25725000Y50105000D02*
X27045000Y50105000D01*
X27525000Y50105000D02*
X28845000Y50105000D01*
X29325000Y50105000D02*
X30645000Y50105000D01*
X31125000Y50105000D02*
X32445000Y50105000D01*
X32925000Y50105000D02*
X34245000Y50105000D01*
X34725000Y50105000D02*
X36045000Y50105000D01*
X36525000Y50105000D02*
X37845000Y50105000D01*
X38325000Y50105000D02*
X39645000Y50105000D01*
X40125000Y50105000D02*
X41445000Y50105000D01*
X41925000Y50105000D02*
X43245000Y50105000D01*
X43725000Y50105000D02*
X45045000Y50105000D01*
X45525000Y50105000D02*
X46845000Y50105000D01*
X47325000Y50105000D02*
X48645000Y50105000D01*
X49125000Y50105000D02*
X50445000Y50105000D01*
X50925000Y50105000D02*
X52245000Y50105000D01*
X52725000Y50105000D02*
X54045000Y50105000D01*
X54525000Y50105000D02*
X55845000Y50105000D01*
X56325000Y50105000D02*
X57645000Y50105000D01*
X57845000Y55305000D02*
X57845000Y53985000D01*
X57845000Y53505000D02*
X57845000Y52185000D01*
X57845000Y51705000D02*
X57845000Y50385000D01*
G04 #@! TD*
M02*
